<svg width="631" height="58" viewBox="0 0 631 58" fill="none" xmlns="http://www.w3.org/2000/svg">
<path d="M13.3348 4.65373C11.8228 15.5257 6.49484 32.2297 4.55084 43.7497C2.03084 44.0377 1.16684 44.3977 0.662842 46.7737C0.374842 48.5737 0.374842 53.3257 0.0868422 55.5577C0.0148422 58.1497 4.26284 58.6537 4.83884 56.0617C5.19884 54.1177 5.05484 50.5897 5.19884 48.4297C12.3268 48.1417 18.3748 48.1417 26.7988 48.2857C26.8708 50.4457 26.2948 53.7577 26.7268 55.7017C27.1588 58.2217 31.8388 57.8617 31.4788 55.1977C31.1908 52.9657 31.8388 48.1417 31.6948 45.9817C31.5508 43.3897 30.1108 43.5337 27.5188 43.6057C25.3588 34.2457 21.1828 15.3817 18.6628 4.36573C18.0868 1.41373 13.9108 0.693733 13.3348 4.65373ZM16.0708 11.5657C17.5828 20.6377 21.8308 40.6537 22.6228 43.6057C18.5908 43.9657 12.6868 43.7497 9.51884 43.7497C10.0948 38.1337 14.6308 19.9177 16.0708 11.5657Z" fill="white"/>
<path d="M50.4688 3.86174C49.7488 1.55774 46.5808 0.477736 45.3568 3.93373C41.9728 14.8057 35.0608 40.9417 34.0528 45.1897C32.6128 49.5817 37.2928 50.2297 38.3008 47.4217C40.2448 41.7337 40.9648 37.6297 42.4048 32.3017C44.3488 32.3017 50.1808 32.0857 53.1328 32.1577C54.2848 36.9097 55.5088 40.7977 56.9488 46.9177C57.5248 49.9417 62.0608 49.8697 61.8448 46.3417C60.4768 41.3737 58.8928 35.2537 58.1008 32.0857C62.3488 31.7977 64.4368 27.6937 56.8048 27.6937C55.5088 23.8777 52.7008 10.1977 50.4688 3.86174ZM48.0208 10.1257C49.4608 15.5257 50.7568 24.5257 51.8368 27.6937C49.6048 27.5497 45.6448 27.7657 43.4848 27.6937C44.6368 24.0217 46.4368 15.8137 48.0208 10.1257Z" fill="white"/>
<path d="M67.7449 2.27773C63.7129 2.85374 63.8569 6.59773 67.4569 6.59773C67.3849 11.1337 67.8889 22.6537 67.9609 28.8457C64.4329 29.1337 64.0729 33.0937 68.1049 33.3097C68.2489 38.3497 68.5369 42.8137 69.1849 46.2697C69.8329 49.5817 74.1529 49.0777 73.6489 45.4057C73.0729 42.0217 72.8569 37.9177 72.7129 33.1657C77.6809 33.1657 83.0809 32.3737 86.7529 29.2777C93.4489 22.8697 92.9449 9.33373 86.1769 4.65373C81.2089 0.909735 74.8729 1.26973 67.7449 2.27773ZM71.8489 6.59773C76.3129 5.73373 79.7689 5.58973 82.5049 7.53374C87.9049 11.7097 88.2649 21.9337 82.7929 26.6137C80.5609 28.4137 76.1689 28.9897 72.3529 28.7737C72.3529 23.1577 71.9209 10.8457 71.8489 6.59773Z" fill="white"/>
<path d="M122.638 3.78974C122.494 1.70173 118.462 1.19774 117.526 3.64573C112.198 17.3977 104.71 28.9897 100.39 39.6457C100.678 35.9017 101.758 8.39773 101.83 4.14974C101.83 1.05373 97.0782 1.48574 96.9342 4.58173C96.8622 16.4617 96.2142 35.8297 96.2142 46.1977C96.3582 48.9337 99.8142 49.0777 100.966 46.9177C105.574 37.4137 114.358 22.7977 118.678 10.7017C118.39 22.6537 115.942 36.4777 116.806 46.4137C117.094 49.4377 121.846 48.7897 121.774 45.6217C121.054 30.5017 123.79 19.0537 122.638 3.78974Z" fill="white"/>
<path d="M154.649 3.28573C151.121 14.5177 149.033 27.8377 146.441 40.1497C144.497 28.9897 141.329 12.1417 139.457 3.93373C139.025 1.05373 135.137 1.55773 134.417 4.50974C130.961 17.3257 131.249 32.7337 127.721 45.6937C127.145 48.8617 131.537 49.4377 132.401 46.2697C134.561 35.8297 136.361 18.3337 137.009 9.62173C140.393 22.5097 140.177 35.3977 143.849 45.5497C144.641 48.0697 147.881 47.4937 148.745 45.2617C152.273 38.0617 153.785 19.6297 156.449 10.0537C157.385 18.4777 158.177 38.9977 161.633 47.2777C162.497 49.7257 167.177 48.2857 166.241 45.4057C161.345 33.2377 161.705 15.7417 159.257 3.86174C158.825 1.34173 155.441 1.12574 154.649 3.28573Z" fill="white"/>
<path d="M194.106 3.28573C184.674 10.9177 183.09 38.2057 193.962 46.0537C198.21 49.5817 204.114 48.7897 207.354 45.8377C210.234 43.0297 211.026 37.0537 210.954 33.3817C210.882 30.4297 206.202 30.4297 206.274 33.0217C206.418 35.8297 205.986 39.7897 204.186 42.1657C202.386 44.5417 198.21 44.1097 195.834 41.0857C189.282 34.3177 191.082 13.1497 195.906 8.03773C198.138 5.94973 200.946 5.80574 202.89 8.25373C204.258 9.90973 204.906 11.6377 205.842 14.3737C206.49 16.7497 211.17 15.5977 210.594 12.7897C209.514 8.90173 207.642 6.02173 205.698 4.00573C202.386 0.621734 197.778 0.189735 194.106 3.28573Z" fill="white"/>
<path d="M248.881 3.28573C247.801 9.98173 247.441 19.4857 245.785 28.2697C240.025 23.8777 237.073 11.2057 234.841 3.14174C233.833 -0.0262659 229.585 1.62973 230.161 4.79774C233.689 17.0377 235.273 27.1177 244.921 33.3817C244.489 36.7657 243.049 41.0857 241.393 43.0297C239.953 44.5417 237.937 44.6857 237.001 42.8857C236.425 41.6617 236.209 39.5017 236.281 36.9817C236.281 34.1017 231.457 33.4537 231.529 36.4057C231.673 40.7977 231.961 44.5417 234.193 46.8457C236.425 49.0057 240.241 49.0777 243.121 47.1337C246.433 45.0457 248.161 39.6457 249.097 34.8217C252.625 35.0377 253.489 31.7257 250.177 30.1417C251.401 24.3097 251.977 17.9017 253.633 4.22173C253.777 1.55773 249.025 0.405732 248.881 3.28573Z" fill="white"/>
<path d="M265.546 4.65373C264.034 15.5257 258.706 32.2297 256.762 43.7497C254.242 44.0377 253.378 44.3977 252.874 46.7737C252.586 48.5737 252.586 53.3257 252.298 55.5577C252.226 58.1497 256.474 58.6537 257.05 56.0617C257.41 54.1177 257.266 50.5897 257.41 48.4297C264.538 48.1417 270.586 48.1417 279.01 48.2857C279.082 50.4457 278.506 53.7577 278.938 55.7017C279.37 58.2217 284.05 57.8617 283.69 55.1977C283.402 52.9657 284.05 48.1417 283.906 45.9817C283.762 43.3897 282.322 43.5337 279.73 43.6057C277.57 34.2457 273.394 15.3817 270.874 4.36573C270.298 1.41373 266.122 0.693733 265.546 4.65373ZM268.282 11.5657C269.794 20.6377 274.042 40.6537 274.834 43.6057C270.802 43.9657 264.898 43.7497 261.73 43.7497C262.306 38.1337 266.842 19.9177 268.282 11.5657Z" fill="white"/>
<path d="M299.618 1.77374C297.818 0.693733 295.154 1.12574 295.298 3.28573C293.282 4.58173 290.906 6.30973 289.106 9.54974C283.49 20.9977 284.57 39.7177 292.13 46.1977C295.73 49.8697 301.994 49.5097 305.306 45.2617C312.938 36.4777 314.018 17.6857 306.818 8.03773C305.018 5.44574 302.786 3.50174 299.618 1.77374ZM303.65 12.6457C307.898 21.0697 307.754 34.1737 302.642 41.0137C300.338 45.2617 296.522 45.4777 294.146 41.2297C289.394 34.3177 289.106 21.3577 292.922 13.1497C296.378 4.72573 299.834 4.50974 303.65 12.6457Z" fill="white"/>
<path d="M319.216 2.06173C314.968 2.42173 315.04 6.52574 319.864 6.38173C320.152 9.54974 320.296 16.1737 320.368 19.2697C316.264 19.5577 315.832 22.8697 320.44 24.0217C320.44 30.0697 320.296 35.7577 319.576 42.0217C315.76 40.5817 313.672 44.3257 318.928 46.3417C318.424 49.5817 321.952 50.2297 323.032 46.9897C327.424 47.5657 331.168 48.0697 335.344 46.4857C345.208 42.7417 347.296 29.9257 339.016 24.0937C337.504 22.7257 334.696 21.5017 332.824 20.9977C333.904 20.6377 335.272 20.0617 336.208 19.3417C341.824 15.6697 340.456 5.87773 332.968 3.28573C329.152 1.91773 325.768 1.70173 319.216 2.06173ZM324.328 6.23773C326.2 6.16574 328.648 6.30973 330.736 6.95773C336.064 8.61373 336.208 16.0297 330.952 18.1897C328.864 18.9097 326.416 18.9817 324.976 18.9097C324.832 15.5977 324.616 9.04573 324.328 6.23773ZM325.12 24.0217C328.792 24.0937 333.184 24.8137 335.776 26.3977C341.464 30.2857 339.952 39.8617 333.4 42.4537C330.232 43.6057 326.92 43.3897 323.752 42.6697C324.184 38.4937 324.976 30.5737 325.12 24.0217Z" fill="white"/>
<path d="M362.477 1.77374C360.677 0.693733 358.013 1.12574 358.157 3.28573C356.141 4.58173 353.765 6.30973 351.965 9.54974C346.349 20.9977 347.429 39.7177 354.989 46.1977C358.589 49.8697 364.853 49.5097 368.165 45.2617C375.797 36.4777 376.877 17.6857 369.677 8.03773C367.877 5.44574 365.645 3.50174 362.477 1.77374ZM366.509 12.6457C370.757 21.0697 370.613 34.1737 365.501 41.0137C363.197 45.2617 359.381 45.4777 357.005 41.2297C352.253 34.3177 351.965 21.3577 355.781 13.1497C359.237 4.72573 362.693 4.50974 366.509 12.6457Z" fill="white"/>
<path d="M386.567 4.94173C384.047 17.6857 379.007 32.5177 376.631 46.1977C376.055 48.8617 380.735 49.6537 381.311 46.8457C382.463 38.7817 387.719 18.6217 389.591 11.4937C391.319 20.0617 397.295 39.9337 397.367 46.7017C397.439 50.0137 402.407 49.1497 402.335 45.9817C401.687 36.1177 394.271 15.5977 391.895 4.72573C391.175 0.333734 387.431 0.765732 386.567 4.94173Z" fill="white"/>
<path d="M410.604 3.64573C410.676 0.765733 405.708 1.19773 405.708 4.22173C405.708 6.88573 405.564 14.0857 405.348 21.7177C405.06 31.3657 404.484 39.4297 406.716 43.8937C409.38 49.2937 418.38 49.7257 423.42 46.5577C430.692 42.0937 432.636 26.7577 425.292 21.4297C421.764 18.8377 416.868 17.9737 410.532 19.7017C410.172 13.7977 410.532 9.40573 410.604 3.64573ZM410.028 24.3097C416.076 22.3657 418.812 23.3737 422.052 25.1737C426.588 28.5577 425.436 39.1417 420.468 42.5257C417.372 44.5417 412.98 44.6857 411.18 41.3017C409.668 38.2777 409.884 27.9097 410.028 24.3097Z" fill="white"/>
<path d="M440.973 3.28573C431.541 10.9177 429.957 38.2057 440.829 46.0537C445.077 49.5817 450.981 48.7897 454.221 45.8377C457.101 43.0297 457.893 37.0537 457.821 33.3817C457.749 30.4297 453.069 30.4297 453.141 33.0217C453.285 35.8297 452.853 39.7897 451.053 42.1657C449.253 44.5417 445.077 44.1097 442.701 41.0857C436.149 34.3177 437.949 13.1497 442.773 8.03773C445.005 5.94973 447.813 5.80574 449.757 8.25373C451.125 9.90973 451.773 11.6377 452.709 14.3737C453.357 16.7497 458.037 15.5977 457.461 12.7897C456.381 8.90173 454.509 6.02173 452.565 4.00573C449.253 0.621734 444.645 0.189735 440.973 3.28573Z" fill="white"/>
<path d="M461.667 1.55773C459.003 1.26973 457.491 6.30973 460.515 6.38173C465.699 6.66973 465.987 6.45374 469.227 6.45374C470.811 17.8297 469.155 36.1897 469.227 46.7017C469.227 49.7257 474.267 48.6457 474.267 45.9097C474.267 37.1257 475.635 18.2617 474.051 6.59773C477.219 6.30973 481.179 6.59773 482.403 6.59773C485.067 6.59773 486.147 1.84574 483.411 1.91773C478.371 1.34173 468.075 2.20574 461.667 1.55773Z" fill="white"/>
<path d="M490.146 2.06173C485.898 2.42173 485.97 6.52574 490.794 6.38173C491.082 9.54974 491.226 16.1737 491.298 19.2697C487.194 19.5577 486.762 22.8697 491.37 24.0217C491.37 30.0697 491.226 35.7577 490.506 42.0217C486.69 40.5817 484.602 44.3257 489.858 46.3417C489.354 49.5817 492.882 50.2297 493.962 46.9897C498.354 47.5657 502.098 48.0697 506.274 46.4857C516.138 42.7417 518.226 29.9257 509.946 24.0937C508.434 22.7257 505.626 21.5017 503.754 20.9977C504.834 20.6377 506.202 20.0617 507.138 19.3417C512.754 15.6697 511.386 5.87773 503.898 3.28573C500.082 1.91773 496.698 1.70173 490.146 2.06173ZM495.258 6.23773C497.13 6.16574 499.578 6.30973 501.666 6.95773C506.994 8.61373 507.138 16.0297 501.882 18.1897C499.794 18.9097 497.346 18.9817 495.906 18.9097C495.762 15.5977 495.546 9.04573 495.258 6.23773ZM496.05 24.0217C499.722 24.0937 504.114 24.8137 506.706 26.3977C512.394 30.2857 510.882 39.8617 504.33 42.4537C501.162 43.6057 497.85 43.3897 494.682 42.6697C495.114 38.4937 495.906 30.5737 496.05 24.0217Z" fill="white"/>
<path d="M547.115 3.78974C546.971 1.70173 542.939 1.19774 542.003 3.64573C536.675 17.3977 529.187 28.9897 524.867 39.6457C525.155 35.9017 526.235 8.39773 526.307 4.14974C526.307 1.05373 521.555 1.48574 521.411 4.58173C521.339 16.4617 520.691 35.8297 520.691 46.1977C520.835 48.9337 524.291 49.0777 525.443 46.9177C530.051 37.4137 538.835 22.7977 543.155 10.7017C542.867 22.6537 540.419 36.4777 541.283 46.4137C541.571 49.4377 546.323 48.7897 546.251 45.6217C545.531 30.5017 548.267 19.0537 547.115 3.78974Z" fill="white"/>
<path d="M574.598 2.27773C569.198 2.13374 559.55 1.84574 554.222 2.42173C550.478 3.35773 551.126 7.02973 554.15 6.81374C554.726 12.4297 554.798 42.7417 555.734 47.2777C555.95 48.2137 556.814 49.0057 557.678 49.0057C568.406 49.1497 569.918 48.2137 575.678 48.4297C579.422 48.6457 580.502 44.1817 576.614 43.8937C574.238 43.7497 566.174 44.8297 560.27 44.3977C559.91 42.4537 559.622 27.9097 559.622 26.5417C563.726 26.5417 568.622 26.6137 573.806 26.0377C577.478 25.8217 577.694 21.4297 574.094 21.5737C570.422 21.8617 564.086 22.0777 559.55 21.8617C559.406 15.8857 559.334 11.1337 559.118 6.59773C562.43 6.45374 572.006 6.81374 574.382 6.74173C577.334 6.52574 577.838 2.13374 574.598 2.27773Z" fill="white"/>
<path d="M608.727 3.28573C605.199 14.5177 603.111 27.8377 600.519 40.1497C598.575 28.9897 595.407 12.1417 593.535 3.93373C593.103 1.05373 589.215 1.55773 588.495 4.50974C585.039 17.3257 585.327 32.7337 581.799 45.6937C581.223 48.8617 585.615 49.4377 586.479 46.2697C588.639 35.8297 590.439 18.3337 591.087 9.62173C594.471 22.5097 594.255 35.3977 597.927 45.5497C598.719 48.0697 601.959 47.4937 602.823 45.2617C606.351 38.0617 607.863 19.6297 610.527 10.0537C611.463 18.4777 612.255 38.9977 615.711 47.2777C616.575 49.7257 621.255 48.2857 620.319 45.4057C615.423 33.2377 615.783 15.7417 613.335 3.86174C612.903 1.34173 609.519 1.12574 608.727 3.28573Z" fill="white"/>
<path d="M630.034 3.06973C629.674 -1.17826 624.779 -0.890268 625.067 3.14174C626.003 13.0777 625.499 27.2617 625.283 34.8937C625.211 37.7017 629.674 36.9097 629.747 34.4617C630.035 25.4617 630.97 12.5737 630.034 3.06973ZM627.154 42.4537C623.555 43.5337 624.131 49.7257 627.731 48.3577C628.883 47.9257 629.747 46.9177 629.747 45.5497C629.747 43.1737 628.954 41.8777 627.154 42.4537Z" fill="white"/>
</svg>
