<svg width="312" height="68" viewBox="0 0 312 68" fill="none" xmlns="http://www.w3.org/2000/svg">
<path d="M6.84908 1.88362C1.60908 6.12362 0.729082 21.2836 6.76908 25.6436C9.12908 27.6036 12.4091 27.1636 14.2091 25.5236C15.8091 23.9636 16.2491 20.6436 16.2091 18.6036C16.1691 16.9636 13.5691 16.9636 13.6091 18.4036C13.6891 19.9636 13.4491 22.1636 12.4491 23.4836C11.4491 24.8036 9.12908 24.5636 7.80908 22.8836C4.16908 19.1236 5.16908 7.36362 7.84908 4.52362C9.08908 3.36362 10.6491 3.28362 11.7291 4.64362C12.4891 5.56362 12.8491 6.52362 13.3691 8.04362C13.7291 9.36362 16.3291 8.72362 16.0091 7.16362C15.4091 5.00362 14.3691 3.40362 13.2891 2.28362C11.4491 0.403622 8.88908 0.163622 6.84908 1.88362ZM26.326 1.04362C25.326 0.443621 23.846 0.683623 23.926 1.88362C22.806 2.60362 21.486 3.56362 20.486 5.36362C17.366 11.7236 17.966 22.1236 22.166 25.7236C24.166 27.7636 27.646 27.5636 29.486 25.2036C33.726 20.3236 34.326 9.88362 30.326 4.52362C29.326 3.08362 28.086 2.00362 26.326 1.04362ZM28.566 7.08362C30.926 11.7636 30.846 19.0436 28.006 22.8436C26.726 25.2036 24.606 25.3236 23.286 22.9636C20.646 19.1236 20.486 11.9236 22.606 7.36362C24.526 2.68362 26.446 2.56362 28.566 7.08362ZM37.5247 2.36362C35.8847 3.76362 35.2447 6.76362 35.6447 8.68362C35.9247 10.0436 38.2447 9.88362 38.1247 8.48362C37.9247 7.28362 38.0047 5.64362 38.8847 4.72362C40.3647 3.00362 42.1247 3.48362 42.8847 5.04362C43.7647 6.60362 43.9647 10.7236 42.2447 12.0436C41.3647 12.5236 40.8047 12.4036 39.9647 12.7636C38.3247 13.4036 39.3247 15.4036 40.4847 15.0036C41.4047 14.8036 42.0047 14.8836 42.6447 15.2836C44.6447 16.6836 43.9647 22.0436 42.5247 23.5636C41.4447 24.6036 39.7647 24.8036 38.6847 23.6836C38.0847 23.0036 37.7647 21.4836 37.6847 20.4836C37.6447 19.1236 35.1247 19.1236 35.2047 20.7636C35.2847 22.4836 35.8047 24.6836 37.2447 25.8036C38.7247 27.0836 42.0447 27.6836 44.4447 25.6036C46.8447 23.5236 48.3247 15.5636 43.9647 13.4036C46.8447 11.6436 46.8847 5.08362 44.6447 2.64362C43.0047 0.923622 39.9247 0.403622 37.5247 2.36362ZM53.4519 2.64362C52.6119 8.68362 49.6519 17.9636 48.5719 24.3636C47.1719 24.5236 46.6919 24.7236 46.4119 26.0436C46.2519 27.0436 46.2519 29.6836 46.0919 30.9236C46.0519 32.3636 48.4119 32.6436 48.7319 31.2036C48.9319 30.1236 48.8519 28.1636 48.9319 26.9636C52.8919 26.8036 56.2519 26.8036 60.9319 26.8836C60.9719 28.0836 60.6519 29.9236 60.8919 31.0036C61.1319 32.4036 63.7319 32.2036 63.5319 30.7236C63.3719 29.4836 63.7319 26.8036 63.6519 25.6036C63.5719 24.1636 62.7719 24.2436 61.3319 24.2836C60.1319 19.0836 57.8119 8.60362 56.4119 2.48362C56.0919 0.843621 53.7719 0.443621 53.4519 2.64362ZM54.9719 6.48362C55.8119 11.5236 58.1719 22.6436 58.6119 24.2836C56.3719 24.4836 53.0919 24.3636 51.3319 24.3636C51.6519 21.2436 54.1719 11.1236 54.9719 6.48362ZM74.0819 2.20362C73.6819 0.923622 71.9219 0.323623 71.2419 2.24362C69.3619 8.28362 65.5219 22.8036 64.9619 25.1636C64.1619 27.6036 66.7619 27.9636 67.3219 26.4036C68.4019 23.2436 68.8019 20.9636 69.6019 18.0036C70.6819 18.0036 73.9219 17.8836 75.5619 17.9236C76.2019 20.5636 76.8819 22.7236 77.6819 26.1236C78.0019 27.8036 80.5219 27.7636 80.4019 25.8036C79.6419 23.0436 78.7619 19.6436 78.3219 17.8836C80.6819 17.7236 81.8419 15.4436 77.6019 15.4436C76.8819 13.3236 75.3219 5.72362 74.0819 2.20362ZM72.7219 5.68362C73.5219 8.68362 74.2419 13.6836 74.8419 15.4436C73.6019 15.3636 71.4019 15.4836 70.2019 15.4436C70.8419 13.4036 71.8419 8.84362 72.7219 5.68362ZM94.6397 1.32362C91.6397 1.24362 86.2797 1.08362 83.3197 1.40362C81.2397 1.92362 81.5997 3.96362 83.2797 3.84362C83.5997 6.96362 83.6397 23.8036 84.1597 26.3236C84.2797 26.8436 84.7597 27.2836 85.2397 27.2836C91.1997 27.3636 92.0397 26.8436 95.2397 26.9636C97.3197 27.0836 97.9197 24.6036 95.7597 24.4436C94.4397 24.3636 89.9597 24.9636 86.6797 24.7236C86.4797 23.6436 86.3197 15.5636 86.3197 14.8036C88.5997 14.8036 91.3197 14.8436 94.1997 14.5236C96.2397 14.4036 96.3597 11.9636 94.3597 12.0436C92.3197 12.2036 88.7997 12.3236 86.2797 12.2036C86.1997 8.88362 86.1597 6.24362 86.0397 3.72362C87.8797 3.64362 93.1997 3.84362 94.5197 3.80362C96.1597 3.68362 96.4397 1.24362 94.6397 1.32362ZM113.6 1.88362C111.64 8.12362 110.48 15.5236 109.04 22.3636C107.96 16.1636 106.2 6.80362 105.16 2.24362C104.92 0.643621 102.76 0.923622 102.36 2.56362C100.44 9.68362 100.6 18.2436 98.6403 25.4436C98.3203 27.2036 100.76 27.5236 101.24 25.7636C102.44 19.9636 103.44 10.2436 103.8 5.40362C105.68 12.5636 105.56 19.7236 107.6 25.3636C108.04 26.7636 109.84 26.4436 110.32 25.2036C112.28 21.2036 113.12 10.9636 114.6 5.64362C115.12 10.3236 115.56 21.7236 117.48 26.3236C117.96 27.6836 120.56 26.8836 120.04 25.2836C117.32 18.5236 117.52 8.80362 116.16 2.20362C115.92 0.803621 114.04 0.683623 113.6 1.88362ZM142.921 1.04362C139.921 1.16362 136.241 1.32362 131.721 1.32362C129.401 1.44362 129.681 3.72362 131.641 3.84362C131.801 10.8836 132.441 19.4036 132.241 25.6836C132.201 27.8836 134.961 27.2836 135.001 25.4436C135.121 21.8836 134.441 9.84362 134.361 3.80362C135.961 3.88362 140.161 3.68362 141.801 3.68362C141.761 10.6836 142.441 18.8436 142.921 25.5236C143.041 27.4436 145.721 27.1636 145.641 25.3236C145.281 20.2836 144.361 8.84362 144.521 3.40362C144.561 2.36362 144.601 0.963622 142.921 1.04362ZM149.695 1.32362C147.455 1.64362 147.535 3.72362 149.535 3.72362C149.495 6.24362 149.775 12.6436 149.815 16.0836C147.855 16.2436 147.655 18.4436 149.895 18.5636C149.975 21.3636 150.135 23.8436 150.495 25.7636C150.855 27.6036 153.255 27.3236 152.975 25.2836C152.655 23.4036 152.535 21.1236 152.455 18.4836C155.215 18.4836 158.215 18.0436 160.255 16.3236C163.975 12.7636 163.695 5.24362 159.935 2.64362C157.175 0.563622 153.655 0.763622 149.695 1.32362ZM151.975 3.72362C154.455 3.24362 156.375 3.16362 157.895 4.24362C160.895 6.56362 161.095 12.2436 158.055 14.8436C156.815 15.8436 154.375 16.1636 152.255 16.0436C152.255 12.9236 152.015 6.08362 151.975 3.72362ZM172.285 2.20362C171.885 0.923622 170.125 0.323623 169.445 2.24362C167.565 8.28362 163.725 22.8036 163.165 25.1636C162.365 27.6036 164.965 27.9636 165.525 26.4036C166.605 23.2436 167.005 20.9636 167.805 18.0036C168.885 18.0036 172.125 17.8836 173.765 17.9236C174.405 20.5636 175.085 22.7236 175.885 26.1236C176.205 27.8036 178.725 27.7636 178.605 25.8036C177.845 23.0436 176.965 19.6436 176.525 17.8836C178.885 17.7236 180.045 15.4436 175.805 15.4436C175.085 13.3236 173.525 5.72362 172.285 2.20362ZM170.925 5.68362C171.725 8.68362 172.445 13.6836 173.045 15.4436C171.805 15.3636 169.605 15.4836 168.405 15.4436C169.045 13.4036 170.045 8.84362 170.925 5.68362ZM182.603 2.36362C180.963 3.76362 180.323 6.76362 180.723 8.68362C181.003 10.0436 183.323 9.88362 183.203 8.48362C183.003 7.28362 183.083 5.64362 183.963 4.72362C185.443 3.00362 187.203 3.48362 187.963 5.04362C188.843 6.60362 189.043 10.7236 187.323 12.0436C186.443 12.5236 185.883 12.4036 185.043 12.7636C183.403 13.4036 184.403 15.4036 185.563 15.0036C186.483 14.8036 187.083 14.8836 187.723 15.2836C189.723 16.6836 189.043 22.0436 187.603 23.5636C186.523 24.6036 184.843 24.8036 183.763 23.6836C183.163 23.0036 182.843 21.4836 182.763 20.4836C182.723 19.1236 180.203 19.1236 180.283 20.7636C180.363 22.4836 180.883 24.6836 182.323 25.8036C183.803 27.0836 187.123 27.6836 189.523 25.6036C191.923 23.5236 193.403 15.5636 189.043 13.4036C191.923 11.6436 191.963 5.08362 189.723 2.64362C188.083 0.923622 185.003 0.403622 182.603 2.36362ZM198.53 2.64362C197.69 8.68362 194.73 17.9636 193.65 24.3636C192.25 24.5236 191.77 24.7236 191.49 26.0436C191.33 27.0436 191.33 29.6836 191.17 30.9236C191.13 32.3636 193.49 32.6436 193.81 31.2036C194.01 30.1236 193.93 28.1636 194.01 26.9636C197.97 26.8036 201.33 26.8036 206.01 26.8836C206.05 28.0836 205.73 29.9236 205.97 31.0036C206.21 32.4036 208.81 32.2036 208.61 30.7236C208.45 29.4836 208.81 26.8036 208.73 25.6036C208.65 24.1636 207.85 24.2436 206.41 24.2836C205.21 19.0836 202.89 8.60362 201.49 2.48362C201.17 0.843621 198.85 0.443621 198.53 2.64362ZM200.05 6.48362C200.89 11.5236 203.25 22.6436 203.69 24.2836C201.45 24.4836 198.17 24.3636 196.41 24.3636C196.73 21.2436 199.25 11.1236 200.05 6.48362ZM222.873 2.16362C222.873 0.323623 220.273 0.683623 220.273 2.36362C220.273 6.44362 220.313 8.64362 220.593 13.0036C219.153 12.9236 215.633 12.8836 214.033 12.8036C213.873 9.36362 213.753 5.96362 213.673 2.36362C213.633 0.443621 211.153 0.803621 210.993 2.60362C211.153 7.20362 211.193 10.2036 211.353 12.8436C211.033 12.8436 210.713 12.7236 210.233 12.8436C209.073 13.2436 208.833 14.8836 210.513 15.1636C210.873 15.1636 211.193 15.2036 211.473 15.2436C211.873 21.3636 211.833 19.6436 211.793 25.9636C211.753 27.8436 214.433 27.2836 214.473 25.6836C214.513 23.0036 214.353 18.4436 214.193 15.3236C216.073 15.4036 219.193 15.3636 220.793 15.4436C220.953 17.3636 221.553 23.1236 221.713 25.6036C221.873 27.6836 224.673 27.3636 224.393 25.3236C223.633 19.7236 222.873 9.00362 222.873 2.16362ZM242.692 2.16362C242.612 1.00362 240.372 0.723622 239.852 2.08362C236.892 9.72362 232.732 16.1636 230.332 22.0836C230.492 20.0036 231.092 4.72362 231.132 2.36362C231.132 0.643621 228.492 0.883623 228.412 2.60362C228.372 9.20362 228.012 19.9636 228.012 25.7236C228.092 27.2436 230.012 27.3236 230.652 26.1236C233.212 20.8436 238.092 12.7236 240.492 6.00362C240.332 12.6436 238.972 20.3236 239.452 25.8436C239.612 27.5236 242.252 27.1636 242.212 25.4036C241.812 17.0036 243.332 10.6436 242.692 2.16362ZM248.906 2.56362C248.906 0.523623 246.146 0.963622 246.226 2.92362C246.306 7.48362 244.946 14.8036 248.066 17.2836C250.106 18.9636 253.546 18.7236 255.786 16.9636C255.746 19.3636 255.706 23.0836 255.706 25.5636C255.706 27.6036 258.546 27.5636 258.546 25.5636C258.546 19.0436 258.746 9.16362 258.146 2.40362C257.946 0.483621 255.226 0.523623 255.386 2.52362C255.786 8.00362 255.866 9.48362 255.746 13.9236C254.306 16.1236 251.226 16.6436 249.666 15.1636C248.266 13.8436 248.906 4.64362 248.906 2.56362ZM274.357 2.16362C274.357 0.323623 271.757 0.683623 271.757 2.36362C271.757 6.44362 271.797 8.64362 272.077 13.0036C270.637 12.9236 267.117 12.8836 265.517 12.8036C265.357 9.36362 265.237 5.96362 265.157 2.36362C265.117 0.443621 262.637 0.803621 262.477 2.60362C262.637 7.20362 262.677 10.2036 262.837 12.8436C262.517 12.8436 262.197 12.7236 261.717 12.8436C260.557 13.2436 260.317 14.8836 261.997 15.1636C262.357 15.1636 262.677 15.2036 262.957 15.2436C263.357 21.3636 263.317 19.6436 263.277 25.9636C263.237 27.8436 265.917 27.2836 265.957 25.6836C265.997 23.0036 265.837 18.4436 265.677 15.3236C267.557 15.4036 270.677 15.3636 272.277 15.4436C272.437 17.3636 273.037 23.1236 273.197 25.6036C273.357 27.6836 276.157 27.3636 275.877 25.3236C275.117 19.7236 274.357 9.00362 274.357 2.16362ZM286.56 1.04362C285.56 0.443621 284.08 0.683623 284.16 1.88362C283.04 2.60362 281.72 3.56362 280.72 5.36362C277.6 11.7236 278.2 22.1236 282.4 25.7236C284.4 27.7636 287.88 27.5636 289.72 25.2036C293.96 20.3236 294.56 9.88362 290.56 4.52362C289.56 3.08362 288.32 2.00362 286.56 1.04362ZM288.8 7.08362C291.16 11.7636 291.08 19.0436 288.24 22.8436C286.96 25.2036 284.84 25.3236 283.52 22.9636C280.88 19.1236 280.72 11.9236 282.84 7.36362C284.76 2.68362 286.68 2.56362 288.8 7.08362ZM307.999 1.32362C304.999 1.24362 299.639 1.08362 296.679 1.40362C294.599 1.92362 294.959 3.96362 296.639 3.84362C296.959 6.96362 296.999 23.8036 297.519 26.3236C297.639 26.8436 298.119 27.2836 298.599 27.2836C304.559 27.3636 305.399 26.8436 308.599 26.9636C310.679 27.0836 311.279 24.6036 309.119 24.4436C307.799 24.3636 303.319 24.9636 300.039 24.7236C299.839 23.6436 299.679 15.5636 299.679 14.8036C301.959 14.8036 304.679 14.8436 307.559 14.5236C309.599 14.4036 309.719 11.9636 307.719 12.0436C305.679 12.2036 302.159 12.3236 299.639 12.2036C299.559 8.88362 299.519 6.24362 299.399 3.72362C301.239 3.64362 306.559 3.84362 307.879 3.80362C309.519 3.68362 309.799 1.24362 307.999 1.32362ZM87.0916 42.1636C87.0916 40.3236 84.4916 40.6836 84.4916 42.3636C84.4916 46.4436 84.5316 48.6436 84.8116 53.0036C83.3716 52.9236 79.8516 52.8836 78.2516 52.8036C78.0916 49.3636 77.9716 45.9636 77.8916 42.3636C77.8516 40.4436 75.3716 40.8036 75.2116 42.6036C75.3716 47.2036 75.4116 50.2036 75.5716 52.8436C75.2516 52.8436 74.9316 52.7236 74.4516 52.8436C73.2916 53.2436 73.0516 54.8836 74.7316 55.1636C75.0916 55.1636 75.4116 55.2036 75.6916 55.2436C76.0916 61.3636 76.0516 59.6436 76.0116 65.9636C75.9716 67.8436 78.6516 67.2836 78.6916 65.6836C78.7316 63.0036 78.5716 58.4436 78.4116 55.3236C80.2916 55.4036 83.4116 55.3636 85.0116 55.4436C85.1716 57.3636 85.7716 63.1236 85.9316 65.6036C86.0916 67.6836 88.8916 67.3636 88.6116 65.3236C87.8516 59.7236 87.0916 49.0036 87.0916 42.1636ZM100.019 42.2036C99.6194 40.9236 97.8594 40.3236 97.1794 42.2436C95.2994 48.2836 91.4594 62.8036 90.8994 65.1636C90.0994 67.6036 92.6994 67.9636 93.2594 66.4036C94.3394 63.2436 94.7394 60.9636 95.5394 58.0036C96.6194 58.0036 99.8594 57.8836 101.499 57.9236C102.139 60.5636 102.819 62.7236 103.619 66.1236C103.939 67.8036 106.459 67.7636 106.339 65.8036C105.579 63.0436 104.699 59.6436 104.259 57.8836C106.619 57.7236 107.779 55.4436 103.539 55.4436C102.819 53.3236 101.259 45.7236 100.019 42.2036ZM98.6594 45.6836C99.4594 48.6836 100.179 53.6836 100.779 55.4436C99.5394 55.3636 97.3394 55.4836 96.1394 55.4436C96.7794 53.4036 97.7794 48.8436 98.6594 45.6836ZM112.396 41.8836C107.156 46.1236 106.276 61.2836 112.316 65.6436C114.676 67.6036 117.956 67.1636 119.756 65.5236C121.356 63.9636 121.796 60.6436 121.756 58.6036C121.716 56.9636 119.116 56.9636 119.156 58.4036C119.236 59.9636 118.996 62.1636 117.996 63.4836C116.996 64.8036 114.676 64.5636 113.356 62.8836C109.716 59.1236 110.716 47.3636 113.396 44.5236C114.636 43.3636 116.196 43.2836 117.276 44.6436C118.036 45.5636 118.396 46.5236 118.916 48.0436C119.276 49.3636 121.876 48.7236 121.556 47.1636C120.956 45.0036 119.916 43.4036 118.836 42.2836C116.996 40.4036 114.436 40.1636 112.396 41.8836ZM123.893 40.9236C122.413 40.7636 121.573 43.5636 123.253 43.6036C126.133 43.7636 126.293 43.6436 128.093 43.6436C128.973 49.9636 128.053 60.1636 128.093 66.0036C128.093 67.6836 130.893 67.0836 130.893 65.5636C130.893 60.6836 131.653 50.2036 130.773 43.7236C132.533 43.5636 134.733 43.7236 135.413 43.7236C136.893 43.7236 137.493 41.0836 135.973 41.1236C133.173 40.8036 127.453 41.2836 123.893 40.9236ZM139.695 41.3236C137.455 41.6436 137.535 43.7236 139.535 43.7236C139.495 46.2436 139.775 52.6436 139.815 56.0836C137.855 56.2436 137.655 58.4436 139.895 58.5636C139.975 61.3636 140.135 63.8436 140.495 65.7636C140.855 67.6036 143.255 67.3236 142.975 65.2836C142.655 63.4036 142.535 61.1236 142.455 58.4836C145.215 58.4836 148.215 58.0436 150.255 56.3236C153.975 52.7636 153.695 45.2436 149.935 42.6436C147.175 40.5636 143.655 40.7636 139.695 41.3236ZM141.975 43.7236C144.455 43.2436 146.375 43.1636 147.895 44.2436C150.895 46.5636 151.095 52.2436 148.055 54.8436C146.815 55.8436 144.375 56.1636 142.255 56.0436C142.255 52.9236 142.015 46.0836 141.975 43.7236ZM162.576 41.0436C161.576 40.4436 160.096 40.6836 160.176 41.8836C159.056 42.6036 157.736 43.5636 156.736 45.3636C153.616 51.7236 154.216 62.1236 158.416 65.7236C160.416 67.7636 163.896 67.5636 165.736 65.2036C169.976 60.3236 170.576 49.8836 166.576 44.5236C165.576 43.0836 164.336 42.0036 162.576 41.0436ZM164.816 47.0836C167.176 51.7636 167.096 59.0436 164.256 62.8436C162.976 65.2036 160.856 65.3236 159.536 62.9636C156.896 59.1236 156.736 51.9236 158.856 47.3636C160.776 42.6836 162.696 42.5636 164.816 47.0836ZM184.015 41.3236C181.015 41.2436 175.655 41.0836 172.695 41.4036C170.615 41.9236 170.975 43.9636 172.655 43.8436C172.975 46.9636 173.015 63.8036 173.535 66.3236C173.655 66.8436 174.135 67.2836 174.615 67.2836C180.575 67.3636 181.415 66.8436 184.615 66.9636C186.695 67.0836 187.295 64.6036 185.135 64.4436C183.815 64.3636 179.335 64.9636 176.055 64.7236C175.855 63.6436 175.695 55.5636 175.695 54.8036C177.975 54.8036 180.695 54.8436 183.575 54.5236C185.615 54.4036 185.735 51.9636 183.735 52.0436C181.695 52.2036 178.175 52.3236 175.655 52.2036C175.575 48.8836 175.535 46.2436 175.415 43.7236C177.255 43.6436 182.575 43.8436 183.895 43.8036C185.535 43.6836 185.815 41.2436 184.015 41.3236ZM201.349 42.1636C201.349 40.3236 198.749 40.6836 198.749 42.3636C198.749 46.4436 198.789 48.6436 199.069 53.0036C197.629 52.9236 194.109 52.8836 192.509 52.8036C192.349 49.3636 192.229 45.9636 192.149 42.3636C192.109 40.4436 189.629 40.8036 189.469 42.6036C189.629 47.2036 189.669 50.2036 189.829 52.8436C189.509 52.8436 189.189 52.7236 188.709 52.8436C187.549 53.2436 187.309 54.8836 188.989 55.1636C189.349 55.1636 189.669 55.2036 189.949 55.2436C190.349 61.3636 190.309 59.6436 190.269 65.9636C190.229 67.8436 192.909 67.2836 192.949 65.6836C192.989 63.0036 192.829 58.4436 192.669 55.3236C194.549 55.4036 197.669 55.3636 199.269 55.4436C199.429 57.3636 200.029 63.1236 200.189 65.6036C200.349 67.6836 203.149 67.3636 202.869 65.3236C202.109 59.7236 201.349 49.0036 201.349 42.1636ZM221.168 42.1636C221.088 41.0036 218.848 40.7236 218.328 42.0836C215.368 49.7236 211.208 56.1636 208.808 62.0836C208.968 60.0036 209.568 44.7236 209.608 42.3636C209.608 40.6436 206.968 40.8836 206.888 42.6036C206.848 49.2036 206.488 59.9636 206.488 65.7236C206.568 67.2436 208.488 67.3236 209.128 66.1236C211.688 60.8436 216.568 52.7236 218.968 46.0036C218.808 52.6436 217.448 60.3236 217.928 65.8436C218.088 67.5236 220.728 67.1636 220.688 65.4036C220.288 57.0036 221.808 50.6436 221.168 42.1636ZM236.437 41.3236C233.437 41.2436 228.077 41.0836 225.117 41.4036C223.037 41.9236 223.397 43.9636 225.077 43.8436C225.397 46.9636 225.437 63.8036 225.957 66.3236C226.077 66.8436 226.557 67.2836 227.037 67.2836C232.997 67.3636 233.837 66.8436 237.037 66.9636C239.117 67.0836 239.717 64.6036 237.557 64.4436C236.237 64.3636 231.757 64.9636 228.477 64.7236C228.277 63.6436 228.117 55.5636 228.117 54.8036C230.397 54.8036 233.117 54.8436 235.997 54.5236C238.037 54.4036 238.157 51.9636 236.157 52.0436C234.117 52.2036 230.597 52.3236 228.077 52.2036C227.997 48.8836 227.957 46.2436 227.837 43.7236C229.677 43.6436 234.997 43.8436 236.317 43.8036C237.957 43.6836 238.237 41.2436 236.437 41.3236Z" fill="white"/>
</svg>
