<svg width="472" height="49" viewBox="0 0 472 49" fill="none" xmlns="http://www.w3.org/2000/svg">
<path d="M28.2982 2.92482C28.2982 0.428825 24.0102 1.00483 24.0102 3.24482C23.9462 10.9248 24.1382 17.1968 24.9702 27.3088C18.5062 27.4368 15.2422 27.6288 10.3782 27.3728C9.80222 24.3648 9.86622 12.3968 9.73822 3.56482C9.73822 0.876823 5.45022 1.70882 5.45022 4.01283C5.51422 11.3088 5.64222 24.5568 5.89822 27.4368C4.74622 27.3728 4.23422 27.4368 3.59422 27.4368C1.86622 27.4368 0.586219 31.4048 3.14622 31.4688C3.97822 31.5328 5.57822 31.4048 6.34622 31.4688C7.05022 37.6768 6.73022 42.1568 6.66622 45.4208C6.60222 47.9808 11.0182 47.1488 11.0182 44.9728C11.0822 39.7888 11.2742 36.3968 10.8262 31.5328C14.7942 31.7248 21.8342 31.4688 25.3542 31.4688C25.8662 35.8208 26.1862 39.8528 26.3142 44.2048C26.3782 47.4688 30.7302 46.9568 30.6662 43.8848C29.9622 34.6048 28.2342 17.5168 28.2982 2.92482ZM49.5147 3.50082C48.8107 0.812824 46.0587 1.32483 45.0347 3.82082C42.5387 10.2848 41.0027 20.5248 39.3387 25.3248C34.2187 25.4528 34.1547 28.6528 38.1867 29.1648C36.7787 34.0288 35.3067 39.0848 34.7947 43.7568C33.9627 47.5328 38.6347 47.2768 39.0827 44.5888C40.0427 39.0848 40.8107 34.4128 42.5387 29.2288C44.2027 29.2288 49.8987 29.1008 52.4587 29.2288C53.3547 33.1328 54.5707 39.3408 56.0427 44.5888C56.7467 47.2768 61.2907 46.8928 60.3307 43.6928C59.1147 39.5968 57.8347 35.0528 56.6827 29.2288C61.8027 28.9088 62.6347 24.6208 55.8507 25.0048C54.4427 20.3328 52.0107 11.8848 49.5147 3.50082ZM47.3387 9.70882C48.6187 14.1888 50.4107 21.5488 51.4347 24.9408C49.4507 24.8768 45.0987 25.0688 43.6907 25.0048C44.7787 21.7408 45.9307 13.8048 47.3387 9.70882ZM81.7877 3.18082C81.7237 0.556824 77.0517 1.13282 77.3077 3.62882C78.0117 10.0288 73.4037 17.1968 68.6677 21.2288C68.5397 15.0208 68.2837 8.10883 67.5797 3.24482C67.1317 0.300823 62.7157 2.02882 63.1637 4.78082C65.2757 18.0288 64.3797 33.7088 64.3797 44.8448C64.3797 47.6608 68.7317 46.7648 68.7317 44.3968C68.6677 38.8288 68.7957 29.4208 68.7957 25.7088C68.9237 25.6448 69.6277 25.1328 70.9717 24.4928C76.1557 30.3808 81.6597 37.8688 83.3877 45.1008C83.8997 47.4048 87.5477 46.6368 87.3557 44.0768C86.1397 36.5888 78.7157 27.2448 74.4277 21.8048C79.4837 16.9408 81.7877 10.0928 81.7877 3.18082ZM107.099 3.18082C103.003 1.26082 96.9867 1.38882 91.0987 2.66882C87.2587 3.37283 87.6427 6.44482 90.6507 6.70082C90.5867 13.7408 91.4827 23.7248 91.9307 27.0528C87.8987 26.6688 88.8587 30.7648 92.2507 31.1488C92.2507 33.3248 92.3147 40.3648 93.1467 44.3968C93.7227 47.5328 97.8827 47.0208 97.4347 43.6928C96.7947 40.4288 96.6667 35.6288 96.4747 31.1488C101.083 31.3408 105.691 29.2928 108.315 26.7968C114.075 21.2288 115.099 8.10883 107.099 3.18082ZM104.411 6.50882C109.915 9.45282 109.147 19.3728 105.307 23.4688C103.707 25.0688 99.5467 27.5008 96.0267 27.0528C95.7067 23.8528 94.8107 13.2928 94.9387 6.50882C98.7147 5.48483 101.723 5.29282 104.411 6.50882ZM121.224 3.18082C121.288 0.876823 116.744 0.492825 116.808 3.69283C117.384 14.9568 114.952 39.0208 120.136 43.8848C123.848 47.6608 131.656 47.4688 136.008 43.6928C141.576 38.4448 142.408 25.9008 136.776 20.7808C132.488 17.1328 127.24 17.2608 121.16 18.6688C121.032 14.3168 121.16 8.17282 121.224 3.18082ZM148.36 3.18082C148.168 0.556824 143.944 1.38882 144.136 4.26883C145.352 17.1968 144.008 32.5568 144.008 44.8448C144.008 48.0448 148.488 47.7888 148.488 44.5888C148.488 33.3248 149.64 16.5568 148.36 3.18082ZM133.192 23.4048C138.12 27.3088 136.328 36.5888 133.128 40.0448C130.056 43.2448 125.064 43.5648 123.016 40.3008C120.904 36.9088 121.16 28.9728 121.288 22.7008C126.728 21.2288 129.928 21.4208 133.192 23.4048ZM155.889 2.09282C153.009 2.34882 153.137 6.44482 157.617 6.38083C157.809 9.51682 157.809 14.5088 157.937 17.5168C153.969 17.4528 153.521 21.7408 158.001 21.9328C158.001 28.5248 157.681 33.9008 156.849 40.4288C156.465 40.2368 155.953 40.1088 155.633 40.0448C153.265 39.5328 152.305 42.0928 155.057 43.7568C155.441 44.0768 155.825 44.2688 156.337 44.4608C155.825 47.2768 159.345 47.4048 160.433 45.0368C163.889 46.5088 169.137 46.3168 172.465 44.5888C182.001 40.2368 183.921 27.8848 175.985 22.3168C174.193 20.9088 171.185 19.7568 168.945 19.3728C170.353 19.1168 171.697 18.4768 172.721 17.8368C178.737 14.7008 177.777 5.35682 170.033 2.98882C165.425 1.51682 160.049 1.70882 155.889 2.09282ZM161.649 6.38083C163.313 6.25282 165.745 6.31683 167.857 6.89283C173.233 8.30082 174.001 13.1648 169.137 15.9168C167.153 16.8768 164.529 17.3888 162.097 17.2608C162.033 14.5728 161.969 9.00483 161.649 6.38083ZM162.161 22.1248C165.873 21.9968 170.097 22.7008 172.657 24.2368C178.097 28.2048 177.457 37.4848 170.737 40.6848C167.537 42.0288 164.401 42.2848 161.073 41.0688C161.713 36.9088 162.225 28.9088 162.161 22.1248ZM198.827 3.50082C198.123 0.812824 195.371 1.32483 194.347 3.82082C191.851 10.2848 190.315 20.5248 188.651 25.3248C183.531 25.4528 183.467 28.6528 187.499 29.1648C186.091 34.0288 184.619 39.0848 184.107 43.7568C183.275 47.5328 187.947 47.2768 188.395 44.5888C189.355 39.0848 190.123 34.4128 191.851 29.2288C193.515 29.2288 199.211 29.1008 201.771 29.2288C202.667 33.1328 203.883 39.3408 205.355 44.5888C206.059 47.2768 210.603 46.8928 209.643 43.6928C208.427 39.5968 207.147 35.0528 205.995 29.2288C211.115 28.9088 211.947 24.6208 205.163 25.0048C203.755 20.3328 201.323 11.8848 198.827 3.50082ZM196.651 9.70882C197.931 14.1888 199.723 21.5488 200.747 24.9408C198.763 24.8768 194.411 25.0688 193.003 25.0048C194.091 21.7408 195.243 13.8048 196.651 9.70882ZM233.404 1.90083C229.372 1.77282 218.812 1.51682 216.124 1.90083C212.732 1.96482 211.836 5.22882 215.228 5.99683C215.292 9.26083 215.612 41.0688 216.636 45.0368C216.828 45.9328 217.852 46.6368 218.364 46.6368C227.196 46.6368 230.14 45.9968 234.364 45.8688C238.204 45.8688 238.78 41.3888 235.196 41.7088C232.38 41.9648 225.66 42.4128 220.668 42.4768C220.348 40.1728 220.156 32.9408 220.156 24.7488C224.06 24.6848 229.18 24.7488 234.236 23.9168C236.988 23.2768 235.708 19.5008 232.572 20.1408C229.564 20.6528 223.996 20.7168 220.028 20.4608C219.836 16.3008 219.772 8.94082 219.644 5.93282C222.716 5.86882 231.356 6.06083 233.404 6.06083C236.476 5.93282 236.604 1.70882 233.404 1.90083ZM265.825 2.86082C263.073 11.1808 260.385 27.1168 258.593 38.5728C255.713 27.5008 252.513 9.51682 251.361 3.69283C250.849 0.876823 247.393 1.77282 247.009 4.14082C244.193 17.0688 243.745 31.5968 241.057 44.5888C240.673 47.5968 244.385 47.9168 245.153 44.8448C246.689 36.6528 247.585 21.1008 249.249 11.5648C250.273 16.3648 253.409 37.2288 257.057 44.1408C258.465 46.9568 260.193 45.6128 260.769 43.8848C263.265 35.9488 264.865 19.9488 267.297 10.2848C268.065 17.0048 271.457 39.9168 273.633 45.8048C274.657 47.9808 278.625 46.3808 277.665 44.0768C275.233 36.5248 271.521 13.4208 269.921 3.56482C269.665 1.19682 266.465 1.19682 265.825 2.86082ZM319.923 2.92482C319.923 0.428825 315.635 1.00483 315.635 3.24482C315.571 10.9248 315.763 17.1968 316.595 27.3088C310.131 27.4368 306.867 27.6288 302.003 27.3728C301.427 24.3648 301.491 12.3968 301.363 3.56482C301.363 0.876823 297.075 1.70882 297.075 4.01283C297.139 11.3088 297.267 24.5568 297.523 27.4368C296.371 27.3728 295.859 27.4368 295.219 27.4368C293.491 27.4368 292.211 31.4048 294.771 31.4688C295.603 31.5328 297.203 31.4048 297.971 31.4688C298.675 37.6768 298.355 42.1568 298.291 45.4208C298.227 47.9808 302.643 47.1488 302.643 44.9728C302.707 39.7888 302.899 36.3968 302.451 31.5328C306.419 31.7248 313.459 31.4688 316.979 31.4688C317.491 35.8208 317.811 39.8528 317.939 44.2048C318.003 47.4688 322.355 46.9568 322.291 43.8848C321.587 34.6048 319.859 17.5168 319.923 2.92482ZM341.14 3.50082C340.436 0.812824 337.684 1.32483 336.66 3.82082C334.164 10.2848 332.628 20.5248 330.964 25.3248C325.844 25.4528 325.78 28.6528 329.812 29.1648C328.404 34.0288 326.932 39.0848 326.42 43.7568C325.588 47.5328 330.26 47.2768 330.708 44.5888C331.668 39.0848 332.436 34.4128 334.164 29.2288C335.828 29.2288 341.524 29.1008 344.084 29.2288C344.98 33.1328 346.196 39.3408 347.668 44.5888C348.372 47.2768 352.916 46.8928 351.956 43.6928C350.74 39.5968 349.46 35.0528 348.308 29.2288C353.428 28.9088 354.26 24.6208 347.476 25.0048C346.068 20.3328 343.636 11.8848 341.14 3.50082ZM338.964 9.70882C340.244 14.1888 342.036 21.5488 343.06 24.9408C341.076 24.8768 336.724 25.0688 335.316 25.0048C336.404 21.7408 337.556 13.8048 338.964 9.70882ZM375.594 3.50082C366.442 9.32483 365.29 38.3808 375.146 44.9088C378.154 46.7648 382.506 47.4048 386.154 44.7168C389.162 42.4128 390.762 39.5968 392.17 34.9248C392.938 32.4288 388.65 32.0448 387.818 34.3488C386.858 37.0368 386.154 38.6368 384.426 40.4928C382.122 42.9248 378.986 42.5408 376.554 40.1088C370.73 32.9408 372.458 11.5648 377.578 7.27682C379.882 5.48483 383.658 5.48483 385.642 7.40482C387.114 9.26083 387.178 12.3968 386.858 15.3408C386.538 18.3488 391.082 18.9248 391.082 15.4688C391.402 11.4368 391.466 7.21283 389.034 4.52483C386.154 1.38882 379.882 0.684826 375.594 3.50082ZM394.686 1.77282C392.638 1.64482 391.614 5.80482 393.726 5.86882C396.606 5.93282 400.958 5.86882 402.75 5.86882C404.606 21.0368 403.07 33.5168 402.878 44.8448C402.814 47.0848 407.166 46.7648 407.294 44.3968C407.486 33.9008 408.382 17.0048 406.91 5.99683C411.838 5.86882 410.238 5.93282 415.806 6.06083C417.598 6.06083 418.75 2.15682 416.766 2.09282C412.35 1.96482 400.062 2.15682 394.686 1.77282ZM432.29 1.77282C430.306 0.940823 428.13 1.38882 428.258 3.69283C425.954 4.90882 423.65 6.95683 421.922 10.0928C417.186 19.3728 419.042 36.5248 425.122 43.4368C429.09 47.7888 435.042 47.1488 439.138 43.5648C446.562 37.0368 446.498 16.2368 438.882 7.27682C436.706 4.52483 435.042 2.92482 432.29 1.77282ZM437.154 12.0768C441.506 21.0368 440.802 33.5168 437.154 39.0848C434.85 42.0928 430.69 43.2448 428.002 39.9808C423.97 34.0288 421.794 19.9488 425.57 12.6528C429.346 5.86882 433.57 4.78082 437.154 12.0768ZM467.684 1.38882C463.14 2.09282 458.532 2.28482 454.116 2.09282C452.004 2.02882 451.62 3.94883 451.684 5.54882C452.004 14.5728 452.9 38.8928 446.052 42.9248C443.172 45.0368 446.692 47.7888 449.06 46.1888C457.316 41.2608 456.228 18.4128 456.036 6.31683C458.66 6.38083 461.732 6.12482 464.548 5.99683C466.34 22.5088 464.612 27.5648 465.636 44.3328C465.764 47.1488 469.988 47.0848 470.052 44.0768C468.836 33.3888 470.244 18.3488 468.9 5.48483C471.972 4.46082 471.908 0.620823 467.684 1.38882Z" fill="white"/>
</svg>
