<svg width="374" height="61" viewBox="0 0 374 61" fill="none" xmlns="http://www.w3.org/2000/svg">
<path d="M18.8135 5.87558C17.7335 12.5716 17.3735 22.0756 15.7175 30.8596C9.95748 26.4676 7.00548 13.7956 4.77348 5.73158C3.76548 2.56358 -0.48252 4.21958 0.0934801 7.38758C3.62148 19.6276 5.20548 29.7076 14.8535 35.9716C14.4215 39.3556 12.9815 43.6756 11.3255 45.6196C9.88548 47.1316 7.86948 47.2756 6.93348 45.4756C6.35748 44.2516 6.14148 42.0916 6.21348 39.5716C6.21348 36.6916 1.38948 36.0436 1.46148 38.9956C1.60548 43.3876 1.89348 47.1316 4.12548 49.4356C6.35748 51.5956 10.1735 51.6676 13.0535 49.7236C16.3655 47.6356 18.0935 42.2356 19.0295 37.4116C22.5575 37.6276 23.4215 34.3156 20.1095 32.7316C21.3335 26.8996 21.9095 20.4916 23.5655 6.81158C23.7095 4.14758 18.9575 2.99558 18.8135 5.87558Z" fill="white"/>
<path d="M34.4589 2.70758C33.8829 -0.60442 29.4189 1.41158 29.7069 4.36358C32.0829 18.9796 30.4989 37.1956 30.4989 48.7876C30.4989 52.6036 35.4669 51.2356 35.4669 48.2116C35.4669 44.0356 35.6109 36.7636 35.7549 30.3556C37.2669 29.9956 38.4909 29.8516 39.6429 29.4196C43.7469 34.6756 47.7789 42.0916 49.5069 49.2916C50.1549 52.1716 54.9789 51.0196 54.0429 47.7796C51.5949 39.7156 48.4989 33.5956 43.5309 26.8276C49.2189 23.0836 52.0989 17.6116 51.8109 6.01958C51.6669 2.77958 46.6989 4.14758 46.8429 6.52358C47.0589 15.2356 44.7549 23.5156 35.7549 25.5316C35.8989 20.5636 35.5389 9.40358 34.4589 2.70758Z" fill="white"/>
<path d="M59.1616 4.86758C55.1296 5.44358 55.2736 9.18758 58.8736 9.18758C58.8016 13.7236 59.3056 25.2436 59.3776 31.4356C55.8496 31.7236 55.4896 35.6836 59.5216 35.8996C59.6656 40.9396 59.9536 45.4036 60.6016 48.8596C61.2496 52.1716 65.5696 51.6676 65.0656 47.9956C64.4896 44.6116 64.2736 40.5076 64.1296 35.7556C69.0976 35.7556 74.4976 34.9636 78.1696 31.8676C84.8656 25.4596 84.3616 11.9236 77.5936 7.24358C72.6256 3.49958 66.2896 3.85958 59.1616 4.86758ZM63.2656 9.18758C67.7296 8.32358 71.1856 8.17958 73.9216 10.1236C79.3216 14.2996 79.6816 24.5236 74.2096 29.2036C71.9776 31.0036 67.5856 31.5796 63.7696 31.3636C63.7696 25.7476 63.3376 13.4356 63.2656 9.18758Z" fill="white"/>
<path d="M99.823 6.45158C99.103 4.14758 95.935 3.06758 94.711 6.52358C91.327 17.3956 84.415 43.5316 83.407 47.7796C81.967 52.1716 86.647 52.8196 87.655 50.0116C89.599 44.3236 90.319 40.2196 91.759 34.8916C93.703 34.8916 99.535 34.6756 102.487 34.7476C103.639 39.4996 104.863 43.3876 106.303 49.5076C106.879 52.5316 111.415 52.4596 111.199 48.9316C109.831 43.9636 108.247 37.8436 107.455 34.6756C111.703 34.3876 113.791 30.2836 106.159 30.2836C104.863 26.4676 102.055 12.7876 99.823 6.45158ZM97.375 12.7156C98.815 18.1156 100.111 27.1156 101.191 30.2836C98.959 30.1396 94.999 30.3556 92.839 30.2836C93.991 26.6116 95.791 18.4036 97.375 12.7156Z" fill="white"/>
<path d="M150.922 6.23558C150.634 3.57158 145.738 4.29158 145.954 7.45958C147.25 18.9796 146.314 35.1076 146.314 45.2596C143.794 46.1236 141.85 46.1956 135.874 46.1956C136.018 32.7316 135.874 18.1156 135.586 7.17158C135.586 4.00358 130.546 4.14758 130.474 7.24358C130.762 18.3316 130.978 29.2036 130.834 46.2676C125.506 46.2676 120.97 46.7716 120.682 41.9476C120.322 35.2516 120.97 15.7396 120.466 7.45958C120.25 3.71558 115.282 4.43558 115.426 7.96358C115.93 19.9156 115.21 30.7156 115.57 40.9396C115.714 44.3236 116.29 48.7156 120.61 49.9396C126.154 51.1636 141.13 51.0916 148.114 49.7956C150.202 49.4356 151.642 47.8516 151.57 44.4676C151.138 31.2916 152.29 18.9076 150.922 6.23558Z" fill="white"/>
<path d="M171.05 6.45158C170.33 4.14758 167.162 3.06758 165.938 6.52358C162.554 17.3956 155.642 43.5316 154.634 47.7796C153.194 52.1716 157.874 52.8196 158.882 50.0116C160.826 44.3236 161.546 40.2196 162.986 34.8916C164.93 34.8916 170.762 34.6756 173.714 34.7476C174.866 39.4996 176.09 43.3876 177.53 49.5076C178.106 52.5316 182.642 52.4596 182.426 48.9316C181.058 43.9636 179.474 37.8436 178.682 34.6756C182.93 34.3876 185.018 30.2836 177.386 30.2836C176.09 26.4676 173.282 12.7876 171.05 6.45158ZM168.602 12.7156C170.042 18.1156 171.338 27.1156 172.418 30.2836C170.186 30.1396 166.226 30.3556 164.066 30.2836C165.218 26.6116 167.018 18.4036 168.602 12.7156Z" fill="white"/>
<path d="M208.054 4.86758C202.654 4.72358 193.006 4.43558 187.678 5.01158C183.934 5.94758 184.582 9.61958 187.606 9.40358C188.182 15.0196 188.254 45.3316 189.19 49.8676C189.406 50.8036 190.27 51.5956 191.134 51.5956C201.862 51.7396 203.374 50.8036 209.134 51.0196C212.878 51.2356 213.958 46.7716 210.07 46.4836C207.694 46.3396 199.63 47.4196 193.726 46.9876C193.366 45.0436 193.078 30.4996 193.078 29.1316C197.182 29.1316 202.078 29.2036 207.262 28.6276C210.934 28.4116 211.15 24.0196 207.55 24.1636C203.878 24.4516 197.542 24.6676 193.006 24.4516C192.862 18.4756 192.79 13.7236 192.574 9.18758C195.886 9.04358 205.462 9.40358 207.838 9.33158C210.79 9.11558 211.294 4.72358 208.054 4.86758Z" fill="white"/>
<path d="M242.183 5.87558C238.655 17.1076 236.567 30.4276 233.975 42.7396C232.031 31.5796 228.863 14.7316 226.991 6.52358C226.559 3.64358 222.671 4.14758 221.951 7.09958C218.495 19.9156 218.783 35.3236 215.255 48.2836C214.679 51.4516 219.071 52.0276 219.935 48.8596C222.095 38.4196 223.895 20.9236 224.543 12.2116C227.927 25.0996 227.711 37.9876 231.383 48.1396C232.175 50.6596 235.415 50.0836 236.279 47.8516C239.807 40.6516 241.319 22.2196 243.983 12.6436C244.919 21.0676 245.711 41.5876 249.167 49.8676C250.031 52.3156 254.711 50.8756 253.775 47.9956C248.879 35.8276 249.239 18.3316 246.791 6.45158C246.359 3.93158 242.975 3.71558 242.183 5.87558Z" fill="white"/>
<path d="M284.736 7.24358C283.224 18.1156 277.896 34.8196 275.952 46.3396C273.432 46.6276 272.568 46.9876 272.064 49.3636C271.776 51.1636 271.776 55.9156 271.488 58.1476C271.416 60.7396 275.664 61.2436 276.24 58.6516C276.6 56.7076 276.456 53.1796 276.6 51.0196C283.728 50.7316 289.776 50.7316 298.2 50.8756C298.272 53.0356 297.696 56.3476 298.128 58.2916C298.56 60.8116 303.24 60.4516 302.88 57.7876C302.592 55.5556 303.24 50.7316 303.096 48.5716C302.952 45.9796 301.512 46.1236 298.92 46.1956C296.76 36.8356 292.584 17.9716 290.064 6.95558C289.488 4.00358 285.312 3.28358 284.736 7.24358ZM287.472 14.1556C288.984 23.2276 293.232 43.2436 294.024 46.1956C289.992 46.5556 284.088 46.3396 280.92 46.3396C281.496 40.7236 286.032 22.5076 287.472 14.1556Z" fill="white"/>
<path d="M318.808 4.36358C317.008 3.28358 314.344 3.71558 314.488 5.87558C312.472 7.17158 310.096 8.89958 308.296 12.1396C302.68 23.5876 303.76 42.3076 311.32 48.7876C314.92 52.4596 321.184 52.0996 324.496 47.8516C332.128 39.0676 333.208 20.2756 326.008 10.6276C324.208 8.03558 321.976 6.09158 318.808 4.36358ZM322.84 15.2356C327.088 23.6596 326.944 36.7636 321.832 43.6036C319.528 47.8516 315.712 48.0676 313.336 43.8196C308.584 36.9076 308.296 23.9476 312.112 15.7396C315.568 7.31558 319.024 7.09958 322.84 15.2356Z" fill="white"/>
<path d="M362.277 5.87558C358.749 17.1076 356.661 30.4276 354.069 42.7396C352.125 31.5796 348.957 14.7316 347.085 6.52358C346.653 3.64358 342.765 4.14758 342.045 7.09958C338.589 19.9156 338.877 35.3236 335.349 48.2836C334.773 51.4516 339.165 52.0276 340.029 48.8596C342.189 38.4196 343.989 20.9236 344.637 12.2116C348.021 25.0996 347.805 37.9876 351.477 48.1396C352.269 50.6596 355.509 50.0836 356.373 47.8516C359.901 40.6516 361.413 22.2196 364.077 12.6436C365.013 21.0676 365.805 41.5876 369.261 49.8676C370.125 52.3156 374.805 50.8756 373.869 47.9956C368.973 35.8276 369.333 18.3316 366.885 6.45158C366.453 3.93158 363.069 3.71558 362.277 5.87558Z" fill="white"/>
</svg>
