<svg width="873" height="61" viewBox="0 0 873 61" fill="none" xmlns="http://www.w3.org/2000/svg">
<path d="M8.47414 2.98501C-1.82186 9.53701 -3.11786 42.225 7.97014 49.569C11.3541 51.657 16.2501 52.377 20.3541 49.353C23.7381 46.761 25.5381 43.593 27.1221 38.337C27.9861 35.529 23.1621 35.097 22.2261 37.689C21.1461 40.713 20.3541 42.513 18.4101 44.601C15.8181 47.337 12.2901 46.905 9.55414 44.169C3.00214 36.105 4.94614 12.057 10.7061 7.23301C13.2981 5.21701 17.5461 5.21701 19.7781 7.37701C21.4341 9.46501 21.5061 12.993 21.1461 16.305C20.7861 19.689 25.8981 20.337 25.8981 16.449C26.2581 11.913 26.3301 7.16101 23.5941 4.13701C20.3541 0.60901 13.2981 -0.182988 8.47414 2.98501Z" fill="white"/>
<path d="M45.031 4.13701C43.231 3.05701 40.567 3.48901 40.711 5.64901C38.695 6.94501 36.319 8.67301 34.519 11.913C28.903 23.361 29.983 42.081 37.543 48.561C41.143 52.233 47.407 51.873 50.719 47.625C58.351 38.841 59.431 20.049 52.231 10.401C50.431 7.80901 48.199 5.86501 45.031 4.13701ZM49.063 15.009C53.311 23.433 53.167 36.537 48.055 43.377C45.751 47.625 41.935 47.841 39.559 43.593C34.807 36.681 34.519 23.721 38.335 15.513C41.791 7.08901 45.247 6.87301 49.063 15.009Z" fill="white"/>
<path d="M65.1888 6.51301C62.2368 9.03301 61.0848 14.433 61.8048 17.889C62.3088 20.337 66.4848 20.049 66.2688 17.529C65.9088 15.369 66.0528 12.417 67.6368 10.761C70.3008 7.66501 73.4688 8.52901 74.8368 11.337C76.4208 14.145 76.7808 21.561 73.6848 23.937C72.1008 24.801 71.0928 24.585 69.5808 25.233C66.6288 26.385 68.4288 29.985 70.5168 29.265C72.1728 28.905 73.2528 29.049 74.4048 29.769C78.0048 32.289 76.7808 41.937 74.1888 44.673C72.2448 46.545 69.2208 46.905 67.2768 44.889C66.1968 43.665 65.6208 40.929 65.4768 39.129C65.4048 36.681 60.8688 36.681 61.0128 39.633C61.1568 42.729 62.0928 46.689 64.6848 48.705C67.3488 51.009 73.3248 52.089 77.6448 48.345C81.9648 44.601 84.6288 30.273 76.7808 26.385C81.9648 23.217 82.0368 11.409 78.0048 7.01701C75.0528 3.92101 69.5088 2.98501 65.1888 6.51301Z" fill="white"/>
<path d="M93.8577 7.01701C92.3457 17.889 87.0177 34.593 85.0737 46.113C82.5537 46.401 81.6897 46.761 81.1857 49.137C80.8977 50.937 80.8977 55.689 80.6097 57.921C80.5377 60.513 84.7857 61.017 85.3617 58.425C85.7217 56.481 85.5777 52.953 85.7217 50.793C92.8497 50.505 98.8977 50.505 107.322 50.649C107.394 52.809 106.818 56.121 107.25 58.065C107.682 60.585 112.362 60.225 112.002 57.561C111.714 55.329 112.362 50.505 112.218 48.345C112.074 45.753 110.634 45.897 108.042 45.969C105.882 36.609 101.706 17.745 99.1857 6.72901C98.6097 3.77701 94.4337 3.05701 93.8577 7.01701ZM96.5937 13.929C98.1057 23.001 102.354 43.017 103.146 45.969C99.1137 46.329 93.2097 46.113 90.0417 46.113C90.6177 40.497 95.1537 22.281 96.5937 13.929Z" fill="white"/>
<path d="M130.992 6.22501C130.272 3.92101 127.104 2.84101 125.88 6.29701C122.496 17.169 115.584 43.305 114.576 47.553C113.136 51.945 117.816 52.593 118.824 49.785C120.768 44.097 121.488 39.993 122.928 34.665C124.872 34.665 130.704 34.449 133.656 34.521C134.808 39.273 136.032 43.161 137.472 49.281C138.048 52.305 142.584 52.233 142.368 48.705C141 43.737 139.416 37.617 138.624 34.449C142.872 34.161 144.96 30.057 137.328 30.057C136.032 26.241 133.224 12.561 130.992 6.22501ZM128.544 12.489C129.984 17.889 131.28 26.889 132.36 30.057C130.128 29.913 126.168 30.129 124.008 30.057C125.16 26.385 126.96 18.177 128.544 12.489Z" fill="white"/>
<path d="M167.996 4.64101C162.596 4.49701 152.948 4.20901 147.62 4.78501C143.876 5.72101 144.524 9.39301 147.548 9.17701C148.124 14.793 148.196 45.105 149.132 49.641C149.348 50.577 150.212 51.369 151.076 51.369C161.804 51.513 163.316 50.577 169.076 50.793C172.82 51.009 173.9 46.545 170.012 46.257C167.636 46.113 159.572 47.193 153.668 46.761C153.308 44.817 153.02 30.273 153.02 28.905C157.124 28.905 162.02 28.977 167.204 28.401C170.876 28.185 171.092 23.793 167.492 23.937C163.82 24.225 157.484 24.441 152.948 24.225C152.804 18.249 152.732 13.497 152.516 8.96101C155.828 8.81701 165.404 9.17701 167.78 9.10501C170.732 8.88901 171.236 4.49701 167.996 4.64101Z" fill="white"/>
<path d="M202.125 5.64901C198.597 16.881 196.509 30.201 193.917 42.513C191.973 31.353 188.805 14.505 186.933 6.29701C186.501 3.41701 182.613 3.92101 181.893 6.87301C178.437 19.689 178.725 35.097 175.197 48.057C174.621 51.225 179.013 51.801 179.877 48.633C182.037 38.193 183.837 20.697 184.485 11.985C187.869 24.873 187.653 37.761 191.325 47.913C192.117 50.433 195.357 49.857 196.221 47.625C199.749 40.425 201.261 21.993 203.925 12.417C204.861 20.841 205.653 41.361 209.109 49.641C209.973 52.089 214.653 50.649 213.717 47.769C208.821 35.601 209.181 18.105 206.733 6.22501C206.301 3.70501 202.917 3.48901 202.125 5.64901Z" fill="white"/>
<path d="M254.902 4.13701C249.502 4.35301 242.878 4.64101 234.742 4.64101C230.566 4.85701 231.07 8.96101 234.598 9.17701C234.886 21.849 236.038 37.185 235.678 48.489C235.606 52.449 240.574 51.369 240.646 48.057C240.862 41.649 239.638 19.977 239.494 9.10501C242.374 9.24901 249.934 8.88901 252.886 8.88901C252.814 21.489 254.038 36.177 254.902 48.201C255.118 51.657 259.942 51.153 259.798 47.841C259.15 38.769 257.494 18.177 257.782 8.38501C257.854 6.51301 257.926 3.99301 254.902 4.13701Z" fill="white"/>
<path d="M267.096 4.64101C263.064 5.21701 263.208 8.96101 266.808 8.96101C266.736 13.497 267.24 25.017 267.312 31.209C263.784 31.497 263.424 35.457 267.456 35.673C267.6 40.713 267.888 45.177 268.536 48.633C269.184 51.945 273.504 51.441 273 47.769C272.424 44.385 272.208 40.281 272.064 35.529C277.032 35.529 282.432 34.737 286.104 31.641C292.8 25.233 292.296 11.697 285.528 7.01701C280.56 3.27301 274.224 3.63301 267.096 4.64101ZM271.2 8.96101C275.664 8.09701 279.12 7.95301 281.856 9.89701C287.256 14.073 287.616 24.297 282.144 28.977C279.912 30.777 275.52 31.353 271.704 31.137C271.704 25.521 271.272 13.209 271.2 8.96101Z" fill="white"/>
<path d="M307.757 6.22501C307.037 3.92101 303.869 2.84101 302.645 6.29701C299.261 17.169 292.349 43.305 291.341 47.553C289.901 51.945 294.581 52.593 295.589 49.785C297.533 44.097 298.253 39.993 299.693 34.665C301.637 34.665 307.469 34.449 310.421 34.521C311.573 39.273 312.797 43.161 314.237 49.281C314.813 52.305 319.349 52.233 319.133 48.705C317.765 43.737 316.181 37.617 315.389 34.449C319.637 34.161 321.725 30.057 314.093 30.057C312.797 26.241 309.989 12.561 307.757 6.22501ZM305.309 12.489C306.749 17.889 308.045 26.889 309.125 30.057C306.893 29.913 302.933 30.129 300.773 30.057C301.925 26.385 303.725 18.177 305.309 12.489Z" fill="white"/>
<path d="M326.329 6.51301C323.377 9.03301 322.225 14.433 322.945 17.889C323.449 20.337 327.625 20.049 327.409 17.529C327.049 15.369 327.193 12.417 328.777 10.761C331.441 7.66501 334.609 8.52901 335.977 11.337C337.561 14.145 337.921 21.561 334.825 23.937C333.241 24.801 332.233 24.585 330.721 25.233C327.769 26.385 329.569 29.985 331.657 29.265C333.313 28.905 334.393 29.049 335.545 29.769C339.145 32.289 337.921 41.937 335.329 44.673C333.385 46.545 330.361 46.905 328.417 44.889C327.337 43.665 326.761 40.929 326.617 39.129C326.545 36.681 322.009 36.681 322.153 39.633C322.297 42.729 323.233 46.689 325.825 48.705C328.489 51.009 334.465 52.089 338.785 48.345C343.105 44.601 345.769 30.273 337.921 26.385C343.105 23.217 343.177 11.409 339.145 7.01701C336.193 3.92101 330.649 2.98501 326.329 6.51301Z" fill="white"/>
<path d="M354.998 7.01701C353.486 17.889 348.158 34.593 346.214 46.113C343.694 46.401 342.83 46.761 342.326 49.137C342.038 50.937 342.038 55.689 341.75 57.921C341.678 60.513 345.926 61.017 346.502 58.425C346.862 56.481 346.718 52.953 346.862 50.793C353.99 50.505 360.038 50.505 368.462 50.649C368.534 52.809 367.958 56.121 368.39 58.065C368.822 60.585 373.502 60.225 373.142 57.561C372.854 55.329 373.502 50.505 373.358 48.345C373.214 45.753 371.774 45.897 369.182 45.969C367.022 36.609 362.846 17.745 360.326 6.72901C359.75 3.77701 355.574 3.05701 354.998 7.01701ZM357.734 13.929C359.246 23.001 363.494 43.017 364.286 45.969C360.254 46.329 354.35 46.113 351.182 46.113C351.758 40.497 356.294 22.281 357.734 13.929Z" fill="white"/>
<path d="M398.815 6.15301C398.815 2.84101 394.135 3.48901 394.135 6.51301C394.135 13.857 394.207 17.817 394.711 25.665C392.119 25.521 385.783 25.449 382.903 25.305C382.615 19.113 382.399 12.993 382.255 6.51301C382.183 3.05701 377.719 3.70501 377.431 6.94501C377.719 15.225 377.791 20.625 378.079 25.377C377.503 25.377 376.927 25.161 376.063 25.377C373.975 26.097 373.543 29.049 376.567 29.553C377.215 29.553 377.791 29.625 378.295 29.697C379.015 40.713 378.943 37.617 378.871 48.993C378.799 52.377 383.623 51.369 383.695 48.489C383.767 43.665 383.479 35.457 383.191 29.841C386.575 29.985 392.191 29.913 395.071 30.057C395.359 33.513 396.439 43.881 396.727 48.345C397.015 52.089 402.055 51.513 401.551 47.841C400.183 37.761 398.815 18.465 398.815 6.15301Z" fill="white"/>
<path d="M434.489 6.15301C434.345 4.06501 430.313 3.56101 429.377 6.00901C424.049 19.761 416.561 31.353 412.241 42.009C412.529 38.265 413.609 10.761 413.681 6.51301C413.681 3.41701 408.929 3.84901 408.785 6.94501C408.713 18.825 408.065 38.193 408.065 48.561C408.209 51.297 411.665 51.441 412.817 49.281C417.425 39.777 426.209 25.161 430.529 13.065C430.241 25.017 427.793 38.841 428.657 48.777C428.945 51.801 433.697 51.153 433.625 47.985C432.905 32.865 435.641 21.417 434.489 6.15301Z" fill="white"/>
<path d="M445.675 6.87301C445.675 3.20101 440.707 3.99301 440.851 7.52101C440.995 15.729 438.547 28.905 444.163 33.369C447.835 36.393 454.027 35.961 458.059 32.793C457.987 37.113 457.915 43.809 457.915 48.273C457.915 51.945 463.027 51.873 463.027 48.273C463.027 36.537 463.387 18.753 462.307 6.58501C461.947 3.12901 457.051 3.20101 457.339 6.80101C458.059 16.665 458.203 19.329 457.987 27.321C455.395 31.281 449.851 32.217 447.043 29.553C444.523 27.177 445.675 10.617 445.675 6.87301Z" fill="white"/>
<path d="M491.487 6.15301C491.487 2.84101 486.807 3.48901 486.807 6.51301C486.807 13.857 486.879 17.817 487.383 25.665C484.791 25.521 478.455 25.449 475.575 25.305C475.287 19.113 475.071 12.993 474.927 6.51301C474.855 3.05701 470.391 3.70501 470.103 6.94501C470.391 15.225 470.463 20.625 470.751 25.377C470.175 25.377 469.599 25.161 468.735 25.377C466.647 26.097 466.215 29.049 469.239 29.553C469.887 29.553 470.463 29.625 470.967 29.697C471.687 40.713 471.615 37.617 471.543 48.993C471.471 52.377 476.295 51.369 476.367 48.489C476.439 43.665 476.151 35.457 475.863 29.841C479.247 29.985 484.863 29.913 487.743 30.057C488.031 33.513 489.111 43.881 489.399 48.345C489.687 52.089 494.727 51.513 494.223 47.841C492.855 37.761 491.487 18.465 491.487 6.15301Z" fill="white"/>
<path d="M513.453 4.13701C511.653 3.05701 508.989 3.48901 509.133 5.64901C507.117 6.94501 504.741 8.67301 502.941 11.913C497.325 23.361 498.405 42.081 505.965 48.561C509.565 52.233 515.829 51.873 519.141 47.625C526.773 38.841 527.853 20.049 520.653 10.401C518.853 7.80901 516.621 5.86501 513.453 4.13701ZM517.485 15.009C521.733 23.433 521.589 36.537 516.477 43.377C514.173 47.625 510.357 47.841 507.981 43.593C503.229 36.681 502.941 23.721 506.757 15.513C510.213 7.08901 513.669 6.87301 517.485 15.009Z" fill="white"/>
<path d="M552.043 4.64101C546.643 4.49701 536.995 4.20901 531.667 4.78501C527.923 5.72101 528.571 9.39301 531.595 9.17701C532.171 14.793 532.243 45.105 533.179 49.641C533.395 50.577 534.259 51.369 535.123 51.369C545.851 51.513 547.363 50.577 553.123 50.793C556.867 51.009 557.947 46.545 554.059 46.257C551.683 46.113 543.619 47.193 537.715 46.761C537.355 44.817 537.067 30.273 537.067 28.905C541.171 28.905 546.067 28.977 551.251 28.401C554.923 28.185 555.139 23.793 551.539 23.937C547.867 24.225 541.531 24.441 536.995 24.225C536.851 18.249 536.779 13.497 536.563 8.96101C539.875 8.81701 549.451 9.17701 551.827 9.10501C554.779 8.88901 555.283 4.49701 552.043 4.64101Z" fill="white"/>
<path d="M599.065 6.15301C599.065 2.84101 594.385 3.48901 594.385 6.51301C594.385 13.857 594.457 17.817 594.961 25.665C592.369 25.521 586.033 25.449 583.153 25.305C582.865 19.113 582.649 12.993 582.505 6.51301C582.433 3.05701 577.969 3.70501 577.681 6.94501C577.969 15.225 578.041 20.625 578.329 25.377C577.753 25.377 577.177 25.161 576.313 25.377C574.225 26.097 573.793 29.049 576.817 29.553C577.465 29.553 578.041 29.625 578.545 29.697C579.265 40.713 579.193 37.617 579.121 48.993C579.049 52.377 583.873 51.369 583.945 48.489C584.017 43.665 583.729 35.457 583.441 29.841C586.825 29.985 592.441 29.913 595.321 30.057C595.609 33.513 596.689 43.881 596.977 48.345C597.265 52.089 602.305 51.513 601.801 47.841C600.433 37.761 599.065 18.465 599.065 6.15301Z" fill="white"/>
<path d="M622.335 6.22501C621.615 3.92101 618.447 2.84101 617.223 6.29701C613.839 17.169 606.927 43.305 605.919 47.553C604.479 51.945 609.159 52.593 610.167 49.785C612.111 44.097 612.831 39.993 614.271 34.665C616.215 34.665 622.047 34.449 624.999 34.521C626.151 39.273 627.375 43.161 628.815 49.281C629.391 52.305 633.927 52.233 633.711 48.705C632.344 43.737 630.759 37.617 629.967 34.449C634.215 34.161 636.303 30.057 628.671 30.057C627.375 26.241 624.567 12.561 622.335 6.22501ZM619.887 12.489C621.327 17.889 622.623 26.889 623.703 30.057C621.471 29.913 617.511 30.129 615.351 30.057C616.503 26.385 618.303 18.177 619.887 12.489Z" fill="white"/>
<path d="M644.613 5.64901C635.181 13.281 633.597 40.569 644.469 48.417C648.717 51.945 654.621 51.153 657.861 48.201C660.741 45.393 661.533 39.417 661.461 35.745C661.389 32.793 656.709 32.793 656.781 35.385C656.925 38.193 656.493 42.153 654.693 44.529C652.893 46.905 648.717 46.473 646.341 43.449C639.789 36.681 641.589 15.513 646.413 10.401C648.645 8.31301 651.453 8.16901 653.397 10.617C654.765 12.273 655.413 14.001 656.349 16.737C656.997 19.113 661.677 17.961 661.101 15.153C660.021 11.265 658.149 8.38501 656.205 6.36901C652.893 2.98501 648.285 2.55301 644.613 5.64901Z" fill="white"/>
<path d="M665.307 3.92101C662.643 3.63301 661.131 8.67301 664.155 8.74501C669.339 9.03301 669.627 8.81701 672.867 8.81701C674.451 20.193 672.795 38.553 672.867 49.065C672.867 52.089 677.907 51.009 677.907 48.273C677.907 39.489 679.275 20.625 677.691 8.96101C680.859 8.67301 684.819 8.96101 686.043 8.96101C688.707 8.96101 689.787 4.20901 687.051 4.28101C682.011 3.70501 671.715 4.56901 665.307 3.92101Z" fill="white"/>
<path d="M693.752 4.64101C689.72 5.21701 689.864 8.96101 693.464 8.96101C693.392 13.497 693.896 25.017 693.968 31.209C690.44 31.497 690.08 35.457 694.112 35.673C694.256 40.713 694.544 45.177 695.192 48.633C695.84 51.945 700.16 51.441 699.656 47.769C699.08 44.385 698.864 40.281 698.72 35.529C703.688 35.529 709.088 34.737 712.76 31.641C719.456 25.233 718.952 11.697 712.184 7.01701C707.216 3.27301 700.88 3.63301 693.752 4.64101ZM697.856 8.96101C702.32 8.09701 705.776 7.95301 708.512 9.89701C713.912 14.073 714.272 24.297 708.8 28.977C706.568 30.777 702.176 31.353 698.36 31.137C698.36 25.521 697.928 13.209 697.856 8.96101Z" fill="white"/>
<path d="M734.937 4.13701C733.137 3.05701 730.473 3.48901 730.617 5.64901C728.601 6.94501 726.225 8.67301 724.425 11.913C718.809 23.361 719.889 42.081 727.449 48.561C731.049 52.233 737.313 51.873 740.625 47.625C748.257 38.841 749.337 20.049 742.137 10.401C740.337 7.80901 738.105 5.86501 734.937 4.13701ZM738.969 15.009C743.217 23.433 743.073 36.537 737.961 43.377C735.657 47.625 731.841 47.841 729.465 43.593C724.713 36.681 724.425 23.721 728.241 15.513C731.697 7.08901 735.153 6.87301 738.969 15.009Z" fill="white"/>
<path d="M773.527 4.64101C768.127 4.49701 758.479 4.20901 753.151 4.78501C749.407 5.72101 750.055 9.39301 753.079 9.17701C753.655 14.793 753.727 45.105 754.663 49.641C754.879 50.577 755.743 51.369 756.607 51.369C767.335 51.513 768.847 50.577 774.607 50.793C778.351 51.009 779.431 46.545 775.543 46.257C773.167 46.113 765.103 47.193 759.199 46.761C758.839 44.817 758.551 30.273 758.551 28.905C762.655 28.905 767.551 28.977 772.735 28.401C776.407 28.185 776.623 23.793 773.023 23.937C769.351 24.225 763.015 24.441 758.479 24.225C758.335 18.249 758.263 13.497 758.047 8.96101C761.359 8.81701 770.935 9.17701 773.311 9.10501C776.263 8.88901 776.767 4.49701 773.527 4.64101Z" fill="white"/>
<path d="M804.729 6.15301C804.729 2.84101 800.049 3.48901 800.049 6.51301C800.049 13.857 800.121 17.817 800.625 25.665C798.034 25.521 791.697 25.449 788.817 25.305C788.529 19.113 788.313 12.993 788.169 6.51301C788.097 3.05701 783.633 3.70501 783.345 6.94501C783.633 15.225 783.705 20.625 783.993 25.377C783.417 25.377 782.841 25.161 781.977 25.377C779.889 26.097 779.457 29.049 782.481 29.553C783.129 29.553 783.705 29.625 784.209 29.697C784.929 40.713 784.857 37.617 784.785 48.993C784.713 52.377 789.537 51.369 789.609 48.489C789.681 43.665 789.393 35.457 789.105 29.841C792.489 29.985 798.105 29.913 800.985 30.057C801.273 33.513 802.353 43.881 802.641 48.345C802.93 52.089 807.969 51.513 807.465 47.841C806.097 37.761 804.729 18.465 804.729 6.15301Z" fill="white"/>
<path d="M840.403 6.15301C840.259 4.06501 836.227 3.56101 835.291 6.00901C829.963 19.761 822.475 31.353 818.155 42.009C818.443 38.265 819.523 10.761 819.595 6.51301C819.595 3.41701 814.843 3.84901 814.699 6.94501C814.627 18.825 813.979 38.193 813.979 48.561C814.123 51.297 817.579 51.441 818.731 49.281C823.339 39.777 832.123 25.161 836.443 13.065C836.155 25.017 833.707 38.841 834.571 48.777C834.859 51.801 839.611 51.153 839.539 47.985C838.819 32.865 841.555 21.417 840.403 6.15301Z" fill="white"/>
<path d="M867.886 4.64101C862.486 4.49701 852.838 4.20901 847.51 4.78501C843.766 5.72101 844.414 9.39301 847.438 9.17701C848.014 14.793 848.086 45.105 849.022 49.641C849.238 50.577 850.102 51.369 850.966 51.369C861.694 51.513 863.206 50.577 868.966 50.793C872.71 51.009 873.79 46.545 869.902 46.257C867.526 46.113 859.462 47.193 853.558 46.761C853.198 44.817 852.91 30.273 852.91 28.905C857.014 28.905 861.91 28.977 867.094 28.401C870.766 28.185 870.982 23.793 867.382 23.937C863.71 24.225 857.374 24.441 852.838 24.225C852.694 18.249 852.622 13.497 852.406 8.96101C855.718 8.81701 865.294 9.17701 867.67 9.10501C870.622 8.88901 871.126 4.49701 867.886 4.64101Z" fill="white"/>
</svg>
