<svg width="224" height="73" viewBox="0 0 224 73" fill="none" xmlns="http://www.w3.org/2000/svg">
<path d="M60.8425 2.6435C60.0025 8.6835 57.0425 17.9635 55.9625 24.3635C54.5625 24.5235 54.0825 24.7235 53.8025 26.0435C53.6425 27.0435 53.6425 29.6835 53.4825 30.9235C53.4425 32.3635 55.8025 32.6435 56.1225 31.2035C56.3225 30.1235 56.2425 28.1635 56.3225 26.9635C60.2825 26.8035 63.6425 26.8035 68.3225 26.8835C68.3625 28.0835 68.0425 29.9235 68.2825 31.0035C68.5225 32.4035 71.1225 32.2035 70.9225 30.7235C70.7625 29.4835 71.1225 26.8035 71.0425 25.6035C70.9625 24.1635 70.1625 24.2435 68.7225 24.2835C67.5225 19.0835 65.2025 8.6035 63.8025 2.4835C63.4825 0.843499 61.1625 0.443499 60.8425 2.6435ZM62.3625 6.4835C63.2025 11.5235 65.5625 22.6435 66.0025 24.2835C63.7625 24.4835 60.4825 24.3635 58.7225 24.3635C59.0425 21.2435 61.5625 11.1235 62.3625 6.4835ZM81.4725 2.2035C81.0725 0.9235 79.3125 0.323501 78.6325 2.2435C76.7525 8.2835 72.9125 22.8035 72.3525 25.1635C71.5525 27.6035 74.1525 27.9635 74.7125 26.4035C75.7925 23.2435 76.1925 20.9635 76.9925 18.0035C78.0725 18.0035 81.3125 17.8835 82.9525 17.9235C83.5925 20.5635 84.2725 22.7235 85.0725 26.1235C85.3925 27.8035 87.9125 27.7635 87.7925 25.8035C87.0325 23.0435 86.1525 19.6435 85.7125 17.8835C88.0725 17.7235 89.2325 15.4435 84.9925 15.4435C84.2725 13.3235 82.7125 5.7235 81.4725 2.2035ZM80.1125 5.6835C80.9125 8.6835 81.6325 13.6835 82.2325 15.4435C80.9925 15.3635 78.7925 15.4835 77.5925 15.4435C78.2325 13.4035 79.2325 8.8435 80.1125 5.6835ZM91.0703 1.3235C88.8303 1.6435 88.9103 3.7235 90.9103 3.7235C90.8703 6.2435 91.1503 12.6435 91.1903 16.0835C89.2303 16.2435 89.0303 18.4435 91.2703 18.5635C91.3503 21.3635 91.5103 23.8435 91.8703 25.7635C92.2303 27.6035 94.6303 27.3235 94.3503 25.2835C94.0303 23.4035 93.9103 21.1235 93.8303 18.4835C96.5903 18.4835 99.5903 18.0435 101.63 16.3235C105.35 12.7635 105.07 5.2435 101.31 2.6435C98.5503 0.5635 95.0303 0.7635 91.0703 1.3235ZM93.3503 3.7235C95.8303 3.2435 97.7503 3.1635 99.2703 4.2435C102.27 6.5635 102.47 12.2435 99.4303 14.8435C98.1903 15.8435 95.7503 16.1635 93.6303 16.0435C93.6303 12.9235 93.3903 6.0835 93.3503 3.7235ZM121.567 2.1635C121.487 1.0035 119.247 0.7235 118.727 2.0835C115.767 9.7235 111.607 16.1635 109.207 22.0835C109.367 20.0035 109.967 4.7235 110.007 2.3635C110.007 0.643499 107.367 0.883501 107.287 2.6035C107.247 9.2035 106.887 19.9635 106.887 25.7235C106.967 27.2435 108.887 27.3235 109.527 26.1235C112.087 20.8435 116.967 12.7235 119.367 6.0035C119.207 12.6435 117.847 20.3235 118.327 25.8435C118.487 27.5235 121.127 27.1635 121.087 25.4035C120.687 17.0035 122.207 10.6435 121.567 2.1635ZM139.35 1.8835C137.39 8.1235 136.23 15.5235 134.79 22.3635C133.71 16.1635 131.95 6.8035 130.91 2.2435C130.67 0.643499 128.51 0.9235 128.11 2.5635C126.19 9.6835 126.35 18.2435 124.39 25.4435C124.07 27.2035 126.51 27.5235 126.99 25.7635C128.19 19.9635 129.19 10.2435 129.55 5.4035C131.43 12.5635 131.31 19.7235 133.35 25.3635C133.79 26.7635 135.59 26.4435 136.07 25.2035C138.03 21.2035 138.87 10.9635 140.35 5.6435C140.87 10.3235 141.31 21.7235 143.23 26.3235C143.71 27.6835 146.31 26.8835 145.79 25.2835C143.07 18.5235 143.27 8.8035 141.91 2.2035C141.67 0.803499 139.79 0.683501 139.35 1.8835ZM161.271 1.8835C156.031 6.1235 155.151 21.2835 161.191 25.6435C163.551 27.6035 166.831 27.1635 168.631 25.5235C170.231 23.9635 170.671 20.6435 170.631 18.6035C170.591 16.9635 167.991 16.9635 168.031 18.4035C168.111 19.9635 167.871 22.1635 166.871 23.4835C165.871 24.8035 163.551 24.5635 162.231 22.8835C158.591 19.1235 159.591 7.3635 162.271 4.5235C163.511 3.3635 165.071 3.2835 166.151 4.6435C166.911 5.5635 167.271 6.5235 167.791 8.0435C168.151 9.3635 170.751 8.7235 170.431 7.1635C169.831 5.0035 168.791 3.4035 167.711 2.2835C165.871 0.4035 163.311 0.1635 161.271 1.8835ZM11.7016 41.8835C11.1016 45.6035 10.9016 50.8835 9.98158 55.7635C6.78158 53.3235 5.14158 46.2835 3.90158 41.8035C3.34158 40.0435 0.981582 40.9635 1.30158 42.7235C3.26158 49.5235 4.14158 55.1235 9.50158 58.6035C9.26158 60.4835 8.46158 62.8835 7.54158 63.9635C6.74158 64.8035 5.62158 64.8835 5.10158 63.8835C4.78158 63.2035 4.66158 62.0035 4.70158 60.6035C4.70158 59.0035 2.02158 58.6435 2.06158 60.2835C2.14158 62.7235 2.30158 64.8035 3.54158 66.0835C4.78158 67.2835 6.90158 67.3235 8.50158 66.2435C10.3416 65.0835 11.3016 62.0835 11.8216 59.4035C13.7816 59.5235 14.2616 57.6835 12.4216 56.8035C13.1016 53.5635 13.4216 50.0035 14.3416 42.4035C14.4216 40.9235 11.7816 40.2835 11.7016 41.8835ZM20.9597 42.6435C20.1197 48.6835 17.1597 57.9635 16.0797 64.3635C14.6797 64.5235 14.1997 64.7235 13.9197 66.0435C13.7597 67.0435 13.7597 69.6835 13.5997 70.9235C13.5597 72.3635 15.9197 72.6435 16.2397 71.2035C16.4397 70.1235 16.3597 68.1635 16.4397 66.9635C20.3997 66.8035 23.7597 66.8035 28.4397 66.8835C28.4797 68.0835 28.1597 69.9235 28.3997 71.0035C28.6397 72.4035 31.2397 72.2035 31.0397 70.7235C30.8797 69.4835 31.2397 66.8035 31.1597 65.6035C31.0797 64.1635 30.2797 64.2435 28.8397 64.2835C27.6397 59.0835 25.3197 48.6035 23.9197 42.4835C23.5997 40.8435 21.2797 40.4435 20.9597 42.6435ZM22.4797 46.4835C23.3197 51.5235 25.6797 62.6435 26.1197 64.2835C23.8797 64.4835 20.5997 64.3635 18.8397 64.3635C19.1597 61.2435 21.6797 51.1235 22.4797 46.4835ZM39.8885 41.0435C38.8885 40.4435 37.4085 40.6835 37.4885 41.8835C36.3685 42.6035 35.0485 43.5635 34.0485 45.3635C30.9285 51.7235 31.5285 62.1235 35.7285 65.7235C37.7285 67.7635 41.2085 67.5635 43.0485 65.2035C47.2885 60.3235 47.8885 49.8835 43.8885 44.5235C42.8885 43.0835 41.6485 42.0035 39.8885 41.0435ZM42.1285 47.0835C44.4885 51.7635 44.4085 59.0435 41.5685 62.8435C40.2885 65.2035 38.1685 65.3235 36.8485 62.9635C34.2085 59.1235 34.0485 51.9235 36.1685 47.3635C38.0885 42.6835 40.0085 42.5635 42.1285 47.0835ZM50.7766 41.2035C48.4166 41.4035 48.4566 43.6835 51.1366 43.6035C51.2966 45.3635 51.3766 49.0435 51.4166 50.7635C49.1366 50.9235 48.8966 52.7635 51.4566 53.4035C51.4566 56.7635 51.3766 59.9235 50.9766 63.4035C48.8566 62.6035 47.6966 64.6835 50.6166 65.8035C50.3366 67.6035 52.2966 67.9635 52.8966 66.1635C55.3366 66.4835 57.4166 66.7635 59.7366 65.8835C65.2166 63.8035 66.3766 56.6835 61.7766 53.4435C60.9366 52.6835 59.3766 52.0035 58.3366 51.7235C58.9366 51.5235 59.6966 51.2035 60.2166 50.8035C63.3366 48.7635 62.5766 43.3235 58.4166 41.8835C56.2966 41.1235 54.4166 41.0035 50.7766 41.2035ZM53.6166 43.5235C54.6566 43.4835 56.0166 43.5635 57.1766 43.9235C60.1366 44.8435 60.2166 48.9635 57.2966 50.1635C56.1366 50.5635 54.7766 50.6035 53.9766 50.5635C53.8966 48.7235 53.7766 45.0835 53.6166 43.5235ZM54.0566 53.4035C56.0966 53.4435 58.5366 53.8435 59.9766 54.7235C63.1366 56.8835 62.2966 62.2035 58.6566 63.6435C56.8966 64.2835 55.0566 64.1635 53.2966 63.7635C53.5366 61.4435 53.9766 57.0435 54.0566 53.4035ZM74.8103 41.0435C73.8103 40.4435 72.3303 40.6835 72.4103 41.8835C71.2903 42.6035 69.9703 43.5635 68.9703 45.3635C65.8503 51.7235 66.4503 62.1235 70.6503 65.7235C72.6503 67.7635 76.1303 67.5635 77.9703 65.2035C82.2103 60.3235 82.8103 49.8835 78.8103 44.5235C77.8103 43.0835 76.5703 42.0035 74.8103 41.0435ZM77.0503 47.0835C79.4103 51.7635 79.3303 59.0435 76.4903 62.8435C75.2103 65.2035 73.0903 65.3235 71.7703 62.9635C69.1303 59.1235 68.9703 51.9235 71.0903 47.3635C73.0103 42.6835 74.9303 42.5635 77.0503 47.0835ZM88.1935 42.8035C86.7935 49.8835 83.9935 58.1235 82.6735 65.7235C82.3535 67.2035 84.9535 67.6435 85.2735 66.0835C85.9135 61.6035 88.8335 50.4035 89.8735 46.4435C90.8335 51.2035 94.1535 62.2435 94.1935 66.0035C94.2335 67.8435 96.9935 67.3635 96.9535 65.6035C96.5935 60.1235 92.4735 48.7235 91.1535 42.6835C90.7535 40.2435 88.6735 40.4835 88.1935 42.8035ZM101.548 42.0835C101.588 40.4835 98.8278 40.7235 98.8278 42.4035C98.8278 43.8835 98.7478 47.8835 98.6278 52.1235C98.4678 57.4835 98.1478 61.9635 99.3878 64.4435C100.868 67.4435 105.868 67.6835 108.668 65.9235C112.708 63.4435 113.788 54.9235 109.708 51.9635C107.748 50.5235 105.028 50.0435 101.508 51.0035C101.308 47.7235 101.508 45.2835 101.548 42.0835ZM101.228 53.5635C104.588 52.4835 106.108 53.0435 107.908 54.0435C110.428 55.9235 109.788 61.8035 107.028 63.6835C105.308 64.8035 102.868 64.8835 101.868 63.0035C101.028 61.3235 101.148 55.5635 101.228 53.5635ZM118.419 41.8835C113.179 46.1235 112.299 61.2835 118.339 65.6435C120.699 67.6035 123.979 67.1635 125.779 65.5235C127.379 63.9635 127.819 60.6435 127.779 58.6035C127.739 56.9635 125.139 56.9635 125.179 58.4035C125.259 59.9635 125.019 62.1635 124.019 63.4835C123.019 64.8035 120.699 64.5635 119.379 62.8835C115.739 59.1235 116.739 47.3635 119.419 44.5235C120.659 43.3635 122.219 43.2835 123.299 44.6435C124.059 45.5635 124.419 46.5235 124.939 48.0435C125.299 49.3635 127.899 48.7235 127.579 47.1635C126.979 45.0035 125.939 43.4035 124.859 42.2835C123.019 40.4035 120.459 40.1635 118.419 41.8835ZM129.916 40.9235C128.436 40.7635 127.596 43.5635 129.276 43.6035C132.156 43.7635 132.316 43.6435 134.116 43.6435C134.996 49.9635 134.076 60.1635 134.116 66.0035C134.116 67.6835 136.916 67.0835 136.916 65.5635C136.916 60.6835 137.676 50.2035 136.796 43.7235C138.556 43.5635 140.756 43.7235 141.436 43.7235C142.916 43.7235 143.516 41.0835 141.996 41.1235C139.196 40.8035 133.476 41.2835 129.916 40.9235ZM145.738 41.2035C143.378 41.4035 143.418 43.6835 146.098 43.6035C146.258 45.3635 146.338 49.0435 146.378 50.7635C144.098 50.9235 143.858 52.7635 146.418 53.4035C146.418 56.7635 146.338 59.9235 145.938 63.4035C143.818 62.6035 142.658 64.6835 145.578 65.8035C145.298 67.6035 147.258 67.9635 147.858 66.1635C150.298 66.4835 152.378 66.7635 154.698 65.8835C160.178 63.8035 161.338 56.6835 156.738 53.4435C155.898 52.6835 154.338 52.0035 153.298 51.7235C153.898 51.5235 154.658 51.2035 155.178 50.8035C158.298 48.7635 157.538 43.3235 153.378 41.8835C151.258 41.1235 149.378 41.0035 145.738 41.2035ZM148.578 43.5235C149.618 43.4835 150.978 43.5635 152.138 43.9235C155.098 44.8435 155.178 48.9635 152.258 50.1635C151.098 50.5635 149.738 50.6035 148.938 50.5635C148.858 48.7235 148.738 45.0835 148.578 43.5235ZM149.018 53.4035C151.058 53.4435 153.498 53.8435 154.938 54.7235C158.098 56.8835 157.258 62.2035 153.618 63.6435C151.858 64.2835 150.018 64.1635 148.258 63.7635C148.498 61.4435 148.938 57.0435 149.018 53.4035ZM177.387 42.1635C177.307 41.0035 175.067 40.7235 174.547 42.0835C171.587 49.7235 167.427 56.1635 165.027 62.0835C165.187 60.0035 165.787 44.7235 165.827 42.3635C165.827 40.6435 163.187 40.8835 163.107 42.6035C163.067 49.2035 162.707 59.9635 162.707 65.7235C162.787 67.2435 164.707 67.3235 165.347 66.1235C167.907 60.8435 172.787 52.7235 175.187 46.0035C175.027 52.6435 173.667 60.3235 174.147 65.8435C174.307 67.5235 176.947 67.1635 176.907 65.4035C176.507 57.0035 178.027 50.6435 177.387 42.1635ZM192.655 41.3235C189.655 41.2435 184.295 41.0835 181.335 41.4035C179.255 41.9235 179.615 43.9635 181.295 43.8435C181.615 46.9635 181.655 63.8035 182.175 66.3235C182.295 66.8435 182.775 67.2835 183.255 67.2835C189.215 67.3635 190.055 66.8435 193.255 66.9635C195.335 67.0835 195.935 64.6035 193.775 64.4435C192.455 64.3635 187.975 64.9635 184.695 64.7235C184.495 63.6435 184.335 55.5635 184.335 54.8035C186.615 54.8035 189.335 54.8435 192.215 54.5235C194.255 54.4035 194.375 51.9635 192.375 52.0435C190.335 52.2035 186.815 52.3235 184.295 52.2035C184.215 48.8835 184.175 46.2435 184.055 43.7235C185.895 43.6435 191.215 43.8435 192.535 43.8035C194.175 43.6835 194.455 41.2435 192.655 41.3235ZM211.616 41.8835C209.656 48.1235 208.496 55.5235 207.056 62.3635C205.976 56.1635 204.216 46.8035 203.176 42.2435C202.936 40.6435 200.776 40.9235 200.376 42.5635C198.456 49.6835 198.616 58.2435 196.656 65.4435C196.336 67.2035 198.776 67.5235 199.256 65.7635C200.456 59.9635 201.456 50.2435 201.816 45.4035C203.696 52.5635 203.576 59.7235 205.616 65.3635C206.056 66.7635 207.856 66.4435 208.336 65.2035C210.296 61.2035 211.136 50.9635 212.616 45.6435C213.136 50.3235 213.576 61.7235 215.496 66.3235C215.976 67.6835 218.576 66.8835 218.056 65.2835C215.336 58.5235 215.536 48.8035 214.176 42.2035C213.936 40.8035 212.056 40.6835 211.616 41.8835ZM223.453 41.7635C223.253 39.4035 220.533 39.5635 220.693 41.8035C221.213 47.3235 220.933 55.2035 220.813 59.4435C220.773 61.0035 223.253 60.5635 223.293 59.2035C223.453 54.2035 223.973 47.0435 223.453 41.7635ZM221.853 63.6435C219.853 64.2435 220.173 67.6835 222.173 66.9235C222.813 66.6835 223.293 66.1235 223.293 65.3635C223.293 64.0435 222.853 63.3235 221.853 63.6435Z" fill="white"/>
</svg>
