<svg width="163" height="71" viewBox="0 0 163 71" fill="none" xmlns="http://www.w3.org/2000/svg">
<path fill-rule="evenodd" clip-rule="evenodd" d="M38.5629 45.224C30.3998 32.3699 16.2928 23.6615 0.109375 22.9663H41.0607H121.061H129.102H162.108C145.87 23.6638 131.722 32.4285 123.572 45.3536C115.526 60.5855 99.5261 70.9663 81.1016 70.9663C62.6247 70.9663 46.5862 60.5266 38.5629 45.224Z" fill="#007266"/>
<path d="M81.109 3.05719C82.0072 3.05719 82.7353 3.72586 82.7353 4.5507V39.775L92.9692 30.3777C93.6043 29.7945 94.634 29.7945 95.2691 30.3777C95.9042 30.961 95.9042 31.9066 95.2691 32.4899L82.259 44.4379C82.2127 44.4804 82.1636 44.5204 82.112 44.5576L82.259 44.4379C82.2014 44.4908 82.1406 44.5389 82.0771 44.5821C82.0378 44.6088 81.9974 44.6338 81.9558 44.6572C81.9362 44.6684 81.9163 44.679 81.8962 44.6892C81.8641 44.7054 81.8309 44.721 81.7971 44.7355C81.7694 44.7474 81.7413 44.7586 81.7129 44.769C81.6808 44.7808 81.6486 44.7916 81.616 44.8014C81.5918 44.8086 81.5668 44.8155 81.5416 44.8218C81.5065 44.8308 81.4713 44.8386 81.4356 44.8453C81.4072 44.8504 81.3789 44.855 81.3505 44.8589C81.3174 44.8636 81.2831 44.8673 81.2486 44.87C81.2195 44.8722 81.1913 44.8737 81.1631 44.8746C81.1455 44.8751 81.1273 44.8754 81.109 44.8754L81.0566 44.8746C81.0273 44.8737 80.998 44.8722 80.9688 44.8698L81.109 44.8754C81.0267 44.8754 80.9458 44.8698 80.8668 44.8589C80.8391 44.855 80.8108 44.8504 80.7826 44.8451C80.7468 44.8386 80.7115 44.8308 80.6767 44.822C80.6513 44.8155 80.6263 44.8086 80.6014 44.8011C80.5694 44.7916 80.5373 44.7808 80.5056 44.7692C80.4767 44.7586 80.4486 44.7474 80.4208 44.7355C80.3871 44.721 80.354 44.7054 80.3215 44.6889C80.3018 44.679 80.2819 44.6684 80.2622 44.6573C80.2206 44.6338 80.1802 44.6088 80.1411 44.5822C80.129 44.5741 80.1173 44.5658 80.1056 44.5574C80.0544 44.5204 80.0054 44.4804 79.9591 44.4379L66.949 32.4899C66.3139 31.9066 66.3139 30.961 66.949 30.3777C67.5841 29.7945 68.6138 29.7945 69.2489 30.3777L79.4828 39.775V4.5507C79.4828 3.72586 80.2109 3.05719 81.109 3.05719Z" fill="white"/>
</svg>
