<svg width="163" height="71" viewBox="0 0 163 71" fill="none" xmlns="http://www.w3.org/2000/svg">
<path fill-rule="evenodd" clip-rule="evenodd" d="M38.5629 45.1987C30.3998 32.3446 16.2928 23.6362 0.109375 22.941H41.0607H121.061H129.102H162.108C145.87 23.6386 131.722 32.4032 123.572 45.3284C115.526 60.5603 99.5261 70.941 81.1016 70.941C62.6247 70.941 46.5862 60.5013 38.5629 45.1987Z" fill="#E95153"/>
<path d="M81.109 3.03195C82.0072 3.03195 82.7353 3.70061 82.7353 4.52545V39.7498L92.9692 30.3525C93.6043 29.7693 94.634 29.7693 95.2691 30.3525C95.9042 30.9358 95.9042 31.8814 95.2691 32.4646L82.259 44.4127C82.2127 44.4552 82.1636 44.4952 82.112 44.5323L82.259 44.4127C82.2014 44.4656 82.1406 44.5136 82.0771 44.5569C82.0378 44.5836 81.9974 44.6086 81.9558 44.632C81.9362 44.6431 81.9163 44.6537 81.8962 44.6639C81.8641 44.6802 81.8309 44.6957 81.7971 44.7103C81.7694 44.7222 81.7413 44.7333 81.7129 44.7438C81.6808 44.7556 81.6486 44.7663 81.616 44.7761C81.5918 44.7833 81.5668 44.7902 81.5416 44.7966C81.5065 44.8056 81.4713 44.8133 81.4356 44.82C81.4072 44.8252 81.3789 44.8298 81.3505 44.8337C81.3174 44.8383 81.2831 44.842 81.2486 44.8447C81.2195 44.8469 81.1913 44.8485 81.1631 44.8493C81.1455 44.8499 81.1273 44.8501 81.109 44.8501L81.0566 44.8494C81.0273 44.8485 80.998 44.8469 80.9688 44.8446L81.109 44.8501C81.0267 44.8501 80.9458 44.8445 80.8668 44.8337C80.8391 44.8298 80.8108 44.8252 80.7826 44.8199C80.7468 44.8133 80.7115 44.8056 80.6767 44.7968C80.6513 44.7902 80.6263 44.7833 80.6014 44.7758C80.5694 44.7663 80.5373 44.7556 80.5056 44.7439C80.4767 44.7333 80.4486 44.7222 80.4208 44.7102C80.3871 44.6957 80.354 44.6802 80.3215 44.6636C80.3018 44.6537 80.2819 44.6431 80.2622 44.6321C80.2206 44.6086 80.1802 44.5836 80.1411 44.5569C80.129 44.5488 80.1173 44.5406 80.1056 44.5321C80.0544 44.4952 80.0054 44.4552 79.9591 44.4127L66.949 32.4646C66.3139 31.8814 66.3139 30.9358 66.949 30.3525C67.5841 29.7693 68.6138 29.7693 69.2489 30.3525L79.4828 39.7498V4.52545C79.4828 3.70061 80.2109 3.03195 81.109 3.03195Z" fill="white"/>
</svg>
