<svg width="375" height="94" viewBox="0 0 375 94" fill="none" xmlns="http://www.w3.org/2000/svg">
<path d="M431.859 61.7968C431.859 61.7968 403.613 76.0098 376.22 69.5666C348.827 63.1234 334.988 55.1641 330.343 54.4061C325.699 53.6481 317.831 54.4061 307.594 59.428C297.358 64.4499 292.334 66.6292 286.741 65.2079C281.149 63.7866 272.808 58.7647 263.614 61.6073C254.324 64.4499 236.315 74.5885 226.078 74.5885C215.841 74.5885 182.476 75.3465 176.505 73.1672C170.439 70.9879 149.586 58.7647 136.695 63.7866C123.709 68.8085 96.4104 73.8305 86.1735 73.8305C75.9365 73.8305 3.70932 70.2298 -7.47546 68.0505C-18.5655 65.8712 -42.9256 51.8477 -56.8592 65.5869V93.6338H431.859V61.7968Z" fill="#96CFC1"/>
<path d="M78.7892 82.9488L78.9575 82.91C79.167 82.8615 86.3917 81.626 94.075 80.312C101.663 79.0143 109.698 77.6401 111.866 77.2574C111.913 77.2476 111.965 77.2377 112.018 77.2272C112.317 77.1694 112.695 77.0962 113.009 76.9517C113.193 76.8675 113.33 76.7692 113.413 76.6573C113.49 76.5542 113.53 76.426 113.498 76.2442L113.498 76.2428C113.4 75.6634 112.985 73.5237 112.419 70.5964C111.878 67.8019 111.198 64.2896 110.521 60.7314C109.829 57.0912 109.14 53.4051 108.608 50.3972C108.078 47.3992 107.7 45.0576 107.633 44.1134C107.628 44.0587 107.616 44.0371 107.611 44.03L107.611 44.03C107.609 44.0264 107.602 44.0166 107.572 44.0055C107.491 43.9758 107.324 43.9649 106.995 44.0072C106.548 44.0644 105.901 44.2029 104.965 44.4033C104.547 44.4927 104.072 44.5945 103.531 44.7068L103.531 44.7068C103.474 44.7183 102.928 44.8078 102.02 44.9565C99.697 45.3371 95.0088 46.1051 90.1131 46.9435C86.6889 47.5299 83.1578 48.1516 80.2493 48.7014C77.3331 49.2527 75.0622 49.7282 74.1442 50.0218L74.0023 50.0672L73.8948 49.9639C73.8247 49.8965 73.7435 49.8948 73.673 49.934C73.5971 49.9762 73.56 50.051 73.574 50.1264L73.5745 50.129C74.0264 52.706 74.2382 54.4107 74.5024 56.538C74.5914 57.2546 74.6864 58.0191 74.7985 58.881C75.2436 62.3038 75.9608 67.2782 77.6513 76.9171C77.948 78.5914 78.1435 79.8189 78.287 80.7198C78.4095 81.4892 78.4941 82.0204 78.5715 82.3883C78.6128 82.5847 78.6494 82.7208 78.6848 82.815C78.721 82.9117 78.7476 82.941 78.7547 82.9473C78.7548 82.9474 78.7548 82.9474 78.7549 82.9475C78.7555 82.9476 78.7563 82.9478 78.7573 82.9479C78.7603 82.9484 78.7654 82.949 78.7729 82.9491C78.778 82.9492 78.7834 82.9491 78.7892 82.9488Z" fill="#96CFC1" stroke="white" stroke-width="0.5"/>
<path d="M73.3723 50.1595C72.9388 50.1656 68.6365 47.7903 68.3097 47.5805C68.2529 47.549 65.2033 45.8517 65.144 45.8602C65.1288 45.8562 64.9017 45.7301 64.9017 45.7301L64.8865 45.7261C64.8865 45.7261 64.8962 45.7205 64.8921 45.7357C64.6651 45.6097 54.0177 39.8147 53.9872 39.4723C53.905 38.6842 53.1986 39.1306 64.1724 36.9856C67.4772 36.4531 82.7395 34.2103 87.4847 33.4117C88.2695 33.5242 90.557 34.3246 92.7185 35.352C94.8024 36.3342 95.7031 36.7141 97.1093 37.4576C97.1093 37.4576 106.419 42.4052 107.744 43.7871C108.052 44.0978 107.625 44.293 106.828 44.4056C105.223 44.7414 73.9642 50.0491 73.3612 50.1402L73.3723 50.1595Z" fill="#FDF6F7"/>
<path d="M64.0906 75.6984C64.9234 76.1391 65.6878 76.5437 66.1892 76.8226L66.2009 76.8159L66.3259 76.8882C67.6396 77.648 68.67 78.1447 70.345 78.952C71.5399 79.528 73.0629 80.262 75.2506 81.3624L75.2507 81.3625C76.6973 82.0908 77.869 82.5892 78.4284 82.8179C78.1704 80.9335 76.986 73.6109 75.8073 66.4074C74.5134 58.4996 73.2312 50.763 73.2044 50.6061L73.2023 50.594L73.2015 50.5817C73.1932 50.4656 73.1866 50.3981 73.1776 50.3528C73.1734 50.3312 73.1697 50.3207 73.1679 50.3165C73.1646 50.3134 73.1525 50.3033 73.1179 50.2827C73.0887 50.2653 73.0645 50.252 73.0348 50.2357C73.0023 50.2178 72.9634 50.1964 72.9044 50.1623L72.9043 50.1624L72.8954 50.1568C71.1373 49.0375 55.4625 40.0596 54.7083 39.6676C54.641 39.6368 54.5801 39.6085 54.5245 39.5826C54.4245 39.5361 54.3414 39.4975 54.2676 39.4662C54.2388 39.454 54.2135 39.4438 54.1913 39.4355C54.1915 39.4735 54.1936 39.5233 54.199 39.5878C54.2508 40.152 55.6059 48.4963 56.9537 56.7521C57.3194 58.9916 57.6839 61.2215 58.0212 63.2849C58.3054 65.0231 58.5703 66.6432 58.8002 68.0513C59.0515 69.5905 59.2608 70.8753 59.4076 71.782C59.481 72.2354 59.5387 72.5944 59.5783 72.8436C59.5981 72.9681 59.6134 73.0656 59.6238 73.1337C59.6274 73.1573 59.6305 73.1776 59.633 73.1945C59.6594 73.2179 59.7011 73.2505 59.7605 73.2925C59.8963 73.3883 60.0975 73.5143 60.3511 73.6641C60.8569 73.9626 61.5511 74.3437 62.2997 74.7459C62.8854 75.0606 63.5049 75.3884 64.0906 75.6984Z" fill="#006B60" stroke="white" stroke-width="0.5"/>
<path d="M68.3245 78.2446C68.3848 78.7497 69.2108 78.7999 69.1873 78.492C68.9285 75.2606 65.0883 51.9992 64.5026 46.0641C64.468 45.737 64.4776 45.3973 64.4834 45.1625C64.4856 45.0327 64.5638 44.9232 64.6866 44.8909C75.8824 41.1266 82.5684 41.4185 98.0218 38.037C98.1901 38.017 98.2056 37.7766 97.894 37.5709C97.7542 37.4845 97.4575 37.5273 97.3484 37.5388C97.1689 37.5396 87.9196 39.3317 87.7513 39.3518C81.922 40.4548 73.5032 41.1247 63.9992 44.3237C63.8627 44.3768 63.7845 44.4862 63.7519 44.6079C63.0574 46.5 65.9905 59.5512 68.3342 78.239L68.3245 78.2446Z" fill="#AB3A35"/>
<path d="M82.1383 38.5816C82.0916 38.6343 82.0819 38.6399 82.1383 38.5816V38.5816ZM84.9287 33.5512C84.7893 33.5545 84.6569 33.5924 84.5285 33.6151C81.7954 34.4475 81.2015 36.6029 81.1613 39.3385C81.1539 39.5485 81.1138 39.5459 81.3311 39.3433C82.3322 38.4054 85.671 35.2822 85.372 33.8737C85.3048 33.6682 85.2436 33.5622 84.9383 33.5456L84.9287 33.5512ZM85.1817 32.698C86.033 32.8365 86.6226 33.7687 86.0237 35.0915C84.9926 37.3579 81.1732 40.7843 80.8906 40.896C80.6233 41.0118 80.2924 40.8172 80.2882 40.4982C80.2351 40.3617 80.2876 39.7401 80.2827 39.5758C80.3388 36.3554 80.9362 33.7609 84.2101 32.7963C84.519 32.7079 84.8294 32.6444 85.1513 32.6899C85.1665 32.694 85.1665 32.694 85.1762 32.6884L85.1817 32.698Z" fill="#AB3A35"/>
<path d="M88.747 43.8153C88.7885 43.8427 88.7789 43.8483 88.747 43.8153V43.8153ZM81.1645 40.0559C84.2464 39.7163 90.2576 42.8917 89.5551 43.9015C89.3987 44.1203 89.0909 44.1438 88.948 44.0077C86.1322 41.4684 82.5059 40.7983 81.3217 40.9292C80.7019 40.9914 80.6457 40.1369 81.1701 40.0655L81.1645 40.0559Z" fill="#AB3A35"/>
<path d="M80.7557 42.5549C80.7369 42.6557 80.7409 42.6405 80.7557 42.5549V42.5549ZM81.0647 40.3068C81.8047 40.5866 80.8947 40.8806 80.2285 45.4045C79.9191 47.5628 80.3173 48.297 79.7102 48.4033C79.5916 48.4204 79.4755 48.3975 79.3812 48.3233C78.7662 47.8814 79.8959 39.8633 81.0647 40.3068Z" fill="#AB3A35"/>
<path d="M108.299 74.9613C108.316 74.9262 108.312 74.9411 108.299 74.9613V74.9613Z" fill="white"/>
<path d="M108.304 74.9714C108.25 75.0798 108.25 75.0798 108.304 74.9714V74.9714Z" fill="white"/>
<path d="M79.933 53.4421C80.2367 53.4339 80.5308 53.4312 80.8346 53.4229C80.2836 52.8026 79.7765 52.4141 80.2084 52.049C80.6211 51.695 80.8994 52.1771 81.8889 53.2898C82.1506 52.8302 82.6818 51.7908 83.0667 51.7228C83.4669 51.6589 83.73 52.1369 83.502 52.4099C83.2369 52.7301 83.1943 52.7675 82.8106 53.439C84.0605 53.4886 84.8086 53.4038 84.7546 54.0006C84.7336 54.2313 84.5107 54.4242 84.2745 54.3935C83.7771 54.3336 83.2578 54.3249 82.838 54.3102C83.2695 54.7681 83.5693 55.1092 83.7288 55.2742C84.2404 55.7373 83.6104 56.2938 83.2335 55.9972C83.0603 55.853 83.0325 55.8048 82.0252 54.728C81.8824 54.9261 81.1821 55.8061 81.1425 55.8933C80.9178 56.3058 80.0962 55.996 80.4235 55.3828C80.4672 55.2804 81.1264 54.4628 81.2554 54.2855C79.9644 54.2981 79.766 54.3998 79.5619 54.1577C79.3467 53.8963 79.469 53.44 79.9426 53.4366L79.933 53.4421Z" fill="white"/>
<path d="M99.9365 49.6568C99.3503 48.864 98.8135 48.6469 99.172 48.2214C99.6199 47.7057 100.299 48.6375 100.818 49.3795C101.169 48.9195 101.442 48.5689 101.8 48.2083C102.054 47.9586 102.556 48.1828 102.521 48.5889C102.506 48.7644 102.369 48.8824 102.242 49.0196C101.986 49.3094 101.792 49.5754 101.57 49.858C102.017 49.921 102.471 49.9935 102.917 50.0316C103.489 50.087 103.417 50.9642 102.829 50.9047C102.463 50.8718 102.101 50.8237 101.734 50.7659C101.756 50.8045 102.273 51.6114 102.3 51.6347C102.779 51.975 102.115 52.9626 101.488 51.9877C101.307 51.7192 101.175 51.5127 100.796 50.922C100.513 51.3679 100.21 51.8001 99.7341 52.2675C99.4798 52.5172 98.9679 52.2986 99.013 51.8869C99.03 51.6714 99.231 51.5296 99.3904 51.3605C99.6377 51.0763 99.8078 50.8366 100.004 50.5306C98.8145 50.4075 98.1744 50.5456 98.2243 49.9641C98.269 49.4626 98.7968 49.5307 99.931 49.6472L99.9365 49.6568Z" fill="white"/>
<path d="M92.9609 59.3536C92.5065 59.3459 92.0563 59.3231 91.6116 59.3099C91.1517 59.2926 91.0365 58.5364 91.5842 58.4387C91.6187 58.4316 93.0426 58.4709 93.0923 58.4679C92.9449 58.2573 92.7409 58.0151 92.512 57.7745C92.161 57.4115 92.7241 56.7393 93.1764 57.2109C93.5274 57.5739 93.6691 57.7749 93.8595 58.0378C94.0311 57.823 94.6862 57.0205 94.9581 56.9793C95.3927 56.9083 95.6685 57.4304 95.3288 57.7551C94.7856 58.2615 94.8201 58.2544 94.6815 58.4373C95.4533 58.4159 96.8248 58.4982 96.5532 59.2078C96.3431 59.779 96.0288 59.2792 94.7433 59.3015C95.1867 59.9582 95.3448 60.0983 95.3293 60.3386C95.3041 60.5845 95.095 60.7567 94.8491 60.7316C94.5479 60.6998 94.5279 60.5314 93.8718 59.5732C93.2327 60.5592 92.9581 61.2191 92.4636 60.8747C92.2711 60.7417 92.2091 60.4561 92.3574 60.2676C92.5427 60.0321 92.655 59.8258 92.9705 59.348L92.9609 59.3536Z" fill="white"/>
<path d="M81.7766 62.7133C82.624 62.6225 82.8147 62.641 83.1752 62.6643C82.7194 61.719 82.3481 61.4321 82.779 61.1319C83.2814 60.7775 83.5954 61.5218 83.9829 62.3265C84.6995 61.3857 84.8666 60.7622 85.321 61.104C85.702 61.3854 85.4262 61.776 84.6603 62.8096C85.869 62.9215 86.4528 62.8416 86.3917 63.4039C86.3444 63.9454 85.7569 63.7961 84.6683 63.6919C85.0458 64.4124 85.183 64.5388 85.1467 64.7654C85.1008 64.9976 84.8861 65.1601 84.6443 65.1198C84.3417 65.0632 84.2867 64.8121 83.7909 63.8643C83.4679 64.2178 82.7287 65.0303 82.7287 65.0303C82.3194 65.5237 81.7862 64.8674 82.0706 64.5361C82.3219 64.2367 82.4676 64.0883 82.9637 63.5448C82.1088 63.5113 81.5314 63.7804 81.4337 63.2327C81.3899 63.0009 81.5641 62.746 81.7877 62.7326L81.7766 62.7133Z" fill="white"/>
<path d="M78.8453 71.3088C78.9695 71.3013 79.0897 71.3091 79.2139 71.3016C79.0681 71.1158 78.8559 70.9041 78.6812 70.7351C78.5383 70.599 78.5342 70.28 78.7336 70.1134C79.156 69.7539 79.6865 70.4503 80.0435 70.9126C80.075 70.8559 80.0654 70.8615 80.0435 70.9126C80.5487 69.9397 80.5494 69.785 80.8461 69.7422C81.0779 69.6984 81.3119 69.8589 81.3517 70.1059C81.3941 70.3129 80.9911 70.9954 80.8925 71.1809C81.279 71.1378 81.6614 71.1098 82.0437 71.0819C82.7451 71.0498 82.6482 71.9284 82.2009 71.9553C81.6334 71.9744 81.461 72.0096 80.9006 72.0632C81.3132 72.622 81.7982 73.3061 81.7982 73.3061C82.1744 73.7574 81.4947 74.3169 81.1241 73.8753C81.1241 73.8753 80.7697 73.3729 80.1389 72.503C79.7304 73.1759 79.7531 73.3042 79.462 73.3566C79.2302 73.4004 78.9961 73.2399 78.9563 72.9929C78.9236 72.7804 79.1883 72.3705 79.3062 72.1739C78.8823 72.1744 78.6768 72.2416 78.4991 72.0228C78.2743 71.767 78.4062 71.3052 78.8798 71.3017L78.8453 71.3088Z" fill="white"/>
<path d="M87.0126 75.2319C87.3995 75.2786 87.7808 75.3155 88.1621 75.3525C87.9394 74.9668 87.7264 74.5756 87.523 74.1788C87.2862 73.7242 88.0312 73.2555 88.3307 73.8411C88.5285 74.2282 88.7359 74.6098 88.953 74.9858C89.2469 74.3148 89.3751 73.9579 89.5832 73.8507C89.9566 73.6737 90.345 74.0793 90.1849 74.4031C89.8728 75.0204 89.8265 75.1628 89.6913 75.4851C92.0064 75.6654 91.4755 76.4604 91.1944 76.5969C90.9326 76.7224 90.8132 76.56 90.4233 76.4637C90.2119 76.4315 89.9909 76.4048 89.7754 76.3879C90.3988 77.4677 90.7673 78.0391 90.2229 78.2763C89.7363 78.48 89.6401 77.9571 89.0861 76.9529C88.7962 77.6087 88.486 78.3406 87.986 77.9866C87.5482 77.6737 87.9283 77.4414 88.4216 76.2696C87.0678 76.1514 86.5212 76.1842 86.5492 75.6538C86.5702 75.4231 86.7819 75.2109 87.0182 75.2416L87.0126 75.2319Z" fill="white"/>
<path d="M97.269 68.2828C97.6076 68.3572 97.9519 68.4413 98.2864 68.5309C98.1959 68.3518 98.0997 68.1631 97.9996 67.9895C97.827 67.6907 98.144 67.2377 98.552 67.3878C98.7872 67.4834 99.1037 68.1876 99.2125 68.4205C99.3597 68.2969 99.98 67.746 100.168 67.7148C100.637 67.6367 100.847 68.2226 100.523 68.4865C100.347 68.6267 100.181 68.7614 100.004 68.9016C100.907 69.0619 101.066 69.0474 101.221 69.2276C101.49 69.5606 101.183 70.008 100.84 69.9487C100.482 69.8854 100.134 69.8166 99.7859 69.7477C100.132 70.525 99.9255 70.0785 100.108 70.4615C100.165 70.5828 100.213 70.7096 100.28 70.8253C100.645 71.347 99.9138 71.7949 99.5999 71.3848C99.4318 71.1605 99.0258 70.2123 98.8569 69.8084C98.2803 70.257 98.2117 70.3609 97.8239 70.7134C97.4264 71.0714 96.8009 70.4556 97.2547 70.0393C97.6796 69.6397 97.6177 69.6883 98.0167 69.3551C97.7886 69.294 97.566 69.2425 97.3283 69.187C96.3925 68.9688 96.864 68.1824 97.269 68.2828Z" fill="white"/>
<path d="M108.145 62.1185C108.258 62.3362 108.145 62.6073 107.931 62.7049C107.465 62.9224 107.267 62.3558 106.889 61.6353C105.864 62.5098 105.564 62.9019 105.21 62.4892C104.866 62.071 105.418 61.7136 106.055 61.1916C105.668 61.145 105.302 61.1121 104.886 61.0822C104.405 61.0512 104.33 60.2976 104.859 60.211C105.012 60.1868 106.031 60.3052 106.182 60.3211C106.065 60.1186 105.991 59.9684 105.66 59.5943C105.349 59.2339 105.874 57.9405 107.073 60.1279C107.169 59.9825 107.265 59.8371 107.346 59.6876C107.421 59.5285 107.477 59.3805 107.643 59.3107C108.016 59.1337 108.395 59.5449 108.244 59.8631C108.12 60.115 107.99 60.3572 107.829 60.5913C108.684 60.7145 109.283 60.6387 109.232 61.1954C109.201 61.4317 108.988 61.619 108.752 61.5883C108.426 61.558 108.109 61.5221 107.788 61.4766C107.9 61.6943 108.019 61.9216 108.132 62.1393L108.145 62.1185Z" fill="white"/>
<path d="M107.763 73.1241C107.291 72.2397 106.915 71.7885 107.393 71.5254C107.88 71.2567 108.06 71.8345 108.541 72.7133C108.832 72.237 109.174 71.6279 109.614 71.9656C110.079 72.3267 109.501 72.7505 109.155 73.3748C109.553 73.4407 109.956 73.5162 110.356 73.6069C110.816 73.714 110.734 74.5967 110.051 74.4382C109.829 74.3867 109.789 74.3841 109.44 74.3152C109.659 74.7161 109.741 74.9256 109.959 75.3914C110.234 75.9784 109.404 76.2776 109.186 75.8118C108.974 75.3557 108.768 74.9092 108.54 74.5139C108.145 75.2558 107.805 75.9795 107.313 75.5951C107.13 75.4564 107.072 75.1557 107.231 74.9865C107.455 74.7287 107.651 74.3329 107.807 74.0242C107.227 73.9095 106.659 73.9286 106.704 73.4271C106.761 72.88 107.35 73.0542 107.753 73.1297L107.763 73.1241Z" fill="white"/>
<path d="M106.441 52.7541C105.827 51.9131 107.158 51.4142 107.536 52.1347C107.833 52.7603 106.904 53.3997 106.441 52.7541Z" fill="white"/>
<path d="M92.7024 51.1343C93.1358 50.7941 93.9075 51.3513 93.5356 51.8873C93.0912 52.5424 92.0268 51.6786 92.7024 51.1343Z" fill="white"/>
<path d="M78.22 60.7165C77.8216 60.5609 77.6812 60.0506 77.9311 59.7263C78.185 59.3869 78.6987 59.386 78.8961 59.6834C79.3231 60.0667 78.8079 60.9555 78.2103 60.7221L78.22 60.7165Z" fill="white"/>
<path d="M106.302 66.872C106.481 67.0259 106.421 67.3686 106.211 67.5159C105.795 67.8201 105.358 67.2628 105.641 66.9067C105.816 66.6767 106.166 66.6807 106.302 66.872Z" fill="white"/>
<path d="M101.392 74.0654C101.874 74.0315 102.239 74.5532 102.016 74.9905C101.763 75.5095 100.826 75.446 100.715 74.8293C100.633 74.3753 100.994 74.0892 101.392 74.0654Z" fill="white"/>
<path d="M87.8018 69.0946C87.5036 69.1125 87.3151 68.9642 87.2383 68.7643C87.026 68.2184 87.6263 67.8333 88.0377 68.1228C88.3756 68.3519 88.3733 69.0603 87.8018 69.0946Z" fill="white"/>
<path d="M97.7731 63.9673C96.8906 63.6412 97.4058 62.4183 98.1888 62.7503C98.8754 63.1381 98.6251 64.2853 97.7731 63.9673Z" fill="white"/>
<path d="M100.37 56.6447C100.877 56.5195 101.272 57.2041 100.722 57.4316C100.147 57.6606 99.8478 56.8307 100.37 56.6447Z" fill="white"/>
<path d="M92.5735 67.1877C92.9462 67.1654 93.2145 67.5632 93.0447 67.8926C92.849 68.2884 92.1432 68.246 92.05 67.7728C91.9794 67.4279 92.2601 67.2016 92.5638 67.1933L92.5735 67.1877Z" fill="white"/>
<path d="M74.0718 35.3844C73.9739 35.4152 73.8637 35.4917 73.9524 35.5562C75.0104 36.2308 80.3615 39.7103 85.236 44.0562C85.2415 44.0658 85.2415 44.0658 85.2415 44.0658C85.2623 44.0796 85.2734 44.0988 85.2886 44.1029C85.3039 44.107 85.3094 44.1166 85.3094 44.1166C86.7986 45.4936 85.0768 43.981 88.5679 47.1331C88.5679 47.1331 89.0305 47.4445 89.2514 48.3839C95.8503 76.5572 95.0996 70.4474 96.0214 80.2378C96.04 80.3813 96.4264 80.3381 96.7531 80.2138C96.9337 80.1481 96.8647 79.828 96.8382 79.4705C96.7431 76.723 96.1484 73.7113 95.5445 71.129C90.0074 47.6003 90.5626 47.6269 89.7339 46.9484C87.4983 45.1025 85.824 43.3825 85.824 43.3825C82.649 40.5106 75.4923 35.6184 74.7813 35.3219C74.6844 35.2878 74.3503 35.2879 74.0814 35.3788L74.0718 35.3844Z" fill="#AB3A35"/>
<path d="M336.914 41.6559C338.871 41.3823 340.702 40.4985 342.28 39.1727C338.808 37.3208 335.714 34.4799 333.168 30.9025C334.809 30.8183 335.988 30.1238 337.293 28.9664C334.957 27.6406 332.937 25.6415 331.232 23.1583C332.242 23.0741 333.273 22.7585 334.094 22.1271C332.642 21.3275 331.211 19.7913 330.096 18.3182C330.79 18.213 331.442 17.8342 332.032 17.266C330.811 16.4453 329.738 15.1826 328.833 13.5623C329.422 13.5202 329.885 13.3308 330.369 12.8047C328.307 11.3106 326.855 7.75414 326.371 3.35596C325.887 7.75414 324.435 11.3106 322.372 12.8047C322.878 13.3308 323.319 13.5202 323.909 13.5623C323.004 15.1826 321.931 16.4453 320.731 17.266C321.32 17.8342 321.973 18.213 322.667 18.3182C321.552 19.7913 320.121 21.3485 318.669 22.1271C319.489 22.7585 320.521 23.0952 321.531 23.1583C319.847 25.6415 317.827 27.6406 315.491 28.9664C316.817 30.1238 317.974 30.8183 319.616 30.9025C317.069 34.4799 313.976 37.3208 310.504 39.1727C312.103 40.4985 313.913 41.3613 315.87 41.6559C312.587 45.1071 308.736 47.8849 304.464 49.7789C307.2 51.6518 310.377 52.3462 313.808 52.3462C318.101 52.3462 322.057 50.9363 325.129 48.1795V56.0289H327.57V48.1795C330.664 50.9363 334.599 52.3462 338.892 52.3462C342.322 52.3462 345.521 51.6518 348.235 49.7789C343.985 47.8849 340.113 45.1281 336.83 41.6559H336.914Z" fill="#006B60"/>
<path d="M275.327 54.206C276.527 54.0377 277.663 53.4905 278.631 52.6698C276.506 51.5124 274.591 49.7657 273.012 47.5772C274.022 47.514 274.759 47.0932 275.559 46.3777C274.107 45.557 272.865 44.3364 271.834 42.8002C272.465 42.7581 273.096 42.5477 273.602 42.1689C272.697 41.6849 271.813 40.7379 271.139 39.812C271.56 39.7278 271.96 39.5174 272.339 39.1596C271.602 38.6545 270.929 37.8759 270.382 36.8869C270.761 36.8658 271.034 36.7606 271.329 36.4239C270.045 35.498 269.161 33.3094 268.867 30.5947C268.572 33.3094 267.667 35.498 266.383 36.4239C266.699 36.7606 266.973 36.8658 267.33 36.8869C266.783 37.897 266.11 38.6545 265.373 39.1596C265.731 39.5174 266.131 39.7488 266.573 39.812C265.899 40.7169 264.995 41.6638 264.111 42.1689C264.616 42.5687 265.247 42.7581 265.878 42.8002C264.847 44.3364 263.585 45.557 262.154 46.3777C262.974 47.0932 263.69 47.514 264.7 47.5772C263.143 49.7868 261.228 51.5334 259.081 52.6698C260.07 53.4905 261.186 54.0377 262.385 54.206C260.365 56.3314 257.987 58.057 255.356 59.2145C257.04 60.3719 259.018 60.7928 261.122 60.7928C263.774 60.7928 266.215 59.93 268.109 58.2254V63.0655H269.624V58.2254C271.539 59.93 273.959 60.7928 276.611 60.7928C278.736 60.7928 280.693 60.3719 282.377 59.2145C279.746 58.057 277.368 56.3525 275.348 54.206H275.327Z" fill="#006B60"/>
<mask id="path-32-inside-1_239:654" fill="white">
<path d="M164.944 11.5976C165.366 11.1127 166.083 11.0705 166.567 11.4922L169.582 14.1064L170.784 14.0221L169.519 12.9258C169.034 12.5041 168.992 11.7662 169.414 11.3024C169.835 10.8175 170.552 10.7754 171.037 11.197L174.052 13.8112L176.434 13.6426L175.106 11.6608L171.185 10.9019C170.552 10.7754 170.151 10.1851 170.278 9.55258C170.404 8.92011 171.016 8.51954 171.627 8.64603L173.272 8.96227L172.597 7.97139L168.697 7.21242C168.064 7.08593 167.664 6.47454 167.79 5.86314C167.917 5.23067 168.507 4.8301 169.14 4.9566L170.784 5.27283L169.624 3.56515C169.266 3.03809 169.414 2.32128 169.941 1.96288C170.468 1.60448 171.185 1.75206 171.543 2.27912L172.702 3.9868L173.019 2.34237C173.145 1.70989 173.736 1.30932 174.368 1.43582C175 1.56231 175.401 2.17371 175.275 2.7851L174.516 6.68536L175.19 7.69732L175.506 6.05289C175.633 5.42041 176.223 5.01984 176.856 5.14634C177.488 5.27283 177.889 5.88423 177.762 6.49562L177.003 10.3959L178.331 12.3776L179.386 10.2272L178.078 6.45345C177.868 5.84206 178.184 5.1885 178.795 4.97768C179.407 4.76685 180.06 5.08309 180.271 5.69448L180.819 7.27567L181.346 6.20046L180.06 2.4267C179.849 1.83639 180.166 1.16175 180.777 0.950922C181.388 0.740097 182.042 1.05633 182.253 1.66773L182.801 3.24891L183.708 1.39365C183.982 0.824427 184.677 0.571437 185.247 0.866592C185.816 1.14066 186.048 1.83639 185.774 2.40561L184.867 4.26087L186.448 3.71273C187.06 3.5019 187.713 3.81814 187.924 4.42953C188.135 5.01984 187.819 5.69448 187.207 5.90531L183.433 7.21242L182.906 8.28763L184.488 7.73949C185.099 7.52866 185.753 7.8449 185.963 8.45629C186.174 9.0466 185.858 9.72124 185.247 9.93207L181.473 11.2181L180.419 13.3685L182.801 13.1999L185.415 10.1851C185.837 9.70016 186.554 9.65799 187.039 10.0796C187.523 10.5013 187.566 11.2392 187.144 11.703L186.048 12.9679L187.249 12.8836L189.864 9.86882C190.285 9.38392 191.002 9.34176 191.487 9.74232C191.972 10.164 192.014 10.9019 191.592 11.3657L190.496 12.6306L192.562 12.483C193.195 12.4409 193.743 12.9258 193.806 13.5583C193.848 14.1907 193.363 14.76 192.731 14.8021L190.665 14.9497L191.93 16.046C192.415 16.4676 192.457 17.1844 192.035 17.6693C191.613 18.1542 190.897 18.1964 190.412 17.7748L187.397 15.1605L186.195 15.2449L187.46 16.3411C187.945 16.7628 187.987 17.4796 187.566 17.9645C187.144 18.4494 186.427 18.4916 185.942 18.0699L182.927 15.4557L180.545 15.6243L181.873 17.6061L185.795 18.3651C186.427 18.4916 186.828 19.103 186.701 19.7143C186.575 20.3468 185.963 20.7474 185.352 20.6209L183.708 20.3047L184.382 21.2955L188.282 22.0545C188.915 22.181 189.315 22.7713 189.189 23.4038C189.062 24.0363 188.472 24.4368 187.84 24.3103L186.195 23.9941L187.355 25.7018C187.713 26.2288 187.566 26.9456 187.039 27.304C186.511 27.6624 185.795 27.5149 185.436 26.9878L184.277 25.2801L183.961 26.9246C183.834 27.557 183.223 27.9576 182.611 27.8311C181.979 27.7046 181.578 27.0932 181.684 26.4818L182.443 22.5816L181.768 21.5907L181.452 23.2351C181.325 23.8676 180.735 24.2682 180.102 24.1628C179.47 24.0363 179.069 23.4249 179.196 22.8135L179.955 18.8921L178.627 16.9104L177.573 19.0608L178.88 22.8346C179.09 23.4459 178.753 24.0995 178.163 24.3103C177.551 24.5212 176.898 24.1838 176.687 23.5935L176.139 22.0123L175.612 23.0875L176.919 26.8613C177.13 27.4727 176.814 28.1263 176.202 28.3371C175.591 28.5479 174.937 28.2317 174.726 27.6203L174.178 26.0391L173.272 27.8944C172.998 28.4636 172.302 28.7166 171.733 28.4214C171.163 28.1473 170.91 27.4516 171.206 26.8824L172.112 25.0271L170.531 25.5753C169.92 25.7861 169.266 25.4699 169.055 24.8585C168.844 24.2471 169.161 23.5935 169.772 23.3827L173.546 22.0756L174.073 21.0004L172.492 21.5485C171.88 21.7593 171.227 21.422 171.016 20.8317C170.805 20.2203 171.142 19.5668 171.733 19.3559L175.506 18.0488L176.561 15.8984L174.178 16.0671L171.564 19.0819C171.142 19.5668 170.404 19.63 169.941 19.2084C169.456 18.7867 169.414 18.0488 169.835 17.585L170.932 16.3201L169.73 16.4044L167.116 19.4192C166.694 19.9041 165.977 19.9463 165.492 19.5246C165.007 19.103 164.965 18.3861 165.387 17.9012L166.483 16.6363L164.417 16.7839C163.785 16.826 163.236 16.3622 163.173 15.7087C163.131 15.0762 163.616 14.5281 164.248 14.4648L166.314 14.3172L165.05 13.2209C164.565 12.7993 164.522 12.0825 164.923 11.5976H164.944Z"/>
</mask>
<path d="M164.944 11.5976C165.366 11.1127 166.083 11.0705 166.567 11.4922L169.582 14.1064L170.784 14.0221L169.519 12.9258C169.034 12.5041 168.992 11.7662 169.414 11.3024C169.835 10.8175 170.552 10.7754 171.037 11.197L174.052 13.8112L176.434 13.6426L175.106 11.6608L171.185 10.9019C170.552 10.7754 170.151 10.1851 170.278 9.55258C170.404 8.92011 171.016 8.51954 171.627 8.64603L173.272 8.96227L172.597 7.97139L168.697 7.21242C168.064 7.08593 167.664 6.47454 167.79 5.86314C167.917 5.23067 168.507 4.8301 169.14 4.9566L170.784 5.27283L169.624 3.56515C169.266 3.03809 169.414 2.32128 169.941 1.96288C170.468 1.60448 171.185 1.75206 171.543 2.27912L172.702 3.9868L173.019 2.34237C173.145 1.70989 173.736 1.30932 174.368 1.43582C175 1.56231 175.401 2.17371 175.275 2.7851L174.516 6.68536L175.19 7.69732L175.506 6.05289C175.633 5.42041 176.223 5.01984 176.856 5.14634C177.488 5.27283 177.889 5.88423 177.762 6.49562L177.003 10.3959L178.331 12.3776L179.386 10.2272L178.078 6.45345C177.868 5.84206 178.184 5.1885 178.795 4.97768C179.407 4.76685 180.06 5.08309 180.271 5.69448L180.819 7.27567L181.346 6.20046L180.06 2.4267C179.849 1.83639 180.166 1.16175 180.777 0.950922C181.388 0.740097 182.042 1.05633 182.253 1.66773L182.801 3.24891L183.708 1.39365C183.982 0.824427 184.677 0.571437 185.247 0.866592C185.816 1.14066 186.048 1.83639 185.774 2.40561L184.867 4.26087L186.448 3.71273C187.06 3.5019 187.713 3.81814 187.924 4.42953C188.135 5.01984 187.819 5.69448 187.207 5.90531L183.433 7.21242L182.906 8.28763L184.488 7.73949C185.099 7.52866 185.753 7.8449 185.963 8.45629C186.174 9.0466 185.858 9.72124 185.247 9.93207L181.473 11.2181L180.419 13.3685L182.801 13.1999L185.415 10.1851C185.837 9.70016 186.554 9.65799 187.039 10.0796C187.523 10.5013 187.566 11.2392 187.144 11.703L186.048 12.9679L187.249 12.8836L189.864 9.86882C190.285 9.38392 191.002 9.34176 191.487 9.74232C191.972 10.164 192.014 10.9019 191.592 11.3657L190.496 12.6306L192.562 12.483C193.195 12.4409 193.743 12.9258 193.806 13.5583C193.848 14.1907 193.363 14.76 192.731 14.8021L190.665 14.9497L191.93 16.046C192.415 16.4676 192.457 17.1844 192.035 17.6693C191.613 18.1542 190.897 18.1964 190.412 17.7748L187.397 15.1605L186.195 15.2449L187.46 16.3411C187.945 16.7628 187.987 17.4796 187.566 17.9645C187.144 18.4494 186.427 18.4916 185.942 18.0699L182.927 15.4557L180.545 15.6243L181.873 17.6061L185.795 18.3651C186.427 18.4916 186.828 19.103 186.701 19.7143C186.575 20.3468 185.963 20.7474 185.352 20.6209L183.708 20.3047L184.382 21.2955L188.282 22.0545C188.915 22.181 189.315 22.7713 189.189 23.4038C189.062 24.0363 188.472 24.4368 187.84 24.3103L186.195 23.9941L187.355 25.7018C187.713 26.2288 187.566 26.9456 187.039 27.304C186.511 27.6624 185.795 27.5149 185.436 26.9878L184.277 25.2801L183.961 26.9246C183.834 27.557 183.223 27.9576 182.611 27.8311C181.979 27.7046 181.578 27.0932 181.684 26.4818L182.443 22.5816L181.768 21.5907L181.452 23.2351C181.325 23.8676 180.735 24.2682 180.102 24.1628C179.47 24.0363 179.069 23.4249 179.196 22.8135L179.955 18.8921L178.627 16.9104L177.573 19.0608L178.88 22.8346C179.09 23.4459 178.753 24.0995 178.163 24.3103C177.551 24.5212 176.898 24.1838 176.687 23.5935L176.139 22.0123L175.612 23.0875L176.919 26.8613C177.13 27.4727 176.814 28.1263 176.202 28.3371C175.591 28.5479 174.937 28.2317 174.726 27.6203L174.178 26.0391L173.272 27.8944C172.998 28.4636 172.302 28.7166 171.733 28.4214C171.163 28.1473 170.91 27.4516 171.206 26.8824L172.112 25.0271L170.531 25.5753C169.92 25.7861 169.266 25.4699 169.055 24.8585C168.844 24.2471 169.161 23.5935 169.772 23.3827L173.546 22.0756L174.073 21.0004L172.492 21.5485C171.88 21.7593 171.227 21.422 171.016 20.8317C170.805 20.2203 171.142 19.5668 171.733 19.3559L175.506 18.0488L176.561 15.8984L174.178 16.0671L171.564 19.0819C171.142 19.5668 170.404 19.63 169.941 19.2084C169.456 18.7867 169.414 18.0488 169.835 17.585L170.932 16.3201L169.73 16.4044L167.116 19.4192C166.694 19.9041 165.977 19.9463 165.492 19.5246C165.007 19.103 164.965 18.3861 165.387 17.9012L166.483 16.6363L164.417 16.7839C163.785 16.826 163.236 16.3622 163.173 15.7087C163.131 15.0762 163.616 14.5281 164.248 14.4648L166.314 14.3172L165.05 13.2209C164.565 12.7993 164.522 12.0825 164.923 11.5976H164.944Z" fill="white" stroke="#007266" stroke-width="1.4" mask="url(#path-32-inside-1_239:654)"/>
<mask id="path-33-inside-2_239:654" fill="white">
<path d="M197.113 39.2131C197.498 39.1092 197.882 39.3357 197.986 39.7209L198.635 42.1121L199.283 42.4847L199.011 41.4817C198.907 41.0965 199.141 40.7017 199.519 40.6086C199.904 40.5048 200.288 40.7312 200.392 41.1164L201.04 43.5076L202.326 44.2457L202.328 42.7644L200.57 41.0154C200.288 40.7312 200.286 40.2883 200.57 40.0062C200.854 39.724 201.308 39.7293 201.579 40.0062L202.317 40.7386L202.313 39.9943L200.565 38.2526C200.283 37.9684 200.289 37.5146 200.566 37.2434C200.85 36.9612 201.293 36.9592 201.575 37.2434L202.313 37.9758L202.307 36.6942C202.304 36.2985 202.629 35.9802 203.024 35.978C203.42 35.9758 203.738 36.3001 203.741 36.6958L203.747 37.9774L204.479 37.2394C204.763 36.9573 205.206 36.9552 205.488 37.2394C205.771 37.5236 205.765 37.9774 205.488 38.2487L203.747 39.9959L203.744 40.751L204.476 40.0131C204.761 39.7309 205.203 39.7289 205.486 40.0131C205.768 40.2973 205.763 40.7511 205.486 41.0224L203.744 42.7696L203.742 44.2508L205.03 43.5076L205.663 41.1101C205.766 40.7221 206.156 40.4948 206.544 40.5978C206.932 40.7009 207.159 41.0902 207.056 41.4782L206.791 42.4829L207.435 42.1113L208.079 39.7212C208.175 39.344 208.571 39.1058 208.959 39.2088C209.347 39.3119 209.575 39.7012 209.472 40.0893L209.207 41.094L210.316 40.4518C210.655 40.2533 211.101 40.3638 211.292 40.7131C211.49 41.0514 211.369 41.4903 211.031 41.6887L209.921 42.3309L210.926 42.5959C211.314 42.699 211.541 43.0883 211.438 43.4764C211.342 43.8536 210.946 44.0918 210.558 43.9887L208.16 43.3556L207.516 43.7272L208.521 43.9922C208.909 44.0953 209.136 44.4846 209.033 44.8726C208.937 45.2499 208.541 45.488 208.153 45.385L205.763 44.741L204.475 45.4842L205.761 46.2222L208.152 45.5738C208.537 45.4699 208.921 45.6963 209.025 46.0816C209.129 46.4668 208.895 46.8616 208.517 46.9547L207.514 47.2269L208.163 47.5996L210.554 46.9511C210.939 46.8473 211.323 47.0737 211.434 47.4481C211.538 47.8333 211.305 48.2282 210.927 48.3212L209.924 48.5935L211.039 49.2328C211.38 49.4301 211.495 49.8698 211.308 50.2177C211.111 50.5582 210.664 50.6837 210.323 50.4864L209.208 49.847L209.48 50.85C209.584 51.2352 209.357 51.6192 208.972 51.7231C208.587 51.827 208.203 51.6005 208.099 51.2153L207.45 48.8241L206.802 48.4514L207.074 49.4544C207.178 49.8396 206.952 50.2237 206.566 50.3275C206.181 50.4314 205.797 50.2049 205.693 49.8197L205.045 47.4285L203.759 46.6905L203.757 48.1717L205.515 49.9207C205.797 50.2049 205.792 50.6587 205.515 50.93C205.231 51.2122 204.777 51.2069 204.506 50.93L203.768 50.1976L203.772 50.9418L205.52 52.6835C205.802 52.9677 205.804 53.4107 205.52 53.6928C205.235 53.975 204.792 53.977 204.51 53.6928L203.772 52.9604L203.779 54.242C203.781 54.6377 203.456 54.956 203.061 54.9582C202.665 54.9604 202.347 54.6361 202.345 54.2404L202.338 52.9588L201.606 53.6968C201.322 53.9789 200.868 53.9736 200.597 53.6967C200.314 53.4125 200.32 52.9588 200.586 52.6802L202.327 50.933L202.323 50.1887L201.591 50.9267C201.306 51.2088 200.863 51.2108 200.574 50.9375C200.292 50.6533 200.297 50.1995 200.574 49.9282L202.323 48.1702L202.325 46.689L201.037 47.4322L200.404 49.8296C200.301 50.2177 199.9 50.4377 199.523 50.3419C199.135 50.2389 198.915 49.8387 199.011 49.4615L199.276 48.4568L198.632 48.8284L197.999 51.2259C197.896 51.6139 197.507 51.8413 197.118 51.7382C196.73 51.6351 196.503 51.2459 196.606 50.8578L196.871 49.8531L195.762 50.4953C195.423 50.6937 194.977 50.5832 194.786 50.234C194.587 49.8956 194.698 49.4495 195.047 49.2583L196.157 48.6161L195.152 48.3511C194.764 48.248 194.537 47.8588 194.64 47.4707C194.743 47.0826 195.132 46.8553 195.52 46.9583L197.918 47.5915L198.562 47.2199L197.557 46.9548C197.169 46.8518 196.949 46.4516 197.045 46.0744C197.148 45.6863 197.548 45.4663 197.925 45.5621L200.322 46.1952L201.61 45.452L200.324 44.714L197.933 45.3624C197.548 45.4663 197.146 45.2434 197.053 44.8655C196.949 44.4803 197.183 44.0854 197.56 43.9924L198.563 43.7201L197.915 43.3475L195.524 43.9959C195.139 44.0998 194.755 43.8733 194.651 43.4881C194.547 43.1029 194.773 42.7189 195.158 42.615L196.161 42.3427L195.046 41.7033C194.705 41.5061 194.583 41.0772 194.777 40.7185C194.974 40.378 195.414 40.2634 195.762 40.4498L196.878 41.0892L196.605 40.0862C196.501 39.701 196.728 39.317 197.102 39.2058L197.113 39.2131Z"/>
</mask>
<path d="M197.113 39.2131C197.498 39.1092 197.882 39.3357 197.986 39.7209L198.635 42.1121L199.283 42.4847L199.011 41.4817C198.907 41.0965 199.141 40.7017 199.519 40.6086C199.904 40.5048 200.288 40.7312 200.392 41.1164L201.04 43.5076L202.326 44.2457L202.328 42.7644L200.57 41.0154C200.288 40.7312 200.286 40.2883 200.57 40.0062C200.854 39.724 201.308 39.7293 201.579 40.0062L202.317 40.7386L202.313 39.9943L200.565 38.2526C200.283 37.9684 200.289 37.5146 200.566 37.2434C200.85 36.9612 201.293 36.9592 201.575 37.2434L202.313 37.9758L202.307 36.6942C202.304 36.2985 202.629 35.9802 203.024 35.978C203.42 35.9758 203.738 36.3001 203.741 36.6958L203.747 37.9774L204.479 37.2394C204.763 36.9573 205.206 36.9552 205.488 37.2394C205.771 37.5236 205.765 37.9774 205.488 38.2487L203.747 39.9959L203.744 40.751L204.476 40.0131C204.761 39.7309 205.203 39.7289 205.486 40.0131C205.768 40.2973 205.763 40.7511 205.486 41.0224L203.744 42.7696L203.742 44.2508L205.03 43.5076L205.663 41.1101C205.766 40.7221 206.156 40.4948 206.544 40.5978C206.932 40.7009 207.159 41.0902 207.056 41.4782L206.791 42.4829L207.435 42.1113L208.079 39.7212C208.175 39.344 208.571 39.1058 208.959 39.2088C209.347 39.3119 209.575 39.7012 209.472 40.0893L209.207 41.094L210.316 40.4518C210.655 40.2533 211.101 40.3638 211.292 40.7131C211.49 41.0514 211.369 41.4903 211.031 41.6887L209.921 42.3309L210.926 42.5959C211.314 42.699 211.541 43.0883 211.438 43.4764C211.342 43.8536 210.946 44.0918 210.558 43.9887L208.16 43.3556L207.516 43.7272L208.521 43.9922C208.909 44.0953 209.136 44.4846 209.033 44.8726C208.937 45.2499 208.541 45.488 208.153 45.385L205.763 44.741L204.475 45.4842L205.761 46.2222L208.152 45.5738C208.537 45.4699 208.921 45.6963 209.025 46.0816C209.129 46.4668 208.895 46.8616 208.517 46.9547L207.514 47.2269L208.163 47.5996L210.554 46.9511C210.939 46.8473 211.323 47.0737 211.434 47.4481C211.538 47.8333 211.305 48.2282 210.927 48.3212L209.924 48.5935L211.039 49.2328C211.38 49.4301 211.495 49.8698 211.308 50.2177C211.111 50.5582 210.664 50.6837 210.323 50.4864L209.208 49.847L209.48 50.85C209.584 51.2352 209.357 51.6192 208.972 51.7231C208.587 51.827 208.203 51.6005 208.099 51.2153L207.45 48.8241L206.802 48.4514L207.074 49.4544C207.178 49.8396 206.952 50.2237 206.566 50.3275C206.181 50.4314 205.797 50.2049 205.693 49.8197L205.045 47.4285L203.759 46.6905L203.757 48.1717L205.515 49.9207C205.797 50.2049 205.792 50.6587 205.515 50.93C205.231 51.2122 204.777 51.2069 204.506 50.93L203.768 50.1976L203.772 50.9418L205.52 52.6835C205.802 52.9677 205.804 53.4107 205.52 53.6928C205.235 53.975 204.792 53.977 204.51 53.6928L203.772 52.9604L203.779 54.242C203.781 54.6377 203.456 54.956 203.061 54.9582C202.665 54.9604 202.347 54.6361 202.345 54.2404L202.338 52.9588L201.606 53.6968C201.322 53.9789 200.868 53.9736 200.597 53.6967C200.314 53.4125 200.32 52.9588 200.586 52.6802L202.327 50.933L202.323 50.1887L201.591 50.9267C201.306 51.2088 200.863 51.2108 200.574 50.9375C200.292 50.6533 200.297 50.1995 200.574 49.9282L202.323 48.1702L202.325 46.689L201.037 47.4322L200.404 49.8296C200.301 50.2177 199.9 50.4377 199.523 50.3419C199.135 50.2389 198.915 49.8387 199.011 49.4615L199.276 48.4568L198.632 48.8284L197.999 51.2259C197.896 51.6139 197.507 51.8413 197.118 51.7382C196.73 51.6351 196.503 51.2459 196.606 50.8578L196.871 49.8531L195.762 50.4953C195.423 50.6937 194.977 50.5832 194.786 50.234C194.587 49.8956 194.698 49.4495 195.047 49.2583L196.157 48.6161L195.152 48.3511C194.764 48.248 194.537 47.8588 194.64 47.4707C194.743 47.0826 195.132 46.8553 195.52 46.9583L197.918 47.5915L198.562 47.2199L197.557 46.9548C197.169 46.8518 196.949 46.4516 197.045 46.0744C197.148 45.6863 197.548 45.4663 197.925 45.5621L200.322 46.1952L201.61 45.452L200.324 44.714L197.933 45.3624C197.548 45.4663 197.146 45.2434 197.053 44.8655C196.949 44.4803 197.183 44.0854 197.56 43.9924L198.563 43.7201L197.915 43.3475L195.524 43.9959C195.139 44.0998 194.755 43.8733 194.651 43.4881C194.547 43.1029 194.773 42.7189 195.158 42.615L196.161 42.3427L195.046 41.7033C194.705 41.5061 194.583 41.0772 194.777 40.7185C194.974 40.378 195.414 40.2634 195.762 40.4498L196.878 41.0892L196.605 40.0862C196.501 39.701 196.728 39.317 197.102 39.2058L197.113 39.2131Z" fill="white" stroke="#007266" mask="url(#path-33-inside-2_239:654)"/>
</svg>
