<svg width="1920" height="598" viewBox="0 0 1920 598" fill="none" xmlns="http://www.w3.org/2000/svg">
<path d="M-0.0175781 534.607C-0.0175781 534.607 111.139 562.853 218.512 550C325.936 537.146 380.53 521.439 398.779 520C416.977 518.56 447.929 520 487.954 530C528.03 540 548.043 544.293 569.87 541.413C591.697 538.56 624.515 528.56 660.911 534.267C697.306 539.973 768.335 559.973 808.36 559.973C848.437 559.973 979.502 561.413 1003.2 557.12C1026.89 552.827 1108.81 528.56 1159.77 538.56C1210.73 548.56 1318.16 558.56 1358.23 558.56C1398.26 558.56 1682.32 551.413 1725.98 547.146C1769.68 542.853 1865.34 515.026 1919.98 542.172V597.748H-0.0175781V534.607Z" fill="#96CFC1"/>
<path d="M356.862 565.551L356.851 565.532L357.18 565.456C357.79 565.315 379.026 561.683 401.692 557.807C424.263 553.947 448.252 549.845 454.704 548.705C454.839 548.678 454.986 548.649 455.144 548.618C456.025 548.448 457.215 548.218 458.207 547.763C458.79 547.496 459.28 547.161 459.594 546.736C459.901 546.321 460.052 545.804 459.935 545.135L459.935 545.133C459.642 543.412 458.412 537.057 456.73 528.368C455.127 520.085 453.113 509.68 451.11 499.147C449.058 488.357 447.017 477.434 445.44 468.521C443.866 459.619 442.751 452.705 442.555 449.941C442.535 449.724 442.484 449.57 442.409 449.459C442.335 449.351 442.226 449.263 442.055 449.2C441.691 449.067 441.088 449.054 440.112 449.179C438.767 449.352 436.818 449.769 434.025 450.367C432.791 450.631 431.392 450.93 429.809 451.259L356.862 565.551Z" fill="#96CFC1" stroke="white" stroke-width="0.5"/>
<path d="M1787.62 406.199C1808.33 403.265 1827.66 393.945 1844.58 379.966C1807.81 360.291 1775.02 330.261 1748.1 292.292C1765.53 291.429 1777.96 284.008 1791.94 271.754C1767.26 257.775 1745.68 236.546 1727.91 210.313C1738.61 209.45 1749.48 205.999 1758.28 199.268C1742.92 190.811 1727.73 174.415 1715.83 158.883C1723.25 157.674 1730.15 153.705 1736.36 147.664C1723.59 139.035 1712.03 125.573 1702.54 108.487C1708.92 108.142 1713.58 106.071 1718.76 100.548C1696.84 84.6704 1681.48 46.874 1676.3 0.448242C1671.13 46.874 1655.77 84.6704 1633.85 100.548C1639.2 106.244 1643.86 108.315 1650.07 108.487C1640.58 125.573 1629.19 139.035 1616.24 147.664C1622.46 153.705 1629.36 157.674 1636.78 158.883C1625.05 174.588 1609.69 190.811 1594.5 199.268C1603.3 205.999 1614.17 209.45 1624.87 210.313C1607.1 236.719 1585.52 257.775 1560.84 271.754C1574.82 284.008 1587.08 291.429 1604.51 292.292C1577.58 330.088 1544.79 360.118 1508.03 379.966C1524.95 394.118 1544.27 403.265 1564.99 406.199C1530.3 442.787 1489.39 472.299 1444.17 492.319C1473 512.167 1507 519.588 1543.24 519.588C1588.8 519.588 1630.74 504.573 1663.36 475.406V572.366H1689.25V475.406C1722.04 504.573 1763.8 519.588 1809.37 519.588C1845.78 519.588 1879.61 512.167 1908.43 492.319C1863.21 472.299 1822.48 442.96 1787.62 406.199Z" fill="#006B60"/>
<path d="M882.548 554.658C885.074 554.3 887.43 553.164 889.493 551.459C885.01 549.06 881.012 545.399 877.729 540.769C879.855 540.664 881.37 539.759 883.074 538.265C880.065 536.56 877.435 533.972 875.267 530.773C876.572 530.668 877.898 530.247 878.971 529.426C877.098 528.395 875.246 526.396 873.794 524.502C874.699 524.355 875.541 523.871 876.298 523.134C874.741 522.082 873.331 520.441 872.174 518.357C872.952 518.315 873.52 518.063 874.152 517.389C871.479 515.453 869.606 510.845 868.975 505.184C868.344 510.845 866.471 515.453 863.798 517.389C864.451 518.084 865.019 518.336 865.776 518.357C864.619 520.441 863.23 522.082 861.652 523.134C862.409 523.871 863.251 524.355 864.156 524.502C862.725 526.417 860.852 528.395 859 529.426C860.073 530.247 861.399 530.668 862.704 530.773C860.536 533.993 857.906 536.56 854.897 538.265C856.601 539.759 858.095 540.664 860.221 540.769C856.938 545.378 852.94 549.039 848.457 551.459C850.519 553.185 852.876 554.3 855.402 554.658C851.172 559.119 846.184 562.718 840.671 565.159C844.185 567.579 848.331 568.484 852.75 568.484C858.306 568.484 863.419 566.653 867.397 563.097V573.24H870.553V563.097C874.552 566.653 879.644 568.484 885.2 568.484C889.64 568.484 893.765 567.579 897.279 565.159C891.766 562.718 886.799 559.14 882.548 554.658Z" fill="#006B60"/>
<path d="M1149.57 521.867C1151.53 521.594 1153.36 520.71 1154.94 519.384C1151.47 517.532 1148.38 514.691 1145.83 511.114C1147.47 511.03 1148.65 510.335 1149.95 509.178C1147.62 507.852 1145.6 505.853 1143.89 503.37C1144.9 503.286 1145.93 502.97 1146.75 502.339C1145.3 501.539 1143.87 500.003 1142.76 498.53C1143.45 498.424 1144.1 498.046 1144.69 497.477C1143.47 496.657 1142.4 495.394 1141.49 493.774C1142.08 493.732 1142.55 493.542 1143.03 493.016C1140.97 491.522 1139.52 487.966 1139.03 483.567C1138.55 487.966 1137.1 491.522 1135.03 493.016C1135.54 493.542 1135.98 493.732 1136.57 493.774C1135.66 495.394 1134.59 496.657 1133.39 497.477C1133.98 498.046 1134.63 498.424 1135.33 498.53C1134.21 500.003 1132.78 501.56 1131.33 502.339C1132.15 502.97 1133.18 503.307 1134.19 503.37C1132.51 505.853 1130.49 507.852 1128.15 509.178C1129.48 510.335 1130.64 511.03 1132.28 511.114C1129.73 514.691 1126.64 517.532 1123.16 519.384C1124.76 520.71 1126.57 521.573 1128.53 521.867C1125.25 525.319 1121.4 528.096 1117.12 529.99C1119.86 531.863 1123.04 532.558 1126.47 532.558C1130.76 532.558 1134.72 531.148 1137.79 528.391V536.24H1140.23V528.391C1143.32 531.148 1147.26 532.558 1151.55 532.558C1154.98 532.558 1158.18 531.863 1160.9 529.99C1156.65 528.096 1152.77 525.34 1149.49 521.867H1149.57Z" fill="#006B60"/>
<path d="M1114.09 528.38C1115.29 528.212 1116.43 527.665 1117.4 526.844C1115.27 525.687 1113.36 523.94 1111.78 521.751C1112.79 521.688 1113.53 521.267 1114.33 520.552C1112.87 519.731 1111.63 518.511 1110.6 516.975C1111.23 516.932 1111.86 516.722 1112.37 516.343C1111.46 515.859 1110.58 514.912 1109.91 513.986C1110.33 513.902 1110.73 513.692 1111.11 513.334C1110.37 512.829 1109.7 512.05 1109.15 511.061C1109.53 511.04 1109.8 510.935 1110.1 510.598C1108.81 509.672 1107.93 507.484 1107.63 504.769C1107.34 507.484 1106.43 509.672 1105.15 510.598C1105.47 510.935 1105.74 511.04 1106.1 511.061C1105.55 512.071 1104.88 512.829 1104.14 513.334C1104.5 513.692 1104.9 513.923 1105.34 513.986C1104.67 514.891 1103.76 515.838 1102.88 516.343C1103.38 516.743 1104.01 516.932 1104.65 516.975C1103.61 518.511 1102.35 519.731 1100.92 520.552C1101.74 521.267 1102.46 521.688 1103.47 521.751C1101.91 523.961 1100 525.708 1097.85 526.844C1098.84 527.665 1099.95 528.212 1101.15 528.38C1099.13 530.506 1096.75 532.231 1094.12 533.389C1095.81 534.546 1097.79 534.967 1099.89 534.967C1102.54 534.967 1104.98 534.104 1106.88 532.4V537.24H1108.39V532.4C1110.31 534.104 1112.73 534.967 1115.38 534.967C1117.5 534.967 1119.46 534.546 1121.14 533.389C1118.51 532.231 1116.14 530.527 1114.12 528.38H1114.09Z" fill="#006B60"/>
<path d="M955.193 486.753C943.155 488.015 942.507 488.824 943.737 485.102C945.388 481.348 946.423 479.018 947.491 476.559C946.035 474.294 946.229 474.261 945.258 472.967C944.255 471.608 942.961 469.051 942.087 467.562C941.31 466.236 941.31 465.427 943.252 465.071C945.905 464.553 949.821 463.582 953.705 463.064C954.708 460.961 957.782 454.941 958.915 453.032L958.85 453.097C959.918 451.285 960.145 450.896 960.63 450.605C961.083 450.346 961.989 451.09 962.377 451.673C963.089 452.547 966.326 456.527 969.141 460.766C981.05 458.825 985.451 457.886 978.202 473.323C982.247 476.656 985.484 481.251 984.578 482.934C983.963 484.099 983.089 484.326 972.345 485.005C969.368 490.733 967.394 497.562 965.128 497.853C962.604 498.176 955.452 487.044 955.193 486.72V486.753Z" fill="white"/>
<path d="M975.809 473.066C978.237 476.237 983.9 481.9 979.693 482.451C979.563 482.483 979.402 482.483 979.24 482.483C977.881 482.515 972.25 482.289 971.861 482.321C971.538 483.033 967.331 492.03 965.583 493.324C965.421 493.421 965.26 493.486 965.065 493.518C962.735 493.809 958.043 487.337 956.037 484.489C955.875 484.522 955.713 484.522 955.551 484.554C950.956 485.169 949.467 485.622 947.752 485.881H947.687C944.581 486.302 946.911 482.483 947.525 481.253C948.14 480.023 948.885 478.956 950.211 476.658C945.098 469.215 944.192 467.338 947.008 466.723C948.626 466.367 950.341 466.108 951.959 465.914C952.93 465.784 953.836 465.687 954.71 465.558L955.616 465.428C959.046 456.788 959.823 455.202 960.955 454.943H961.02C962.897 454.684 967.039 461.027 968.787 463.422C969.111 463.39 975.615 462.483 977.46 462.451C978.851 462.419 979.725 463.681 978.981 465.72C977.978 468.503 977.525 469.7 975.712 473.098L975.809 473.066Z" fill="#007266"/>
<path d="M969.431 473.648C970.661 475.267 973.606 478.211 971.438 478.47C971.373 478.503 971.276 478.503 971.211 478.503C970.499 478.503 967.619 478.406 967.425 478.406C967.263 478.762 965.095 483.389 964.189 484.069C964.124 484.134 964.027 484.166 963.93 484.166C962.732 484.328 960.338 480.995 959.302 479.538C959.205 479.571 959.108 479.571 959.043 479.571C956.681 479.894 955.937 480.121 955.03 480.25H954.998C953.412 480.477 954.61 478.503 954.933 477.855C955.257 477.241 955.645 476.69 956.325 475.493C953.704 471.674 953.218 470.704 954.674 470.38C955.516 470.186 956.39 470.056 957.231 469.959C957.716 469.895 958.202 469.83 958.655 469.765C958.817 469.733 958.979 469.733 959.108 469.7C960.888 465.267 961.276 464.425 961.859 464.296H961.891C962.862 464.167 964.998 467.435 965.872 468.665C966.033 468.665 969.399 468.179 970.337 468.147C971.049 468.115 971.502 468.794 971.146 469.83C970.629 471.254 970.37 471.869 969.464 473.648H969.431Z" fill="white"/>
<path d="M961.793 461.837C960.725 462.096 960.175 461.223 960.239 460.381C960.304 459.669 960.757 458.957 961.696 459.054C962.926 459.184 963.702 461.384 961.793 461.837Z" fill="white"/>
<path d="M950.112 470.831C949.044 471.09 948.494 470.217 948.559 469.343C948.624 468.631 949.109 467.951 950.015 468.016C951.245 468.145 952.022 470.346 950.112 470.831Z" fill="white"/>
<path d="M950.471 484.034C949.403 484.293 948.853 483.42 948.917 482.578C948.95 481.866 949.435 481.154 950.374 481.251C951.603 481.381 952.38 483.581 950.471 484.067V484.034Z" fill="white"/>
<path d="M975.615 468.081C974.547 468.34 973.997 467.433 974.062 466.592C974.126 465.88 974.612 465.168 975.518 465.265C976.748 465.395 977.524 467.595 975.615 468.081Z" fill="white"/>
<path d="M964.675 489.407C963.607 489.666 963.057 488.76 963.121 487.919C963.186 487.207 963.639 486.495 964.578 486.592C965.807 486.721 966.584 488.922 964.675 489.407Z" fill="white"/>
<path d="M977.232 480.508C976.164 480.766 975.614 479.893 975.679 479.051C975.744 478.339 976.229 477.627 977.135 477.724C978.365 477.854 979.142 480.055 977.232 480.508Z" fill="white"/>
<path d="M1004.55 504.636C998.99 497.051 998.192 496.918 1001.15 496.32C1004.31 495.987 1006.24 495.754 1008.3 495.521C1009.24 493.658 1009.34 493.791 1009.83 492.627C1010.37 491.396 1011.53 489.567 1012.2 488.403C1012.8 487.371 1013.33 487.072 1014.33 488.203C1015.72 489.8 1017.88 492.028 1019.75 494.424C1021.54 494.29 1026.77 493.991 1028.46 494.024H1028.4C1030.03 494.024 1030.36 494.024 1030.76 494.257C1031.12 494.457 1030.96 495.355 1030.73 495.854C1030.39 496.652 1029.03 500.411 1027.3 503.904C1033.25 511.123 1035.62 513.717 1022.48 514.882C1021.84 518.873 1020.05 522.865 1018.55 522.899C1017.52 522.932 1017.05 522.433 1012.36 515.514C1007.37 515.747 1002.05 517.077 1000.99 515.68C999.788 514.117 1004.41 504.969 1004.51 504.669L1004.55 504.636Z" fill="#007266"/>
<path d="M1028.13 496.019L1028.1 495.986C1027.5 495.321 1026.14 495.421 1019.02 496.485C1018.88 496.286 1018.72 496.119 1018.58 495.92C1018.15 495.387 1017.72 494.789 1017.25 494.223C1016.49 493.225 1015.62 492.161 1014.76 491.229C1013.23 489.566 1012.33 490.897 1009.37 497.25C1007.31 497.25 1006.31 497.184 1005.24 497.25C1004.18 497.317 1000.72 497.25 1002.22 499.18C1002.22 499.18 1002.22 499.213 1002.25 499.213C1003.08 500.277 1003.98 501.076 1006.18 503.937C1006.24 504.036 1006.34 504.136 1006.41 504.236C1005.28 506.698 1002.82 512.353 1003.91 513.816C1004.01 513.916 1004.11 514.016 1004.25 514.082C1005.78 514.748 1013.43 514.049 1014.03 513.983C1014.23 514.215 1016.26 518.074 1016.82 518.972C1016.89 519.072 1016.95 519.172 1017.02 519.272C1019.05 521.866 1020.61 515.879 1021.78 513.018C1024.77 512.885 1025.74 512.752 1028 512.319C1029.63 512.02 1030.13 510.922 1029.56 510.024C1028.8 508.793 1025.64 504.801 1025.5 504.602C1026.43 502.506 1029.03 497.25 1028.13 496.086V496.019ZM1026.73 497.117C1026.67 497.483 1026.5 498.148 1026.1 499.213C1025.64 500.477 1024.97 501.907 1024.51 502.939C1024.34 503.304 1024.21 503.637 1024.07 503.903C1023.84 504.402 1023.91 504.968 1024.21 505.4C1024.24 505.467 1024.34 505.567 1024.74 506.099C1025.57 507.163 1027.43 509.592 1028.1 510.59C1028 510.623 1027.87 510.689 1027.67 510.723C1025.54 511.122 1024.64 511.255 1021.68 511.388C1021.08 511.421 1020.55 511.787 1020.31 512.353C1020.11 512.885 1019.88 513.484 1019.65 514.082C1019.28 515.114 1018.58 517.043 1018.02 517.941C1017.72 517.442 1017.15 516.378 1016.65 515.446C1015.56 513.417 1015.39 513.118 1015.22 512.918C1014.89 512.486 1014.36 512.286 1013.83 512.319C1011.76 512.552 1006.71 512.852 1005.11 512.585C1005.11 511.953 1005.34 509.991 1007.74 504.735C1007.97 504.203 1007.91 503.604 1007.57 503.138C1007.51 503.038 1007.41 502.939 1007.34 502.839C1005.88 500.976 1004.98 499.945 1004.31 499.18C1004.18 499.013 1004.05 498.88 1003.91 498.714C1004.18 498.681 1004.51 498.681 1004.91 498.647C1005.05 498.647 1005.18 498.647 1005.28 498.647C1005.81 498.614 1006.34 498.614 1007.07 498.647C1007.67 498.647 1008.4 498.681 1009.34 498.681C1009.94 498.681 1010.47 498.315 1010.73 497.782C1011.47 496.252 1012.86 493.225 1013.63 492.227C1014.49 493.159 1015.29 494.19 1015.96 495.055C1016.19 495.354 1016.42 495.653 1016.65 495.953C1016.85 496.219 1017.09 496.518 1017.29 496.784C1017.45 496.984 1017.59 497.184 1017.75 497.35C1018.09 497.782 1018.65 498.015 1019.18 497.916C1021.84 497.516 1025.4 496.984 1026.7 497.017L1026.73 497.117Z" fill="white"/>
<path d="M1018.12 511.654C1017.82 511.255 1017.35 511.288 1017.05 511.521C1016.89 511.654 1016.79 511.82 1016.75 511.987C1016.72 512.186 1016.75 512.386 1016.92 512.586C1017.05 512.785 1017.25 512.885 1017.45 512.885C1017.65 512.885 1017.82 512.852 1017.98 512.719C1018.28 512.486 1018.42 512.053 1018.12 511.654Z" fill="white"/>
<path d="M1024.01 507.896C1023.71 507.496 1023.24 507.53 1022.91 507.763C1022.61 507.995 1022.44 508.461 1022.78 508.86C1022.91 509.06 1023.11 509.16 1023.34 509.16C1023.54 509.16 1023.71 509.126 1023.87 508.993C1024.17 508.761 1024.34 508.295 1024.01 507.896Z" fill="white"/>
<path d="M1010.1 509.226C1009.8 508.827 1009.3 508.86 1009 509.093C1008.7 509.325 1008.54 509.791 1008.87 510.19C1009.17 510.59 1009.67 510.556 1009.97 510.323C1010.13 510.19 1010.23 510.024 1010.27 509.858C1010.3 509.658 1010.27 509.425 1010.1 509.259V509.226Z" fill="white"/>
<path d="M1013.66 502.639C1013.43 502.34 1013 502.174 1012.6 502.506C1012.4 502.639 1012.3 502.839 1012.3 503.038C1012.3 503.238 1012.36 503.404 1012.46 503.571C1012.7 503.87 1013.13 504.036 1013.53 503.704C1013.73 503.571 1013.83 503.371 1013.83 503.172C1013.83 502.972 1013.79 502.806 1013.66 502.639Z" fill="white"/>
<path d="M1019.71 502.44C1019.95 502.74 1020.41 502.906 1020.78 502.573C1020.98 502.44 1021.08 502.241 1021.08 502.041C1021.08 501.842 1021.04 501.675 1020.91 501.509C1020.68 501.21 1020.21 501.043 1019.85 501.376C1019.65 501.509 1019.55 501.709 1019.55 501.908C1019.55 502.108 1019.61 502.274 1019.71 502.44Z" fill="white"/>
<path d="M1009.73 500.71C1009.6 500.544 1009.44 500.444 1009.27 500.411C1009.07 500.377 1008.84 500.411 1008.67 500.577C1008.47 500.71 1008.37 500.909 1008.37 501.109C1008.37 501.309 1008.4 501.475 1008.54 501.641C1008.77 501.941 1009.24 502.107 1009.6 501.774C1010 501.475 1009.97 501.009 1009.73 500.71Z" fill="white"/>
<path d="M1013.83 497.517C1014.13 497.916 1014.59 497.883 1014.89 497.65C1015.06 497.517 1015.16 497.351 1015.19 497.185C1015.22 496.985 1015.19 496.785 1015.02 496.586C1014.89 496.386 1014.69 496.286 1014.49 496.286C1014.29 496.286 1014.13 496.32 1013.96 496.453C1013.66 496.686 1013.53 497.118 1013.83 497.517Z" fill="white"/>
<path d="M1016.19 504.203C1015.99 504.336 1015.89 504.535 1015.89 504.735C1015.89 504.935 1015.92 505.101 1016.06 505.267C1016.29 505.567 1016.75 505.733 1017.15 505.4C1017.95 504.768 1016.99 503.571 1016.19 504.17V504.203Z" fill="white"/>
<path d="M1012.3 506.698C1012.1 506.831 1012 507.03 1012 507.23C1012 507.43 1012.03 507.596 1012.16 507.762C1012.4 508.062 1012.86 508.228 1013.26 507.895C1014.06 507.263 1013.09 506.066 1012.3 506.664V506.698Z" fill="white"/>
<path d="M1014.89 501.409C1015.12 501.708 1015.59 501.875 1015.99 501.542C1016.79 500.91 1015.82 499.712 1015.02 500.311C1014.82 500.444 1014.72 500.644 1014.72 500.843C1014.72 501.043 1014.76 501.209 1014.89 501.376V501.409Z" fill="white"/>
<path d="M1017.75 507.896C1017.45 507.496 1016.99 507.53 1016.69 507.763C1016.52 507.896 1016.42 508.062 1016.39 508.228C1016.36 508.428 1016.39 508.661 1016.55 508.827C1016.69 509.027 1016.89 509.126 1017.09 509.126C1017.29 509.126 1017.45 509.06 1017.62 508.96C1017.92 508.727 1018.09 508.295 1017.75 507.896Z" fill="white"/>
<path d="M1021.01 506.166C1020.71 505.766 1020.25 505.8 1019.95 506.033C1019.78 506.166 1019.68 506.332 1019.65 506.498C1019.62 506.698 1019.65 506.931 1019.81 507.097C1019.95 507.297 1020.15 507.396 1020.35 507.396C1020.55 507.396 1020.71 507.363 1020.88 507.23C1021.18 506.997 1021.34 506.565 1021.01 506.166Z" fill="white"/>
<path d="M1024.17 499.113C1024.04 498.947 1023.87 498.847 1023.71 498.814C1023.51 498.781 1023.27 498.814 1023.11 498.98C1022.91 499.113 1022.81 499.313 1022.81 499.512C1022.81 499.712 1022.84 499.878 1022.97 500.045C1023.21 500.344 1023.67 500.51 1024.04 500.178C1024.44 499.878 1024.4 499.413 1024.17 499.113Z" fill="white"/>
<path d="M340.515 467.902C339.23 467.92 326.478 460.88 325.509 460.258C325.341 460.165 316.301 455.134 316.126 455.159C316.08 455.147 315.408 454.773 315.408 454.773L315.362 454.761C315.362 454.761 315.391 454.745 315.379 454.79C314.706 454.416 283.146 437.24 283.056 436.225C282.812 433.889 280.718 435.212 313.246 428.854C323.041 427.276 368.28 420.628 382.345 418.261C384.672 418.594 391.452 420.967 397.859 424.012C404.036 426.923 406.705 428.049 410.873 430.253C410.873 430.253 438.468 444.918 442.395 449.014C443.308 449.935 442.042 450.514 439.682 450.847C434.922 451.843 342.269 467.575 340.482 467.845L340.515 467.902Z" fill="#FDF6F7"/>
<path d="M312.784 544.041C315.387 545.418 317.757 546.673 319.227 547.498L319.258 547.481L319.383 547.553C323.29 549.813 326.367 551.296 331.351 553.699C334.896 555.407 339.404 557.581 345.861 560.829L345.756 561.038L345.862 560.829C351.034 563.433 355.026 565.049 356.096 565.473C355.635 561.6 351.912 538.57 348.217 515.983C344.382 492.544 340.581 469.61 340.501 469.143L340.499 469.131L340.498 469.119C340.474 468.778 340.453 468.549 340.419 468.38C340.387 468.216 340.347 468.13 340.298 468.067C340.245 468 340.166 467.937 340.011 467.845C339.93 467.796 339.845 467.75 339.746 467.695C339.643 467.638 339.523 467.572 339.374 467.485L339.374 467.485L339.365 467.48C334.134 464.149 287.531 437.458 285.408 436.361C285.213 436.272 285.033 436.189 284.866 436.111C284.564 435.97 284.304 435.85 284.078 435.754C283.718 435.601 283.496 435.536 283.36 435.539C283.303 435.54 283.282 435.553 283.272 435.56C283.261 435.57 283.236 435.596 283.213 435.672C283.164 435.837 283.154 436.127 283.194 436.609C283.347 438.291 287.371 463.064 291.364 487.522C292.448 494.159 293.528 500.771 294.528 506.888C295.371 512.04 296.156 516.842 296.837 521.014C297.582 525.576 298.202 529.384 298.637 532.071C298.855 533.415 299.026 534.479 299.143 535.216C299.202 535.585 299.247 535.873 299.277 536.074C299.293 536.174 299.305 536.253 299.313 536.31C299.317 536.343 299.322 536.377 299.325 536.404C299.34 536.425 299.369 536.459 299.419 536.506C299.519 536.6 299.674 536.722 299.885 536.871C300.304 537.167 300.914 537.549 301.669 537.994C303.177 538.885 305.243 540.018 307.462 541.211C309.207 542.148 311.047 543.122 312.784 544.041Z" fill="#006B60" stroke="white" stroke-width="0.5"/>
<path d="M325.553 551.149C325.732 552.646 328.18 552.795 328.11 551.882C327.343 542.304 315.961 473.355 314.225 455.763C314.122 454.794 314.15 453.787 314.168 453.091C314.174 452.706 314.406 452.382 314.77 452.286C347.955 441.128 367.773 441.994 413.578 431.971C414.077 431.911 414.123 431.199 413.199 430.589C412.785 430.333 411.905 430.459 411.582 430.494C411.05 430.496 383.634 435.808 383.135 435.868C365.857 439.137 340.903 441.123 312.732 450.605C312.328 450.762 312.096 451.086 311.999 451.447C309.941 457.055 318.635 495.74 325.582 551.132L325.553 551.149Z" fill="#AB3A35"/>
<path d="M366.497 433.585C366.359 433.741 366.33 433.757 366.497 433.585V433.585ZM374.768 418.674C374.355 418.684 373.963 418.796 373.582 418.864C365.481 421.331 363.721 427.72 363.601 435.828C363.579 436.451 363.461 436.443 364.105 435.842C367.072 433.062 376.969 423.805 376.082 419.63C375.883 419.021 375.702 418.707 374.797 418.658L374.768 418.674ZM375.518 416.145C378.041 416.556 379.789 419.319 378.014 423.24C374.958 429.958 363.637 440.114 362.799 440.445C362.007 440.788 361.026 440.211 361.013 439.266C360.856 438.861 361.012 437.019 360.997 436.532C361.163 426.986 362.934 419.296 372.638 416.437C373.554 416.175 374.474 415.986 375.428 416.121C375.473 416.133 375.473 416.133 375.502 416.117L375.518 416.145Z" fill="#AB3A35"/>
<path d="M386.086 449.098C386.209 449.179 386.181 449.195 386.086 449.098V449.098ZM363.611 437.954C372.746 436.948 390.564 446.36 388.482 449.353C388.018 450.002 387.106 450.071 386.682 449.668C378.336 442.141 367.587 440.155 364.077 440.543C362.24 440.727 362.073 438.194 363.628 437.983L363.611 437.954Z" fill="#AB3A35"/>
<path d="M362.4 445.361C362.344 445.66 362.356 445.615 362.4 445.361V445.361ZM363.316 438.698C365.509 439.527 362.812 440.399 360.837 453.808C359.92 460.205 361.1 462.382 359.301 462.697C358.949 462.747 358.605 462.679 358.326 462.46C356.503 461.15 359.851 437.383 363.316 438.698Z" fill="#AB3A35"/>
<path d="M444.042 541.413C444.09 541.316 444.079 541.357 444.042 541.413V541.413Z" fill="white"/>
<path d="M444.055 541.447C443.897 541.766 443.897 541.766 444.055 541.447V541.447Z" fill="white"/>
<path d="M359.96 477.632C360.861 477.608 361.732 477.6 362.633 477.575C361 475.736 359.497 474.585 360.777 473.503C362 472.454 362.825 473.882 365.758 477.181C366.534 475.818 368.108 472.737 369.249 472.536C370.435 472.346 371.215 473.763 370.539 474.573C369.754 475.521 369.627 475.633 368.49 477.623C372.195 477.77 374.412 477.519 374.252 479.287C374.19 479.971 373.529 480.543 372.829 480.452C371.355 480.275 369.816 480.249 368.571 480.205C369.85 481.562 370.739 482.573 371.212 483.062C372.728 484.435 370.861 486.085 369.744 485.206C369.23 484.778 369.148 484.635 366.162 481.444C365.739 482.031 363.663 484.639 363.545 484.898C362.88 486.12 360.444 485.202 361.414 483.384C361.544 483.081 363.498 480.657 363.88 480.132C360.053 480.169 359.465 480.471 358.861 479.753C358.223 478.978 358.585 477.626 359.989 477.616L359.96 477.632Z" fill="white"/>
<path d="M419.254 466.412C417.516 464.062 415.925 463.419 416.988 462.157C418.315 460.629 420.329 463.391 421.865 465.59C422.907 464.227 423.717 463.188 424.776 462.119C425.53 461.379 427.019 462.043 426.914 463.247C426.871 463.767 426.463 464.117 426.089 464.524C425.327 465.382 424.753 466.171 424.094 467.009C425.421 467.195 426.765 467.41 428.087 467.523C429.782 467.687 429.569 470.287 427.828 470.111C426.743 470.013 425.67 469.871 424.581 469.7C424.647 469.814 426.18 472.206 426.258 472.275C427.679 473.284 425.711 476.211 423.852 473.321C423.317 472.525 422.925 471.913 421.8 470.162C420.963 471.484 420.064 472.765 418.654 474.151C417.9 474.891 416.382 474.243 416.516 473.022C416.567 472.384 417.162 471.963 417.635 471.462C418.368 470.62 418.872 469.909 419.453 469.002C415.928 468.637 414.03 469.047 414.178 467.323C414.311 465.837 415.875 466.038 419.237 466.384L419.254 466.412Z" fill="white"/>
<path d="M398.577 495.154C397.23 495.131 395.895 495.063 394.577 495.024C393.214 494.973 392.873 492.731 394.496 492.442C394.599 492.421 398.819 492.537 398.966 492.528C398.53 491.904 397.925 491.186 397.246 490.473C396.206 489.397 397.875 487.405 399.216 488.803C400.256 489.879 400.676 490.474 401.24 491.253C401.749 490.617 403.691 488.238 404.497 488.116C405.785 487.906 406.602 489.453 405.596 490.416C403.986 491.917 404.088 491.896 403.677 492.438C405.965 492.374 410.03 492.618 409.225 494.722C408.602 496.415 407.67 494.933 403.86 494.999C405.174 496.946 405.643 497.361 405.597 498.073C405.522 498.802 404.903 499.313 404.174 499.238C403.281 499.144 403.222 498.645 401.277 495.805C399.383 498.727 398.569 500.683 397.103 499.663C396.532 499.268 396.348 498.422 396.788 497.863C397.337 497.165 397.67 496.553 398.605 495.137L398.577 495.154Z" fill="white"/>
<path d="M365.425 505.113C367.937 504.844 368.502 504.898 369.571 504.967C368.22 502.165 367.119 501.315 368.396 500.425C369.885 499.375 370.816 501.581 371.965 503.966C374.089 501.177 374.584 499.329 375.931 500.342C377.06 501.177 376.243 502.334 373.972 505.398C377.555 505.73 379.286 505.493 379.105 507.16C378.964 508.765 377.223 508.322 373.996 508.013C375.115 510.149 375.522 510.524 375.414 511.195C375.278 511.883 374.642 512.365 373.925 512.246C373.028 512.078 372.865 511.333 371.395 508.524C370.438 509.572 368.247 511.98 368.247 511.98C367.034 513.443 365.453 511.497 366.296 510.515C367.041 509.628 367.473 509.188 368.944 507.577C366.41 507.478 364.698 508.276 364.409 506.652C364.279 505.965 364.795 505.209 365.458 505.17L365.425 505.113Z" fill="white"/>
<path d="M356.736 530.59C357.105 530.568 357.461 530.591 357.829 530.569C357.397 530.018 356.768 529.391 356.25 528.89C355.827 528.486 355.814 527.541 356.405 527.047C357.657 525.982 359.23 528.046 360.288 529.416C360.381 529.248 360.353 529.264 360.288 529.416C361.785 526.532 361.787 526.074 362.667 525.947C363.354 525.817 364.048 526.293 364.166 527.025C364.291 527.638 363.097 529.662 362.805 530.211C363.95 530.083 365.083 530.001 366.217 529.918C368.296 529.823 368.008 532.427 366.683 532.507C365.001 532.563 364.49 532.668 362.828 532.827C364.051 534.483 365.489 536.511 365.489 536.511C366.604 537.848 364.59 539.507 363.491 538.198C363.491 538.198 362.441 536.708 360.571 534.13C359.36 536.125 359.427 536.505 358.564 536.66C357.877 536.79 357.183 536.314 357.066 535.582C356.969 534.952 357.753 533.737 358.103 533.155C356.846 533.156 356.237 533.355 355.71 532.707C355.044 531.949 355.435 530.58 356.839 530.569L356.736 530.59Z" fill="white"/>
<path d="M380.945 542.219C382.092 542.357 383.222 542.467 384.352 542.576C383.692 541.433 383.061 540.274 382.458 539.097C381.756 537.75 383.964 536.361 384.852 538.096C385.438 539.244 386.053 540.375 386.697 541.489C387.568 539.5 387.948 538.443 388.565 538.125C389.671 537.6 390.823 538.802 390.348 539.762C389.423 541.592 389.286 542.014 388.885 542.969C395.747 543.504 394.174 545.86 393.341 546.265C392.565 546.637 392.21 546.155 391.055 545.87C390.428 545.774 389.773 545.696 389.134 545.645C390.982 548.846 392.074 550.54 390.461 551.243C389.019 551.847 388.733 550.297 387.091 547.32C386.232 549.264 385.313 551.433 383.83 550.384C382.533 549.456 383.66 548.768 385.122 545.295C381.109 544.944 379.489 545.041 379.572 543.469C379.634 542.786 380.262 542.157 380.962 542.248L380.945 542.219Z" fill="white"/>
<path d="M411.347 521.621C412.351 521.842 413.371 522.091 414.363 522.357C414.094 521.826 413.809 521.266 413.512 520.752C413.001 519.866 413.94 518.523 415.15 518.968C415.847 519.252 416.785 521.339 417.108 522.029C417.544 521.663 419.383 520.03 419.939 519.937C421.329 519.706 421.951 521.443 420.993 522.225C420.471 522.641 419.977 523.04 419.455 523.455C422.13 523.931 422.601 523.888 423.061 524.422C423.86 525.409 422.949 526.735 421.933 526.559C420.872 526.372 419.84 526.167 418.807 525.963C419.833 528.267 419.221 526.944 419.762 528.079C419.932 528.439 420.073 528.815 420.271 529.157C421.354 530.704 419.186 532.031 418.256 530.816C417.758 530.151 416.554 527.34 416.054 526.143C414.345 527.473 414.141 527.781 412.992 528.826C411.814 529.887 409.96 528.061 411.305 526.828C412.564 525.643 412.381 525.787 413.563 524.8C412.887 524.618 412.227 524.466 411.523 524.301C408.749 523.655 410.146 521.324 411.347 521.621Z" fill="white"/>
<path d="M443.585 503.349C443.919 503.995 443.583 504.798 442.95 505.088C441.569 505.732 440.981 504.053 439.862 501.917C436.824 504.509 435.933 505.671 434.884 504.448C433.863 503.209 435.5 502.149 437.388 500.602C436.242 500.464 435.156 500.366 433.924 500.278C432.499 500.186 432.277 497.952 433.843 497.695C434.297 497.624 437.319 497.975 437.766 498.022C437.419 497.422 437.2 496.976 436.217 495.868C435.295 494.799 436.854 490.965 440.407 497.449C440.692 497.018 440.976 496.587 441.216 496.144C441.439 495.672 441.605 495.234 442.095 495.027C443.202 494.502 444.324 495.721 443.878 496.664C443.509 497.411 443.124 498.129 442.648 498.823C445.183 499.188 446.958 498.963 446.806 500.613C446.715 501.314 446.083 501.869 445.383 501.778C444.417 501.688 443.479 501.582 442.525 501.447C442.859 502.092 443.21 502.766 443.544 503.411L443.585 503.349Z" fill="white"/>
<path d="M442.451 535.971C441.052 533.35 439.937 532.012 441.354 531.232C442.799 530.436 443.331 532.148 444.759 534.753C445.62 533.341 446.635 531.536 447.937 532.537C449.317 533.607 447.604 534.863 446.576 536.714C447.756 536.909 448.952 537.133 450.136 537.402C451.501 537.719 451.258 540.336 449.234 539.866C448.575 539.713 448.456 539.706 447.424 539.502C448.072 540.69 448.316 541.311 448.961 542.691C449.775 544.431 447.315 545.318 446.67 543.938C446.042 542.586 445.43 541.262 444.754 540.091C443.585 542.29 442.575 544.435 441.117 543.295C440.575 542.884 440.403 541.993 440.876 541.491C441.539 540.727 442.119 539.554 442.582 538.639C440.861 538.299 439.179 538.355 439.312 536.869C439.481 535.247 441.227 535.764 442.423 535.987L442.451 535.971Z" fill="white"/>
<path d="M438.532 475.593C436.712 473.1 440.659 471.621 441.778 473.757C442.658 475.611 439.903 477.506 438.532 475.593Z" fill="white"/>
<path d="M397.811 470.792C399.096 469.783 401.383 471.435 400.281 473.024C398.963 474.965 395.808 472.405 397.811 470.792Z" fill="white"/>
<path d="M354.883 499.194C353.703 498.733 353.287 497.22 354.027 496.259C354.78 495.253 356.303 495.25 356.888 496.132C358.153 497.268 356.626 499.903 354.855 499.211L354.883 499.194Z" fill="white"/>
<path d="M438.121 517.439C438.651 517.895 438.476 518.911 437.852 519.347C436.619 520.249 435.323 518.597 436.161 517.542C436.682 516.86 437.718 516.872 438.121 517.439Z" fill="white"/>
<path d="M423.567 538.761C424.995 538.661 426.079 540.207 425.417 541.503C424.667 543.042 421.891 542.853 421.56 541.025C421.316 539.68 422.389 538.832 423.567 538.761Z" fill="white"/>
<path d="M383.284 524.027C382.4 524.08 381.841 523.641 381.614 523.048C380.984 521.43 382.764 520.289 383.983 521.147C384.985 521.826 384.978 523.926 383.284 524.027Z" fill="white"/>
<path d="M412.84 508.83C410.225 507.863 411.752 504.238 414.073 505.222C416.108 506.372 415.366 509.772 412.84 508.83Z" fill="white"/>
<path d="M420.539 487.125C422.04 486.754 423.211 488.783 421.581 489.457C419.877 490.136 418.99 487.676 420.539 487.125Z" fill="white"/>
<path d="M397.428 518.375C398.533 518.309 399.328 519.488 398.825 520.464C398.245 521.638 396.153 521.512 395.876 520.109C395.667 519.087 396.499 518.416 397.399 518.392L397.428 518.375Z" fill="white"/>
<path d="M342.588 424.108C342.298 424.199 341.971 424.426 342.234 424.617C345.37 426.617 361.231 436.93 375.68 449.812C375.696 449.841 375.696 449.841 375.696 449.841C375.758 449.881 375.791 449.938 375.836 449.95C375.881 449.962 375.897 449.991 375.897 449.991C380.311 454.073 375.208 449.589 385.556 458.932C385.556 458.932 386.927 459.855 387.582 462.64C407.142 546.147 404.916 528.038 407.649 557.057C407.704 557.483 408.849 557.355 409.818 556.986C410.353 556.791 410.148 555.843 410.07 554.783C409.788 546.639 408.025 537.712 406.235 530.058C389.823 460.317 391.468 460.396 389.012 458.385C382.385 452.913 377.423 447.815 377.423 447.815C368.012 439.303 346.799 424.801 344.691 423.923C344.404 423.822 343.414 423.822 342.617 424.092L342.588 424.108Z" fill="#AB3A35"/>
<mask id="path-58-inside-1_315_963" fill="white">
<path d="M69.1237 196.227C70.259 194.921 72.189 194.808 73.4945 195.943L81.6117 202.982L84.8472 202.755L81.4414 199.803C80.1359 198.668 80.0223 196.681 81.1576 195.432C82.2929 194.127 84.2228 194.013 85.5284 195.148L93.6456 202.187L100.06 201.733L96.4838 196.397L85.9257 194.354C84.2228 194.013 83.1443 192.424 83.4849 190.721C83.8255 189.018 85.4716 187.939 87.1178 188.28L91.5453 189.131L89.7289 186.464L79.2276 184.42C77.5247 184.08 76.4462 182.433 76.7868 180.787C77.1274 179.084 78.7168 178.006 80.4197 178.346L84.8472 179.198L81.7252 174.6C80.7603 173.181 81.1576 171.251 82.5767 170.286C83.9958 169.321 85.9257 169.718 86.8907 171.137L90.0127 175.735L90.8642 171.308C91.2047 169.605 92.7941 168.526 94.497 168.867C96.1999 169.207 97.2784 170.854 96.9379 172.5L94.8944 183.001L96.7108 185.726L97.5623 181.298C97.9028 179.595 99.4922 178.517 101.195 178.857C102.898 179.198 103.977 180.844 103.636 182.49L101.592 192.991L105.169 198.327L108.007 192.537L104.487 182.377C103.92 180.73 104.771 178.971 106.417 178.403C108.064 177.836 109.823 178.687 110.391 180.333L111.867 184.59L113.286 181.695L109.823 171.535C109.256 169.945 110.107 168.129 111.753 167.561C113.399 166.994 115.159 167.845 115.727 169.491L117.202 173.749L119.643 168.753C120.381 167.221 122.254 166.54 123.787 167.334C125.32 168.072 125.944 169.945 125.206 171.478L122.765 176.473L127.023 174.997C128.669 174.43 130.428 175.281 130.996 176.927C131.564 178.517 130.712 180.333 129.066 180.901L118.905 184.42L117.486 187.315L121.744 185.839C123.39 185.272 125.149 186.123 125.717 187.769C126.285 189.359 125.433 191.175 123.787 191.743L113.626 195.205L110.788 200.995L117.202 200.541L124.241 192.424C125.376 191.118 127.306 191.005 128.612 192.14C129.917 193.275 130.031 195.262 128.896 196.511L125.944 199.917L129.18 199.689L136.218 191.572C137.353 190.267 139.283 190.153 140.589 191.232C141.895 192.367 142.008 194.354 140.873 195.603L137.921 199.008L143.484 198.611C145.187 198.497 146.663 199.803 146.833 201.506C146.946 203.209 145.641 204.741 143.938 204.855L138.375 205.252L141.781 208.204C143.087 209.339 143.2 211.269 142.065 212.575C140.93 213.88 139 213.994 137.694 212.859L129.577 205.82L126.341 206.047L129.747 208.999C131.053 210.134 131.166 212.064 130.031 213.369C128.896 214.675 126.966 214.789 125.66 213.653L117.543 206.615L111.129 207.069L114.705 212.405L125.263 214.448C126.966 214.789 128.044 216.435 127.704 218.081C127.363 219.784 125.717 220.862 124.071 220.522L119.643 219.67L121.46 222.338L131.961 224.382C133.664 224.722 134.742 226.312 134.402 228.014C134.061 229.717 132.472 230.796 130.769 230.455L126.341 229.604L129.463 234.202C130.428 235.621 130.031 237.551 128.612 238.516C127.193 239.481 125.263 239.083 124.298 237.664L121.176 233.066L120.324 237.494C119.984 239.197 118.338 240.275 116.692 239.935C114.989 239.594 113.91 237.948 114.194 236.302L116.237 225.801L114.421 223.133L113.57 227.56C113.229 229.263 111.64 230.342 109.937 230.058C108.234 229.717 107.155 228.071 107.496 226.425L109.539 215.867L105.963 210.531L103.125 216.321L106.644 226.482C107.212 228.128 106.304 229.888 104.714 230.455C103.068 231.023 101.309 230.115 100.741 228.525L99.2652 224.268L97.8461 227.163L101.365 237.324C101.933 238.97 101.082 240.729 99.4355 241.297C97.7893 241.865 96.0296 241.013 95.462 239.367L93.9862 235.11L91.5453 240.105C90.8074 241.638 88.9342 242.319 87.4016 241.524C85.869 240.786 85.1878 238.913 85.9825 237.38L88.4233 232.385L84.1661 233.861C82.5199 234.429 80.7603 233.577 80.1926 231.931C79.625 230.285 80.4764 228.525 82.1226 227.958L92.2833 224.438L93.7023 221.543L89.4451 223.019C87.7989 223.587 86.0393 222.679 85.4716 221.089C84.904 219.443 85.8122 217.684 87.4016 217.116L97.5623 213.597L100.4 207.807L93.9862 208.261L86.9475 216.378C85.8122 217.684 83.8255 217.854 82.5767 216.719C81.2711 215.583 81.1576 213.597 82.2929 212.348L85.2446 208.942L82.0091 209.169L74.9704 217.286C73.8351 218.592 71.9052 218.705 70.5996 217.57C69.294 216.435 69.1805 214.505 70.3158 213.199L73.2675 209.793L67.7047 210.191C66.0018 210.304 64.5259 209.055 64.3556 207.296C64.2421 205.593 65.5476 204.117 67.2506 203.947L72.8134 203.549L69.4076 200.598C68.102 199.462 67.9885 197.532 69.067 196.227H69.1237Z"/>
</mask>
<path d="M69.1237 196.227C70.259 194.921 72.189 194.808 73.4945 195.943L81.6117 202.982L84.8472 202.755L81.4414 199.803C80.1359 198.668 80.0223 196.681 81.1576 195.432C82.2929 194.127 84.2228 194.013 85.5284 195.148L93.6456 202.187L100.06 201.733L96.4838 196.397L85.9257 194.354C84.2228 194.013 83.1443 192.424 83.4849 190.721C83.8255 189.018 85.4716 187.939 87.1178 188.28L91.5453 189.131L89.7289 186.464L79.2276 184.42C77.5247 184.08 76.4462 182.433 76.7868 180.787C77.1274 179.084 78.7168 178.006 80.4197 178.346L84.8472 179.198L81.7252 174.6C80.7603 173.181 81.1576 171.251 82.5767 170.286C83.9958 169.321 85.9257 169.718 86.8907 171.137L90.0127 175.735L90.8642 171.308C91.2047 169.605 92.7941 168.526 94.497 168.867C96.1999 169.207 97.2784 170.854 96.9379 172.5L94.8944 183.001L96.7108 185.726L97.5623 181.298C97.9028 179.595 99.4922 178.517 101.195 178.857C102.898 179.198 103.977 180.844 103.636 182.49L101.592 192.991L105.169 198.327L108.007 192.537L104.487 182.377C103.92 180.73 104.771 178.971 106.417 178.403C108.064 177.836 109.823 178.687 110.391 180.333L111.867 184.59L113.286 181.695L109.823 171.535C109.256 169.945 110.107 168.129 111.753 167.561C113.399 166.994 115.159 167.845 115.727 169.491L117.202 173.749L119.643 168.753C120.381 167.221 122.254 166.54 123.787 167.334C125.32 168.072 125.944 169.945 125.206 171.478L122.765 176.473L127.023 174.997C128.669 174.43 130.428 175.281 130.996 176.927C131.564 178.517 130.712 180.333 129.066 180.901L118.905 184.42L117.486 187.315L121.744 185.839C123.39 185.272 125.149 186.123 125.717 187.769C126.285 189.359 125.433 191.175 123.787 191.743L113.626 195.205L110.788 200.995L117.202 200.541L124.241 192.424C125.376 191.118 127.306 191.005 128.612 192.14C129.917 193.275 130.031 195.262 128.896 196.511L125.944 199.917L129.18 199.689L136.218 191.572C137.353 190.267 139.283 190.153 140.589 191.232C141.895 192.367 142.008 194.354 140.873 195.603L137.921 199.008L143.484 198.611C145.187 198.497 146.663 199.803 146.833 201.506C146.946 203.209 145.641 204.741 143.938 204.855L138.375 205.252L141.781 208.204C143.087 209.339 143.2 211.269 142.065 212.575C140.93 213.88 139 213.994 137.694 212.859L129.577 205.82L126.341 206.047L129.747 208.999C131.053 210.134 131.166 212.064 130.031 213.369C128.896 214.675 126.966 214.789 125.66 213.653L117.543 206.615L111.129 207.069L114.705 212.405L125.263 214.448C126.966 214.789 128.044 216.435 127.704 218.081C127.363 219.784 125.717 220.862 124.071 220.522L119.643 219.67L121.46 222.338L131.961 224.382C133.664 224.722 134.742 226.312 134.402 228.014C134.061 229.717 132.472 230.796 130.769 230.455L126.341 229.604L129.463 234.202C130.428 235.621 130.031 237.551 128.612 238.516C127.193 239.481 125.263 239.083 124.298 237.664L121.176 233.066L120.324 237.494C119.984 239.197 118.338 240.275 116.692 239.935C114.989 239.594 113.91 237.948 114.194 236.302L116.237 225.801L114.421 223.133L113.57 227.56C113.229 229.263 111.64 230.342 109.937 230.058C108.234 229.717 107.155 228.071 107.496 226.425L109.539 215.867L105.963 210.531L103.125 216.321L106.644 226.482C107.212 228.128 106.304 229.888 104.714 230.455C103.068 231.023 101.309 230.115 100.741 228.525L99.2652 224.268L97.8461 227.163L101.365 237.324C101.933 238.97 101.082 240.729 99.4355 241.297C97.7893 241.865 96.0296 241.013 95.462 239.367L93.9862 235.11L91.5453 240.105C90.8074 241.638 88.9342 242.319 87.4016 241.524C85.869 240.786 85.1878 238.913 85.9825 237.38L88.4233 232.385L84.1661 233.861C82.5199 234.429 80.7603 233.577 80.1926 231.931C79.625 230.285 80.4764 228.525 82.1226 227.958L92.2833 224.438L93.7023 221.543L89.4451 223.019C87.7989 223.587 86.0393 222.679 85.4716 221.089C84.904 219.443 85.8122 217.684 87.4016 217.116L97.5623 213.597L100.4 207.807L93.9862 208.261L86.9475 216.378C85.8122 217.684 83.8255 217.854 82.5767 216.719C81.2711 215.583 81.1576 213.597 82.2929 212.348L85.2446 208.942L82.0091 209.169L74.9704 217.286C73.8351 218.592 71.9052 218.705 70.5996 217.57C69.294 216.435 69.1805 214.505 70.3158 213.199L73.2675 209.793L67.7047 210.191C66.0018 210.304 64.5259 209.055 64.3556 207.296C64.2421 205.593 65.5476 204.117 67.2506 203.947L72.8134 203.549L69.4076 200.598C68.102 199.462 67.9885 197.532 69.067 196.227H69.1237Z" fill="white" stroke="#007266" stroke-width="4" mask="url(#path-58-inside-1_315_963)"/>
<mask id="path-59-inside-2_315_963" fill="white">
<path d="M155.736 270.58C156.774 270.3 157.808 270.91 158.087 271.947L159.833 278.385L161.579 279.389L160.846 276.688C160.566 275.651 161.196 274.588 162.213 274.337C163.25 274.058 164.284 274.668 164.564 275.705L166.31 282.143L169.773 284.13L169.778 280.142L165.044 275.433C164.284 274.668 164.279 273.475 165.044 272.715C165.809 271.956 167.031 271.97 167.762 272.715L169.748 274.687L169.736 272.683L165.032 267.994C164.272 267.229 164.287 266.007 165.032 265.277C165.797 264.517 166.99 264.512 167.749 265.277L169.736 267.249L169.72 263.798C169.714 262.733 170.587 261.876 171.652 261.87C172.718 261.864 173.575 262.737 173.581 263.802L173.597 267.253L175.569 265.266C176.335 264.506 177.527 264.501 178.287 265.266C179.046 266.031 179.032 267.253 178.287 267.983L173.597 272.688L173.59 274.721L175.562 272.734C176.327 271.974 177.52 271.969 178.279 272.734C179.039 273.499 179.025 274.721 178.279 275.451L173.59 280.156L173.585 284.144L177.053 282.143L178.757 275.688C179.035 274.643 180.083 274.031 181.128 274.308C182.173 274.586 182.785 275.634 182.507 276.679L181.794 279.384L183.527 278.383L185.261 271.948C185.519 270.932 186.587 270.291 187.632 270.569C188.677 270.846 189.289 271.894 189.011 272.939L188.298 275.644L191.285 273.915C192.196 273.381 193.397 273.678 193.912 274.619C194.446 275.53 194.12 276.711 193.209 277.245L190.221 278.975L192.926 279.688C193.971 279.966 194.583 281.014 194.305 282.059C194.048 283.074 192.98 283.716 191.935 283.438L185.48 281.733L183.746 282.734L186.451 283.448C187.496 283.725 188.108 284.773 187.831 285.818C187.573 286.834 186.505 287.475 185.46 287.197L179.025 285.464L175.557 287.465L179.02 289.452L185.458 287.706C186.495 287.426 187.529 288.036 187.809 289.073C188.089 290.11 187.459 291.173 186.442 291.424L183.741 292.157L185.487 293.16L191.926 291.414C192.963 291.135 193.997 291.744 194.296 292.752C194.576 293.789 193.946 294.853 192.929 295.103L190.228 295.836L193.233 297.558C194.15 298.089 194.458 299.273 193.956 300.209C193.425 301.126 192.221 301.464 191.305 300.933L188.3 299.211L189.033 301.912C189.313 302.949 188.703 303.983 187.666 304.263C186.629 304.542 185.595 303.932 185.315 302.895L183.569 296.457L181.823 295.454L182.556 298.154C182.836 299.191 182.226 300.225 181.189 300.505C180.152 300.785 179.118 300.175 178.838 299.138L177.092 292.7L173.63 290.713L173.625 294.701L178.358 299.41C179.118 300.175 179.104 301.397 178.358 302.127C177.593 302.887 176.371 302.873 175.641 302.127L173.654 300.155L173.666 302.159L178.371 306.849C179.13 307.614 179.136 308.806 178.37 309.566C177.605 310.326 176.413 310.331 175.653 309.566L173.666 307.594L173.683 311.044C173.689 312.11 172.816 312.967 171.75 312.973C170.685 312.979 169.828 312.106 169.822 311.04L169.805 307.59L167.833 309.577C167.068 310.336 165.846 310.322 165.116 309.576C164.356 308.811 164.37 307.589 165.087 306.839L169.776 302.135L169.764 300.131L167.792 302.118C167.027 302.878 165.834 302.883 165.055 302.147C164.295 301.382 164.309 300.16 165.055 299.43L169.764 294.697L169.769 290.708L166.301 292.709L164.596 299.164C164.319 300.209 163.241 300.802 162.226 300.544C161.181 300.266 160.589 299.189 160.846 298.173L161.56 295.468L159.826 296.469L158.122 302.924C157.844 303.969 156.796 304.581 155.751 304.303C154.706 304.026 154.094 302.978 154.372 301.933L155.085 299.228L152.098 300.957C151.187 301.491 149.985 301.193 149.471 300.253C148.936 299.342 149.234 298.141 150.174 297.626L153.162 295.897L150.457 295.184C149.412 294.906 148.8 293.858 149.077 292.813C149.355 291.768 150.403 291.156 151.448 291.434L157.903 293.138L159.637 292.138L156.932 291.424C155.887 291.147 155.294 290.069 155.552 289.054C155.83 288.009 156.907 287.416 157.923 287.674L164.378 289.379L167.845 287.378L164.382 285.391L157.944 287.137C156.907 287.416 155.824 286.816 155.574 285.799C155.294 284.762 155.924 283.698 156.941 283.448L159.642 282.715L157.895 281.712L151.457 283.457C150.42 283.737 149.386 283.127 149.107 282.09C148.827 281.053 149.437 280.019 150.474 279.739L153.174 279.006L150.17 277.285C149.253 276.754 148.925 275.599 149.446 274.633C149.978 273.716 151.161 273.408 152.098 273.91L155.102 275.631L154.369 272.931C154.09 271.894 154.699 270.86 155.707 270.56L155.736 270.58Z"/>
</mask>
<path d="M155.736 270.58C156.774 270.3 157.808 270.91 158.087 271.947L159.833 278.385L161.579 279.389L160.846 276.688C160.566 275.651 161.196 274.588 162.213 274.337C163.25 274.058 164.284 274.668 164.564 275.705L166.31 282.143L169.773 284.13L169.778 280.142L165.044 275.433C164.284 274.668 164.279 273.475 165.044 272.715C165.809 271.956 167.031 271.97 167.762 272.715L169.748 274.687L169.736 272.683L165.032 267.994C164.272 267.229 164.287 266.007 165.032 265.277C165.797 264.517 166.99 264.512 167.749 265.277L169.736 267.249L169.72 263.798C169.714 262.733 170.587 261.876 171.652 261.87C172.718 261.864 173.575 262.737 173.581 263.802L173.597 267.253L175.569 265.266C176.335 264.506 177.527 264.501 178.287 265.266C179.046 266.031 179.032 267.253 178.287 267.983L173.597 272.688L173.59 274.721L175.562 272.734C176.327 271.974 177.52 271.969 178.279 272.734C179.039 273.499 179.025 274.721 178.279 275.451L173.59 280.156L173.585 284.144L177.053 282.143L178.757 275.688C179.035 274.643 180.083 274.031 181.128 274.308C182.173 274.586 182.785 275.634 182.507 276.679L181.794 279.384L183.527 278.383L185.261 271.948C185.519 270.932 186.587 270.291 187.632 270.569C188.677 270.846 189.289 271.894 189.011 272.939L188.298 275.644L191.285 273.915C192.196 273.381 193.397 273.678 193.912 274.619C194.446 275.53 194.12 276.711 193.209 277.245L190.221 278.975L192.926 279.688C193.971 279.966 194.583 281.014 194.305 282.059C194.048 283.074 192.98 283.716 191.935 283.438L185.48 281.733L183.746 282.734L186.451 283.448C187.496 283.725 188.108 284.773 187.831 285.818C187.573 286.834 186.505 287.475 185.46 287.197L179.025 285.464L175.557 287.465L179.02 289.452L185.458 287.706C186.495 287.426 187.529 288.036 187.809 289.073C188.089 290.11 187.459 291.173 186.442 291.424L183.741 292.157L185.487 293.16L191.926 291.414C192.963 291.135 193.997 291.744 194.296 292.752C194.576 293.789 193.946 294.853 192.929 295.103L190.228 295.836L193.233 297.558C194.15 298.089 194.458 299.273 193.956 300.209C193.425 301.126 192.221 301.464 191.305 300.933L188.3 299.211L189.033 301.912C189.313 302.949 188.703 303.983 187.666 304.263C186.629 304.542 185.595 303.932 185.315 302.895L183.569 296.457L181.823 295.454L182.556 298.154C182.836 299.191 182.226 300.225 181.189 300.505C180.152 300.785 179.118 300.175 178.838 299.138L177.092 292.7L173.63 290.713L173.625 294.701L178.358 299.41C179.118 300.175 179.104 301.397 178.358 302.127C177.593 302.887 176.371 302.873 175.641 302.127L173.654 300.155L173.666 302.159L178.371 306.849C179.13 307.614 179.136 308.806 178.37 309.566C177.605 310.326 176.413 310.331 175.653 309.566L173.666 307.594L173.683 311.044C173.689 312.11 172.816 312.967 171.75 312.973C170.685 312.979 169.828 312.106 169.822 311.04L169.805 307.59L167.833 309.577C167.068 310.336 165.846 310.322 165.116 309.576C164.356 308.811 164.37 307.589 165.087 306.839L169.776 302.135L169.764 300.131L167.792 302.118C167.027 302.878 165.834 302.883 165.055 302.147C164.295 301.382 164.309 300.16 165.055 299.43L169.764 294.697L169.769 290.708L166.301 292.709L164.596 299.164C164.319 300.209 163.241 300.802 162.226 300.544C161.181 300.266 160.589 299.189 160.846 298.173L161.56 295.468L159.826 296.469L158.122 302.924C157.844 303.969 156.796 304.581 155.751 304.303C154.706 304.026 154.094 302.978 154.372 301.933L155.085 299.228L152.098 300.957C151.187 301.491 149.985 301.193 149.471 300.253C148.936 299.342 149.234 298.141 150.174 297.626L153.162 295.897L150.457 295.184C149.412 294.906 148.8 293.858 149.077 292.813C149.355 291.768 150.403 291.156 151.448 291.434L157.903 293.138L159.637 292.138L156.932 291.424C155.887 291.147 155.294 290.069 155.552 289.054C155.83 288.009 156.907 287.416 157.923 287.674L164.378 289.379L167.845 287.378L164.382 285.391L157.944 287.137C156.907 287.416 155.824 286.816 155.574 285.799C155.294 284.762 155.924 283.698 156.941 283.448L159.642 282.715L157.895 281.712L151.457 283.457C150.42 283.737 149.386 283.127 149.107 282.09C148.827 281.053 149.437 280.019 150.474 279.739L153.174 279.006L150.17 277.285C149.253 276.754 148.925 275.599 149.446 274.633C149.978 273.716 151.161 273.408 152.098 273.91L155.102 275.631L154.369 272.931C154.09 271.894 154.699 270.86 155.707 270.56L155.736 270.58Z" fill="white" stroke="#007266" stroke-width="2.4" mask="url(#path-59-inside-2_315_963)"/>
</svg>
