<svg width="493" height="494" viewBox="0 0 493 494" fill="none" xmlns="http://www.w3.org/2000/svg">
<path d="M174.559 146.731C172.409 167.238 171.031 168.341 177.37 166.246C183.765 163.434 187.734 161.67 191.924 159.851C195.783 162.332 195.838 162.001 198.043 163.655C200.359 165.364 204.714 167.569 207.25 169.057C209.51 170.38 210.888 170.38 211.494 167.073C212.376 162.552 214.03 155.882 214.912 149.266C218.496 147.557 228.749 142.32 232.002 140.391L231.892 140.501C234.979 138.682 235.64 138.296 236.136 137.469C236.577 136.697 235.309 135.154 234.317 134.492C232.829 133.279 226.048 127.767 218.826 122.971C222.134 102.684 223.733 95.1862 197.437 107.535C191.759 100.644 183.931 95.1311 181.064 96.6747C179.079 97.7221 178.693 99.2105 177.536 117.513C167.778 122.585 156.146 125.947 155.65 129.806C155.099 134.106 174.063 146.29 174.614 146.731L174.559 146.731Z" fill="white"/>
<path d="M197.874 111.611C192.472 107.476 182.824 97.829 181.887 104.996C181.832 105.216 181.832 105.492 181.832 105.767C181.777 108.083 182.163 117.675 182.108 118.336C180.895 118.888 165.569 126.054 163.364 129.031C163.199 129.307 163.089 129.582 163.034 129.913C162.537 133.882 173.563 141.876 178.414 145.294C178.359 145.569 178.359 145.845 178.304 146.121C177.257 153.949 176.485 156.485 176.044 159.407L176.044 159.517C175.327 164.809 181.832 160.84 183.927 159.792C186.022 158.745 187.841 157.477 191.755 155.217C204.434 163.927 207.632 165.471 208.679 160.674C209.286 157.918 209.727 154.996 210.057 152.24C210.278 150.586 210.443 149.043 210.664 147.554L210.884 146.011C225.603 140.167 228.305 138.844 228.746 136.914L228.746 136.804C229.187 133.607 218.382 126.55 214.302 123.574C214.357 123.022 215.901 111.942 215.956 108.799C216.011 106.429 213.861 104.94 210.388 106.208C205.647 107.917 203.608 108.689 197.819 111.776L197.874 111.611Z" fill="#007266"/>
<path d="M196.882 122.476C194.126 120.381 189.109 115.365 188.668 119.058C188.613 119.169 188.613 119.334 188.613 119.444C188.613 120.657 188.778 125.563 188.778 125.894C188.172 126.17 180.289 129.863 179.131 131.407C179.021 131.517 178.966 131.683 178.966 131.848C178.69 133.888 184.368 137.967 186.849 139.731C186.794 139.897 186.794 140.062 186.794 140.172C186.242 144.197 185.857 145.464 185.636 147.008L185.636 147.063C185.25 149.764 188.613 147.725 189.715 147.173C190.763 146.622 191.7 145.961 193.74 144.803C200.245 149.268 201.899 150.095 202.45 147.614C202.781 146.181 203.001 144.693 203.167 143.259C203.277 142.432 203.387 141.606 203.497 140.834C203.553 140.558 203.553 140.283 203.608 140.062C211.16 137.03 212.593 136.368 212.814 135.376L212.814 135.321C213.034 133.667 207.467 130.029 205.372 128.54C205.372 128.265 206.199 122.531 206.254 120.933C206.309 119.72 205.151 118.948 203.387 119.555C200.962 120.437 199.914 120.878 196.882 122.421L196.882 122.476Z" fill="white"/>
<path d="M217.002 135.489C216.561 137.308 218.049 138.245 219.482 138.135C220.695 138.025 221.908 137.253 221.743 135.654C221.522 133.559 217.773 132.236 217.002 135.489Z" fill="white"/>
<path d="M201.68 155.385C201.239 157.205 202.727 158.142 204.216 158.032C205.429 157.921 206.586 157.094 206.476 155.551C206.256 153.456 202.507 152.133 201.68 155.385Z" fill="white"/>
<path d="M179.189 154.775C178.748 156.595 180.237 157.532 181.67 157.421C182.883 157.366 184.095 156.539 183.93 154.941C183.71 152.846 179.961 151.523 179.134 154.775L179.189 154.775Z" fill="white"/>
<path d="M206.366 111.941C205.925 113.761 207.469 114.698 208.902 114.587C210.115 114.477 211.328 113.65 211.163 112.107C210.942 110.012 207.193 108.689 206.366 111.941Z" fill="white"/>
<path d="M170.036 130.579C169.595 132.398 171.139 133.336 172.572 133.225C173.785 133.115 174.998 132.343 174.832 130.745C174.612 128.65 170.863 127.327 170.036 130.579Z" fill="white"/>
<path d="M185.198 109.187C184.757 111.007 186.245 111.944 187.679 111.833C188.891 111.723 190.104 110.896 189.939 109.353C189.718 107.258 185.97 105.935 185.198 109.187Z" fill="white"/>
<path d="M144.095 62.6594C157.015 72.1228 157.242 73.4828 158.262 68.4394C158.829 63.0561 159.226 59.7694 159.622 56.256C162.796 54.6693 162.569 54.4993 164.552 53.6493C166.649 52.7427 169.766 50.7593 171.749 49.626C173.506 48.606 174.016 47.6993 172.089 45.9993C169.369 43.6193 165.572 39.9359 161.492 36.7625C161.719 33.7025 162.229 24.8058 162.172 21.9158L162.172 22.0291C162.172 19.2524 162.172 18.6857 161.776 18.0057C161.436 17.3824 159.906 17.6657 159.056 18.0624C157.695 18.6291 151.292 20.9524 145.342 23.8991C133.045 13.7557 128.625 9.73234 126.642 32.1158C119.842 33.1925 113.042 36.2525 112.985 38.8025C112.929 40.5592 113.779 41.3526 125.565 49.3426C125.169 57.8427 122.902 66.9094 125.282 68.7228C127.945 70.7628 143.529 62.8861 144.039 62.7161L144.095 62.6594Z" fill="#007266"/>
<path d="M158.773 22.4806L158.83 22.5372C159.963 23.5572 159.793 25.8806 157.98 38.0073C158.32 38.234 158.603 38.5173 158.943 38.744C159.85 39.4807 160.87 40.2173 161.833 41.0107C163.533 42.314 165.347 43.7874 166.934 45.2607C169.767 47.8674 167.5 49.3974 156.677 54.4408C156.677 57.9541 156.79 59.6541 156.677 61.4675C156.563 63.2808 156.677 69.1742 153.39 66.6242C153.39 66.6242 153.333 66.6242 153.333 66.5675C151.52 65.1509 150.16 63.6208 145.287 59.8808C145.117 59.7675 144.947 59.5975 144.777 59.4841C140.583 61.4108 130.95 65.6042 128.457 63.7342C128.287 63.5642 128.117 63.3942 128.003 63.1675C126.87 60.5608 128.06 47.5274 128.173 46.5074C127.777 46.1674 121.203 42.7107 119.673 41.7474C119.503 41.634 119.333 41.5207 119.163 41.4074C114.743 37.9507 124.943 35.2873 129.817 33.304C130.043 28.2039 130.27 26.5606 131.007 22.7072C131.517 19.9305 133.387 19.0805 134.917 20.0439C137.013 21.3472 143.813 26.7306 144.153 26.9573C147.723 25.3706 156.677 20.9505 158.66 22.4806L158.773 22.4806ZM156.903 24.8606C156.28 24.9739 155.147 25.2572 153.333 25.9372C151.18 26.7306 148.743 27.8639 146.987 28.6573C146.363 28.9406 145.797 29.1673 145.343 29.3939C144.493 29.7906 143.53 29.6773 142.793 29.1673C142.68 29.1106 142.51 28.9406 141.603 28.2606C139.79 26.8439 135.653 23.6706 133.953 22.5372C133.897 22.7072 133.783 22.9339 133.727 23.2739C133.047 26.9006 132.82 28.4306 132.593 33.474C132.537 34.494 131.913 35.4006 130.95 35.7973C130.043 36.1373 129.023 36.534 128.003 36.9307C126.247 37.554 122.96 38.744 121.43 39.7073C122.28 40.2173 124.093 41.1807 125.68 42.0307C129.137 43.9007 129.647 44.184 129.987 44.4674C130.723 45.034 131.063 45.9407 131.007 46.8474C130.61 50.3607 130.1 58.9741 130.553 61.6942C131.63 61.6942 134.973 61.2975 143.927 57.2175C144.833 56.8208 145.853 56.9341 146.647 57.5008C146.817 57.6141 146.987 57.7841 147.157 57.8975C150.33 60.3908 152.087 61.9208 153.39 63.0542C153.673 63.2808 153.9 63.5075 154.183 63.7342C154.24 63.2808 154.24 62.7142 154.297 62.0342C154.297 61.8075 154.297 61.5808 154.297 61.4108C154.353 60.5042 154.353 59.5975 154.297 58.3508C154.297 57.3308 154.24 56.0841 154.24 54.4974C154.24 53.4774 154.863 52.5708 155.77 52.1174C158.377 50.8708 163.533 48.4907 165.234 47.1874C163.647 45.7141 161.89 44.354 160.417 43.2207C159.907 42.824 159.397 42.4274 158.887 42.0307C158.433 41.6907 157.923 41.294 157.47 40.954C157.13 40.6707 156.79 40.444 156.507 40.1607C155.77 39.594 155.373 38.6307 155.543 37.724C156.223 33.1906 157.13 27.1273 157.073 24.9172L156.903 24.8606Z" fill="white"/>
<path d="M132.14 39.5386C132.82 40.0486 132.763 40.842 132.366 41.352C132.14 41.6353 131.856 41.8053 131.573 41.862C131.233 41.9186 130.893 41.862 130.553 41.5786C130.213 41.352 130.043 41.012 130.043 40.672C130.043 40.332 130.1 40.0486 130.326 39.7653C130.723 39.2553 131.46 39.0286 132.14 39.5386Z" fill="white"/>
<path d="M138.543 29.5086C139.223 30.0186 139.166 30.8119 138.77 31.3786C138.373 31.8886 137.58 32.1719 136.9 31.6052C136.56 31.3786 136.39 31.0386 136.39 30.6419C136.39 30.3019 136.446 30.0186 136.673 29.7352C137.07 29.2252 137.863 28.9419 138.543 29.5086Z" fill="white"/>
<path d="M136.276 53.1941C136.956 53.7041 136.9 54.5541 136.503 55.0641C136.106 55.5741 135.313 55.8575 134.633 55.2908C133.953 54.7808 134.01 53.9308 134.406 53.4208C134.633 53.1374 134.916 52.9674 135.2 52.9108C135.54 52.8541 135.936 52.9108 136.22 53.1941L136.276 53.1941Z" fill="white"/>
<path d="M147.496 47.1321C148.006 47.5288 148.29 48.2654 147.723 48.9454C147.496 49.2854 147.156 49.4554 146.816 49.4554C146.476 49.4554 146.193 49.3421 145.91 49.1721C145.4 48.7754 145.116 48.0388 145.683 47.3588C145.91 47.0188 146.25 46.8488 146.59 46.8488C146.93 46.8488 147.213 46.9054 147.496 47.1321Z" fill="white"/>
<path d="M147.835 36.8196C147.325 36.4229 147.042 35.6296 147.609 35.0062C147.835 34.6662 148.175 34.4962 148.515 34.4962C148.855 34.4962 149.139 34.5529 149.422 34.7796C149.932 35.1762 150.215 35.9696 149.649 36.5929C149.422 36.9329 149.082 37.1029 148.742 37.1029C148.402 37.1029 148.119 36.9896 147.835 36.8196Z" fill="white"/>
<path d="M150.783 53.8194C151.066 54.046 151.236 54.3294 151.293 54.6127C151.349 54.9527 151.293 55.3494 151.009 55.6327C150.783 55.9727 150.443 56.1427 150.103 56.1427C149.763 56.1427 149.479 56.086 149.196 55.8594C148.686 55.4627 148.403 54.6694 148.969 54.046C149.479 53.366 150.273 53.4227 150.783 53.8194Z" fill="white"/>
<path d="M156.222 46.8489C155.542 46.3389 155.598 45.5455 155.995 45.0355C156.222 44.7522 156.505 44.5822 156.788 44.5255C157.128 44.4689 157.468 44.5255 157.808 44.8089C158.148 45.0355 158.318 45.3755 158.318 45.7155C158.318 46.0555 158.262 46.3389 158.035 46.6222C157.638 47.1322 156.902 47.3589 156.222 46.8489Z" fill="white"/>
<path d="M144.833 42.8248C144.606 43.1648 144.266 43.3348 143.926 43.3348C143.586 43.3348 143.303 43.2782 143.019 43.0515C142.509 42.6548 142.226 41.8615 142.793 41.1815C143.869 39.8215 145.909 41.4648 144.889 42.8248L144.833 42.8248Z" fill="white"/>
<path d="M140.583 49.457C140.356 49.797 140.016 49.967 139.676 49.967C139.336 49.967 139.053 49.9104 138.769 49.6837C138.259 49.287 137.976 48.4937 138.543 47.8137C139.619 46.4537 141.659 48.097 140.639 49.457L140.583 49.457Z" fill="white"/>
<path d="M149.593 45.0354C149.083 44.6387 148.799 43.8454 149.366 43.1654C150.443 41.8054 152.483 43.4487 151.463 44.8087C151.236 45.1487 150.896 45.3187 150.556 45.3187C150.216 45.3187 149.933 45.2621 149.649 45.0354L149.593 45.0354Z" fill="white"/>
<path d="M138.543 40.1615C139.223 40.6715 139.166 41.4649 138.77 41.9749C138.543 42.2582 138.26 42.4282 137.976 42.4849C137.636 42.5416 137.24 42.4849 136.956 42.2016C136.616 41.9749 136.446 41.6349 136.446 41.2949C136.446 40.9549 136.56 40.6715 136.73 40.3882C137.126 39.8782 137.863 39.5949 138.543 40.1615Z" fill="white"/>
<path d="M141.489 34.6076C142.169 35.1176 142.112 35.9109 141.716 36.4209C141.489 36.7043 141.206 36.8743 140.922 36.9309C140.582 36.9876 140.186 36.9309 139.902 36.6476C139.562 36.4209 139.392 36.0809 139.392 35.7409C139.392 35.4009 139.449 35.1176 139.676 34.8343C140.072 34.3243 140.809 34.0409 141.489 34.6076Z" fill="white"/>
<path d="M153.503 29.2268C153.787 29.4535 153.957 29.7368 154.013 30.0202C154.07 30.3602 154.013 30.7568 153.73 31.0402C153.503 31.3802 153.163 31.5502 152.823 31.5502C152.483 31.5502 152.2 31.4935 151.917 31.2668C151.407 30.8702 151.123 30.0768 151.69 29.4535C152.2 28.7735 152.993 28.8302 153.503 29.2268Z" fill="white"/>
<circle cx="108.764" cy="69.1579" r="4.75364" fill="#FFFEFE"/>
<circle cx="402.284" cy="124.617" r="3.69727" fill="#FFFEFE"/>
<g filter="url(#filter0_f_308_969)">
<circle cx="455.906" cy="161.199" r="3.69727" fill="#FFF6A8"/>
</g>
<g filter="url(#filter1_f_308_969)">
<circle cx="140.4" cy="260.888" r="3.69727" fill="#FFF6A8"/>
</g>
<g filter="url(#filter2_f_308_969)">
<circle cx="224.838" cy="486.238" r="3.69727" fill="#FFF6A8"/>
</g>
<circle cx="405.776" cy="45.8864" r="3.69727" fill="#FFFEFE"/>
<g filter="url(#filter3_f_308_969)">
<circle cx="429.228" cy="427.575" r="6.33818" fill="#FFF6A8"/>
</g>
<circle cx="424.238" cy="309.037" r="4.75364" fill="#FFFEFE"/>
<circle cx="197.633" cy="327.35" r="4.75364" fill="#FFFEFE"/>
<circle cx="269.055" cy="76.1086" r="4.75364" fill="#FFFEFE"/>
<circle cx="209.653" cy="250.342" r="4.75364" fill="#FFFEFE"/>
<circle cx="101.224" cy="205.19" r="4.75364" fill="#FFFEFE"/>
<g filter="url(#filter4_f_308_969)">
<circle cx="303.365" cy="287.339" r="7.56798" fill="#FFF6A8"/>
</g>
<g filter="url(#filter5_f_308_969)">
<circle cx="167.02" cy="360.612" r="7.56798" fill="#FFF6A8"/>
</g>
<g filter="url(#filter6_f_308_969)">
<circle cx="11.6227" cy="18.4538" r="7.56798" fill="#FDFFAD"/>
</g>
<circle cx="202.086" cy="8.015" r="7.56798" fill="#FFFEFE"/>
<defs>
<filter id="filter0_f_308_969" x="448.859" y="154.152" width="14.0945" height="14.0945" filterUnits="userSpaceOnUse" color-interpolation-filters="sRGB">
<feFlood flood-opacity="0" result="BackgroundImageFix"/>
<feBlend mode="normal" in="SourceGraphic" in2="BackgroundImageFix" result="shape"/>
<feGaussianBlur stdDeviation="1.675" result="effect1_foregroundBlur_308_969"/>
</filter>
<filter id="filter1_f_308_969" x="133.353" y="253.841" width="14.0945" height="14.0945" filterUnits="userSpaceOnUse" color-interpolation-filters="sRGB">
<feFlood flood-opacity="0" result="BackgroundImageFix"/>
<feBlend mode="normal" in="SourceGraphic" in2="BackgroundImageFix" result="shape"/>
<feGaussianBlur stdDeviation="1.675" result="effect1_foregroundBlur_308_969"/>
</filter>
<filter id="filter2_f_308_969" x="217.791" y="479.191" width="14.0945" height="14.0945" filterUnits="userSpaceOnUse" color-interpolation-filters="sRGB">
<feFlood flood-opacity="0" result="BackgroundImageFix"/>
<feBlend mode="normal" in="SourceGraphic" in2="BackgroundImageFix" result="shape"/>
<feGaussianBlur stdDeviation="1.675" result="effect1_foregroundBlur_308_969"/>
</filter>
<filter id="filter3_f_308_969" x="418.702" y="417.05" width="21.0518" height="21.0513" filterUnits="userSpaceOnUse" color-interpolation-filters="sRGB">
<feFlood flood-opacity="0" result="BackgroundImageFix"/>
<feBlend mode="normal" in="SourceGraphic" in2="BackgroundImageFix" result="shape"/>
<feGaussianBlur stdDeviation="2.09375" result="effect1_foregroundBlur_308_969"/>
</filter>
<filter id="filter4_f_308_969" x="291.609" y="275.583" width="23.5107" height="23.511" filterUnits="userSpaceOnUse" color-interpolation-filters="sRGB">
<feFlood flood-opacity="0" result="BackgroundImageFix"/>
<feBlend mode="normal" in="SourceGraphic" in2="BackgroundImageFix" result="shape"/>
<feGaussianBlur stdDeviation="2.09375" result="effect1_foregroundBlur_308_969"/>
</filter>
<filter id="filter5_f_308_969" x="155.265" y="348.856" width="23.5107" height="23.511" filterUnits="userSpaceOnUse" color-interpolation-filters="sRGB">
<feFlood flood-opacity="0" result="BackgroundImageFix"/>
<feBlend mode="normal" in="SourceGraphic" in2="BackgroundImageFix" result="shape"/>
<feGaussianBlur stdDeviation="2.09375" result="effect1_foregroundBlur_308_969"/>
</filter>
<filter id="filter6_f_308_969" x="0.704688" y="7.53586" width="21.8357" height="21.836" filterUnits="userSpaceOnUse" color-interpolation-filters="sRGB">
<feFlood flood-opacity="0" result="BackgroundImageFix"/>
<feBlend mode="normal" in="SourceGraphic" in2="BackgroundImageFix" result="shape"/>
<feGaussianBlur stdDeviation="1.675" result="effect1_foregroundBlur_308_969"/>
</filter>
</defs>
</svg>
