<svg width="375" height="160" viewBox="0 0 375 160" fill="none" xmlns="http://www.w3.org/2000/svg">
<mask id="mask0_239:653" style="mask-type:alpha" maskUnits="userSpaceOnUse" x="-6" y="0" width="390" height="52">
<rect x="-6" width="390" height="52" fill="#C4C4C4"/>
</mask>
<g mask="url(#mask0_239:653)">
<path d="M424.204 -20.7543C378.099 21.3464 266.378 44.9377 138.124 34.8877C8.01887 24.6331 -99.9564 -17.4777 -137.344 -67.1137C-137.344 -67.1137 -148.914 -81.322 -151.152 -88.6186" stroke="white"/>
<path fill-rule="evenodd" clip-rule="evenodd" d="M356.207 12.8973C356.569 12.9744 356.855 13.414 356.778 13.7765C356.701 14.1389 356.404 14.6441 355.86 14.5283C355.316 14.4126 354.992 14.1542 355.107 13.6105C355.185 13.2481 355.482 12.743 356.025 12.8587L356.207 12.8973Z" fill="url(#paint0_radial_239:653)"/>
<path fill-rule="evenodd" clip-rule="evenodd" d="M374.352 10.3889C374.322 10.9218 373.863 11.3222 373.339 11.252C372.805 11.2216 372.405 10.7629 372.475 10.2384C372.505 9.7054 372.964 9.30509 373.489 9.37524C373.529 9.38369 373.568 9.39214 373.608 9.40059C374.085 9.50199 374.406 9.94376 374.352 10.3889Z" fill="url(#paint1_radial_239:653)"/>
<path fill-rule="evenodd" clip-rule="evenodd" d="M368.102 13.5807C368.071 14.1136 367.612 14.5139 367.088 14.4438C366.555 14.4133 366.154 13.9547 366.224 13.4301C366.254 12.8972 366.713 12.4969 367.238 12.567C367.278 12.5755 367.317 12.5839 367.357 12.5924C367.834 12.6938 368.155 13.1355 368.102 13.5807Z" fill="url(#paint2_radial_239:653)"/>
<path fill-rule="evenodd" clip-rule="evenodd" d="M307.002 25.5071C306.972 26.0401 306.513 26.4404 305.989 26.3702C305.455 26.3398 305.055 25.8811 305.125 25.3566C305.155 24.8236 305.614 24.4233 306.139 24.4935C306.179 24.5019 306.218 24.5104 306.258 24.5188C306.735 24.6202 307.056 25.062 307.002 25.5071Z" fill="url(#paint3_radial_239:653)"/>
<path fill-rule="evenodd" clip-rule="evenodd" d="M304.549 29.9097C304.518 30.4427 304.059 30.843 303.535 30.7728C303.002 30.7424 302.601 30.2837 302.671 29.7592C302.702 29.2262 303.16 28.8259 303.685 28.8961C303.725 28.9045 303.764 28.913 303.804 28.9214C304.281 29.0228 304.602 29.4646 304.549 29.9097Z" fill="url(#paint4_radial_239:653)"/>
<path fill-rule="evenodd" clip-rule="evenodd" d="M297.024 28.2142C296.994 28.7472 296.535 29.1475 296.011 29.0773C295.477 29.0469 295.077 28.5882 295.147 28.0637C295.177 27.5307 295.636 27.1304 296.161 27.2006C296.201 27.209 296.24 27.2175 296.28 27.2259C296.756 27.3273 297.078 27.7691 297.024 28.2142Z" fill="url(#paint5_radial_239:653)"/>
<path fill-rule="evenodd" clip-rule="evenodd" d="M375.071 7.00177C375.035 7.63268 374.492 8.10656 373.871 8.02352C373.24 7.98747 372.766 7.4445 372.849 6.82359C372.885 6.19268 373.428 5.71879 374.049 5.80184C374.096 5.81184 374.143 5.82184 374.19 5.83185C374.754 5.95188 375.134 6.47485 375.071 7.00177Z" fill="url(#paint6_radial_239:653)"/>
<path fill-rule="evenodd" clip-rule="evenodd" d="M352.697 18.6287C352.661 19.2596 352.118 19.7335 351.497 19.6505C350.866 19.6144 350.392 19.0715 350.475 18.4505C350.511 17.8196 351.054 17.3457 351.675 17.4288C351.722 17.4388 351.769 17.4488 351.816 17.4588C352.38 17.5788 352.76 18.1018 352.697 18.6287Z" fill="url(#paint7_radial_239:653)"/>
<path fill-rule="evenodd" clip-rule="evenodd" d="M312.733 28.3115C312.697 28.9424 312.154 29.4163 311.533 29.3333C310.902 29.2972 310.428 28.7543 310.511 28.1333C310.547 27.5024 311.09 27.0285 311.711 27.1116C311.758 27.1216 311.805 27.1316 311.852 27.1416C312.416 27.2616 312.796 27.7846 312.733 28.3115Z" fill="url(#paint8_radial_239:653)"/>
<path fill-rule="evenodd" clip-rule="evenodd" d="M322.812 22.8777C322.776 23.5086 322.233 23.9825 321.612 23.8994C320.981 23.8634 320.507 23.3204 320.59 22.6995C320.626 22.0686 321.169 21.5947 321.79 21.6778C321.837 21.6878 321.884 21.6978 321.931 21.7078C322.495 21.8278 322.875 22.3508 322.812 22.8777Z" fill="url(#paint9_radial_239:653)"/>
<g filter="url(#filter0_f_239:653)">
<path fill-rule="evenodd" clip-rule="evenodd" d="M393.256 4.00586C393.005 8.41222 389.212 11.7219 384.874 11.1419C380.466 10.8901 377.155 7.09794 377.735 2.76144C377.986 -1.64492 381.779 -4.9546 386.117 -4.3746C386.445 -4.30474 386.773 -4.23487 387.102 -4.16501C391.042 -3.32667 393.696 0.325768 393.256 4.00586Z" fill="url(#paint10_radial_239:653)" fill-opacity="0.5"/>
</g>
<g filter="url(#filter1_f_239:653)">
<path fill-rule="evenodd" clip-rule="evenodd" d="M328.479 22.8576C327.581 18.5363 330.388 14.3577 334.728 13.7952C339.051 12.8976 343.231 15.7036 343.794 20.0423C344.691 24.3635 341.884 28.5421 337.544 29.1046C337.209 29.1221 336.874 29.1396 336.539 29.1571C332.516 29.367 329.006 26.5261 328.479 22.8576Z" fill="url(#paint11_radial_239:653)" fill-opacity="0.5"/>
</g>
<path fill-rule="evenodd" clip-rule="evenodd" d="M332.064 22.1989C331.568 19.8125 333.119 17.5049 335.515 17.1942C337.903 16.6985 340.211 18.2481 340.522 20.6442C341.018 23.0306 339.467 25.3382 337.07 25.6488C336.885 25.6585 336.7 25.6682 336.515 25.6778C334.294 25.7938 332.356 24.2249 332.064 22.1989Z" fill="url(#paint12_radial_239:653)"/>
<g filter="url(#filter2_f_239:653)">
<path d="M330.294 20.3727L333.539 18.4675L336.198 21.1302L334.292 17.8852L336.955 15.2263L333.71 17.1316L331.051 14.4688L332.956 17.7138L330.294 20.3727Z" fill="white"/>
</g>
<g filter="url(#filter3_f_239:653)">
<path d="M331.237 19.6436L333.562 18.2782L335.468 20.1865L334.103 17.861L336.011 15.9554L333.685 17.3209L331.78 15.4126L333.145 17.7381L331.237 19.6436Z" fill="white"/>
</g>
<g filter="url(#filter4_f_239:653)">
<path d="M361.643 14.7724L359.135 15.9822L357.334 13.8576L358.544 16.3663L356.419 18.1671L358.928 16.9573L360.729 19.0819L359.519 16.5733L361.643 14.7724Z" fill="white"/>
</g>
<g filter="url(#filter5_f_239:653)">
<path d="M360.903 15.2534L359.105 16.1205L357.815 14.5978L358.682 16.3958L357.159 17.6865L358.957 16.8194L360.248 18.3422L359.381 16.5441L360.903 15.2534Z" fill="white"/>
</g>
<g filter="url(#filter6_f_239:653)">
<path d="M322.086 25.0858L320.48 27.3616L317.874 26.3788L320.15 27.9844L319.167 30.5903L320.773 28.3145L323.379 29.2973L321.103 27.6918L322.086 25.0858Z" fill="white"/>
</g>
<g filter="url(#filter7_f_239:653)">
<path d="M321.672 25.8655L320.522 27.4966L318.654 26.7922L320.285 27.9429L319.581 29.8107L320.731 28.1796L322.599 28.884L320.968 27.7333L321.672 25.8655Z" fill="white"/>
</g>
<g filter="url(#filter8_f_239:653)">
<path d="M313.76 24.2482L311.017 23.768L310.793 20.9919L310.313 23.7353L307.537 23.9592L310.28 24.4394L310.504 27.2155L310.984 24.4721L313.76 24.2482Z" fill="white"/>
</g>
<g filter="url(#filter9_f_239:653)">
<path d="M312.879 24.2073L310.913 23.8631L310.752 21.8734L310.408 23.8397L308.418 24.0002L310.385 24.3444L310.545 26.3341L310.889 24.3678L312.879 24.2073Z" fill="white"/>
</g>
<path fill-rule="evenodd" clip-rule="evenodd" d="M14.8461 12.9774C14.8157 13.5104 14.357 13.9107 13.8323 13.8405C13.2991 13.8101 12.8986 13.3514 12.9687 12.8269C12.9991 12.2939 13.4579 11.8936 13.9826 11.9637C14.0223 11.9722 14.062 11.9806 14.1017 11.9891C14.5783 12.0905 14.8993 12.5323 14.8461 12.9774Z" fill="url(#paint13_radial_239:653)"/>
<g filter="url(#filter10_f_239:653)">
<path fill-rule="evenodd" clip-rule="evenodd" d="M-1.94651 9.29589C-3.51102 13.4228 -1.39421 17.99 2.80409 19.2264C6.93255 20.791 11.5009 18.6755 12.7371 14.4787C14.3016 10.3518 12.1848 5.78465 7.9865 4.54824C7.65819 4.47838 7.32987 4.40852 7.00155 4.33866C3.06173 3.50032 -0.849981 5.75553 -1.94651 9.29589Z" fill="url(#paint14_radial_239:653)" fill-opacity="0.5"/>
</g>
<path fill-rule="evenodd" clip-rule="evenodd" d="M1.49101 10.509C0.627005 12.7881 1.79602 15.3103 4.11453 15.9931C6.39447 16.8572 8.91735 15.6889 9.60004 13.3713C10.464 11.0922 9.29503 8.56994 6.97652 7.88713C6.79521 7.84855 6.61389 7.80997 6.43258 7.77139C4.25681 7.30842 2.09657 8.55386 1.49101 10.509Z" fill="url(#paint15_radial_239:653)"/>
<g filter="url(#filter11_f_239:653)">
<path d="M-0.543832 12.0349L2.36209 14.4257L5.40577 12.213L3.01506 15.1189L5.22771 18.1626L2.3218 15.7719L-0.721893 17.9845L1.66882 15.0786L-0.543832 12.0349Z" fill="white"/>
</g>
<g filter="url(#filter12_f_239:653)">
<path d="M0.273585 12.9031L2.35612 14.6164L4.53739 13.0307L2.82408 15.1132L4.40978 17.2945L2.32724 15.5812L0.145977 17.1669L1.85929 15.0844L0.273585 12.9031Z" fill="white"/>
</g>
<path fill-rule="evenodd" clip-rule="evenodd" d="M269.746 34.9254C269.715 35.4584 269.257 35.8587 268.732 35.7886C268.199 35.7581 267.798 35.2994 267.868 34.7749C267.899 34.242 268.358 33.8416 268.882 33.9118C268.922 33.9202 268.962 33.9287 269.001 33.9371C269.478 34.0385 269.799 34.4803 269.746 34.9254Z" fill="url(#paint16_radial_239:653)"/>
<path fill-rule="evenodd" clip-rule="evenodd" d="M229.388 38.4388C229.358 38.9717 228.899 39.372 228.374 39.3019C227.841 39.2714 227.441 38.8127 227.511 38.2882C227.541 37.7553 228 37.355 228.525 37.4251C228.564 37.4336 228.604 37.442 228.644 37.4505C229.12 37.5519 229.441 37.9936 229.388 38.4388Z" fill="url(#paint17_radial_239:653)"/>
<path fill-rule="evenodd" clip-rule="evenodd" d="M208.762 35.9707C208.732 36.5037 208.273 36.904 207.748 36.8339C207.215 36.8034 206.815 36.3447 206.885 35.8202C206.915 35.2873 207.374 34.8869 207.899 34.9571C207.938 34.9655 207.978 34.974 208.018 34.9824C208.494 35.0838 208.815 35.5256 208.762 35.9707Z" fill="url(#paint18_radial_239:653)"/>
<path fill-rule="evenodd" clip-rule="evenodd" d="M178.358 35.644C178.328 36.177 177.869 36.5773 177.344 36.5071C176.811 36.4767 176.411 36.018 176.481 35.4935C176.511 34.9605 176.97 34.5602 177.495 34.6304C177.534 34.6388 177.574 34.6473 177.614 34.6557C178.09 34.7571 178.411 35.1989 178.358 35.644Z" fill="url(#paint19_radial_239:653)"/>
<path fill-rule="evenodd" clip-rule="evenodd" d="M158.549 38.2492C158.518 38.7821 158.059 39.1825 157.535 39.1123C157.002 39.0818 156.601 38.6232 156.671 38.0987C156.702 37.5657 157.16 37.1654 157.685 37.2355C157.725 37.244 157.764 37.2524 157.804 37.2609C158.281 37.3623 158.602 37.8041 158.549 38.2492Z" fill="url(#paint20_radial_239:653)"/>
<path fill-rule="evenodd" clip-rule="evenodd" d="M149.451 34.324C149.42 34.857 148.961 35.2573 148.437 35.1871C147.904 35.1567 147.503 34.698 147.573 34.1735C147.604 33.6405 148.062 33.2402 148.587 33.3104C148.627 33.3188 148.666 33.3273 148.706 33.3357C149.183 33.4371 149.504 33.8789 149.451 34.324Z" fill="url(#paint21_radial_239:653)"/>
<path fill-rule="evenodd" clip-rule="evenodd" d="M198.82 39.2419C198.79 39.7748 198.331 40.1751 197.806 40.105C197.273 40.0745 196.873 39.6158 196.943 39.0913C196.973 38.5584 197.432 38.1581 197.956 38.2282C197.996 38.2367 198.036 38.2451 198.076 38.2536C198.552 38.355 198.873 38.7967 198.82 39.2419Z" fill="url(#paint22_radial_239:653)"/>
<path fill-rule="evenodd" clip-rule="evenodd" d="M263.158 32.5637C263.128 33.0967 262.669 33.497 262.144 33.4268C261.611 33.3964 261.21 32.9377 261.281 32.4132C261.311 31.8802 261.77 31.4799 262.294 31.55C262.334 31.5585 262.374 31.5669 262.413 31.5754C262.89 31.6768 263.211 32.1186 263.158 32.5637Z" fill="url(#paint23_radial_239:653)"/>
<path fill-rule="evenodd" clip-rule="evenodd" d="M276.783 30.703C276.747 31.3339 276.204 31.8078 275.583 31.7248C274.952 31.6887 274.478 31.1457 274.561 30.5248C274.597 29.8939 275.14 29.42 275.761 29.5031C275.808 29.5131 275.855 29.5231 275.902 29.5331C276.466 29.6531 276.846 30.1761 276.783 30.703Z" fill="url(#paint24_radial_239:653)"/>
<path fill-rule="evenodd" clip-rule="evenodd" d="M257.088 36.9324C257.052 37.5633 256.509 38.0372 255.888 37.9542C255.257 37.9181 254.783 37.3752 254.866 36.7543C254.902 36.1233 255.445 35.6495 256.066 35.7325C256.113 35.7425 256.16 35.7525 256.207 35.7625C256.771 35.8825 257.151 36.4055 257.088 36.9324Z" fill="url(#paint25_radial_239:653)"/>
<path fill-rule="evenodd" clip-rule="evenodd" d="M213.157 38.4783C213.121 39.1092 212.578 39.5831 211.957 39.5C211.326 39.464 210.852 38.921 210.935 38.3001C210.971 37.6692 211.514 37.1953 212.135 37.2783C212.182 37.2883 212.229 37.2983 212.276 37.3083C212.84 37.4284 213.22 37.9513 213.157 38.4783Z" fill="url(#paint26_radial_239:653)"/>
<path fill-rule="evenodd" clip-rule="evenodd" d="M170.949 38.3065C170.913 38.9374 170.37 39.4113 169.748 39.3283C169.117 39.2922 168.643 38.7492 168.726 38.1283C168.762 37.4974 169.305 37.0235 169.926 37.1066C169.973 37.1166 170.02 37.1266 170.067 37.1366C170.631 37.2566 171.012 37.7796 170.949 38.3065Z" fill="url(#paint27_radial_239:653)"/>
<path fill-rule="evenodd" clip-rule="evenodd" d="M154.513 34.4106C154.477 35.0415 153.934 35.5154 153.313 35.4323C152.682 35.3963 152.208 34.8533 152.291 34.2324C152.327 33.6015 152.87 33.1276 153.491 33.2107C153.538 33.2207 153.585 33.2307 153.632 33.2407C154.196 33.3607 154.576 33.8837 154.513 34.4106Z" fill="url(#paint28_radial_239:653)"/>
<path fill-rule="evenodd" clip-rule="evenodd" d="M221.795 35.2955C221.76 35.9264 221.216 36.4003 220.595 36.3173C219.964 36.2812 219.49 35.7383 219.573 35.1174C219.609 34.4864 220.152 34.0126 220.773 34.0956C220.82 34.1056 220.867 34.1156 220.914 34.1256C221.478 34.2456 221.858 34.7686 221.795 35.2955Z" fill="url(#paint29_radial_239:653)"/>
<g filter="url(#filter13_f_239:653)">
<path fill-rule="evenodd" clip-rule="evenodd" d="M297.037 31.4901C296.786 35.8964 292.993 39.2061 288.655 38.6261C284.247 38.3743 280.936 34.5821 281.515 30.2456C281.766 25.8393 285.559 22.5296 289.897 23.1096C290.226 23.1795 290.554 23.2493 290.882 23.3192C294.822 24.1575 297.477 27.81 297.037 31.4901Z" fill="url(#paint30_radial_239:653)" fill-opacity="0.5"/>
</g>
<path fill-rule="evenodd" clip-rule="evenodd" d="M293.403 31.1984C293.265 33.6318 291.17 35.4596 288.774 35.1393C286.34 35.0003 284.511 32.906 284.831 30.5112C284.97 28.0778 287.065 26.25 289.46 26.5703C289.642 26.6089 289.823 26.6475 290.004 26.6861C292.18 27.149 293.646 29.1661 293.403 31.1984Z" fill="url(#paint31_radial_239:653)"/>
<g filter="url(#filter14_f_239:653)">
<path d="M294.641 33.4202L291.013 34.4207L289.134 31.1606L290.134 34.7881L286.874 36.6672L290.502 35.6667L292.381 38.9269L291.381 35.2994L294.641 33.4202Z" fill="white"/>
</g>
<g filter="url(#filter15_f_239:653)">
<path d="M293.541 33.8806L290.941 34.5976L289.595 32.2612L290.312 34.8608L287.975 36.2075L290.575 35.4905L291.922 37.8269L291.205 35.2273L293.541 33.8806Z" fill="white"/>
</g>
<g filter="url(#filter16_f_239:653)">
<path fill-rule="evenodd" clip-rule="evenodd" d="M180.554 34.4883C178.989 38.6152 181.106 43.1824 185.305 44.4188C189.433 45.9834 194.001 43.8679 195.238 39.6711C196.802 35.5442 194.685 30.977 190.487 29.7406C190.159 29.6708 189.83 29.6009 189.502 29.531C185.562 28.6927 181.651 30.9479 180.554 34.4883Z" fill="url(#paint32_radial_239:653)" fill-opacity="0.5"/>
</g>
<path fill-rule="evenodd" clip-rule="evenodd" d="M183.991 35.7015C183.127 37.9806 184.296 40.5028 186.615 41.1857C188.895 42.0497 191.418 40.8814 192.1 38.5638C192.964 36.2847 191.795 33.7624 189.477 33.0796C189.295 33.0411 189.114 33.0025 188.933 32.9639C186.757 32.5009 184.597 33.7464 183.991 35.7015Z" fill="url(#paint33_radial_239:653)"/>
<g filter="url(#filter17_f_239:653)">
<path d="M181.956 37.2274L184.862 39.6181L187.906 37.4054L185.515 40.3114L187.728 43.3551L184.822 40.9643L181.778 43.177L184.169 40.2711L181.956 37.2274Z" fill="white"/>
</g>
<g filter="url(#filter18_f_239:653)">
<path d="M182.774 38.0957L184.856 39.809L187.038 38.2233L185.324 40.3059L186.91 42.4871L184.827 40.7738L182.646 42.3595L184.36 40.277L182.774 38.0957Z" fill="white"/>
</g>
<g filter="url(#filter19_f_239:653)">
<path fill-rule="evenodd" clip-rule="evenodd" d="M231.42 37.6552C230.522 33.334 233.329 29.1554 237.669 28.5929C241.992 27.6953 246.172 30.5012 246.735 34.84C247.632 39.1612 244.825 43.3398 240.485 43.9023C240.15 43.9198 239.815 43.9373 239.479 43.9548C235.457 44.1647 231.947 41.3238 231.42 37.6552Z" fill="url(#paint34_radial_239:653)" fill-opacity="0.5"/>
</g>
<path fill-rule="evenodd" clip-rule="evenodd" d="M235.005 36.9966C234.509 34.6102 236.059 32.3025 238.456 31.9919C240.843 31.4962 243.152 33.0458 243.462 35.4418C243.958 37.8282 242.408 40.1359 240.011 40.4465C239.826 40.4562 239.641 40.4658 239.456 40.4755C237.234 40.5914 235.296 39.0225 235.005 36.9966Z" fill="url(#paint35_radial_239:653)"/>
<g filter="url(#filter20_f_239:653)">
<path d="M233.235 35.1702L236.48 33.2649L239.138 35.9277L237.233 32.6827L239.896 30.0238L236.651 31.929L233.992 29.2663L235.897 32.5113L233.235 35.1702Z" fill="white"/>
</g>
<g filter="url(#filter21_f_239:653)">
<path d="M234.178 34.4413L236.503 33.0759L238.409 34.9841L237.043 32.6586L238.951 30.7531L236.626 32.1185L234.72 30.2103L236.086 32.5358L234.178 34.4413Z" fill="white"/>
</g>
<g filter="url(#filter22_f_239:653)">
<path fill-rule="evenodd" clip-rule="evenodd" d="M132.37 36.7439C131.472 32.4226 134.28 28.244 138.62 27.6815C142.943 26.7839 147.123 29.5898 147.685 33.9286C148.583 38.2498 145.776 42.4284 141.435 42.9909C141.1 43.0084 140.765 43.0259 140.43 43.0434C136.407 43.2533 132.898 40.4124 132.37 36.7439Z" fill="url(#paint36_radial_239:653)" fill-opacity="0.5"/>
</g>
<path fill-rule="evenodd" clip-rule="evenodd" d="M135.956 36.0851C135.46 33.6987 137.01 31.3911 139.407 31.0805C141.794 30.5847 144.102 32.1343 144.413 34.5304C144.909 36.9168 143.359 39.2244 140.962 39.5351C140.777 39.5447 140.592 39.5544 140.406 39.564C138.185 39.68 136.247 38.1111 135.956 36.0851Z" fill="url(#paint37_radial_239:653)"/>
<g filter="url(#filter23_f_239:653)">
<path d="M134.185 34.259L137.43 32.3537L140.089 35.0165L138.184 31.7715L140.846 29.1126L137.601 31.0178L134.942 28.3551L136.848 31.6001L134.185 34.259Z" fill="white"/>
</g>
<g filter="url(#filter24_f_239:653)">
<path d="M135.128 33.5299L137.454 32.1645L139.359 34.0728L137.994 31.7472L139.902 29.8417L137.577 31.2071L135.671 29.2989L137.037 31.6244L135.128 33.5299Z" fill="white"/>
</g>
<g filter="url(#filter25_f_239:653)">
<path d="M220.751 36.5714L219.146 38.8472L216.54 37.8644L218.815 39.4699L217.833 42.0759L219.438 39.8001L222.044 40.7829L219.768 39.1774L220.751 36.5714Z" fill="white"/>
</g>
<g filter="url(#filter26_f_239:653)">
<path d="M220.338 37.351L219.187 38.9821L217.319 38.2777L218.95 39.4285L218.246 41.2963L219.397 39.6651L221.264 40.3695L219.633 39.2188L220.338 37.351Z" fill="white"/>
</g>
<g filter="url(#filter27_f_239:653)">
<path d="M204.402 35.9519L201.659 35.4717L201.435 32.6956L200.955 35.439L198.179 35.6629L200.922 36.1431L201.146 38.9192L201.626 36.1758L204.402 35.9519Z" fill="white"/>
</g>
<g filter="url(#filter28_f_239:653)">
<path d="M203.521 35.9108L201.554 35.5666L201.394 33.5769L201.05 35.5432L199.06 35.7037L201.026 36.0479L201.187 38.0376L201.531 36.0713L203.521 35.9108Z" fill="white"/>
</g>
<g filter="url(#filter29_f_239:653)">
<path d="M262.085 36.6422L260.118 36.298L259.958 34.3083L259.614 36.2746L257.624 36.4351L259.59 36.7793L259.751 38.769L260.095 36.8027L262.085 36.6422Z" fill="white"/>
</g>
<g filter="url(#filter30_f_239:653)">
<path d="M166.101 39.4405L164.135 39.0963L163.974 37.1066L163.63 39.0729L161.64 39.2334L163.606 39.5775L163.767 41.5673L164.111 39.601L166.101 39.4405Z" fill="white"/>
</g>
<path fill-rule="evenodd" clip-rule="evenodd" d="M121.272 34.9471C121.242 35.4801 120.783 35.8804 120.258 35.8102C119.725 35.7798 119.324 35.3211 119.395 34.7966C119.425 34.2636 119.884 33.8633 120.408 33.9335C120.448 33.9419 120.488 33.9504 120.527 33.9588C121.004 34.0602 121.325 34.502 121.272 34.9471Z" fill="url(#paint38_radial_239:653)"/>
<path fill-rule="evenodd" clip-rule="evenodd" d="M117.124 31.9812C117.094 32.5142 116.635 32.9145 116.11 32.8444C115.577 32.8139 115.176 32.3552 115.247 31.8307C115.277 31.2977 115.736 30.8974 116.26 30.9676C116.3 30.976 116.34 30.9845 116.38 30.9929C116.856 31.0943 117.177 31.5361 117.124 31.9812Z" fill="url(#paint39_radial_239:653)"/>
<path fill-rule="evenodd" clip-rule="evenodd" d="M104.297 32.7696C104.266 33.3026 103.807 33.7029 103.283 33.6328C102.75 33.6023 102.349 33.1436 102.419 32.6191C102.45 32.0861 102.908 31.6858 103.433 31.756C103.473 31.7644 103.512 31.7729 103.552 31.7813C104.029 31.8827 104.35 32.3245 104.297 32.7696Z" fill="url(#paint40_radial_239:653)"/>
<path fill-rule="evenodd" clip-rule="evenodd" d="M79.6699 30.7627C79.6395 31.2957 79.1807 31.696 78.656 31.6259C78.1229 31.5954 77.7224 31.1367 77.7925 30.6122C77.8229 30.0792 78.2816 29.6789 78.8063 29.7491C78.846 29.7575 78.8857 29.766 78.9254 29.7744C79.402 29.8758 79.7231 30.3176 79.6699 30.7627Z" fill="url(#paint41_radial_239:653)"/>
<path fill-rule="evenodd" clip-rule="evenodd" d="M63.2944 26.3178C63.264 26.8508 62.8052 27.2511 62.2805 27.181C61.7474 27.1505 61.3469 26.6918 61.417 26.1673C61.4474 25.6344 61.9061 25.234 62.4308 25.3042C62.4705 25.3126 62.5102 25.3211 62.55 25.3295C63.0265 25.4309 63.3476 25.8727 63.2944 26.3178Z" fill="url(#paint42_radial_239:653)"/>
<path fill-rule="evenodd" clip-rule="evenodd" d="M34.8581 20.6458C34.8277 21.1788 34.3689 21.5791 33.8442 21.509C33.3111 21.4785 32.9106 21.0198 32.9807 20.4953C33.0111 19.9624 33.4699 19.562 33.9945 19.6322C34.0343 19.6406 34.074 19.6491 34.1137 19.6575C34.5902 19.7589 34.9113 20.2007 34.8581 20.6458Z" fill="url(#paint43_radial_239:653)"/>
<path fill-rule="evenodd" clip-rule="evenodd" d="M57.5024 22.3648C57.472 22.8977 57.0132 23.2981 56.4885 23.2279C55.9554 23.1974 55.5549 22.7388 55.625 22.2143C55.6554 21.6813 56.1141 21.281 56.6388 21.3511C56.6785 21.3596 56.7183 21.368 56.758 21.3765C57.2345 21.4779 57.5556 21.9197 57.5024 22.3648Z" fill="url(#paint44_radial_239:653)"/>
<path fill-rule="evenodd" clip-rule="evenodd" d="M107.077 30.2112C107.041 30.8422 106.498 31.316 105.877 31.233C105.245 31.1969 104.771 30.654 104.854 30.0331C104.89 29.4022 105.433 28.9283 106.054 29.0113C106.101 29.0213 106.148 29.0313 106.196 29.0413C106.76 29.1614 107.14 29.6843 107.077 30.2112Z" fill="url(#paint45_radial_239:653)"/>
<path fill-rule="evenodd" clip-rule="evenodd" d="M128.574 32.5115C128.538 33.1424 127.995 33.6163 127.373 33.5332C126.742 33.4972 126.268 32.9542 126.351 32.3333C126.387 31.7024 126.93 31.2285 127.551 31.3115C127.598 31.3215 127.645 31.3315 127.692 31.3416C128.256 31.4616 128.637 31.9845 128.574 32.5115Z" fill="url(#paint46_radial_239:653)"/>
<path fill-rule="evenodd" clip-rule="evenodd" d="M76.4915 28.8179C76.4555 29.4488 75.9125 29.9227 75.2914 29.8397C74.6602 29.8036 74.1861 29.2607 74.2691 28.6398C74.3051 28.0088 74.8482 27.535 75.4693 27.618C75.5163 27.628 75.5633 27.638 75.6103 27.648C76.1744 27.768 76.5545 28.291 76.4915 28.8179Z" fill="url(#paint47_radial_239:653)"/>
<path fill-rule="evenodd" clip-rule="evenodd" d="M30.5013 15.9994C30.4653 16.6304 29.9222 17.1042 29.3011 17.0212C28.67 16.9851 28.1959 16.4422 28.2789 15.8213C28.3148 15.1904 28.8579 14.7165 29.479 14.7995C29.526 14.8095 29.5731 14.8195 29.6201 14.8295C30.1842 14.9496 30.5643 15.4725 30.5013 15.9994Z" fill="url(#paint48_radial_239:653)"/>
<path fill-rule="evenodd" clip-rule="evenodd" d="M40.1334 17.1017C40.0974 17.7326 39.5543 18.2065 38.9332 18.1234C38.3021 18.0874 37.828 17.5444 37.9109 16.9235C37.9469 16.2926 38.49 15.8187 39.1111 15.9018C39.1581 15.9118 39.2051 15.9218 39.2521 15.9318C39.8163 16.0518 40.1964 16.5748 40.1334 17.1017Z" fill="url(#paint49_radial_239:653)"/>
<path fill-rule="evenodd" clip-rule="evenodd" d="M21.5018 17.3823C21.4658 18.0132 20.9227 18.4871 20.3016 18.404C19.6705 18.368 19.1964 17.825 19.2794 17.2041C19.3153 16.5732 19.8584 16.0993 20.4795 16.1823C20.5265 16.1923 20.5735 16.2023 20.6206 16.2123C21.1847 16.3324 21.5648 16.8553 21.5018 17.3823Z" fill="url(#paint50_radial_239:653)"/>
<g filter="url(#filter31_f_239:653)">
<path fill-rule="evenodd" clip-rule="evenodd" d="M85.4658 27.4717C83.9013 31.5986 86.0181 36.1658 90.2164 37.4022C94.3449 38.9668 98.9133 36.8513 100.149 32.6545C101.714 28.5276 99.5972 23.9604 95.3989 22.724C95.0705 22.6542 94.7422 22.5843 94.4139 22.5144C90.4741 21.6761 86.5624 23.9313 85.4658 27.4717Z" fill="url(#paint51_radial_239:653)" fill-opacity="0.5"/>
</g>
<path fill-rule="evenodd" clip-rule="evenodd" d="M88.9034 28.6849C88.0394 30.964 89.2084 33.4862 91.5269 34.1691C93.8068 35.0331 96.3297 33.8648 97.0124 31.5472C97.8764 29.2681 96.7074 26.7458 94.3889 26.063C94.2076 26.0245 94.0262 25.9859 93.8449 25.9473C91.6692 25.4843 89.5089 26.7298 88.9034 28.6849Z" fill="url(#paint52_radial_239:653)"/>
<g filter="url(#filter32_f_239:653)">
<path d="M86.868 30.2108L89.774 32.6015L92.8176 30.3888L90.4269 33.2948L92.6396 36.3385L89.7337 33.9477L86.69 36.1604L89.0807 33.2545L86.868 30.2108Z" fill="white"/>
</g>
<g filter="url(#filter33_f_239:653)">
<path d="M87.6852 31.0789L89.7677 32.7922L91.949 31.2065L90.2357 33.2891L91.8214 35.4703L89.7389 33.757L87.5576 35.3427L89.2709 33.2602L87.6852 31.0789Z" fill="white"/>
</g>
<g filter="url(#filter34_f_239:653)">
<path fill-rule="evenodd" clip-rule="evenodd" d="M43.0623 16.5276C46.1373 13.3616 51.1712 13.3435 54.0702 16.6223C57.2369 19.6987 57.2567 24.733 53.9792 27.6312C50.9042 30.7972 45.8703 30.8153 42.9713 27.5365C42.7689 27.2688 42.5665 27.001 42.3641 26.7332C39.9352 23.5199 40.3202 19.0211 43.0623 16.5276Z" fill="url(#paint53_radial_239:653)" fill-opacity="0.5"/>
</g>
<path fill-rule="evenodd" clip-rule="evenodd" d="M45.618 19.127C47.3162 17.3786 50.0961 17.3686 51.6971 19.1793C53.4459 20.8782 53.4569 23.6584 51.6469 25.259C49.9487 27.0074 47.1688 27.0174 45.5678 25.2067C45.456 25.0588 45.3442 24.9109 45.2324 24.763C43.8911 22.9885 44.1037 20.504 45.618 19.127Z" fill="url(#paint54_radial_239:653)"/>
<g filter="url(#filter35_f_239:653)">
<path d="M46.1372 16.6372L49.534 18.2562L48.8197 21.9507L50.4387 18.5538L54.1332 19.2682L50.7363 17.6492L51.4507 13.9546L49.8317 17.3515L46.1372 16.6372Z" fill="white"/>
</g>
<g filter="url(#filter36_f_239:653)">
<path d="M47.2697 17.0096L49.704 18.1698L49.1921 20.8175L50.3524 18.3831L53.0001 18.895L50.5657 17.7348L51.0776 15.0871L49.9174 17.5215L47.2697 17.0096Z" fill="white"/>
</g>
<g filter="url(#filter37_f_239:653)">
<path d="M124.218 32.8431L122.612 35.1189L120.006 34.1361L122.282 35.7416L121.299 38.3476L122.905 36.0718L125.511 37.0546L123.235 35.4491L124.218 32.8431Z" fill="white"/>
</g>
<g filter="url(#filter38_f_239:653)">
<path d="M123.804 33.6227L122.653 35.2538L120.786 34.5494L122.417 35.7001L121.712 37.5679L122.863 35.9368L124.731 36.6412L123.1 35.4905L123.804 33.6227Z" fill="white"/>
</g>
<g filter="url(#filter39_f_239:653)">
<path d="M110.693 29.6079L107.949 29.1277L107.725 26.3516L107.245 29.095L104.469 29.3189L107.212 29.7991L107.436 32.5752L107.917 29.8318L110.693 29.6079Z" fill="white"/>
</g>
<g filter="url(#filter40_f_239:653)">
<path d="M109.811 29.5668L107.845 29.2226L107.685 27.2329L107.34 29.1992L105.351 29.3597L107.317 29.7039L107.477 31.6936L107.822 29.7273L109.811 29.5668Z" fill="white"/>
</g>
<g filter="url(#filter41_f_239:653)">
<path d="M31.4353 17.2417L29.8297 19.5174L27.2238 18.5346L29.4995 20.1402L28.5168 22.7461L30.1223 20.4704L32.7282 21.4532L30.4525 19.8476L31.4353 17.2417Z" fill="white"/>
</g>
<g filter="url(#filter42_f_239:653)">
<path d="M31.0218 18.0214L29.871 19.6525L28.0032 18.9481L29.6343 20.0989L28.9299 21.9667L30.0807 20.3356L31.9485 21.04L30.3174 19.8892L31.0218 18.0214Z" fill="white"/>
</g>
<g filter="url(#filter43_f_239:653)">
<path d="M20.6633 13.198L17.9199 12.7177L17.696 9.94166L17.2158 12.6851L14.4397 12.909L17.1831 13.3892L17.407 16.1653L17.8872 13.4219L20.6633 13.198Z" fill="white"/>
</g>
<g filter="url(#filter44_f_239:653)">
<path d="M19.782 13.1569L17.8157 12.8127L17.6552 10.823L17.3111 12.7893L15.3213 12.9498L17.2876 13.294L17.4481 15.2837L17.7923 13.3174L19.782 13.1569Z" fill="white"/>
</g>
<g filter="url(#filter45_f_239:653)">
<path d="M71.0923 24.3273L69.126 23.9831L68.9655 21.9934L68.6214 23.9597L66.6316 24.1202L68.5979 24.4644L68.7584 26.4541L69.1026 24.4878L71.0923 24.3273Z" fill="white"/>
</g>
<g filter="url(#filter46_f_239:653)">
<path d="M61.1822 27.5096L59.2159 27.1655L59.0554 25.1757L58.7112 27.142L56.7215 27.3025L58.6878 27.6467L58.8483 29.6364L59.1924 27.6701L61.1822 27.5096Z" fill="white"/>
</g>
</g>
<mask id="path-96-inside-1_239:653" fill="white">
<path d="M-6.16259 112.819C-5.74094 112.334 -5.02414 112.292 -4.53924 112.713L-1.52444 115.328L-0.322739 115.243L-1.58769 114.147C-2.07259 113.725 -2.11475 112.987 -1.6931 112.524C-1.27145 112.039 -0.554647 111.997 -0.0697498 112.418L2.94505 115.032L5.32737 114.864L3.99917 112.882L0.0778275 112.123C-0.554647 111.997 -0.955214 111.406 -0.82872 110.774C-0.702225 110.141 -0.0908318 109.741 0.520561 109.867L2.165 110.183L1.49036 109.193L-2.40991 108.434C-3.04238 108.307 -3.44295 107.696 -3.31645 107.084C-3.18996 106.452 -2.59965 106.051 -1.96717 106.178L-0.322739 106.494L-1.48228 104.786C-1.84068 104.259 -1.6931 103.542 -1.16604 103.184C-0.638977 102.826 0.0778275 102.973 0.436232 103.5L1.59577 105.208L1.91201 103.564C2.0385 102.931 2.62881 102.531 3.26129 102.657C3.89376 102.784 4.29433 103.395 4.16783 104.006L3.40886 107.907L4.0835 108.919L4.39974 107.274C4.52624 106.642 5.11655 106.241 5.74902 106.368C6.3815 106.494 6.78206 107.105 6.65557 107.717L5.8966 111.617L7.2248 113.599L8.27892 111.448L6.97181 107.675C6.76098 107.063 7.07722 106.41 7.68861 106.199C8.3 105.988 8.95356 106.304 9.16439 106.916L9.71253 108.497L10.2396 107.422L8.95356 103.648C8.74274 103.058 9.05897 102.383 9.67037 102.172C10.2818 101.961 10.9353 102.278 11.1461 102.889L11.6943 104.47L12.6008 102.615C12.8749 102.046 13.5706 101.793 14.1399 102.088C14.7091 102.362 14.941 103.058 14.6669 103.627L13.7604 105.482L15.3416 104.934C15.953 104.723 16.6065 105.039 16.8173 105.651C17.0282 106.241 16.7119 106.916 16.1005 107.127L12.3268 108.434L11.7997 109.509L13.3809 108.961C13.9923 108.75 14.6458 109.066 14.8567 109.677C15.0675 110.268 14.7512 110.942 14.1399 111.153L10.3661 112.439L9.31196 114.59L11.6943 114.421L14.3085 111.406C14.7302 110.921 15.447 110.879 15.9319 111.301C16.4168 111.722 16.4589 112.46 16.0373 112.924L14.941 114.189L16.1427 114.105L18.7569 111.09C19.1786 110.605 19.8954 110.563 20.3803 110.964C20.8652 111.385 20.9073 112.123 20.4857 112.587L19.3894 113.852L21.4555 113.704C22.088 113.662 22.6361 114.147 22.6993 114.779C22.7415 115.412 22.2566 115.981 21.6241 116.023L19.5581 116.171L20.823 117.267C21.3079 117.689 21.3501 118.406 20.9284 118.891C20.5068 119.375 19.79 119.418 19.3051 118.996L16.2903 116.382L15.0886 116.466L16.3535 117.562C16.8384 117.984 16.8806 118.701 16.4589 119.186C16.0373 119.671 15.3205 119.713 14.8356 119.291L11.8208 116.677L9.43846 116.846L10.7667 118.827L14.688 119.586C15.3205 119.713 15.721 120.324 15.5945 120.936C15.4681 121.568 14.8567 121.969 14.2453 121.842L12.6008 121.526L13.2755 122.517L17.1757 123.276C17.8082 123.402 18.2088 123.992 18.0823 124.625C17.9558 125.257 17.3655 125.658 16.733 125.532L15.0886 125.215L16.2481 126.923C16.6065 127.45 16.4589 128.167 15.9319 128.525C15.4048 128.884 14.688 128.736 14.3296 128.209L13.1701 126.501L12.8538 128.146C12.7273 128.778 12.1159 129.179 11.5045 129.052C10.8721 128.926 10.4715 128.314 10.5769 127.703L11.3359 123.803L10.6612 122.812L10.345 124.456C10.2185 125.089 9.6282 125.489 8.99573 125.384C8.36325 125.257 7.96268 124.646 8.08918 124.035L8.84815 120.113L7.51995 118.132L6.46583 120.282L7.77294 124.056C7.98377 124.667 7.64645 125.321 7.05614 125.532C6.44474 125.742 5.79119 125.405 5.58036 124.815L5.03222 123.234L4.50515 124.309L5.81227 128.083C6.02309 128.694 5.70686 129.347 5.09546 129.558C4.48407 129.769 3.83051 129.453 3.61969 128.841L3.07154 127.26L2.165 129.116C1.89092 129.685 1.1952 129.938 0.625973 129.643C0.0567455 129.369 -0.196243 128.673 0.0989113 128.104L1.00546 126.248L-0.575729 126.796C-1.18712 127.007 -1.84068 126.691 -2.0515 126.08C-2.26233 125.468 -1.94609 124.815 -1.3347 124.604L2.43907 123.297L2.96613 122.222L1.38494 122.77C0.773552 122.981 0.119993 122.643 -0.0908318 122.053C-0.301657 121.442 0.0356636 120.788 0.625973 120.577L4.39974 119.27L5.45387 117.12L3.07154 117.288L0.457314 120.303C0.0356636 120.788 -0.702225 120.851 -1.16604 120.43C-1.65094 120.008 -1.6931 119.27 -1.27145 118.806L-0.175161 117.541L-1.37686 117.626L-3.99109 120.64C-4.41274 121.125 -5.12955 121.167 -5.61445 120.746C-6.09934 120.324 -6.14151 119.607 -5.71986 119.122L-4.62357 117.857L-6.68965 118.005C-7.32213 118.047 -7.87027 117.583 -7.93352 116.93C-7.97569 116.297 -7.49079 115.749 -6.85831 115.686L-4.79223 115.538L-6.05718 114.442C-6.54208 114.02 -6.58424 113.304 -6.18367 112.819H-6.16259Z"/>
</mask>
<path d="M-6.16259 112.819C-5.74094 112.334 -5.02414 112.292 -4.53924 112.713L-1.52444 115.328L-0.322739 115.243L-1.58769 114.147C-2.07259 113.725 -2.11475 112.987 -1.6931 112.524C-1.27145 112.039 -0.554647 111.997 -0.0697498 112.418L2.94505 115.032L5.32737 114.864L3.99917 112.882L0.0778275 112.123C-0.554647 111.997 -0.955214 111.406 -0.82872 110.774C-0.702225 110.141 -0.0908318 109.741 0.520561 109.867L2.165 110.183L1.49036 109.193L-2.40991 108.434C-3.04238 108.307 -3.44295 107.696 -3.31645 107.084C-3.18996 106.452 -2.59965 106.051 -1.96717 106.178L-0.322739 106.494L-1.48228 104.786C-1.84068 104.259 -1.6931 103.542 -1.16604 103.184C-0.638977 102.826 0.0778275 102.973 0.436232 103.5L1.59577 105.208L1.91201 103.564C2.0385 102.931 2.62881 102.531 3.26129 102.657C3.89376 102.784 4.29433 103.395 4.16783 104.006L3.40886 107.907L4.0835 108.919L4.39974 107.274C4.52624 106.642 5.11655 106.241 5.74902 106.368C6.3815 106.494 6.78206 107.105 6.65557 107.717L5.8966 111.617L7.2248 113.599L8.27892 111.448L6.97181 107.675C6.76098 107.063 7.07722 106.41 7.68861 106.199C8.3 105.988 8.95356 106.304 9.16439 106.916L9.71253 108.497L10.2396 107.422L8.95356 103.648C8.74274 103.058 9.05897 102.383 9.67037 102.172C10.2818 101.961 10.9353 102.278 11.1461 102.889L11.6943 104.47L12.6008 102.615C12.8749 102.046 13.5706 101.793 14.1399 102.088C14.7091 102.362 14.941 103.058 14.6669 103.627L13.7604 105.482L15.3416 104.934C15.953 104.723 16.6065 105.039 16.8173 105.651C17.0282 106.241 16.7119 106.916 16.1005 107.127L12.3268 108.434L11.7997 109.509L13.3809 108.961C13.9923 108.75 14.6458 109.066 14.8567 109.677C15.0675 110.268 14.7512 110.942 14.1399 111.153L10.3661 112.439L9.31196 114.59L11.6943 114.421L14.3085 111.406C14.7302 110.921 15.447 110.879 15.9319 111.301C16.4168 111.722 16.4589 112.46 16.0373 112.924L14.941 114.189L16.1427 114.105L18.7569 111.09C19.1786 110.605 19.8954 110.563 20.3803 110.964C20.8652 111.385 20.9073 112.123 20.4857 112.587L19.3894 113.852L21.4555 113.704C22.088 113.662 22.6361 114.147 22.6993 114.779C22.7415 115.412 22.2566 115.981 21.6241 116.023L19.5581 116.171L20.823 117.267C21.3079 117.689 21.3501 118.406 20.9284 118.891C20.5068 119.375 19.79 119.418 19.3051 118.996L16.2903 116.382L15.0886 116.466L16.3535 117.562C16.8384 117.984 16.8806 118.701 16.4589 119.186C16.0373 119.671 15.3205 119.713 14.8356 119.291L11.8208 116.677L9.43846 116.846L10.7667 118.827L14.688 119.586C15.3205 119.713 15.721 120.324 15.5945 120.936C15.4681 121.568 14.8567 121.969 14.2453 121.842L12.6008 121.526L13.2755 122.517L17.1757 123.276C17.8082 123.402 18.2088 123.992 18.0823 124.625C17.9558 125.257 17.3655 125.658 16.733 125.532L15.0886 125.215L16.2481 126.923C16.6065 127.45 16.4589 128.167 15.9319 128.525C15.4048 128.884 14.688 128.736 14.3296 128.209L13.1701 126.501L12.8538 128.146C12.7273 128.778 12.1159 129.179 11.5045 129.052C10.8721 128.926 10.4715 128.314 10.5769 127.703L11.3359 123.803L10.6612 122.812L10.345 124.456C10.2185 125.089 9.6282 125.489 8.99573 125.384C8.36325 125.257 7.96268 124.646 8.08918 124.035L8.84815 120.113L7.51995 118.132L6.46583 120.282L7.77294 124.056C7.98377 124.667 7.64645 125.321 7.05614 125.532C6.44474 125.742 5.79119 125.405 5.58036 124.815L5.03222 123.234L4.50515 124.309L5.81227 128.083C6.02309 128.694 5.70686 129.347 5.09546 129.558C4.48407 129.769 3.83051 129.453 3.61969 128.841L3.07154 127.26L2.165 129.116C1.89092 129.685 1.1952 129.938 0.625973 129.643C0.0567455 129.369 -0.196243 128.673 0.0989113 128.104L1.00546 126.248L-0.575729 126.796C-1.18712 127.007 -1.84068 126.691 -2.0515 126.08C-2.26233 125.468 -1.94609 124.815 -1.3347 124.604L2.43907 123.297L2.96613 122.222L1.38494 122.77C0.773552 122.981 0.119993 122.643 -0.0908318 122.053C-0.301657 121.442 0.0356636 120.788 0.625973 120.577L4.39974 119.27L5.45387 117.12L3.07154 117.288L0.457314 120.303C0.0356636 120.788 -0.702225 120.851 -1.16604 120.43C-1.65094 120.008 -1.6931 119.27 -1.27145 118.806L-0.175161 117.541L-1.37686 117.626L-3.99109 120.64C-4.41274 121.125 -5.12955 121.167 -5.61445 120.746C-6.09934 120.324 -6.14151 119.607 -5.71986 119.122L-4.62357 117.857L-6.68965 118.005C-7.32213 118.047 -7.87027 117.583 -7.93352 116.93C-7.97569 116.297 -7.49079 115.749 -6.85831 115.686L-4.79223 115.538L-6.05718 114.442C-6.54208 114.02 -6.58424 113.304 -6.18367 112.819H-6.16259Z" fill="white" stroke="#007266" stroke-width="1.4" mask="url(#path-96-inside-1_239:653)"/>
<mask id="path-97-inside-2_239:653" fill="white">
<path d="M26.0064 140.434C26.3916 140.33 26.7756 140.557 26.8795 140.942L27.5279 143.333L28.1764 143.706L27.9041 142.703C27.8003 142.318 28.034 141.923 28.4119 141.83C28.7971 141.726 29.1812 141.952 29.285 142.338L29.9335 144.729L31.2196 145.467L31.2214 143.986L29.4633 142.237C29.1812 141.952 29.1791 141.51 29.4633 141.227C29.7475 140.945 30.2013 140.95 30.4726 141.227L31.2106 141.96L31.206 141.216L29.4588 139.474C29.1767 139.19 29.1819 138.736 29.4588 138.465C29.743 138.182 30.186 138.18 30.4681 138.465L31.2061 139.197L31.1998 137.915C31.1976 137.52 31.5219 137.201 31.9176 137.199C32.3133 137.197 32.6316 137.521 32.6338 137.917L32.6401 139.199L33.3725 138.461C33.6567 138.178 34.0996 138.176 34.3818 138.461C34.6639 138.745 34.6586 139.199 34.3817 139.47L32.64 141.217L32.6373 141.972L33.3697 141.234C33.6539 140.952 34.0968 140.95 34.379 141.234C34.6611 141.518 34.6558 141.972 34.3789 142.244L32.6372 143.991L32.6355 145.472L33.9234 144.729L34.5565 142.331C34.6596 141.943 35.0488 141.716 35.4369 141.819C35.825 141.922 36.0523 142.311 35.9493 142.699L35.6842 143.704L36.3282 143.333L36.9722 140.942C37.0679 140.565 37.4645 140.327 37.8526 140.43C38.2407 140.533 38.468 140.922 38.3649 141.31L38.0999 142.315L39.2095 141.673C39.5479 141.474 39.994 141.585 40.1852 141.934C40.3836 142.273 40.2622 142.711 39.9239 142.91L38.8142 143.552L39.8189 143.817C40.207 143.92 40.4343 144.309 40.3312 144.698C40.2355 145.075 39.8389 145.313 39.4508 145.21L37.0534 144.577L36.4094 144.948L37.4141 145.213C37.8022 145.316 38.0295 145.706 37.9264 146.094C37.8307 146.471 37.4341 146.709 37.046 146.606L34.6559 145.962L33.368 146.705L34.6541 147.443L37.0453 146.795C37.4305 146.691 37.8145 146.918 37.9184 147.303C38.0223 147.688 37.7885 148.083 37.4106 148.176L36.4076 148.448L37.0561 148.821L39.4473 148.172C39.8325 148.068 40.2165 148.295 40.3277 148.669C40.4316 149.054 40.1978 149.449 39.8199 149.542L38.8169 149.815L39.9328 150.454C40.2733 150.651 40.3879 151.091 40.2015 151.439C40.0042 151.779 39.5572 151.905 39.2167 151.708L38.1008 151.068L38.3731 152.071C38.477 152.456 38.2505 152.84 37.8653 152.944C37.4801 153.048 37.0961 152.822 36.9922 152.436L36.3438 150.045L35.6953 149.673L35.9675 150.676C36.0714 151.061 35.8449 151.445 35.4597 151.549C35.0745 151.653 34.6905 151.426 34.5866 151.041L33.9382 148.65L32.652 147.912L32.6503 149.393L34.4084 151.142C34.6905 151.426 34.6852 151.88 34.4083 152.151C34.1241 152.433 33.6704 152.428 33.3991 152.151L32.6611 151.419L32.6657 152.163L34.4129 153.905C34.695 154.189 34.697 154.632 34.4128 154.914C34.1286 155.196 33.6857 155.198 33.4036 154.914L32.6656 154.182L32.6719 155.463C32.6741 155.859 32.3498 156.177 31.9541 156.179C31.5583 156.182 31.24 155.857 31.2378 155.462L31.2316 154.18L30.4992 154.918C30.215 155.2 29.7612 155.195 29.4899 154.918C29.2078 154.634 29.2131 154.18 29.4791 153.901L31.2208 152.154L31.2162 151.41L30.4838 152.148C30.1996 152.43 29.7567 152.432 29.4673 152.159C29.1851 151.874 29.1904 151.421 29.4673 151.149L31.2163 149.391L31.218 147.91L29.9301 148.653L29.297 151.051C29.1939 151.439 28.7938 151.659 28.4166 151.563C28.0285 151.46 27.8085 151.06 27.9042 150.683L28.1693 149.678L27.5253 150.05L26.8922 152.447C26.7891 152.835 26.3999 153.062 26.0118 152.959C25.6237 152.856 25.3964 152.467 25.4994 152.079L25.7645 151.074L24.6549 151.716C24.3165 151.915 23.8704 151.804 23.6792 151.455C23.4808 151.117 23.5913 150.671 23.9405 150.48L25.0501 149.837L24.0455 149.572C23.6574 149.469 23.4301 149.08 23.5331 148.692C23.6362 148.304 24.0255 148.076 24.4136 148.18L26.811 148.813L27.4549 148.441L26.4503 148.176C26.0622 148.073 25.8422 147.673 25.9379 147.296C26.041 146.908 26.4411 146.688 26.8184 146.783L29.2158 147.416L30.5037 146.673L29.2175 145.935L26.8263 146.584C26.4411 146.688 26.039 146.465 25.9459 146.087C25.8421 145.701 26.0758 145.307 26.4537 145.214L27.4567 144.941L26.8082 144.569L24.417 145.217C24.0318 145.321 23.6478 145.094 23.5439 144.709C23.4401 144.324 23.6665 143.94 24.0517 143.836L25.0547 143.564L23.9389 142.925C23.5983 142.727 23.4764 142.298 23.6702 141.94C23.8674 141.599 24.3071 141.485 24.655 141.671L25.7709 142.31L25.4986 141.307C25.3947 140.922 25.6212 140.538 25.9955 140.427L26.0064 140.434Z"/>
</mask>
<path d="M26.0064 140.434C26.3916 140.33 26.7756 140.557 26.8795 140.942L27.5279 143.333L28.1764 143.706L27.9041 142.703C27.8003 142.318 28.034 141.923 28.4119 141.83C28.7971 141.726 29.1812 141.952 29.285 142.338L29.9335 144.729L31.2196 145.467L31.2214 143.986L29.4633 142.237C29.1812 141.952 29.1791 141.51 29.4633 141.227C29.7475 140.945 30.2013 140.95 30.4726 141.227L31.2106 141.96L31.206 141.216L29.4588 139.474C29.1767 139.19 29.1819 138.736 29.4588 138.465C29.743 138.182 30.186 138.18 30.4681 138.465L31.2061 139.197L31.1998 137.915C31.1976 137.52 31.5219 137.201 31.9176 137.199C32.3133 137.197 32.6316 137.521 32.6338 137.917L32.6401 139.199L33.3725 138.461C33.6567 138.178 34.0996 138.176 34.3818 138.461C34.6639 138.745 34.6586 139.199 34.3817 139.47L32.64 141.217L32.6373 141.972L33.3697 141.234C33.6539 140.952 34.0968 140.95 34.379 141.234C34.6611 141.518 34.6558 141.972 34.3789 142.244L32.6372 143.991L32.6355 145.472L33.9234 144.729L34.5565 142.331C34.6596 141.943 35.0488 141.716 35.4369 141.819C35.825 141.922 36.0523 142.311 35.9493 142.699L35.6842 143.704L36.3282 143.333L36.9722 140.942C37.0679 140.565 37.4645 140.327 37.8526 140.43C38.2407 140.533 38.468 140.922 38.3649 141.31L38.0999 142.315L39.2095 141.673C39.5479 141.474 39.994 141.585 40.1852 141.934C40.3836 142.273 40.2622 142.711 39.9239 142.91L38.8142 143.552L39.8189 143.817C40.207 143.92 40.4343 144.309 40.3312 144.698C40.2355 145.075 39.8389 145.313 39.4508 145.21L37.0534 144.577L36.4094 144.948L37.4141 145.213C37.8022 145.316 38.0295 145.706 37.9264 146.094C37.8307 146.471 37.4341 146.709 37.046 146.606L34.6559 145.962L33.368 146.705L34.6541 147.443L37.0453 146.795C37.4305 146.691 37.8145 146.918 37.9184 147.303C38.0223 147.688 37.7885 148.083 37.4106 148.176L36.4076 148.448L37.0561 148.821L39.4473 148.172C39.8325 148.068 40.2165 148.295 40.3277 148.669C40.4316 149.054 40.1978 149.449 39.8199 149.542L38.8169 149.815L39.9328 150.454C40.2733 150.651 40.3879 151.091 40.2015 151.439C40.0042 151.779 39.5572 151.905 39.2167 151.708L38.1008 151.068L38.3731 152.071C38.477 152.456 38.2505 152.84 37.8653 152.944C37.4801 153.048 37.0961 152.822 36.9922 152.436L36.3438 150.045L35.6953 149.673L35.9675 150.676C36.0714 151.061 35.8449 151.445 35.4597 151.549C35.0745 151.653 34.6905 151.426 34.5866 151.041L33.9382 148.65L32.652 147.912L32.6503 149.393L34.4084 151.142C34.6905 151.426 34.6852 151.88 34.4083 152.151C34.1241 152.433 33.6704 152.428 33.3991 152.151L32.6611 151.419L32.6657 152.163L34.4129 153.905C34.695 154.189 34.697 154.632 34.4128 154.914C34.1286 155.196 33.6857 155.198 33.4036 154.914L32.6656 154.182L32.6719 155.463C32.6741 155.859 32.3498 156.177 31.9541 156.179C31.5583 156.182 31.24 155.857 31.2378 155.462L31.2316 154.18L30.4992 154.918C30.215 155.2 29.7612 155.195 29.4899 154.918C29.2078 154.634 29.2131 154.18 29.4791 153.901L31.2208 152.154L31.2162 151.41L30.4838 152.148C30.1996 152.43 29.7567 152.432 29.4673 152.159C29.1851 151.874 29.1904 151.421 29.4673 151.149L31.2163 149.391L31.218 147.91L29.9301 148.653L29.297 151.051C29.1939 151.439 28.7938 151.659 28.4166 151.563C28.0285 151.46 27.8085 151.06 27.9042 150.683L28.1693 149.678L27.5253 150.05L26.8922 152.447C26.7891 152.835 26.3999 153.062 26.0118 152.959C25.6237 152.856 25.3964 152.467 25.4994 152.079L25.7645 151.074L24.6549 151.716C24.3165 151.915 23.8704 151.804 23.6792 151.455C23.4808 151.117 23.5913 150.671 23.9405 150.48L25.0501 149.837L24.0455 149.572C23.6574 149.469 23.4301 149.08 23.5331 148.692C23.6362 148.304 24.0255 148.076 24.4136 148.18L26.811 148.813L27.4549 148.441L26.4503 148.176C26.0622 148.073 25.8422 147.673 25.9379 147.296C26.041 146.908 26.4411 146.688 26.8184 146.783L29.2158 147.416L30.5037 146.673L29.2175 145.935L26.8263 146.584C26.4411 146.688 26.039 146.465 25.9459 146.087C25.8421 145.701 26.0758 145.307 26.4537 145.214L27.4567 144.941L26.8082 144.569L24.417 145.217C24.0318 145.321 23.6478 145.094 23.5439 144.709C23.4401 144.324 23.6665 143.94 24.0517 143.836L25.0547 143.564L23.9389 142.925C23.5983 142.727 23.4764 142.298 23.6702 141.94C23.8674 141.599 24.3071 141.485 24.655 141.671L25.7709 142.31L25.4986 141.307C25.3947 140.922 25.6212 140.538 25.9955 140.427L26.0064 140.434Z" fill="white" stroke="#007266" mask="url(#path-97-inside-2_239:653)"/>
<path d="M362.308 137.933C369.646 138.703 370.041 139.196 369.291 136.927C368.285 134.639 367.654 133.218 367.003 131.719C367.891 130.338 367.772 130.318 368.364 129.529C368.976 128.701 369.765 127.142 370.297 126.235C370.771 125.426 370.771 124.933 369.587 124.716C367.97 124.4 365.583 123.808 363.215 123.493C362.604 122.21 360.73 118.541 360.039 117.377L360.079 117.417C359.428 116.312 359.289 116.075 358.994 115.898C358.717 115.74 358.165 116.193 357.928 116.549C357.494 117.081 355.521 119.508 353.805 122.092C346.545 120.908 343.862 120.336 348.281 129.746C345.816 131.778 343.843 134.58 344.395 135.605C344.77 136.316 345.303 136.454 351.852 136.868C353.667 140.36 354.87 144.522 356.251 144.7C357.79 144.897 362.15 138.111 362.308 137.914V137.933Z" fill="white"/>
<path d="M349.74 129.59C348.261 131.523 344.808 134.975 347.373 135.311C347.452 135.33 347.55 135.33 347.649 135.33C348.478 135.35 351.91 135.212 352.147 135.232C352.344 135.666 354.909 141.15 355.974 141.939C356.073 141.998 356.171 142.038 356.29 142.057C357.71 142.235 360.571 138.289 361.794 136.553C361.892 136.573 361.991 136.573 362.09 136.593C364.891 136.968 365.798 137.244 366.844 137.402H366.883C368.777 137.658 367.357 135.33 366.982 134.581C366.607 133.831 366.154 133.18 365.345 131.779C368.462 127.242 369.014 126.098 367.298 125.723C366.311 125.506 365.266 125.348 364.279 125.23C363.688 125.151 363.135 125.092 362.603 125.013L362.05 124.934C359.959 119.667 359.486 118.7 358.795 118.542H358.756C357.611 118.384 355.086 122.251 354.021 123.711C353.824 123.691 349.859 123.139 348.734 123.119C347.886 123.099 347.353 123.869 347.807 125.111C348.418 126.808 348.695 127.538 349.799 129.609L349.74 129.59Z" fill="#007266"/>
<path d="M353.628 129.945C352.879 130.931 351.084 132.726 352.405 132.884C352.445 132.904 352.504 132.904 352.543 132.904C352.977 132.904 354.733 132.845 354.851 132.845C354.95 133.062 356.272 135.883 356.824 136.297C356.864 136.337 356.923 136.356 356.982 136.356C357.712 136.455 359.172 134.423 359.803 133.535C359.862 133.555 359.921 133.555 359.961 133.555C361.401 133.752 361.855 133.89 362.407 133.969H362.427C363.394 134.107 362.664 132.904 362.466 132.509C362.269 132.135 362.032 131.799 361.618 131.069C363.216 128.742 363.512 128.15 362.624 127.952C362.111 127.834 361.579 127.755 361.066 127.696C360.77 127.656 360.474 127.617 360.198 127.578C360.099 127.558 360 127.558 359.921 127.538C358.836 124.835 358.6 124.323 358.245 124.244H358.225C357.633 124.165 356.331 126.157 355.798 126.907C355.7 126.907 353.648 126.611 353.076 126.591C352.642 126.571 352.366 126.986 352.583 127.617C352.898 128.485 353.056 128.86 353.609 129.945H353.628Z" fill="white"/>
<path d="M358.285 122.745C358.936 122.903 359.271 122.37 359.232 121.857C359.192 121.423 358.916 120.989 358.344 121.048C357.594 121.127 357.121 122.469 358.285 122.745Z" fill="white"/>
<path d="M365.405 128.228C366.056 128.386 366.391 127.853 366.352 127.32C366.312 126.886 366.016 126.472 365.464 126.511C364.714 126.59 364.241 127.932 365.405 128.228Z" fill="white"/>
<path d="M365.187 136.276C365.838 136.434 366.173 135.901 366.134 135.388C366.114 134.954 365.818 134.52 365.246 134.58C364.496 134.658 364.023 136 365.187 136.296V136.276Z" fill="white"/>
<path d="M349.858 126.551C350.509 126.709 350.845 126.156 350.805 125.643C350.766 125.209 350.47 124.775 349.917 124.834C349.168 124.913 348.694 126.255 349.858 126.551Z" fill="white"/>
<path d="M356.528 139.551C357.179 139.709 357.514 139.157 357.475 138.644C357.435 138.21 357.159 137.776 356.587 137.835C355.838 137.914 355.364 139.256 356.528 139.551Z" fill="white"/>
<path d="M348.873 134.126C349.524 134.284 349.859 133.751 349.82 133.238C349.78 132.804 349.485 132.37 348.932 132.43C348.182 132.508 347.709 133.85 348.873 134.126Z" fill="white"/>
<path d="M332.223 148.835C335.609 144.211 336.096 144.13 334.291 143.765C332.365 143.562 331.189 143.42 329.931 143.278C329.363 142.143 329.303 142.224 328.998 141.514C328.674 140.764 327.964 139.649 327.559 138.939C327.194 138.31 326.869 138.128 326.261 138.817C325.409 139.791 324.091 141.149 322.955 142.609C321.86 142.528 318.677 142.346 317.643 142.366H317.683C316.689 142.366 316.487 142.366 316.243 142.508C316.02 142.63 316.122 143.177 316.264 143.481C316.466 143.968 317.298 146.259 318.352 148.389C314.722 152.789 313.283 154.371 321.293 155.081C321.678 157.514 322.773 159.947 323.686 159.968C324.314 159.988 324.598 159.684 327.457 155.466C330.499 155.608 333.744 156.419 334.393 155.567C335.123 154.614 332.304 149.038 332.243 148.855L332.223 148.835Z" fill="#007266"/>
<path d="M317.845 143.582L317.865 143.562C318.23 143.156 319.061 143.217 323.401 143.866C323.482 143.744 323.584 143.643 323.665 143.521C323.928 143.197 324.192 142.832 324.476 142.487C324.942 141.879 325.469 141.23 325.997 140.662C326.929 139.648 327.477 140.459 329.282 144.332C330.539 144.332 331.147 144.292 331.796 144.332C332.445 144.373 334.554 144.332 333.642 145.509C333.642 145.509 333.642 145.529 333.621 145.529C333.114 146.178 332.567 146.664 331.229 148.408C331.188 148.469 331.127 148.53 331.087 148.591C331.776 150.092 333.277 153.539 332.607 154.431C332.547 154.492 332.486 154.553 332.405 154.593C331.472 154.999 326.808 154.573 326.443 154.532C326.321 154.674 325.084 157.027 324.739 157.574C324.699 157.635 324.658 157.696 324.618 157.757C323.381 159.338 322.428 155.688 321.718 153.944C319.893 153.863 319.305 153.782 317.926 153.519C316.932 153.336 316.628 152.667 316.973 152.119C317.439 151.369 319.366 148.936 319.447 148.814C318.879 147.536 317.297 144.332 317.845 143.623V143.582ZM318.696 144.251C318.737 144.474 318.838 144.88 319.082 145.529C319.366 146.299 319.771 147.171 320.055 147.8C320.156 148.023 320.238 148.226 320.319 148.388C320.461 148.692 320.42 149.037 320.238 149.301C320.217 149.341 320.156 149.402 319.913 149.726C319.406 150.375 318.271 151.856 317.865 152.464C317.926 152.484 318.007 152.525 318.129 152.545C319.426 152.789 319.974 152.87 321.779 152.951C322.144 152.971 322.468 153.194 322.61 153.539C322.732 153.863 322.874 154.228 323.016 154.593C323.239 155.222 323.665 156.398 324.009 156.946C324.192 156.641 324.537 155.993 324.841 155.425C325.51 154.188 325.611 154.005 325.713 153.884C325.916 153.62 326.24 153.498 326.564 153.519C327.822 153.661 330.904 153.843 331.877 153.681C331.877 153.296 331.735 152.099 330.275 148.895C330.133 148.571 330.174 148.206 330.377 147.922C330.417 147.861 330.478 147.8 330.519 147.739C331.411 146.604 331.959 145.975 332.364 145.509C332.445 145.407 332.526 145.326 332.607 145.225C332.445 145.204 332.242 145.204 331.999 145.184C331.918 145.184 331.837 145.184 331.776 145.184C331.452 145.164 331.127 145.164 330.681 145.184C330.316 145.184 329.87 145.204 329.302 145.204C328.937 145.204 328.613 144.981 328.45 144.657C328.004 143.724 327.153 141.879 326.686 141.27C326.159 141.838 325.672 142.467 325.267 142.994C325.125 143.177 324.983 143.359 324.841 143.542C324.719 143.704 324.577 143.886 324.456 144.049C324.354 144.17 324.273 144.292 324.172 144.393C323.969 144.657 323.624 144.799 323.3 144.738C321.677 144.495 319.508 144.17 318.717 144.19L318.696 144.251Z" fill="white"/>
<path d="M323.949 153.113C324.131 152.87 324.415 152.89 324.598 153.032C324.699 153.113 324.76 153.214 324.78 153.316C324.801 153.438 324.78 153.559 324.679 153.681C324.598 153.803 324.476 153.863 324.354 153.863C324.233 153.863 324.131 153.843 324.03 153.762C323.847 153.62 323.766 153.356 323.949 153.113Z" fill="white"/>
<path d="M320.36 150.822C320.542 150.579 320.826 150.599 321.029 150.741C321.211 150.883 321.313 151.167 321.11 151.41C321.029 151.532 320.907 151.592 320.765 151.592C320.644 151.592 320.542 151.572 320.441 151.491C320.258 151.349 320.157 151.065 320.36 150.822Z" fill="white"/>
<path d="M328.836 151.633C329.018 151.389 329.322 151.41 329.505 151.552C329.687 151.694 329.789 151.977 329.586 152.221C329.403 152.464 329.099 152.444 328.917 152.302C328.815 152.221 328.754 152.119 328.734 152.018C328.714 151.896 328.734 151.754 328.836 151.653V151.633Z" fill="white"/>
<path d="M326.666 147.618C326.808 147.435 327.072 147.334 327.315 147.537C327.437 147.618 327.498 147.739 327.498 147.861C327.498 147.983 327.457 148.084 327.396 148.185C327.254 148.368 326.991 148.469 326.747 148.267C326.626 148.185 326.565 148.064 326.565 147.942C326.565 147.82 326.585 147.719 326.666 147.618Z" fill="white"/>
<path d="M322.976 147.496C322.834 147.679 322.55 147.78 322.327 147.577C322.205 147.496 322.145 147.375 322.145 147.253C322.145 147.131 322.165 147.03 322.246 146.929C322.388 146.746 322.672 146.645 322.895 146.847C323.017 146.929 323.077 147.05 323.077 147.172C323.077 147.294 323.037 147.395 322.976 147.496Z" fill="white"/>
<path d="M329.059 146.441C329.14 146.34 329.242 146.279 329.343 146.259C329.465 146.239 329.607 146.259 329.708 146.36C329.83 146.441 329.891 146.563 329.891 146.685C329.891 146.806 329.87 146.908 329.789 147.009C329.647 147.192 329.363 147.293 329.14 147.09C328.897 146.908 328.917 146.624 329.059 146.441Z" fill="white"/>
<path d="M326.565 144.495C326.382 144.739 326.098 144.718 325.916 144.576C325.815 144.495 325.754 144.394 325.733 144.292C325.713 144.171 325.733 144.049 325.835 143.927C325.916 143.806 326.038 143.745 326.159 143.745C326.281 143.745 326.382 143.765 326.484 143.846C326.666 143.988 326.747 144.252 326.565 144.495Z" fill="white"/>
<path d="M325.125 148.571C325.247 148.652 325.307 148.774 325.307 148.895C325.307 149.017 325.287 149.118 325.206 149.22C325.064 149.402 324.78 149.504 324.537 149.301C324.05 148.916 324.638 148.185 325.125 148.551V148.571Z" fill="white"/>
<path d="M327.498 150.092C327.62 150.173 327.681 150.294 327.681 150.416C327.681 150.538 327.66 150.639 327.579 150.74C327.437 150.923 327.153 151.024 326.91 150.822C326.423 150.436 327.011 149.706 327.498 150.071V150.092Z" fill="white"/>
<path d="M325.916 146.868C325.774 147.05 325.49 147.151 325.247 146.949C324.76 146.563 325.348 145.833 325.835 146.198C325.956 146.28 326.017 146.401 326.017 146.523C326.017 146.645 325.997 146.746 325.916 146.847V146.868Z" fill="white"/>
<path d="M324.172 150.822C324.354 150.579 324.638 150.599 324.821 150.741C324.922 150.822 324.983 150.923 325.003 151.025C325.023 151.146 325.003 151.288 324.902 151.39C324.821 151.511 324.699 151.572 324.577 151.572C324.456 151.572 324.354 151.532 324.253 151.471C324.07 151.329 323.969 151.065 324.172 150.822Z" fill="white"/>
<path d="M322.184 149.767C322.367 149.524 322.651 149.544 322.833 149.686C322.935 149.767 322.996 149.869 323.016 149.97C323.036 150.092 323.016 150.234 322.914 150.335C322.833 150.457 322.712 150.517 322.59 150.517C322.468 150.517 322.367 150.497 322.266 150.416C322.083 150.274 321.982 150.011 322.184 149.767Z" fill="white"/>
<path d="M320.259 145.468C320.34 145.367 320.441 145.306 320.543 145.286C320.664 145.265 320.806 145.286 320.908 145.387C321.029 145.468 321.09 145.59 321.09 145.711C321.09 145.833 321.07 145.934 320.989 146.036C320.847 146.218 320.563 146.32 320.34 146.117C320.097 145.934 320.117 145.651 320.259 145.468Z" fill="white"/>
<defs>
<filter id="filter0_f_239:653" x="373.669" y="-8.44067" width="23.6353" height="23.6486" filterUnits="userSpaceOnUse" color-interpolation-filters="sRGB">
<feFlood flood-opacity="0" result="BackgroundImageFix"/>
<feBlend mode="normal" in="SourceGraphic" in2="BackgroundImageFix" result="shape"/>
<feGaussianBlur stdDeviation="2" result="effect1_foregroundBlur_239:653"/>
</filter>
<filter id="filter1_f_239:653" x="324.312" y="9.62799" width="23.6494" height="23.54" filterUnits="userSpaceOnUse" color-interpolation-filters="sRGB">
<feFlood flood-opacity="0" result="BackgroundImageFix"/>
<feBlend mode="normal" in="SourceGraphic" in2="BackgroundImageFix" result="shape"/>
<feGaussianBlur stdDeviation="2" result="effect1_foregroundBlur_239:653"/>
</filter>
<filter id="filter2_f_239:653" x="329.294" y="13.4688" width="8.66138" height="8.66138" filterUnits="userSpaceOnUse" color-interpolation-filters="sRGB">
<feFlood flood-opacity="0" result="BackgroundImageFix"/>
<feBlend mode="normal" in="SourceGraphic" in2="BackgroundImageFix" result="shape"/>
<feGaussianBlur stdDeviation="0.5" result="effect1_foregroundBlur_239:653"/>
</filter>
<filter id="filter3_f_239:653" x="330.737" y="14.9126" width="5.77393" height="5.77386" filterUnits="userSpaceOnUse" color-interpolation-filters="sRGB">
<feFlood flood-opacity="0" result="BackgroundImageFix"/>
<feBlend mode="normal" in="SourceGraphic" in2="BackgroundImageFix" result="shape"/>
<feGaussianBlur stdDeviation="0.25" result="effect1_foregroundBlur_239:653"/>
</filter>
<filter id="filter4_f_239:653" x="355.419" y="12.8577" width="7.22437" height="7.22424" filterUnits="userSpaceOnUse" color-interpolation-filters="sRGB">
<feFlood flood-opacity="0" result="BackgroundImageFix"/>
<feBlend mode="normal" in="SourceGraphic" in2="BackgroundImageFix" result="shape"/>
<feGaussianBlur stdDeviation="0.5" result="effect1_foregroundBlur_239:653"/>
</filter>
<filter id="filter5_f_239:653" x="356.659" y="14.0978" width="4.74438" height="4.74438" filterUnits="userSpaceOnUse" color-interpolation-filters="sRGB">
<feFlood flood-opacity="0" result="BackgroundImageFix"/>
<feBlend mode="normal" in="SourceGraphic" in2="BackgroundImageFix" result="shape"/>
<feGaussianBlur stdDeviation="0.25" result="effect1_foregroundBlur_239:653"/>
</filter>
<filter id="filter6_f_239:653" x="316.875" y="24.0858" width="7.50439" height="7.50446" filterUnits="userSpaceOnUse" color-interpolation-filters="sRGB">
<feFlood flood-opacity="0" result="BackgroundImageFix"/>
<feBlend mode="normal" in="SourceGraphic" in2="BackgroundImageFix" result="shape"/>
<feGaussianBlur stdDeviation="0.5" result="effect1_foregroundBlur_239:653"/>
</filter>
<filter id="filter7_f_239:653" x="318.154" y="25.3655" width="4.94531" height="4.94525" filterUnits="userSpaceOnUse" color-interpolation-filters="sRGB">
<feFlood flood-opacity="0" result="BackgroundImageFix"/>
<feBlend mode="normal" in="SourceGraphic" in2="BackgroundImageFix" result="shape"/>
<feGaussianBlur stdDeviation="0.25" result="effect1_foregroundBlur_239:653"/>
</filter>
<filter id="filter8_f_239:653" x="306.537" y="19.9919" width="8.22363" height="8.22363" filterUnits="userSpaceOnUse" color-interpolation-filters="sRGB">
<feFlood flood-opacity="0" result="BackgroundImageFix"/>
<feBlend mode="normal" in="SourceGraphic" in2="BackgroundImageFix" result="shape"/>
<feGaussianBlur stdDeviation="0.5" result="effect1_foregroundBlur_239:653"/>
</filter>
<filter id="filter9_f_239:653" x="307.918" y="21.3734" width="5.46069" height="5.46069" filterUnits="userSpaceOnUse" color-interpolation-filters="sRGB">
<feFlood flood-opacity="0" result="BackgroundImageFix"/>
<feBlend mode="normal" in="SourceGraphic" in2="BackgroundImageFix" result="shape"/>
<feGaussianBlur stdDeviation="0.25" result="effect1_foregroundBlur_239:653"/>
</filter>
<filter id="filter10_f_239:653" x="-6.46167" y="0.163452" width="23.7139" height="23.5784" filterUnits="userSpaceOnUse" color-interpolation-filters="sRGB">
<feFlood flood-opacity="0" result="BackgroundImageFix"/>
<feBlend mode="normal" in="SourceGraphic" in2="BackgroundImageFix" result="shape"/>
<feGaussianBlur stdDeviation="2" result="effect1_foregroundBlur_239:653"/>
</filter>
<filter id="filter11_f_239:653" x="-1.72192" y="11.0349" width="8.12769" height="8.12769" filterUnits="userSpaceOnUse" color-interpolation-filters="sRGB">
<feFlood flood-opacity="0" result="BackgroundImageFix"/>
<feBlend mode="normal" in="SourceGraphic" in2="BackgroundImageFix" result="shape"/>
<feGaussianBlur stdDeviation="0.5" result="effect1_foregroundBlur_239:653"/>
</filter>
<filter id="filter12_f_239:653" x="-0.354004" y="12.4031" width="5.39136" height="5.39142" filterUnits="userSpaceOnUse" color-interpolation-filters="sRGB">
<feFlood flood-opacity="0" result="BackgroundImageFix"/>
<feBlend mode="normal" in="SourceGraphic" in2="BackgroundImageFix" result="shape"/>
<feGaussianBlur stdDeviation="0.25" result="effect1_foregroundBlur_239:653"/>
</filter>
<filter id="filter13_f_239:653" x="277.449" y="19.0435" width="23.6353" height="23.6486" filterUnits="userSpaceOnUse" color-interpolation-filters="sRGB">
<feFlood flood-opacity="0" result="BackgroundImageFix"/>
<feBlend mode="normal" in="SourceGraphic" in2="BackgroundImageFix" result="shape"/>
<feGaussianBlur stdDeviation="2" result="effect1_foregroundBlur_239:653"/>
</filter>
<filter id="filter14_f_239:653" x="285.874" y="30.1606" width="9.76636" height="9.7663" filterUnits="userSpaceOnUse" color-interpolation-filters="sRGB">
<feFlood flood-opacity="0" result="BackgroundImageFix"/>
<feBlend mode="normal" in="SourceGraphic" in2="BackgroundImageFix" result="shape"/>
<feGaussianBlur stdDeviation="0.5" result="effect1_foregroundBlur_239:653"/>
</filter>
<filter id="filter15_f_239:653" x="287.475" y="31.7612" width="6.56567" height="6.56573" filterUnits="userSpaceOnUse" color-interpolation-filters="sRGB">
<feFlood flood-opacity="0" result="BackgroundImageFix"/>
<feBlend mode="normal" in="SourceGraphic" in2="BackgroundImageFix" result="shape"/>
<feGaussianBlur stdDeviation="0.25" result="effect1_foregroundBlur_239:653"/>
</filter>
<filter id="filter16_f_239:653" x="176.039" y="25.3558" width="23.7139" height="23.5784" filterUnits="userSpaceOnUse" color-interpolation-filters="sRGB">
<feFlood flood-opacity="0" result="BackgroundImageFix"/>
<feBlend mode="normal" in="SourceGraphic" in2="BackgroundImageFix" result="shape"/>
<feGaussianBlur stdDeviation="2" result="effect1_foregroundBlur_239:653"/>
</filter>
<filter id="filter17_f_239:653" x="180.778" y="36.2274" width="8.12769" height="8.12769" filterUnits="userSpaceOnUse" color-interpolation-filters="sRGB">
<feFlood flood-opacity="0" result="BackgroundImageFix"/>
<feBlend mode="normal" in="SourceGraphic" in2="BackgroundImageFix" result="shape"/>
<feGaussianBlur stdDeviation="0.5" result="effect1_foregroundBlur_239:653"/>
</filter>
<filter id="filter18_f_239:653" x="182.146" y="37.5957" width="5.39136" height="5.39142" filterUnits="userSpaceOnUse" color-interpolation-filters="sRGB">
<feFlood flood-opacity="0" result="BackgroundImageFix"/>
<feBlend mode="normal" in="SourceGraphic" in2="BackgroundImageFix" result="shape"/>
<feGaussianBlur stdDeviation="0.25" result="effect1_foregroundBlur_239:653"/>
</filter>
<filter id="filter19_f_239:653" x="227.252" y="24.4257" width="23.6494" height="23.54" filterUnits="userSpaceOnUse" color-interpolation-filters="sRGB">
<feFlood flood-opacity="0" result="BackgroundImageFix"/>
<feBlend mode="normal" in="SourceGraphic" in2="BackgroundImageFix" result="shape"/>
<feGaussianBlur stdDeviation="2" result="effect1_foregroundBlur_239:653"/>
</filter>
<filter id="filter20_f_239:653" x="232.235" y="28.2663" width="8.66138" height="8.66138" filterUnits="userSpaceOnUse" color-interpolation-filters="sRGB">
<feFlood flood-opacity="0" result="BackgroundImageFix"/>
<feBlend mode="normal" in="SourceGraphic" in2="BackgroundImageFix" result="shape"/>
<feGaussianBlur stdDeviation="0.5" result="effect1_foregroundBlur_239:653"/>
</filter>
<filter id="filter21_f_239:653" x="233.677" y="29.7103" width="5.77393" height="5.77386" filterUnits="userSpaceOnUse" color-interpolation-filters="sRGB">
<feFlood flood-opacity="0" result="BackgroundImageFix"/>
<feBlend mode="normal" in="SourceGraphic" in2="BackgroundImageFix" result="shape"/>
<feGaussianBlur stdDeviation="0.25" result="effect1_foregroundBlur_239:653"/>
</filter>
<filter id="filter22_f_239:653" x="128.203" y="23.5143" width="23.6494" height="23.54" filterUnits="userSpaceOnUse" color-interpolation-filters="sRGB">
<feFlood flood-opacity="0" result="BackgroundImageFix"/>
<feBlend mode="normal" in="SourceGraphic" in2="BackgroundImageFix" result="shape"/>
<feGaussianBlur stdDeviation="2" result="effect1_foregroundBlur_239:653"/>
</filter>
<filter id="filter23_f_239:653" x="133.185" y="27.3551" width="8.66138" height="8.66138" filterUnits="userSpaceOnUse" color-interpolation-filters="sRGB">
<feFlood flood-opacity="0" result="BackgroundImageFix"/>
<feBlend mode="normal" in="SourceGraphic" in2="BackgroundImageFix" result="shape"/>
<feGaussianBlur stdDeviation="0.5" result="effect1_foregroundBlur_239:653"/>
</filter>
<filter id="filter24_f_239:653" x="134.628" y="28.7989" width="5.77393" height="5.77386" filterUnits="userSpaceOnUse" color-interpolation-filters="sRGB">
<feFlood flood-opacity="0" result="BackgroundImageFix"/>
<feBlend mode="normal" in="SourceGraphic" in2="BackgroundImageFix" result="shape"/>
<feGaussianBlur stdDeviation="0.25" result="effect1_foregroundBlur_239:653"/>
</filter>
<filter id="filter25_f_239:653" x="215.54" y="35.5714" width="7.50439" height="7.50446" filterUnits="userSpaceOnUse" color-interpolation-filters="sRGB">
<feFlood flood-opacity="0" result="BackgroundImageFix"/>
<feBlend mode="normal" in="SourceGraphic" in2="BackgroundImageFix" result="shape"/>
<feGaussianBlur stdDeviation="0.5" result="effect1_foregroundBlur_239:653"/>
</filter>
<filter id="filter26_f_239:653" x="216.819" y="36.851" width="4.94531" height="4.94525" filterUnits="userSpaceOnUse" color-interpolation-filters="sRGB">
<feFlood flood-opacity="0" result="BackgroundImageFix"/>
<feBlend mode="normal" in="SourceGraphic" in2="BackgroundImageFix" result="shape"/>
<feGaussianBlur stdDeviation="0.25" result="effect1_foregroundBlur_239:653"/>
</filter>
<filter id="filter27_f_239:653" x="197.179" y="31.6956" width="8.22363" height="8.22363" filterUnits="userSpaceOnUse" color-interpolation-filters="sRGB">
<feFlood flood-opacity="0" result="BackgroundImageFix"/>
<feBlend mode="normal" in="SourceGraphic" in2="BackgroundImageFix" result="shape"/>
<feGaussianBlur stdDeviation="0.5" result="effect1_foregroundBlur_239:653"/>
</filter>
<filter id="filter28_f_239:653" x="198.56" y="33.0769" width="5.46069" height="5.46069" filterUnits="userSpaceOnUse" color-interpolation-filters="sRGB">
<feFlood flood-opacity="0" result="BackgroundImageFix"/>
<feBlend mode="normal" in="SourceGraphic" in2="BackgroundImageFix" result="shape"/>
<feGaussianBlur stdDeviation="0.25" result="effect1_foregroundBlur_239:653"/>
</filter>
<filter id="filter29_f_239:653" x="257.124" y="33.8083" width="5.46069" height="5.46069" filterUnits="userSpaceOnUse" color-interpolation-filters="sRGB">
<feFlood flood-opacity="0" result="BackgroundImageFix"/>
<feBlend mode="normal" in="SourceGraphic" in2="BackgroundImageFix" result="shape"/>
<feGaussianBlur stdDeviation="0.25" result="effect1_foregroundBlur_239:653"/>
</filter>
<filter id="filter30_f_239:653" x="161.14" y="36.6066" width="5.46069" height="5.46069" filterUnits="userSpaceOnUse" color-interpolation-filters="sRGB">
<feFlood flood-opacity="0" result="BackgroundImageFix"/>
<feBlend mode="normal" in="SourceGraphic" in2="BackgroundImageFix" result="shape"/>
<feGaussianBlur stdDeviation="0.25" result="effect1_foregroundBlur_239:653"/>
</filter>
<filter id="filter31_f_239:653" x="80.9507" y="18.3392" width="23.7139" height="23.5784" filterUnits="userSpaceOnUse" color-interpolation-filters="sRGB">
<feFlood flood-opacity="0" result="BackgroundImageFix"/>
<feBlend mode="normal" in="SourceGraphic" in2="BackgroundImageFix" result="shape"/>
<feGaussianBlur stdDeviation="2" result="effect1_foregroundBlur_239:653"/>
</filter>
<filter id="filter32_f_239:653" x="85.6899" y="29.2108" width="8.12769" height="8.12769" filterUnits="userSpaceOnUse" color-interpolation-filters="sRGB">
<feFlood flood-opacity="0" result="BackgroundImageFix"/>
<feBlend mode="normal" in="SourceGraphic" in2="BackgroundImageFix" result="shape"/>
<feGaussianBlur stdDeviation="0.5" result="effect1_foregroundBlur_239:653"/>
</filter>
<filter id="filter33_f_239:653" x="87.0576" y="30.5789" width="5.39136" height="5.39142" filterUnits="userSpaceOnUse" color-interpolation-filters="sRGB">
<feFlood flood-opacity="0" result="BackgroundImageFix"/>
<feBlend mode="normal" in="SourceGraphic" in2="BackgroundImageFix" result="shape"/>
<feGaussianBlur stdDeviation="0.25" result="effect1_foregroundBlur_239:653"/>
</filter>
<filter id="filter34_f_239:653" x="36.7529" y="10.1581" width="23.6885" height="23.8427" filterUnits="userSpaceOnUse" color-interpolation-filters="sRGB">
<feFlood flood-opacity="0" result="BackgroundImageFix"/>
<feBlend mode="normal" in="SourceGraphic" in2="BackgroundImageFix" result="shape"/>
<feGaussianBlur stdDeviation="2" result="effect1_foregroundBlur_239:653"/>
</filter>
<filter id="filter35_f_239:653" x="45.1372" y="12.9547" width="9.99609" height="9.99603" filterUnits="userSpaceOnUse" color-interpolation-filters="sRGB">
<feFlood flood-opacity="0" result="BackgroundImageFix"/>
<feBlend mode="normal" in="SourceGraphic" in2="BackgroundImageFix" result="shape"/>
<feGaussianBlur stdDeviation="0.5" result="effect1_foregroundBlur_239:653"/>
</filter>
<filter id="filter36_f_239:653" x="46.7698" y="14.5871" width="6.73022" height="6.73041" filterUnits="userSpaceOnUse" color-interpolation-filters="sRGB">
<feFlood flood-opacity="0" result="BackgroundImageFix"/>
<feBlend mode="normal" in="SourceGraphic" in2="BackgroundImageFix" result="shape"/>
<feGaussianBlur stdDeviation="0.25" result="effect1_foregroundBlur_239:653"/>
</filter>
<filter id="filter37_f_239:653" x="119.006" y="31.8431" width="7.50439" height="7.50446" filterUnits="userSpaceOnUse" color-interpolation-filters="sRGB">
<feFlood flood-opacity="0" result="BackgroundImageFix"/>
<feBlend mode="normal" in="SourceGraphic" in2="BackgroundImageFix" result="shape"/>
<feGaussianBlur stdDeviation="0.5" result="effect1_foregroundBlur_239:653"/>
</filter>
<filter id="filter38_f_239:653" x="120.286" y="33.1227" width="4.94531" height="4.94525" filterUnits="userSpaceOnUse" color-interpolation-filters="sRGB">
<feFlood flood-opacity="0" result="BackgroundImageFix"/>
<feBlend mode="normal" in="SourceGraphic" in2="BackgroundImageFix" result="shape"/>
<feGaussianBlur stdDeviation="0.25" result="effect1_foregroundBlur_239:653"/>
</filter>
<filter id="filter39_f_239:653" x="103.469" y="25.3516" width="8.22363" height="8.22363" filterUnits="userSpaceOnUse" color-interpolation-filters="sRGB">
<feFlood flood-opacity="0" result="BackgroundImageFix"/>
<feBlend mode="normal" in="SourceGraphic" in2="BackgroundImageFix" result="shape"/>
<feGaussianBlur stdDeviation="0.5" result="effect1_foregroundBlur_239:653"/>
</filter>
<filter id="filter40_f_239:653" x="104.851" y="26.7329" width="5.46069" height="5.46069" filterUnits="userSpaceOnUse" color-interpolation-filters="sRGB">
<feFlood flood-opacity="0" result="BackgroundImageFix"/>
<feBlend mode="normal" in="SourceGraphic" in2="BackgroundImageFix" result="shape"/>
<feGaussianBlur stdDeviation="0.25" result="effect1_foregroundBlur_239:653"/>
</filter>
<filter id="filter41_f_239:653" x="26.2239" y="16.2416" width="7.50439" height="7.50446" filterUnits="userSpaceOnUse" color-interpolation-filters="sRGB">
<feFlood flood-opacity="0" result="BackgroundImageFix"/>
<feBlend mode="normal" in="SourceGraphic" in2="BackgroundImageFix" result="shape"/>
<feGaussianBlur stdDeviation="0.5" result="effect1_foregroundBlur_239:653"/>
</filter>
<filter id="filter42_f_239:653" x="27.5032" y="17.5214" width="4.94531" height="4.94525" filterUnits="userSpaceOnUse" color-interpolation-filters="sRGB">
<feFlood flood-opacity="0" result="BackgroundImageFix"/>
<feBlend mode="normal" in="SourceGraphic" in2="BackgroundImageFix" result="shape"/>
<feGaussianBlur stdDeviation="0.25" result="effect1_foregroundBlur_239:653"/>
</filter>
<filter id="filter43_f_239:653" x="13.4397" y="8.94165" width="8.22363" height="8.22363" filterUnits="userSpaceOnUse" color-interpolation-filters="sRGB">
<feFlood flood-opacity="0" result="BackgroundImageFix"/>
<feBlend mode="normal" in="SourceGraphic" in2="BackgroundImageFix" result="shape"/>
<feGaussianBlur stdDeviation="0.5" result="effect1_foregroundBlur_239:653"/>
</filter>
<filter id="filter44_f_239:653" x="14.8213" y="10.323" width="5.46069" height="5.46069" filterUnits="userSpaceOnUse" color-interpolation-filters="sRGB">
<feFlood flood-opacity="0" result="BackgroundImageFix"/>
<feBlend mode="normal" in="SourceGraphic" in2="BackgroundImageFix" result="shape"/>
<feGaussianBlur stdDeviation="0.25" result="effect1_foregroundBlur_239:653"/>
</filter>
<filter id="filter45_f_239:653" x="66.1316" y="21.4934" width="5.46069" height="5.46069" filterUnits="userSpaceOnUse" color-interpolation-filters="sRGB">
<feFlood flood-opacity="0" result="BackgroundImageFix"/>
<feBlend mode="normal" in="SourceGraphic" in2="BackgroundImageFix" result="shape"/>
<feGaussianBlur stdDeviation="0.25" result="effect1_foregroundBlur_239:653"/>
</filter>
<filter id="filter46_f_239:653" x="56.2214" y="24.6757" width="5.46069" height="5.46069" filterUnits="userSpaceOnUse" color-interpolation-filters="sRGB">
<feFlood flood-opacity="0" result="BackgroundImageFix"/>
<feBlend mode="normal" in="SourceGraphic" in2="BackgroundImageFix" result="shape"/>
<feGaussianBlur stdDeviation="0.25" result="effect1_foregroundBlur_239:653"/>
</filter>
<radialGradient id="paint0_radial_239:653" cx="0" cy="0" r="1" gradientUnits="userSpaceOnUse" gradientTransform="translate(356.104 13.6256) rotate(-175.672) scale(0.685533 0.70292)">
<stop stop-color="white"/>
<stop offset="0.0117647" stop-color="#FFFAD3"/>
<stop offset="0.968627" stop-color="#FFF6A8"/>
<stop offset="1" stop-color="#FFF6A8"/>
</radialGradient>
<radialGradient id="paint1_radial_239:653" cx="0" cy="0" r="1" gradientUnits="userSpaceOnUse" gradientTransform="translate(373.596 10.2428) rotate(-175.626) scale(0.776705 0.791812)">
<stop stop-color="white"/>
<stop offset="0.685417" stop-color="#FFFAD3"/>
<stop offset="0.968627" stop-color="#FFF6A8"/>
<stop offset="1" stop-color="#FFF6A8"/>
</radialGradient>
<radialGradient id="paint2_radial_239:653" cx="0" cy="0" r="1" gradientUnits="userSpaceOnUse" gradientTransform="translate(367.345 13.4346) rotate(-175.626) scale(0.776705 0.791812)">
<stop stop-color="white"/>
<stop offset="0.685417" stop-color="#FFFAD3"/>
<stop offset="0.968627" stop-color="#FFF6A8"/>
<stop offset="1" stop-color="#FFF6A8"/>
</radialGradient>
<radialGradient id="paint3_radial_239:653" cx="0" cy="0" r="1" gradientUnits="userSpaceOnUse" gradientTransform="translate(306.246 25.3611) rotate(-175.626) scale(0.776705 0.791812)">
<stop stop-color="white"/>
<stop offset="0.685417" stop-color="#FFFAD3"/>
<stop offset="0.968627" stop-color="#FFF6A8"/>
<stop offset="1" stop-color="#FFF6A8"/>
</radialGradient>
<radialGradient id="paint4_radial_239:653" cx="0" cy="0" r="1" gradientUnits="userSpaceOnUse" gradientTransform="translate(303.792 29.7637) rotate(-175.626) scale(0.776705 0.791812)">
<stop stop-color="white"/>
<stop offset="0.685417" stop-color="#FFFAD3"/>
<stop offset="0.968627" stop-color="#FFF6A8"/>
<stop offset="1" stop-color="#FFF6A8"/>
</radialGradient>
<radialGradient id="paint5_radial_239:653" cx="0" cy="0" r="1" gradientUnits="userSpaceOnUse" gradientTransform="translate(296.268 28.0682) rotate(-175.626) scale(0.776705 0.791812)">
<stop stop-color="white"/>
<stop offset="0.685417" stop-color="#FFFAD3"/>
<stop offset="0.968627" stop-color="#FFF6A8"/>
<stop offset="1" stop-color="#FFF6A8"/>
</radialGradient>
<radialGradient id="paint6_radial_239:653" cx="0" cy="0" r="1" gradientUnits="userSpaceOnUse" gradientTransform="translate(374.175 6.82889) rotate(-175.626) scale(0.919444 0.937327)">
<stop stop-color="white"/>
<stop offset="0.685417" stop-color="#FFFAD3"/>
<stop offset="0.968627" stop-color="#FFF6A8"/>
<stop offset="1" stop-color="#FFF6A8"/>
</radialGradient>
<radialGradient id="paint7_radial_239:653" cx="0" cy="0" r="1" gradientUnits="userSpaceOnUse" gradientTransform="translate(351.801 18.4558) rotate(-175.626) scale(0.919444 0.937327)">
<stop stop-color="white"/>
<stop offset="0.685417" stop-color="#FFFAD3"/>
<stop offset="0.968627" stop-color="#FFF6A8"/>
<stop offset="1" stop-color="#FFF6A8"/>
</radialGradient>
<radialGradient id="paint8_radial_239:653" cx="0" cy="0" r="1" gradientUnits="userSpaceOnUse" gradientTransform="translate(311.838 28.1386) rotate(-175.626) scale(0.919444 0.937327)">
<stop stop-color="white"/>
<stop offset="0.685417" stop-color="#FFFAD3"/>
<stop offset="0.968627" stop-color="#FFF6A8"/>
<stop offset="1" stop-color="#FFF6A8"/>
</radialGradient>
<radialGradient id="paint9_radial_239:653" cx="0" cy="0" r="1" gradientUnits="userSpaceOnUse" gradientTransform="translate(321.917 22.7048) rotate(-175.626) scale(0.919444 0.937327)">
<stop stop-color="white"/>
<stop offset="0.685417" stop-color="#FFFAD3"/>
<stop offset="0.968627" stop-color="#FFF6A8"/>
<stop offset="1" stop-color="#FFF6A8"/>
</radialGradient>
<radialGradient id="paint10_radial_239:653" cx="0" cy="0" r="1" gradientUnits="userSpaceOnUse" gradientTransform="translate(387.001 2.79849) rotate(-175.626) scale(6.42151 6.54641)">
<stop stop-color="white"/>
<stop offset="0.0117647" stop-color="#FFFAD3"/>
<stop offset="0.968627" stop-color="#FFF6A8"/>
<stop offset="1" stop-color="#FFF6A8"/>
</radialGradient>
<radialGradient id="paint11_radial_239:653" cx="0" cy="0" r="1" gradientUnits="userSpaceOnUse" gradientTransform="translate(334.834 22.4047) rotate(-10.6262) scale(6.42151 6.54641)">
<stop stop-color="white"/>
<stop offset="0.0117647" stop-color="#FFFAD3"/>
<stop offset="0.968627" stop-color="#FFF6A8"/>
<stop offset="1" stop-color="#FFF6A8"/>
</radialGradient>
<radialGradient id="paint12_radial_239:653" cx="0" cy="0" r="1" gradientUnits="userSpaceOnUse" gradientTransform="translate(335.574 21.9488) rotate(-10.6262) scale(3.54628 3.61526)">
<stop stop-color="white"/>
<stop offset="0.685417" stop-color="#FFFAD3"/>
<stop offset="0.968627" stop-color="#FFF6A8"/>
<stop offset="1" stop-color="#FFF6A8"/>
</radialGradient>
<radialGradient id="paint13_radial_239:653" cx="0" cy="0" r="1" gradientUnits="userSpaceOnUse" gradientTransform="translate(14.0895 12.8314) rotate(-175.626) scale(0.776705 0.791812)">
<stop stop-color="white"/>
<stop offset="0.685417" stop-color="#FFFAD3"/>
<stop offset="0.968627" stop-color="#FFF6A8"/>
<stop offset="1" stop-color="#FFF6A8"/>
</radialGradient>
<radialGradient id="paint14_radial_239:653" cx="0" cy="0" r="1" gradientUnits="userSpaceOnUse" gradientTransform="translate(4.25882 10.7401) rotate(19.6514) scale(6.42151 6.54641)">
<stop stop-color="white"/>
<stop offset="0.0117647" stop-color="#FFFAD3"/>
<stop offset="0.968627" stop-color="#FFF6A8"/>
<stop offset="1" stop-color="#FFF6A8"/>
</radialGradient>
<radialGradient id="paint15_radial_239:653" cx="0" cy="0" r="1" gradientUnits="userSpaceOnUse" gradientTransform="translate(4.9179 11.3066) rotate(19.6514) scale(3.54628 3.61526)">
<stop stop-color="white"/>
<stop offset="0.685417" stop-color="#FFFAD3"/>
<stop offset="0.968627" stop-color="#FFF6A8"/>
<stop offset="1" stop-color="#FFF6A8"/>
</radialGradient>
<radialGradient id="paint16_radial_239:653" cx="0" cy="0" r="1" gradientUnits="userSpaceOnUse" gradientTransform="translate(268.989 34.7794) rotate(-175.626) scale(0.776705 0.791812)">
<stop stop-color="white"/>
<stop offset="0.685417" stop-color="#FFFAD3"/>
<stop offset="0.968627" stop-color="#FFF6A8"/>
<stop offset="1" stop-color="#FFF6A8"/>
</radialGradient>
<radialGradient id="paint17_radial_239:653" cx="0" cy="0" r="1" gradientUnits="userSpaceOnUse" gradientTransform="translate(228.631 38.2927) rotate(-175.626) scale(0.776705 0.791812)">
<stop stop-color="white"/>
<stop offset="0.685417" stop-color="#FFFAD3"/>
<stop offset="0.968627" stop-color="#FFF6A8"/>
<stop offset="1" stop-color="#FFF6A8"/>
</radialGradient>
<radialGradient id="paint18_radial_239:653" cx="0" cy="0" r="1" gradientUnits="userSpaceOnUse" gradientTransform="translate(208.005 35.8247) rotate(-175.626) scale(0.776705 0.791812)">
<stop stop-color="white"/>
<stop offset="0.685417" stop-color="#FFFAD3"/>
<stop offset="0.968627" stop-color="#FFF6A8"/>
<stop offset="1" stop-color="#FFF6A8"/>
</radialGradient>
<radialGradient id="paint19_radial_239:653" cx="0" cy="0" r="1" gradientUnits="userSpaceOnUse" gradientTransform="translate(177.601 35.498) rotate(-175.626) scale(0.776705 0.791812)">
<stop stop-color="white"/>
<stop offset="0.685417" stop-color="#FFFAD3"/>
<stop offset="0.968627" stop-color="#FFF6A8"/>
<stop offset="1" stop-color="#FFF6A8"/>
</radialGradient>
<radialGradient id="paint20_radial_239:653" cx="0" cy="0" r="1" gradientUnits="userSpaceOnUse" gradientTransform="translate(157.792 38.1031) rotate(-175.626) scale(0.776705 0.791812)">
<stop stop-color="white"/>
<stop offset="0.685417" stop-color="#FFFAD3"/>
<stop offset="0.968627" stop-color="#FFF6A8"/>
<stop offset="1" stop-color="#FFF6A8"/>
</radialGradient>
<radialGradient id="paint21_radial_239:653" cx="0" cy="0" r="1" gradientUnits="userSpaceOnUse" gradientTransform="translate(148.694 34.178) rotate(-175.626) scale(0.776705 0.791812)">
<stop stop-color="white"/>
<stop offset="0.685417" stop-color="#FFFAD3"/>
<stop offset="0.968627" stop-color="#FFF6A8"/>
<stop offset="1" stop-color="#FFF6A8"/>
</radialGradient>
<radialGradient id="paint22_radial_239:653" cx="0" cy="0" r="1" gradientUnits="userSpaceOnUse" gradientTransform="translate(198.063 39.0958) rotate(-175.626) scale(0.776705 0.791812)">
<stop stop-color="white"/>
<stop offset="0.685417" stop-color="#FFFAD3"/>
<stop offset="0.968627" stop-color="#FFF6A8"/>
<stop offset="1" stop-color="#FFF6A8"/>
</radialGradient>
<radialGradient id="paint23_radial_239:653" cx="0" cy="0" r="1" gradientUnits="userSpaceOnUse" gradientTransform="translate(262.401 32.4177) rotate(-175.626) scale(0.776705 0.791812)">
<stop stop-color="white"/>
<stop offset="0.685417" stop-color="#FFFAD3"/>
<stop offset="0.968627" stop-color="#FFF6A8"/>
<stop offset="1" stop-color="#FFF6A8"/>
</radialGradient>
<radialGradient id="paint24_radial_239:653" cx="0" cy="0" r="1" gradientUnits="userSpaceOnUse" gradientTransform="translate(275.887 30.5301) rotate(-175.626) scale(0.919444 0.937327)">
<stop stop-color="white"/>
<stop offset="0.685417" stop-color="#FFFAD3"/>
<stop offset="0.968627" stop-color="#FFF6A8"/>
<stop offset="1" stop-color="#FFF6A8"/>
</radialGradient>
<radialGradient id="paint25_radial_239:653" cx="0" cy="0" r="1" gradientUnits="userSpaceOnUse" gradientTransform="translate(256.192 36.7596) rotate(-175.626) scale(0.919444 0.937327)">
<stop stop-color="white"/>
<stop offset="0.685417" stop-color="#FFFAD3"/>
<stop offset="0.968627" stop-color="#FFF6A8"/>
<stop offset="1" stop-color="#FFF6A8"/>
</radialGradient>
<radialGradient id="paint26_radial_239:653" cx="0" cy="0" r="1" gradientUnits="userSpaceOnUse" gradientTransform="translate(212.261 38.3054) rotate(-175.626) scale(0.919444 0.937327)">
<stop stop-color="white"/>
<stop offset="0.685417" stop-color="#FFFAD3"/>
<stop offset="0.968627" stop-color="#FFF6A8"/>
<stop offset="1" stop-color="#FFF6A8"/>
</radialGradient>
<radialGradient id="paint27_radial_239:653" cx="0" cy="0" r="1" gradientUnits="userSpaceOnUse" gradientTransform="translate(170.053 38.1336) rotate(-175.626) scale(0.919444 0.937327)">
<stop stop-color="white"/>
<stop offset="0.685417" stop-color="#FFFAD3"/>
<stop offset="0.968627" stop-color="#FFF6A8"/>
<stop offset="1" stop-color="#FFF6A8"/>
</radialGradient>
<radialGradient id="paint28_radial_239:653" cx="0" cy="0" r="1" gradientUnits="userSpaceOnUse" gradientTransform="translate(153.618 34.2377) rotate(-175.626) scale(0.919444 0.937327)">
<stop stop-color="white"/>
<stop offset="0.685417" stop-color="#FFFAD3"/>
<stop offset="0.968627" stop-color="#FFF6A8"/>
<stop offset="1" stop-color="#FFF6A8"/>
</radialGradient>
<radialGradient id="paint29_radial_239:653" cx="0" cy="0" r="1" gradientUnits="userSpaceOnUse" gradientTransform="translate(220.9 35.1227) rotate(-175.626) scale(0.919444 0.937327)">
<stop stop-color="white"/>
<stop offset="0.685417" stop-color="#FFFAD3"/>
<stop offset="0.968627" stop-color="#FFF6A8"/>
<stop offset="1" stop-color="#FFF6A8"/>
</radialGradient>
<radialGradient id="paint30_radial_239:653" cx="0" cy="0" r="1" gradientUnits="userSpaceOnUse" gradientTransform="translate(290.781 30.2827) rotate(-175.626) scale(6.42151 6.54641)">
<stop stop-color="white"/>
<stop offset="0.0117647" stop-color="#FFFAD3"/>
<stop offset="0.968627" stop-color="#FFF6A8"/>
<stop offset="1" stop-color="#FFF6A8"/>
</radialGradient>
<radialGradient id="paint31_radial_239:653" cx="0" cy="0" r="1" gradientUnits="userSpaceOnUse" gradientTransform="translate(289.949 30.5317) rotate(-175.626) scale(3.54628 3.61526)">
<stop stop-color="white"/>
<stop offset="0.685417" stop-color="#FFFAD3"/>
<stop offset="0.968627" stop-color="#FFF6A8"/>
<stop offset="1" stop-color="#FFF6A8"/>
</radialGradient>
<radialGradient id="paint32_radial_239:653" cx="0" cy="0" r="1" gradientUnits="userSpaceOnUse" gradientTransform="translate(186.759 35.9324) rotate(19.6514) scale(6.42151 6.54641)">
<stop stop-color="white"/>
<stop offset="0.0117647" stop-color="#FFFAD3"/>
<stop offset="0.968627" stop-color="#FFF6A8"/>
<stop offset="1" stop-color="#FFF6A8"/>
</radialGradient>
<radialGradient id="paint33_radial_239:653" cx="0" cy="0" r="1" gradientUnits="userSpaceOnUse" gradientTransform="translate(187.418 36.4991) rotate(19.6514) scale(3.54628 3.61526)">
<stop stop-color="white"/>
<stop offset="0.685417" stop-color="#FFFAD3"/>
<stop offset="0.968627" stop-color="#FFF6A8"/>
<stop offset="1" stop-color="#FFF6A8"/>
</radialGradient>
<radialGradient id="paint34_radial_239:653" cx="0" cy="0" r="1" gradientUnits="userSpaceOnUse" gradientTransform="translate(237.775 37.2024) rotate(-10.6262) scale(6.42151 6.54641)">
<stop stop-color="white"/>
<stop offset="0.0117647" stop-color="#FFFAD3"/>
<stop offset="0.968627" stop-color="#FFF6A8"/>
<stop offset="1" stop-color="#FFF6A8"/>
</radialGradient>
<radialGradient id="paint35_radial_239:653" cx="0" cy="0" r="1" gradientUnits="userSpaceOnUse" gradientTransform="translate(238.514 36.7465) rotate(-10.6262) scale(3.54628 3.61526)">
<stop stop-color="white"/>
<stop offset="0.685417" stop-color="#FFFAD3"/>
<stop offset="0.968627" stop-color="#FFF6A8"/>
<stop offset="1" stop-color="#FFF6A8"/>
</radialGradient>
<radialGradient id="paint36_radial_239:653" cx="0" cy="0" r="1" gradientUnits="userSpaceOnUse" gradientTransform="translate(138.725 36.291) rotate(-10.6262) scale(6.42151 6.54641)">
<stop stop-color="white"/>
<stop offset="0.0117647" stop-color="#FFFAD3"/>
<stop offset="0.968627" stop-color="#FFF6A8"/>
<stop offset="1" stop-color="#FFF6A8"/>
</radialGradient>
<radialGradient id="paint37_radial_239:653" cx="0" cy="0" r="1" gradientUnits="userSpaceOnUse" gradientTransform="translate(139.465 35.835) rotate(-10.6262) scale(3.54628 3.61526)">
<stop stop-color="white"/>
<stop offset="0.685417" stop-color="#FFFAD3"/>
<stop offset="0.968627" stop-color="#FFF6A8"/>
<stop offset="1" stop-color="#FFF6A8"/>
</radialGradient>
<radialGradient id="paint38_radial_239:653" cx="0" cy="0" r="1" gradientUnits="userSpaceOnUse" gradientTransform="translate(120.515 34.8011) rotate(-175.626) scale(0.776705 0.791812)">
<stop stop-color="white"/>
<stop offset="0.685417" stop-color="#FFFAD3"/>
<stop offset="0.968627" stop-color="#FFF6A8"/>
<stop offset="1" stop-color="#FFF6A8"/>
</radialGradient>
<radialGradient id="paint39_radial_239:653" cx="0" cy="0" r="1" gradientUnits="userSpaceOnUse" gradientTransform="translate(116.367 31.8352) rotate(-175.626) scale(0.776705 0.791812)">
<stop stop-color="white"/>
<stop offset="0.685417" stop-color="#FFFAD3"/>
<stop offset="0.968627" stop-color="#FFF6A8"/>
<stop offset="1" stop-color="#FFF6A8"/>
</radialGradient>
<radialGradient id="paint40_radial_239:653" cx="0" cy="0" r="1" gradientUnits="userSpaceOnUse" gradientTransform="translate(103.54 32.6236) rotate(-175.626) scale(0.776705 0.791812)">
<stop stop-color="white"/>
<stop offset="0.685417" stop-color="#FFFAD3"/>
<stop offset="0.968627" stop-color="#FFF6A8"/>
<stop offset="1" stop-color="#FFF6A8"/>
</radialGradient>
<radialGradient id="paint41_radial_239:653" cx="0" cy="0" r="1" gradientUnits="userSpaceOnUse" gradientTransform="translate(78.9132 30.6167) rotate(-175.626) scale(0.776705 0.791812)">
<stop stop-color="white"/>
<stop offset="0.685417" stop-color="#FFFAD3"/>
<stop offset="0.968627" stop-color="#FFF6A8"/>
<stop offset="1" stop-color="#FFF6A8"/>
</radialGradient>
<radialGradient id="paint42_radial_239:653" cx="0" cy="0" r="1" gradientUnits="userSpaceOnUse" gradientTransform="translate(62.5377 26.1718) rotate(-175.626) scale(0.776705 0.791812)">
<stop stop-color="white"/>
<stop offset="0.685417" stop-color="#FFFAD3"/>
<stop offset="0.968627" stop-color="#FFF6A8"/>
<stop offset="1" stop-color="#FFF6A8"/>
</radialGradient>
<radialGradient id="paint43_radial_239:653" cx="0" cy="0" r="1" gradientUnits="userSpaceOnUse" gradientTransform="translate(34.1014 20.4998) rotate(-175.626) scale(0.776705 0.791812)">
<stop stop-color="white"/>
<stop offset="0.685417" stop-color="#FFFAD3"/>
<stop offset="0.968627" stop-color="#FFF6A8"/>
<stop offset="1" stop-color="#FFF6A8"/>
</radialGradient>
<radialGradient id="paint44_radial_239:653" cx="0" cy="0" r="1" gradientUnits="userSpaceOnUse" gradientTransform="translate(56.7457 22.2187) rotate(-175.626) scale(0.776705 0.791812)">
<stop stop-color="white"/>
<stop offset="0.685417" stop-color="#FFFAD3"/>
<stop offset="0.968627" stop-color="#FFF6A8"/>
<stop offset="1" stop-color="#FFF6A8"/>
</radialGradient>
<radialGradient id="paint45_radial_239:653" cx="0" cy="0" r="1" gradientUnits="userSpaceOnUse" gradientTransform="translate(106.181 30.0384) rotate(-175.626) scale(0.919444 0.937327)">
<stop stop-color="white"/>
<stop offset="0.685417" stop-color="#FFFAD3"/>
<stop offset="0.968627" stop-color="#FFF6A8"/>
<stop offset="1" stop-color="#FFF6A8"/>
</radialGradient>
<radialGradient id="paint46_radial_239:653" cx="0" cy="0" r="1" gradientUnits="userSpaceOnUse" gradientTransform="translate(127.678 32.3386) rotate(-175.626) scale(0.919444 0.937327)">
<stop stop-color="white"/>
<stop offset="0.685417" stop-color="#FFFAD3"/>
<stop offset="0.968627" stop-color="#FFF6A8"/>
<stop offset="1" stop-color="#FFF6A8"/>
</radialGradient>
<radialGradient id="paint47_radial_239:653" cx="0" cy="0" r="1" gradientUnits="userSpaceOnUse" gradientTransform="translate(75.5958 28.6451) rotate(-175.626) scale(0.919444 0.937327)">
<stop stop-color="white"/>
<stop offset="0.685417" stop-color="#FFFAD3"/>
<stop offset="0.968627" stop-color="#FFF6A8"/>
<stop offset="1" stop-color="#FFF6A8"/>
</radialGradient>
<radialGradient id="paint48_radial_239:653" cx="0" cy="0" r="1" gradientUnits="userSpaceOnUse" gradientTransform="translate(29.6056 15.8266) rotate(-175.626) scale(0.919444 0.937327)">
<stop stop-color="white"/>
<stop offset="0.685417" stop-color="#FFFAD3"/>
<stop offset="0.968627" stop-color="#FFF6A8"/>
<stop offset="1" stop-color="#FFF6A8"/>
</radialGradient>
<radialGradient id="paint49_radial_239:653" cx="0" cy="0" r="1" gradientUnits="userSpaceOnUse" gradientTransform="translate(39.2377 16.9288) rotate(-175.626) scale(0.919444 0.937327)">
<stop stop-color="white"/>
<stop offset="0.685417" stop-color="#FFFAD3"/>
<stop offset="0.968627" stop-color="#FFF6A8"/>
<stop offset="1" stop-color="#FFF6A8"/>
</radialGradient>
<radialGradient id="paint50_radial_239:653" cx="0" cy="0" r="1" gradientUnits="userSpaceOnUse" gradientTransform="translate(20.6061 17.2094) rotate(-175.626) scale(0.919444 0.937327)">
<stop stop-color="white"/>
<stop offset="0.685417" stop-color="#FFFAD3"/>
<stop offset="0.968627" stop-color="#FFF6A8"/>
<stop offset="1" stop-color="#FFF6A8"/>
</radialGradient>
<radialGradient id="paint51_radial_239:653" cx="0" cy="0" r="1" gradientUnits="userSpaceOnUse" gradientTransform="translate(91.6712 28.9158) rotate(19.6514) scale(6.42151 6.54641)">
<stop stop-color="white"/>
<stop offset="0.0117647" stop-color="#FFFAD3"/>
<stop offset="0.968627" stop-color="#FFF6A8"/>
<stop offset="1" stop-color="#FFF6A8"/>
</radialGradient>
<radialGradient id="paint52_radial_239:653" cx="0" cy="0" r="1" gradientUnits="userSpaceOnUse" gradientTransform="translate(92.3303 29.4825) rotate(19.6514) scale(3.54628 3.61526)">
<stop stop-color="white"/>
<stop offset="0.685417" stop-color="#FFFAD3"/>
<stop offset="0.968627" stop-color="#FFF6A8"/>
<stop offset="1" stop-color="#FFF6A8"/>
</radialGradient>
<radialGradient id="paint53_radial_239:653" cx="0" cy="0" r="1" gradientUnits="userSpaceOnUse" gradientTransform="translate(47 21.5362) rotate(45.2757) scale(6.42151 6.54641)">
<stop stop-color="white"/>
<stop offset="0.0117647" stop-color="#FFFAD3"/>
<stop offset="0.968627" stop-color="#FFF6A8"/>
<stop offset="1" stop-color="#FFF6A8"/>
</radialGradient>
<radialGradient id="paint54_radial_239:653" cx="0" cy="0" r="1" gradientUnits="userSpaceOnUse" gradientTransform="translate(47.7926 21.893) rotate(45.2757) scale(3.54628 3.61526)">
<stop stop-color="white"/>
<stop offset="0.685417" stop-color="#FFFAD3"/>
<stop offset="0.968627" stop-color="#FFF6A8"/>
<stop offset="1" stop-color="#FFF6A8"/>
</radialGradient>
</defs>
</svg>
