<svg width="170" height="111" viewBox="0 0 170 111" fill="none" xmlns="http://www.w3.org/2000/svg">
<mask id="mask0_135:3646" style="mask-type:alpha" maskUnits="userSpaceOnUse" x="0" y="0" width="170" height="111">
<rect y="0.0167847" width="170" height="110" fill="#C4C4C4"/>
</mask>
<g mask="url(#mask0_135:3646)">
<path d="M58.1221 50.5734V50.2584C57.9646 49.6282 57.492 49.3132 57.0194 49.3132C56.7044 49.1557 56.2318 49.1557 55.7592 49.3132L55.4442 49.6282L55.2866 49.9433V50.4159V50.5734C55.4442 50.8885 55.6017 51.2035 55.9167 51.3611C56.0743 51.3611 56.2318 51.5186 56.2318 51.5186C56.7044 51.8337 57.177 51.8337 57.8071 51.5186L58.1221 51.2035L58.2797 50.7309L58.1221 50.5734Z" fill="white"/>
<path d="M85.3752 37.9706C85.3752 37.8131 85.5327 37.6555 85.5327 37.498L85.3752 37.0254L85.0601 36.5528C84.43 35.9227 83.6424 36.0802 83.3273 36.3953L83.0123 36.7104L82.8547 37.0254V37.6555C82.8547 37.8131 82.8547 38.1281 82.8547 38.4432C82.8547 38.7582 83.0123 38.9158 83.3273 39.2308H84.115L84.2725 39.0733V39.2308C84.43 39.2308 84.9026 39.2308 85.2177 38.7582C85.3752 38.4432 85.3752 38.2857 85.3752 37.9706Z" fill="white"/>
<path d="M46.9373 38.1309C46.9373 38.2884 47.0948 38.6035 47.2523 38.761L47.5674 39.0761L47.8824 39.2336L48.1975 39.3911C48.9851 39.3911 49.4577 38.9185 49.7728 38.1309V37.6583L49.6152 37.1857L49.3002 36.8707C49.1427 36.7131 48.8276 36.7131 48.6701 36.7131L48.5125 36.5556H47.8824C46.9373 36.8707 46.7797 37.6583 46.9373 38.2884V38.1309Z" fill="white"/>
<path d="M71.9841 3.47449L72.1417 2.84437L71.9841 2.21425L71.5116 1.74166L71.039 1.58414C70.8814 1.58414 70.4089 1.42661 69.9363 1.58414L69.6212 1.89919L69.4637 2.21425L69.3062 2.68684V2.84437C69.4637 3.15943 69.6212 3.47449 69.6212 3.47449L69.7787 3.78954L70.2513 4.1046H70.8814H71.354L71.8266 3.78954L71.9841 3.47449Z" fill="white"/>
<path d="M140.667 41.2786L140.51 40.9636L140.352 40.6485C140.195 40.491 140.037 40.3335 139.88 40.3335C139.565 40.1759 139.092 40.1759 138.777 40.491H138.619L138.147 40.806C137.989 41.1211 137.832 41.5937 137.989 42.0663C138.147 42.5389 138.462 42.8539 138.777 43.0115C139.25 43.169 139.722 43.169 140.037 42.8539L140.352 42.3813C140.51 42.2238 140.667 41.9087 140.667 41.5937V41.2786Z" fill="white"/>
<path d="M100.97 49.3172L100.655 49.1597C100.025 48.8447 99.5519 49.1597 99.2369 49.3172C98.9218 49.4748 98.6067 49.7898 98.4492 50.4199V50.8925L98.6067 51.2076L98.9218 51.5226H99.0793C99.3944 51.6802 99.867 51.6802 100.025 51.5226C100.182 51.5226 100.182 51.3651 100.34 51.2076C100.812 51.0501 101.285 50.5775 101.285 50.1049L101.127 49.6323L100.812 49.3172H100.97Z" fill="white"/>
<path d="M85.8469 83.0285L85.5318 82.7135C84.9017 82.3984 84.4291 82.7135 84.1141 83.0285C83.799 83.1861 83.4839 83.5011 83.3264 84.1312V84.6038L83.4839 84.9189L83.799 85.2339H83.9565C84.2716 85.3915 84.7442 85.3915 84.9017 85.2339C85.0592 85.2339 85.0592 85.0764 85.2168 84.9189C85.6894 84.7613 86.1619 84.4463 86.1619 83.8162L86.0044 83.3436L85.6894 83.0285H85.8469Z" fill="white"/>
<path d="M107.428 19.8584C107.428 19.7009 107.271 19.5434 107.113 19.5434L106.641 19.3858H106.01C105.065 19.5434 104.75 20.1735 104.75 20.6461L104.908 21.1186L105.065 21.4337L105.538 21.7488C105.695 21.9063 105.853 22.0638 106.168 22.2214C106.483 22.3789 106.798 22.3789 106.956 22.3789L107.586 21.7488V21.5912H107.743C107.901 21.4337 108.058 20.9611 107.901 20.4885C107.743 20.1735 107.586 20.0159 107.428 19.8584Z" fill="white"/>
<path d="M71.8265 9.77608L71.3539 9.14596L70.7238 8.8309H70.0937L69.6211 9.14596C69.4636 9.30349 69.1485 9.46102 68.991 10.0911V10.4062L69.1485 10.7213L69.4636 11.0363L69.6211 11.1938C69.9361 11.3514 70.2512 11.3514 70.2512 11.3514H70.5663L71.0388 11.1938L71.5114 10.7213L71.8265 10.2487V9.61855V9.77608Z" fill="white"/>
<path d="M152.285 16.7972V16.3246L152.128 15.8521L151.812 15.537L151.34 15.2219C150.71 15.2219 150.395 15.3795 149.922 15.537L149.45 16.0096L149.292 16.4822L149.45 17.1123C149.765 17.5849 150.395 17.8999 151.34 17.4273H151.655L151.97 17.1123L152.285 16.6397V16.7972Z" fill="white"/>
<path d="M3.45946 100.509C3.61699 100.667 3.93205 100.824 4.56217 100.824L5.03475 100.667L5.34981 100.352V100.037L5.50734 99.564V99.0914L5.34981 98.6188C5.19228 98.3037 4.7197 97.9887 3.93205 98.1462H3.61699L3.1444 98.4613L2.82935 98.9339C2.82935 99.2489 2.82935 99.7215 3.30193 100.194L3.45946 100.509Z" fill="white"/>
<path d="M31.6575 102.558C31.815 102.716 32.13 102.873 32.7602 102.873L33.2328 102.716L33.5478 102.401V102.243L33.7053 101.771V101.298L33.5478 100.826C33.3903 100.51 32.9177 100.195 32.13 100.353H31.815L31.3424 100.668L31.0273 101.141C31.0273 101.456 31.0273 101.928 31.4999 102.401L31.6575 102.558Z" fill="white"/>
<path d="M151.612 34.0597V34.2172C151.612 35.0048 152.242 35.4774 152.557 35.7925L153.187 35.95L153.66 35.7925L154.133 35.3199L154.448 35.1624L154.763 35.0048L154.92 34.6898C154.92 34.5322 154.92 34.3747 155.078 34.3747C155.078 34.3747 155.078 34.3747 155.078 34.2172C155.235 34.0597 155.393 33.7446 155.393 33.4295V33.1145C155.55 32.9569 155.708 32.6419 155.708 32.3268C155.708 31.8542 155.708 31.5392 155.393 31.2241L154.92 31.0666C154.763 30.9091 154.29 30.594 153.818 30.7515L153.345 30.9091L153.03 31.2241L152.872 31.6967C152.872 31.8542 152.872 32.1693 152.872 32.3268H152.557L152.085 32.6419V32.9569C151.927 33.1145 151.612 33.272 151.455 33.7446V33.9021L151.612 34.0597Z" fill="white"/>
<path d="M76.2373 3.31403C76.2373 2.99897 76.2373 2.52638 75.9222 2.21133L75.6071 1.89627L75.4496 1.73874C74.977 1.58121 74.0319 1.73874 73.7168 3.1565L73.8743 3.47156L73.7168 3.62909L73.8743 3.94415L74.1894 4.25921C74.662 4.41673 75.1346 4.41673 75.4496 4.25921C75.7647 4.10168 76.0797 3.62909 76.0797 3.31403H76.2373Z" fill="white"/>
<path d="M69.149 52.1522C69.3065 52.1522 69.6216 52.1522 69.9366 51.8371C70.0942 51.6796 70.0942 51.5221 70.2517 51.5221C70.5667 51.3645 70.7243 51.207 70.7243 50.892C70.7243 50.7344 70.7243 50.5769 70.7243 50.2618L70.5667 49.9468L70.4092 49.7892C70.2517 49.4742 69.7791 49.0016 68.9915 48.8441H68.6764L68.3613 49.0016L68.0463 49.3167C67.8888 49.6317 67.7312 49.9468 67.5737 50.4194C67.4162 51.0495 67.7312 51.6796 68.2038 52.1522L68.8339 52.3097L69.149 52.1522H69.3065H69.149Z" fill="white"/>
<path d="M78.4439 66.6421C78.6014 66.6421 78.9165 66.6421 79.2316 66.3271C79.3891 66.1696 79.3891 66.012 79.5466 66.012C79.8617 65.8545 79.8617 65.5394 80.0192 65.3819C80.0192 65.2244 80.0192 65.0669 80.0192 64.7518L79.8617 64.4367L79.7041 64.2792C79.5466 63.9641 79.074 63.4916 78.2864 63.334H77.9713L77.6563 63.4916L77.3412 63.8066C77.1837 64.1217 77.0261 64.4367 76.8686 64.9093C76.7111 65.5394 77.0261 66.1696 77.4987 66.6421L78.1288 66.7997L78.4439 66.6421H78.6014H78.4439Z" fill="white"/>
<path d="M121.764 15.6033L122.079 15.4457L122.236 15.1307C122.394 14.9732 122.551 14.8156 122.551 14.5006C122.551 14.343 122.551 14.343 122.551 14.028L122.394 13.7129C122.079 13.2403 121.764 12.9253 121.291 12.9253C120.661 12.9253 120.188 13.2403 119.716 13.7129L119.558 14.343L119.716 14.8156L120.031 15.2882C120.188 15.4457 120.503 15.7608 121.291 15.7608L121.606 15.6033H121.764Z" fill="white"/>
<path d="M147.441 50.5735L147.756 51.2037L148.229 51.0461L148.544 50.7311L148.859 50.2585L149.016 49.4708V49.1558L148.859 48.8407L148.701 48.5257C148.544 48.3681 147.914 47.8955 146.968 48.3681C146.023 48.3681 145.866 48.9983 145.866 49.3133C145.866 49.4708 145.866 49.6284 145.866 49.7859V50.2585L146.181 50.7311C146.811 51.2037 147.283 51.0461 147.599 51.0461L147.441 50.416V50.5735Z" fill="white"/>
<path d="M40.7944 4.10371L40.952 4.26124H41.267C42.0547 4.26124 42.6848 3.94618 43.1574 3.31607V2.68595L42.9999 2.21336L42.3697 1.74077L41.7396 1.58324V1.74077L41.4246 1.58324L40.7944 1.74077L40.3219 2.21336C40.3219 2.68595 40.1643 3.31607 40.4794 3.78865L40.6369 3.94618L40.7944 4.10371Z" fill="white"/>
<path d="M38.274 31.6689H37.8014L37.3288 31.8265L37.0138 32.1415L36.6987 32.6141C36.6987 33.2442 36.8563 33.5593 37.1713 34.0319L37.6439 34.5045L38.1165 34.662L38.7466 34.5045C39.2192 34.1894 39.5343 33.5593 39.0617 32.6141V32.2991L38.7466 31.984L38.274 31.6689Z" fill="white"/>
<path d="M37.9578 39.8644H38.1153C38.903 39.8644 39.3756 39.2343 39.6906 38.9192L39.8481 38.2891L39.6906 37.8165L39.218 37.344L39.0605 37.0289L38.903 36.7138L38.5879 36.5563C38.4304 36.5563 38.2729 36.5563 38.1153 36.3988C38.1153 36.3988 38.1153 36.3988 37.9578 36.3988C37.8003 36.2412 37.4852 36.0837 37.1701 36.0837H36.8551C36.6976 35.9262 36.3825 35.7687 36.0674 35.7687C35.5949 35.7687 35.2798 35.9262 34.9647 36.2412L34.8072 36.7138C34.6497 36.8714 34.3346 37.344 34.4922 37.8165L34.6497 38.2891L34.9647 38.6042L35.4373 38.7617C35.5949 38.7617 35.9099 38.7617 36.0674 38.7617V39.0768L36.3825 39.5494H36.6976C36.8551 39.7069 37.0126 40.022 37.4852 40.1795H37.6427L37.9578 39.8644Z" fill="white"/>
<path d="M140.982 7.7248L140.352 7.88233L140.037 8.19739C139.565 8.51245 139.407 8.8275 139.25 9.14256V9.45762L139.407 9.77268L139.565 10.0877C139.722 10.2453 140.037 10.4028 140.195 10.4028C140.825 10.5603 141.455 10.0877 141.612 9.45762C141.77 8.8275 141.455 8.19739 140.825 8.03986L140.982 7.7248Z" fill="white"/>
<path d="M64.1078 26.9438L63.9503 26.7863V26.6288L63.7927 26.3137L63.4777 26.1562L63.1626 25.9986C63.0051 25.9986 63.0051 25.9986 62.8476 25.9986L62.375 25.8411L61.9024 25.9986C61.5873 26.1562 61.4298 26.4712 61.4298 26.6288L61.2723 26.7863L61.1147 27.7315C61.1147 28.204 61.2723 28.5191 61.4298 28.8342V28.9917C61.5873 29.3068 61.9024 29.6218 62.2175 29.6218C62.5325 29.6218 63.0051 29.4643 63.1626 29.3068L63.3202 29.1492L63.6352 28.8342C63.7927 28.6766 63.7927 28.6766 63.9503 28.5191L64.1078 28.3616C64.2653 28.204 64.4229 27.889 64.4229 27.5739L64.1078 27.1013V26.9438Z" fill="white"/>
<path d="M48.3558 24.2685L48.0408 23.796C48.0408 23.6384 47.8833 23.3234 47.5682 23.0083C47.2531 22.8508 47.0956 22.6933 46.7806 22.6933C46.623 22.6933 46.4655 22.6933 46.308 22.6933C46.308 22.6933 46.1504 22.6933 45.9929 22.6933L45.5203 22.8508L45.2053 23.0083L44.8902 23.3234C44.7327 23.9535 44.8902 24.4261 45.0477 24.5836L45.3628 25.0562L45.8354 25.3712H45.9929C46.1504 25.5288 46.4655 25.6863 46.9381 25.8438H47.2531L47.7257 25.6863L48.0408 25.3712L48.1983 24.8987H48.0408L48.1983 24.2685H48.3558Z" fill="white"/>
<path d="M91.8333 34.1908L91.5182 34.0332L91.2032 33.8757C90.8881 33.8757 90.4155 33.8757 89.9429 34.6633C89.7854 35.6085 89.9429 35.9236 90.1005 36.0811L90.258 36.2386L90.5731 36.3962L90.8881 36.5537C91.2032 36.5537 91.6758 36.5537 91.9908 35.7661C91.9908 35.7661 92.3059 34.8209 91.9908 34.1908L91.8333 34.0332V34.1908Z" fill="white"/>
<path d="M70.7243 42.6986L71.3544 42.3835L71.1968 41.9109L70.8818 41.5959L70.4092 41.2808L69.6216 41.1233H69.3065L68.9914 41.2808L68.6764 41.4383C68.5188 41.5959 68.0463 42.226 68.5188 43.1712C68.5188 44.1163 69.149 44.2739 69.464 44.2739C69.6216 44.2739 69.7791 44.2739 69.9366 44.2739H70.4092L70.8818 43.9588C71.3544 43.3287 71.1968 42.8561 71.1968 42.541L70.5667 42.6986H70.7243Z" fill="white"/>
<path d="M94.0385 40.9651C93.881 40.8076 93.5659 40.6501 93.2509 40.6501H92.9358H92.6208L92.3057 40.8076L92.1482 40.9651C91.8331 41.2802 91.5181 41.7528 91.5181 42.8555L91.6756 43.1705C91.8331 43.3281 91.8331 43.3281 91.9907 43.4856L92.3057 43.9582L92.6208 44.1157L92.9358 44.2732C93.0934 44.2732 93.2509 44.2732 93.4084 44.2732L93.5659 44.4308C94.3536 44.4308 94.8262 44.2732 95.1412 43.8006L95.4563 43.6431L95.6138 43.3281L95.7714 43.013C95.7714 42.0678 95.1412 41.1226 94.1961 41.1226L94.0385 40.9651Z" fill="white"/>
<path d="M45.3618 23.9501L45.5193 24.1076L45.6769 24.2651C45.9919 24.7377 46.6221 24.8952 47.2522 24.5802L47.7248 24.4226L48.0398 24.1076L48.1973 23.635C48.1973 23.3199 48.0398 23.0049 47.8823 22.8474C47.5672 22.3748 46.9371 22.2172 46.4645 22.3748C45.9919 22.5323 45.5193 23.0049 45.5193 23.4775V23.9501H45.3618Z" fill="white"/>
<path d="M27.7189 51.8345L28.1915 52.1496H28.6641C29.6093 52.4647 30.0819 51.9921 30.3969 51.677V51.0469L30.0819 50.4168L29.9244 50.2592C29.7668 50.1017 29.6093 49.9442 29.2942 49.7867C29.1367 49.6291 28.9792 49.4716 28.6641 49.4716H28.3491L28.034 49.6291L27.7189 49.7867C27.5614 50.1017 26.9313 50.8894 27.5614 51.8345H27.7189Z" fill="white"/>
<path d="M41.5818 44.2758C41.5818 44.4333 41.4243 44.5908 41.4243 44.9059C41.4243 45.0634 41.5818 45.3785 41.5818 45.536C41.5818 45.851 41.5818 46.1661 41.7394 46.4812L41.8969 46.6387L42.212 46.7962H42.527H42.9996C43.1571 46.7962 43.6297 46.9537 44.1023 46.4812C44.5749 46.1661 44.7324 45.6935 44.89 45.2209C44.89 44.7483 44.7324 44.1182 44.4174 43.6456C43.9448 43.173 42.9996 42.7005 42.0544 43.3306L41.7394 43.6456L41.5818 44.1182V44.2758Z" fill="white"/>
<path d="M5.82274 22.2199L6.29533 22.3775H6.76792L7.24051 22.2199L7.08298 22.3775C7.24051 22.3775 7.87062 22.2199 8.34321 21.5898L8.50074 21.2748C8.50074 20.9597 8.50074 20.4871 8.18568 20.3296C7.87062 20.0145 7.55556 19.857 7.24051 19.857L6.76792 19.6995L5.98027 19.857C5.66521 20.1721 4.87757 21.1172 5.82274 22.2199Z" fill="white"/>
<path d="M56.2321 40.8081L56.0746 40.9656L55.9171 41.1232C55.602 41.5957 55.7596 42.2259 56.2321 42.6984L56.7047 43.0135L57.1773 43.171H57.6499C57.965 43.0135 58.1225 42.856 58.28 42.5409C58.4376 42.0683 58.4376 41.4382 58.1225 41.1232C57.8074 40.6506 57.1773 40.493 56.7047 40.6506L56.2321 40.8081Z" fill="white"/>
<path d="M23.4663 36.7128V37.1854L23.6238 37.6579C23.7814 38.6031 24.254 38.9182 24.8841 39.0757L25.5142 38.9182L25.9868 38.2881L26.1443 38.1305C26.3018 37.8155 26.3018 37.6579 26.3018 37.3429C26.3018 37.1854 26.3018 36.8703 26.3018 36.7128L26.1443 36.3977L25.8292 36.0827L25.5142 35.9251C25.1991 35.9251 24.254 35.7676 23.6238 36.5552L23.4663 36.7128Z" fill="white"/>
<path d="M36.2253 46.0047C36.0678 46.0047 35.7527 46.0047 35.4377 46.1622C35.2801 46.3197 35.1226 46.4773 34.9651 46.6348C34.65 46.7923 34.335 46.9498 34.335 47.2649V47.58V47.895L34.4925 48.2101L34.65 48.5251C34.65 48.6827 34.8075 49.1553 35.4377 49.4703C35.9103 49.7854 36.3828 49.7854 36.8554 49.6278C37.328 49.4703 37.8006 48.9977 38.1157 48.5251C38.4307 47.895 38.4307 46.9498 37.4855 46.1622L37.013 46.0047H36.5404H36.2253Z" fill="white"/>
<path d="M90.7304 26.1582L90.2578 26.3157C90.1003 26.4733 89.7852 26.6308 89.6277 26.9459C89.4701 27.2609 89.4701 27.576 89.6277 27.7335C89.7852 28.2061 90.2578 28.3636 90.4153 28.5212H90.8879L91.3605 28.3636L91.6755 28.0486L91.9906 27.4184V26.9459L91.8331 26.4733L91.3605 26.0007H91.0454H90.7304V26.1582Z" fill="white"/>
<path d="M40.7942 4.26343V4.73602L40.9517 5.20861L41.2668 5.52367L41.1092 5.36614C41.2668 5.52367 41.4243 5.99626 42.3695 6.15378H42.6845C42.9996 5.99626 43.3147 5.83873 43.4722 5.52367C43.6297 5.05108 43.6297 4.73602 43.4722 4.57849V4.1059L42.9996 3.47579C42.527 3.31826 41.4243 3.0032 40.7942 4.26343Z" fill="white"/>
<path d="M19.9998 18.2831L19.6848 18.4406L19.3697 18.7557L19.2122 19.0708C19.0546 19.3858 18.8971 19.8584 19.2122 20.6461L19.5272 20.9611C20.4724 21.4337 21.1025 21.2762 21.4176 20.9611L21.7326 20.4885V20.0159V19.7009C21.7326 18.5982 20.945 18.2831 20.4724 18.1256H19.9998V18.2831Z" fill="white"/>
<path d="M44.5749 94.8395L44.2599 94.997L43.9448 95.1545C43.7873 95.3121 43.6298 95.4696 43.4722 95.7846C43.4722 95.9422 43.4722 95.9422 43.3147 96.2572V96.5723C43.4722 97.0449 43.7873 97.5175 44.2599 97.675C44.7325 97.8325 45.5201 97.675 45.9927 97.3599L46.3078 96.8873V96.4148L46.1502 95.9422C45.9927 95.7846 45.8352 95.3121 45.205 95.1545H44.89L44.5749 94.8395Z" fill="white"/>
<path d="M140.195 41.5945C140.037 41.5945 139.722 41.5945 139.407 41.7521C139.25 41.9096 139.092 42.0671 138.935 42.0671C138.62 42.0671 138.305 42.3822 138.147 42.5397L137.99 42.8548V43.1698V43.4849L138.147 43.7999C138.147 43.9575 138.305 44.4301 138.777 44.7451C139.25 45.0602 139.722 45.0602 140.195 44.9026C140.667 44.7451 141.14 44.4301 141.455 43.9575C141.77 43.3273 141.77 42.3822 140.825 41.5945L140.352 41.437H139.88L140.195 41.5945Z" fill="white"/>
<path d="M100.34 18.2813V18.1238V17.6512L100.183 17.1786L99.8676 16.8635L99.5526 16.706H99.08L98.6074 16.8635C98.4499 16.8635 98.2924 17.0211 98.1348 17.1786L97.9773 17.8087L98.1348 18.1238H97.9773C98.1348 18.7539 98.4499 19.0689 98.7649 19.0689C98.9225 19.0689 99.3951 19.2265 99.8676 18.5964V18.4388C100.025 18.2813 100.025 18.2813 100.183 18.1238L100.34 18.2813Z" fill="white"/>
<path d="M57.9643 -1.09445C58.1218 -1.25198 58.1218 -1.56704 58.2794 -1.72457V-2.03963L58.1218 -2.35469L57.9643 -2.66975C57.3342 -3.14233 56.7041 -3.29986 55.9164 -2.66975L55.6014 -2.35469L55.4438 -2.03963V-1.56704C55.4438 -1.25198 55.6014 -1.09445 55.7589 -0.936925V-0.779396L56.2315 -0.306808C57.1767 0.16578 57.8068 -0.306808 58.1218 -0.936925L57.9643 -1.09445Z" fill="white"/>
<path d="M125.703 13.0848L125.388 13.2423L125.073 13.5574L124.915 13.8724C124.758 14.0299 124.443 14.6601 124.758 15.4477L125.073 15.7628C126.018 16.3929 126.648 16.0778 126.963 15.9203L127.278 15.6052L127.436 15.1327V14.8176C127.436 13.7149 126.805 13.2423 126.175 13.0848H125.703Z" fill="white"/>
<path d="M15.9049 6.78159L15.2748 7.09665L14.9597 7.72677V8.35688L15.2748 8.82947C15.2748 8.987 15.5898 9.30206 16.0624 9.45959H16.3775L16.6925 9.30206L17.0076 8.987L17.1651 8.82947C17.3227 8.51441 17.3227 8.19935 17.3227 8.19935V7.8843L17.1651 7.41171L16.6925 6.93912L16.3775 6.62406H15.7474L15.9049 6.78159Z" fill="white"/>
<path d="M54.0266 39.864C54.6567 40.0215 55.4444 39.864 56.0745 38.7613L56.232 37.8161L56.0745 37.0284L55.2868 36.3983H55.1293C54.3416 36.2408 53.7115 36.5559 53.2389 37.3435L52.7664 38.2887L52.9239 39.0763L53.8691 40.0215L54.0266 39.864Z" fill="white"/>
<path d="M29.1371 5.52134H28.9795L28.3494 5.67887L27.8768 5.99393L27.5618 6.62405V7.09664L27.7193 7.72675L28.1919 8.35687C28.1919 8.5144 28.5069 8.67193 28.822 8.82946L29.7672 8.67193L30.2398 8.35687L30.3973 8.5144C31.3425 8.04181 31.3425 7.4117 31.3425 6.93911C31.3425 6.62405 31.1849 5.8364 30.2398 5.52134H30.0822C29.9247 5.52134 29.7672 5.36382 29.4521 5.36382L29.1371 5.52134Z" fill="white"/>
<path d="M76.2386 11.667C76.5537 11.5094 77.0262 11.1944 77.1838 10.4067V9.61909L76.8687 8.98898L76.5537 8.83145L76.0811 8.35886L75.451 8.0438H74.8208C74.3483 8.20133 73.5606 8.67392 73.5606 9.77662L73.4031 10.2492L73.5606 11.0369L74.1907 11.667C74.5058 11.8245 75.2934 12.1396 76.0811 11.667H76.2386Z" fill="white"/>
<path d="M118.928 28.8382L118.771 28.5232L118.456 28.2081C118.298 28.0506 118.141 28.0506 117.983 27.893C116.881 27.2629 116.093 27.578 115.778 27.7355C114.99 28.0506 114.518 28.8382 114.36 29.9409V30.571L114.518 31.0436L114.99 31.6737C115.148 31.8313 115.463 32.3039 115.935 32.4614L116.408 32.6189H116.881L117.353 32.4614C118.771 31.5162 118.771 30.4135 118.771 29.3108L118.613 28.8382H118.928Z" fill="white"/>
<path d="M132.633 5.51953C132.476 5.362 132.318 5.362 132.161 5.20448H131.531L130.901 5.362L130.428 5.83459L129.955 6.77977L129.798 7.40988L129.955 7.88247L130.27 8.51259C130.585 8.82765 130.901 9.14271 131.216 9.30024C131.846 9.61529 132.318 9.61529 133.263 9.30024L133.736 8.82765C134.209 8.04 134.209 7.40988 134.209 6.9373C133.894 5.99212 133.106 5.362 132.791 5.20448L132.633 5.51953Z" fill="white"/>
<path d="M102.23 30.095L101.915 29.6225L101.442 29.1499L100.97 28.8348H100.182L99.552 29.1499L98.9219 29.78C98.2918 31.0402 98.7643 31.8279 99.2369 32.1429L99.867 32.3005H100.497C101.442 32.3005 102.23 31.6703 102.388 30.7252L102.23 30.095Z" fill="white"/>
<path d="M148.071 42.2254C148.229 41.4378 147.914 40.8076 147.441 40.6501C147.283 40.3351 147.126 40.02 146.653 39.8625C146.181 39.7049 145.708 39.5474 145.393 39.7049L145.078 39.8625L144.763 40.1775L144.29 40.6501C144.133 40.8076 143.66 41.1227 143.503 41.5953L143.345 42.2254L143.503 42.8555L143.66 43.3281L143.975 43.8007L144.448 44.1158C145.866 44.7459 147.126 44.5884 148.071 43.4856L148.229 42.5405L148.071 42.2254Z" fill="white"/>
<path d="M12.438 73.7308C12.5956 72.9432 12.2805 72.3131 11.8079 72.1556C11.6504 71.8405 11.4929 71.5254 11.0203 71.3679C10.5477 71.2104 10.0751 71.0528 9.76004 71.2104L9.44498 71.3679L9.12992 71.683L8.65733 72.1556C8.4998 72.3131 8.02722 72.6281 7.86969 73.1007L7.71216 73.7308L7.86969 74.361L8.02722 74.8335L8.34228 75.3061L8.81486 75.6212C10.2326 76.2513 11.4929 76.0938 12.438 74.9911L12.5956 74.0459L12.438 73.7308Z" fill="white"/>
<path d="M37.328 4.42009V4.10504L37.0129 3.47492L36.5403 3.00233C36.3828 2.52974 36.0677 2.05716 35.5951 1.7421C35.2801 1.58457 34.8075 1.42704 34.3349 1.58457L33.5473 1.7421C33.3897 1.7421 33.3897 1.89963 33.2322 1.89963C32.7596 1.89963 32.4446 2.21469 32.1295 2.52974L31.8144 3.31739V3.63245C31.6569 3.78998 31.4994 3.94751 31.3419 4.26257L31.1843 4.89268V5.5228L31.4994 6.31045C31.8144 6.78303 32.287 7.41315 33.2322 7.88574L33.5473 8.04327H34.1774L34.65 7.88574L35.1226 7.57068C35.2801 7.41315 35.2801 7.41315 35.4376 7.25562C35.7527 7.25562 35.9102 7.09809 36.0677 7.09809H36.2253L36.6978 6.94056L37.1704 6.46797C37.643 5.5228 37.328 4.73515 37.1704 4.26257L37.328 4.42009Z" fill="white"/>
<path d="M52.9233 28.8382C52.2932 28.5231 51.5056 28.6807 51.033 29.3108C50.5604 29.9409 50.4029 30.8861 51.1905 31.8312L52.1357 32.1463L52.9233 31.9888L53.711 31.2011C54.026 29.6258 53.3959 28.9957 52.9233 28.8382Z" fill="white"/>
<path d="M68.3609 15.2861L68.2034 14.4984L67.8883 14.0259L67.4157 13.7108C67.2582 13.5533 67.1007 13.2382 66.6281 12.9231L65.9979 12.7656H65.3678L64.5802 13.2382C63.9501 13.7108 63.7925 14.1834 63.635 14.8135V15.2861L63.7925 15.7587L64.2651 16.3888C64.4227 16.7038 64.7377 17.0189 65.2103 17.1764C65.8404 17.4915 66.6281 17.4915 67.2582 17.0189L67.7308 16.2313V15.9162H67.8883C68.0458 15.6011 68.2034 15.2861 68.3609 14.971V15.2861Z" fill="white"/>
<path d="M35.4382 62.3883C35.1232 62.7034 34.8081 63.0184 34.8081 63.8061L34.9656 64.4362L35.4382 64.9088L35.7533 65.0663L36.3834 65.3814L37.0135 65.5389L37.6436 65.3814C38.1162 65.0663 38.7463 64.5937 38.5888 63.491V63.0184L38.2737 62.3883L37.4861 61.9157C37.0135 61.9157 36.2259 61.7582 35.5958 62.3883H35.4382Z" fill="white"/>
<path d="M156.105 56.7166L156.893 56.5591L157.523 56.244L157.995 55.6139C157.995 55.7714 157.838 55.929 157.838 55.929C157.995 55.7714 158.625 55.2989 158.625 54.0386L158.468 53.566C158.153 53.0934 157.838 52.7784 157.365 52.6209C156.735 52.4633 156.105 52.6209 155.947 52.7784V52.9359L155.317 53.0934L154.53 53.8811C154.53 54.5112 154.372 56.244 156.262 56.8741L156.105 56.7166Z" fill="white"/>
<path d="M136.572 31.1998L137.202 31.5148H137.832L138.462 31.1998C139.565 29.9396 139.565 28.8368 139.407 28.2067L139.092 28.0492V27.8917C138.935 27.5766 138.619 26.789 137.674 26.4739H137.517L136.729 26.6314L136.257 26.9465C135.784 27.104 135.311 27.4191 135.154 28.0492V28.5218C135.311 29.782 136.099 30.5697 136.572 31.1998Z" fill="white"/>
<path d="M36.2253 4.10371H36.8555L37.4856 3.78865L37.9582 3.31606C38.2732 2.52842 38.2732 1.8983 37.9582 1.42571C37.8006 1.11065 37.4856 0.638064 36.6979 0.323006H36.2253L35.5952 0.480535L35.1226 0.795593L34.8076 1.42571C34.4925 2.68594 35.1226 3.63112 36.3829 4.10371H36.2253Z" fill="white"/>
<path d="M88.053 33.2482L87.4229 33.8783V34.0358C87.2654 34.1934 86.7928 34.6659 86.6353 35.4536C86.6353 35.7687 86.6353 36.3988 86.9503 36.7138L87.2654 37.3439L87.8955 37.9741C88.5256 38.1316 88.8407 37.9741 88.9982 37.9741L89.4708 37.8165H89.6283L90.2584 37.659L90.731 37.1864C91.0461 36.5563 91.0461 35.7687 90.731 34.981C90.416 34.1934 89.7858 33.7208 88.9982 33.4057C88.6831 33.2482 88.3681 33.2482 88.053 33.4057V33.2482Z" fill="white"/>
<path d="M54.4985 40.6488C55.1286 40.8063 55.9163 40.4913 56.2313 39.8611C56.5464 39.231 56.5464 38.1283 55.4437 37.3407L54.4985 37.1831L53.7109 37.4982L53.2383 38.2858C53.2383 39.8611 54.0259 40.3337 54.4985 40.4913V40.6488Z" fill="white"/>
<path d="M36.2252 54.3542L36.8553 54.9844C37.1704 55.1419 37.4854 55.4569 37.958 55.6145C38.7457 55.772 39.3758 55.6145 39.8484 55.1419L40.0059 54.6693C40.4785 54.1967 40.4785 53.5666 40.4785 53.094L40.321 52.7789L39.8484 52.3064C39.6909 52.1488 39.3758 51.6762 38.5882 51.5187H38.4306L37.643 51.6762L37.0129 52.1488L36.6978 52.6214C36.5403 52.7789 36.3827 52.9365 36.0677 53.2515L35.9102 54.0392L36.0677 54.6693L36.2252 54.3542Z" fill="white"/>
<path d="M42.3691 57.1887L42.6841 57.8189L43.1567 58.2914L43.6293 58.449C43.7868 58.6065 44.1019 58.9216 44.5745 59.0791H45.2046L45.6772 58.9216L46.3073 58.2914C46.7799 57.6613 46.9374 57.1887 46.9374 56.5586L46.7799 56.086L46.4648 55.6134L45.8347 55.1409C45.5197 54.9833 45.2046 54.6683 44.732 54.5107C43.9444 54.3532 43.3142 54.5107 42.6841 55.1409L42.3691 56.086V56.4011H42.2115C42.054 56.7161 41.8965 57.0312 41.8965 57.5038L42.3691 57.1887Z" fill="white"/>
<path d="M64.8959 35.1392L64.5808 34.9817H64.1082C63.7932 34.9817 63.6357 34.9817 63.3206 35.1392C62.6905 35.4543 62.3754 35.9269 62.2179 36.557L62.0604 36.8721L61.9028 37.6597C62.0604 38.2898 62.3754 38.7624 63.0055 39.0775C63.6357 39.3925 64.2658 39.3925 64.7384 39.235C65.3685 38.92 65.6835 38.4474 65.8411 37.8172L65.526 37.0296C65.526 36.7145 65.3685 36.242 65.0534 35.7694L64.7384 35.4543L64.8959 35.1392Z" fill="white"/>
<path d="M48.1981 70.7391L47.8831 70.5816H47.4105C47.0954 70.5816 46.9379 70.5816 46.6228 70.7391C45.9927 71.0542 45.6777 71.5268 45.5201 72.1569L45.3626 72.472L45.2051 73.2596C45.3626 73.8897 45.6777 74.3623 46.3078 74.6774C46.9379 74.9924 47.568 74.9924 48.0406 74.8349C48.6707 74.5198 48.9858 74.0472 49.1433 73.4171L48.8283 72.6295C48.8283 72.3144 48.6707 71.8418 48.3557 71.3693L48.0406 71.0542L48.1981 70.7391Z" fill="white"/>
<path d="M17.0065 87.9088L16.6914 87.7513H16.2188C15.9038 87.7513 15.7462 87.7513 15.4312 87.9088C14.8011 88.2239 14.486 88.6965 14.3285 89.1691L14.171 89.4841L14.0134 90.2718C14.171 90.9019 14.486 91.3745 15.1161 91.6895C15.7462 92.0046 16.3764 92.0046 16.849 91.8471C17.4791 91.532 17.7941 91.0594 17.9517 90.4293L17.6366 89.6417C17.6366 89.3266 17.4791 88.854 17.164 88.3814L16.849 88.0664L17.0065 87.9088Z" fill="white"/>
<path d="M144.605 25.3712L145.078 24.8987L145.235 24.5836V23.9535L144.92 23.3234C144.92 23.1658 144.763 22.8508 144.29 22.6933H143.345L142.557 23.0083L142.085 23.6384C141.927 23.9535 141.77 24.5836 142.085 25.2137C142.4 25.6863 142.715 26.0014 143.345 26.0014L143.975 25.8438L144.448 25.5288L144.605 25.3712Z" fill="white"/>
<path d="M102.23 20.0161L102.545 19.701L102.86 19.386C103.018 19.2284 103.018 19.0709 103.018 18.9134C103.49 17.8107 103.175 17.023 102.86 16.708C102.388 16.0778 101.6 15.6053 100.497 15.6053L99.8671 15.7628L99.3945 16.0778L98.9219 16.708C98.7644 16.8655 98.4493 17.1805 98.1343 17.6531V18.1257V18.5983L98.2918 19.0709C99.3945 20.3311 100.497 20.3311 101.6 20.0161L101.915 19.8585L102.23 20.0161Z" fill="white"/>
<path d="M100.207 5.40974L100.68 5.09468L100.995 4.6221L101.152 3.99198V3.20433L100.837 2.57422L100.05 2.10163C98.7895 1.62904 98.0018 2.25916 97.8443 2.57422L97.6868 3.20433V3.83445C97.8443 4.77962 98.4744 5.40974 99.5771 5.40974L100.207 5.25221V5.40974Z" fill="white"/>
<path d="M21.417 10.2472H21.5745V10.4048C22.5197 10.5623 23.1498 10.0897 23.4649 9.6171L23.78 9.30205L23.9375 8.98699C24.095 8.67193 24.4101 7.72675 23.9375 6.78158C23.6224 6.15146 22.9923 5.67887 21.8896 5.36382L21.102 5.52134L20.6294 5.8364C19.9993 5.99393 19.6842 6.46652 19.5267 6.78158C19.3691 6.93911 19.3691 7.25417 19.3691 7.4117C19.3691 7.4117 19.2116 7.56922 19.2116 7.72675C19.0541 8.04181 18.8966 8.82946 19.8417 9.6171L20.3143 9.77463L21.102 10.0897L21.417 10.2472Z" fill="white"/>
<path d="M25.3558 54.5142C25.6709 54.3567 26.1435 54.1991 26.301 53.7265C26.7736 53.569 27.0887 53.0964 27.2462 52.6238C27.5612 51.6787 27.2462 50.7335 26.9311 49.9458L26.6161 49.4733L26.301 49.1582C25.3558 48.6856 24.4107 48.5281 23.623 48.8431C23.1504 49.0007 22.3628 49.4733 21.8902 50.7335C21.8902 50.891 21.7327 51.2061 21.7327 51.3636V51.9937L21.8902 52.4663L22.2053 52.9389C22.2053 52.9389 22.3628 53.254 22.5203 53.254C22.8354 53.7265 23.623 54.9868 25.0408 54.5142H25.3558Z" fill="white"/>
<path d="M47.0949 105.236C46.9373 105.866 46.7798 106.338 46.9373 106.968L47.0949 107.441L47.4099 107.756L47.8825 108.071C49.9304 108.859 50.5605 107.599 50.8756 107.126L51.0331 106.653L50.8756 105.866L50.5605 105.393L50.0879 105.078C49.9304 104.921 49.6153 104.605 49.1427 104.448H48.5126L47.8825 104.605L47.4099 105.078C47.4099 105.236 47.2524 105.393 47.2524 105.551L47.0949 105.236Z" fill="white"/>
<path d="M54.971 10.5623L55.286 10.2472L55.4435 9.77465V9.61712H55.6011C55.9161 8.82947 55.7586 8.35688 55.6011 8.04182C55.6011 7.72677 55.4435 7.41171 55.286 7.25418L54.971 6.93912L54.4984 6.78159H54.1833C53.2381 6.46653 52.608 6.62406 51.9779 7.25418L51.8204 7.56924C51.5053 8.51441 51.6628 9.61712 52.293 10.2472C52.9231 10.8774 54.0258 11.0349 54.971 10.7198L55.286 10.4048L54.971 10.5623Z" fill="white"/>
<path d="M92.6211 50.5749C93.4087 50.5749 93.8813 50.2599 94.1964 49.7873C94.5115 49.6297 94.669 49.3147 94.8265 48.9996C94.984 48.527 94.984 48.0544 94.8265 47.7394L94.5115 47.4243L94.1964 47.2668L93.7238 46.9517C93.5663 46.7942 93.2512 46.4792 92.7786 46.1641H92.1485L91.5184 46.3216L91.0458 46.4792L90.5732 46.7942L90.2582 47.2668C89.7856 48.6846 90.2582 50.1023 91.3609 50.89H92.306L92.6211 50.7324V50.5749Z" fill="white"/>
<path d="M94.0381 63.4909C94.8257 63.4909 95.2983 63.1758 95.6134 62.7033C95.9284 62.5457 96.086 62.2307 96.2435 61.9156C96.401 61.443 96.401 60.9704 96.2435 60.6554L95.9284 60.3403L95.6134 60.1828L95.1408 59.8677C94.9833 59.7102 94.6682 59.3951 94.1956 59.0801H93.5655L92.9354 59.2376L92.4628 59.3951L91.9902 59.7102L91.6752 60.1828C91.2026 61.6005 91.6752 62.8608 92.7779 63.806L93.723 63.9635L94.0381 63.806V63.4909Z" fill="white"/>
<path d="M36.8555 88.2267H37.1706L37.8007 87.9116L38.2733 87.439C38.7459 87.2815 39.2185 86.8089 39.376 86.3363C39.5335 85.8638 39.5335 85.5487 39.376 85.0761L39.2185 84.2885C39.2185 84.1309 39.0609 84.1309 38.9034 83.9734C38.7459 83.5008 38.5883 83.1858 38.1158 82.8707L37.3281 82.5556H37.0131C36.8555 82.3981 36.5405 82.3981 36.3829 82.2406L35.7528 82.0831H35.1227L34.3351 82.5556C34.02 82.8707 33.3899 83.5008 32.9173 84.446L32.7598 84.7611V85.3912L32.9173 85.8638L33.2324 86.3363C33.3899 86.4939 33.3899 86.4939 33.5474 86.4939C33.5474 86.8089 33.7049 86.9665 33.7049 87.124V87.2815L34.02 87.7541L34.4926 88.2267C35.4378 88.5418 36.2254 88.2267 36.698 88.0692L36.8555 88.2267Z" fill="white"/>
</g>
</svg>
