<svg width="555" height="622" viewBox="0 0 555 622" fill="none" xmlns="http://www.w3.org/2000/svg">
<mask id="path-1-inside-1_308_968" fill="white">
<path d="M426.825 144.349C425.69 143.043 423.76 142.93 422.455 144.065L414.338 151.104L411.102 150.877L414.508 147.925C415.813 146.79 415.927 144.803 414.792 143.554C413.656 142.249 411.726 142.135 410.421 143.27L402.304 150.309L395.889 149.855L399.465 144.519L410.023 142.476C411.726 142.135 412.805 140.546 412.464 138.843C412.124 137.14 410.478 136.062 408.831 136.402L404.404 137.254L406.22 134.586L416.722 132.542C418.424 132.202 419.503 130.555 419.162 128.909C418.822 127.206 417.232 126.128 415.53 126.468L411.102 127.32L414.224 122.722C415.189 121.303 414.792 119.373 413.373 118.408C411.953 117.443 410.023 117.84 409.058 119.26L405.937 123.857L405.085 119.43C404.744 117.727 403.155 116.648 401.452 116.989C399.749 117.33 398.671 118.976 399.011 120.622L401.055 131.123L399.238 133.848L398.387 129.42C398.046 127.717 396.457 126.639 394.754 126.979C393.051 127.32 391.973 128.966 392.313 130.612L394.357 141.113L390.781 146.449L387.942 140.659L391.462 130.499C392.029 128.853 391.178 127.093 389.532 126.525C387.886 125.958 386.126 126.809 385.558 128.455L384.083 132.712L382.663 129.818L386.126 119.657C386.694 118.067 385.842 116.251 384.196 115.683C382.55 115.116 380.79 115.967 380.223 117.613L378.747 121.871L376.306 116.875C375.568 115.343 373.695 114.662 372.162 115.456C370.63 116.194 370.005 118.067 370.743 119.6L373.184 124.595L368.927 123.119C367.281 122.552 365.521 123.403 364.953 125.049C364.386 126.639 365.237 128.455 366.883 129.023L377.044 132.542L378.463 135.437L374.206 133.961C372.56 133.394 370.8 134.245 370.232 135.891C369.665 137.481 370.516 139.297 372.162 139.865L382.323 143.327L385.161 149.117L378.747 148.663L371.708 140.546C370.573 139.24 368.643 139.127 367.337 140.262C366.032 141.397 365.918 143.384 367.054 144.633L370.005 148.039L366.77 147.812L359.731 139.694C358.596 138.389 356.666 138.275 355.36 139.354C354.055 140.489 353.941 142.476 355.076 143.725L358.028 147.13L352.465 146.733C350.762 146.62 349.287 147.925 349.116 149.628C349.003 151.331 350.308 152.864 352.011 152.977L357.574 153.374L354.168 156.326C352.863 157.461 352.749 159.391 353.884 160.697C355.02 162.002 356.95 162.116 358.255 160.981L366.372 153.942L369.608 154.169L366.202 157.121C364.897 158.256 364.783 160.186 365.918 161.492C367.054 162.797 368.983 162.911 370.289 161.775L378.406 154.737L384.82 155.191L381.244 160.527L370.686 162.57C368.983 162.911 367.905 164.557 368.246 166.203C368.586 167.906 370.232 168.984 371.878 168.644L376.306 167.792L374.49 170.46L363.988 172.504C362.285 172.844 361.207 174.434 361.547 176.137C361.888 177.839 363.477 178.918 365.18 178.577L369.608 177.726L366.486 182.324C365.521 183.743 365.918 185.673 367.337 186.638C368.756 187.603 370.686 187.205 371.651 185.786L374.773 181.188L375.625 185.616C375.965 187.319 377.612 188.397 379.258 188.057C380.961 187.716 382.039 186.07 381.755 184.424L379.712 173.923L381.528 171.255L382.38 175.682C382.72 177.385 384.31 178.464 386.013 178.18C387.715 177.839 388.794 176.193 388.453 174.547L386.41 163.989L389.986 158.653L392.824 164.443L389.305 174.604C388.737 176.25 389.645 178.01 391.235 178.577C392.881 179.145 394.641 178.237 395.208 176.647L396.684 172.39L398.103 175.285L394.584 185.446C394.016 187.092 394.868 188.852 396.514 189.419C398.16 189.987 399.92 189.135 400.487 187.489L401.963 183.232L404.404 188.227C405.142 189.76 407.015 190.441 408.548 189.646C410.08 188.908 410.761 187.035 409.967 185.503L407.526 180.507L411.783 181.983C413.429 182.551 415.189 181.699 415.757 180.053C416.324 178.407 415.473 176.647 413.827 176.08L403.666 172.56L402.247 169.665L406.504 171.141C408.15 171.709 409.91 170.801 410.478 169.211C411.045 167.565 410.137 165.806 408.548 165.238L398.387 161.719L395.549 155.929L401.963 156.383L409.002 164.5C410.137 165.806 412.124 165.976 413.373 164.841C414.678 163.705 414.792 161.719 413.656 160.47L410.705 157.064L413.94 157.291L420.979 165.408C422.114 166.714 424.044 166.827 425.35 165.692C426.655 164.557 426.769 162.627 425.633 161.321L422.682 157.915L428.245 158.313C429.947 158.426 431.423 157.178 431.594 155.418C431.707 153.715 430.402 152.239 428.699 152.069L423.136 151.671L426.542 148.72C427.847 147.584 427.961 145.655 426.882 144.349H426.825Z"/>
</mask>
<path d="M426.825 144.349C425.69 143.043 423.76 142.93 422.455 144.065L414.338 151.104L411.102 150.877L414.508 147.925C415.813 146.79 415.927 144.803 414.792 143.554C413.656 142.249 411.726 142.135 410.421 143.27L402.304 150.309L395.889 149.855L399.465 144.519L410.023 142.476C411.726 142.135 412.805 140.546 412.464 138.843C412.124 137.14 410.478 136.062 408.831 136.402L404.404 137.254L406.22 134.586L416.722 132.542C418.424 132.202 419.503 130.555 419.162 128.909C418.822 127.206 417.232 126.128 415.53 126.468L411.102 127.32L414.224 122.722C415.189 121.303 414.792 119.373 413.373 118.408C411.953 117.443 410.023 117.84 409.058 119.26L405.937 123.857L405.085 119.43C404.744 117.727 403.155 116.648 401.452 116.989C399.749 117.33 398.671 118.976 399.011 120.622L401.055 131.123L399.238 133.848L398.387 129.42C398.046 127.717 396.457 126.639 394.754 126.979C393.051 127.32 391.973 128.966 392.313 130.612L394.357 141.113L390.781 146.449L387.942 140.659L391.462 130.499C392.029 128.853 391.178 127.093 389.532 126.525C387.886 125.958 386.126 126.809 385.558 128.455L384.083 132.712L382.663 129.818L386.126 119.657C386.694 118.067 385.842 116.251 384.196 115.683C382.55 115.116 380.79 115.967 380.223 117.613L378.747 121.871L376.306 116.875C375.568 115.343 373.695 114.662 372.162 115.456C370.63 116.194 370.005 118.067 370.743 119.6L373.184 124.595L368.927 123.119C367.281 122.552 365.521 123.403 364.953 125.049C364.386 126.639 365.237 128.455 366.883 129.023L377.044 132.542L378.463 135.437L374.206 133.961C372.56 133.394 370.8 134.245 370.232 135.891C369.665 137.481 370.516 139.297 372.162 139.865L382.323 143.327L385.161 149.117L378.747 148.663L371.708 140.546C370.573 139.24 368.643 139.127 367.337 140.262C366.032 141.397 365.918 143.384 367.054 144.633L370.005 148.039L366.77 147.812L359.731 139.694C358.596 138.389 356.666 138.275 355.36 139.354C354.055 140.489 353.941 142.476 355.076 143.725L358.028 147.13L352.465 146.733C350.762 146.62 349.287 147.925 349.116 149.628C349.003 151.331 350.308 152.864 352.011 152.977L357.574 153.374L354.168 156.326C352.863 157.461 352.749 159.391 353.884 160.697C355.02 162.002 356.95 162.116 358.255 160.981L366.372 153.942L369.608 154.169L366.202 157.121C364.897 158.256 364.783 160.186 365.918 161.492C367.054 162.797 368.983 162.911 370.289 161.775L378.406 154.737L384.82 155.191L381.244 160.527L370.686 162.57C368.983 162.911 367.905 164.557 368.246 166.203C368.586 167.906 370.232 168.984 371.878 168.644L376.306 167.792L374.49 170.46L363.988 172.504C362.285 172.844 361.207 174.434 361.547 176.137C361.888 177.839 363.477 178.918 365.18 178.577L369.608 177.726L366.486 182.324C365.521 183.743 365.918 185.673 367.337 186.638C368.756 187.603 370.686 187.205 371.651 185.786L374.773 181.188L375.625 185.616C375.965 187.319 377.612 188.397 379.258 188.057C380.961 187.716 382.039 186.07 381.755 184.424L379.712 173.923L381.528 171.255L382.38 175.682C382.72 177.385 384.31 178.464 386.013 178.18C387.715 177.839 388.794 176.193 388.453 174.547L386.41 163.989L389.986 158.653L392.824 164.443L389.305 174.604C388.737 176.25 389.645 178.01 391.235 178.577C392.881 179.145 394.641 178.237 395.208 176.647L396.684 172.39L398.103 175.285L394.584 185.446C394.016 187.092 394.868 188.852 396.514 189.419C398.16 189.987 399.92 189.135 400.487 187.489L401.963 183.232L404.404 188.227C405.142 189.76 407.015 190.441 408.548 189.646C410.08 188.908 410.761 187.035 409.967 185.503L407.526 180.507L411.783 181.983C413.429 182.551 415.189 181.699 415.757 180.053C416.324 178.407 415.473 176.647 413.827 176.08L403.666 172.56L402.247 169.665L406.504 171.141C408.15 171.709 409.91 170.801 410.478 169.211C411.045 167.565 410.137 165.806 408.548 165.238L398.387 161.719L395.549 155.929L401.963 156.383L409.002 164.5C410.137 165.806 412.124 165.976 413.373 164.841C414.678 163.705 414.792 161.719 413.656 160.47L410.705 157.064L413.94 157.291L420.979 165.408C422.114 166.714 424.044 166.827 425.35 165.692C426.655 164.557 426.769 162.627 425.633 161.321L422.682 157.915L428.245 158.313C429.947 158.426 431.423 157.178 431.594 155.418C431.707 153.715 430.402 152.239 428.699 152.069L423.136 151.671L426.542 148.72C427.847 147.584 427.961 145.655 426.882 144.349H426.825Z" fill="white" stroke="#007266" stroke-width="4" mask="url(#path-1-inside-1_308_968)"/>
<mask id="path-2-inside-2_308_968" fill="white">
<path d="M340.213 218.696C339.176 218.417 338.142 219.026 337.862 220.063L336.116 226.502L334.37 227.505L335.103 224.804C335.383 223.767 334.753 222.704 333.736 222.454C332.699 222.174 331.665 222.784 331.385 223.821L329.639 230.259L326.176 232.246L326.172 228.258L330.905 223.549C331.665 222.784 331.67 221.591 330.905 220.832C330.14 220.072 328.918 220.086 328.188 220.832L326.201 222.804L326.213 220.8L330.917 216.11C331.677 215.345 331.663 214.123 330.917 213.393C330.152 212.633 328.959 212.628 328.2 213.393L326.213 215.365L326.23 211.914C326.236 210.849 325.363 209.992 324.297 209.986C323.232 209.98 322.375 210.853 322.369 211.919L322.352 215.369L320.38 213.382C319.615 212.623 318.422 212.617 317.662 213.382C316.903 214.147 316.917 215.369 317.663 216.1L322.352 220.804L322.359 222.837L320.387 220.85C319.622 220.09 318.43 220.085 317.67 220.85C316.91 221.615 316.925 222.837 317.67 223.568L322.36 228.272L322.364 232.26L318.897 230.259L317.192 223.804C316.914 222.759 315.866 222.147 314.821 222.425C313.777 222.702 313.165 223.75 313.442 224.795L314.156 227.5L312.422 226.5L310.688 220.064C310.43 219.049 309.362 218.407 308.317 218.685C307.273 218.962 306.661 220.01 306.938 221.055L307.652 223.76L304.664 222.031C303.753 221.497 302.552 221.795 302.037 222.735C301.503 223.646 301.83 224.827 302.741 225.362L305.728 227.091L303.023 227.804C301.978 228.082 301.366 229.13 301.644 230.175C301.902 231.191 302.969 231.832 304.014 231.554L310.469 229.85L312.203 230.85L309.498 231.564C308.453 231.841 307.841 232.889 308.119 233.934C308.376 234.95 309.444 235.591 310.489 235.314L316.924 233.58L320.392 235.581L316.929 237.568L310.491 235.822C309.454 235.542 308.42 236.152 308.14 237.189C307.86 238.226 308.49 239.29 309.507 239.54L312.208 240.273L310.462 241.276L304.024 239.531C302.987 239.251 301.953 239.861 301.653 240.869C301.374 241.906 302.003 242.969 303.02 243.219L305.721 243.952L302.717 245.674C301.8 246.205 301.491 247.389 301.993 248.325C302.524 249.242 303.728 249.58 304.645 249.049L307.649 247.327L306.916 250.028C306.636 251.065 307.246 252.099 308.283 252.379C309.32 252.658 310.354 252.049 310.634 251.012L312.38 244.573L314.126 243.57L313.393 246.271C313.113 247.308 313.723 248.342 314.76 248.621C315.797 248.901 316.831 248.291 317.111 247.254L318.857 240.816L322.32 238.829L322.324 242.817L317.591 247.526C316.831 248.291 316.845 249.513 317.591 250.243C318.356 251.003 319.578 250.989 320.308 250.243L322.295 248.271L322.283 250.275L317.579 254.965C316.819 255.73 316.814 256.922 317.579 257.682C318.344 258.442 319.537 258.447 320.296 257.682L322.283 255.71L322.266 259.161C322.26 260.226 323.133 261.083 324.199 261.089C325.264 261.095 326.121 260.222 326.127 259.156L326.144 255.706L328.116 257.693C328.881 258.452 330.103 258.438 330.833 257.693C331.593 256.928 331.579 255.706 330.863 254.956L326.173 250.251L326.185 248.248L328.157 250.234C328.923 250.994 330.115 251 330.895 250.264C331.654 249.498 331.64 248.277 330.894 247.546L326.185 242.813L326.181 238.825L329.648 240.826L331.353 247.281C331.63 248.326 332.708 248.918 333.723 248.66C334.768 248.383 335.361 247.305 335.103 246.29L334.389 243.584L336.123 244.585L337.828 251.04C338.105 252.085 339.153 252.697 340.198 252.419C341.243 252.142 341.855 251.094 341.578 250.049L340.864 247.344L343.852 249.073C344.763 249.607 345.964 249.31 346.478 248.369C347.013 247.458 346.715 246.257 345.775 245.743L342.787 244.013L345.492 243.3C346.537 243.022 347.149 241.974 346.872 240.929C346.594 239.884 345.546 239.272 344.501 239.55L338.046 241.255L336.313 240.254L339.018 239.54C340.062 239.263 340.655 238.186 340.397 237.17C340.12 236.125 339.042 235.533 338.027 235.791L331.572 237.495L328.104 235.494L331.567 233.507L338.005 235.253C339.042 235.533 340.125 234.933 340.375 233.915C340.655 232.878 340.026 231.815 339.008 231.564L336.308 230.831L338.054 229.828L344.492 231.574C345.529 231.853 346.563 231.244 346.843 230.206C347.122 229.169 346.513 228.135 345.475 227.856L342.775 227.123L345.779 225.401C346.696 224.87 347.024 223.715 346.503 222.749C345.972 221.833 344.788 221.524 343.851 222.026L340.847 223.747L341.58 221.047C341.86 220.01 341.25 218.976 340.242 218.677L340.213 218.696Z"/>
</mask>
<path d="M340.213 218.696C339.176 218.417 338.142 219.026 337.862 220.063L336.116 226.502L334.37 227.505L335.103 224.804C335.383 223.767 334.753 222.704 333.736 222.454C332.699 222.174 331.665 222.784 331.385 223.821L329.639 230.259L326.176 232.246L326.172 228.258L330.905 223.549C331.665 222.784 331.67 221.591 330.905 220.832C330.14 220.072 328.918 220.086 328.188 220.832L326.201 222.804L326.213 220.8L330.917 216.11C331.677 215.345 331.663 214.123 330.917 213.393C330.152 212.633 328.959 212.628 328.2 213.393L326.213 215.365L326.23 211.914C326.236 210.849 325.363 209.992 324.297 209.986C323.232 209.98 322.375 210.853 322.369 211.919L322.352 215.369L320.38 213.382C319.615 212.623 318.422 212.617 317.662 213.382C316.903 214.147 316.917 215.369 317.663 216.1L322.352 220.804L322.359 222.837L320.387 220.85C319.622 220.09 318.43 220.085 317.67 220.85C316.91 221.615 316.925 222.837 317.67 223.568L322.36 228.272L322.364 232.26L318.897 230.259L317.192 223.804C316.914 222.759 315.866 222.147 314.821 222.425C313.777 222.702 313.165 223.75 313.442 224.795L314.156 227.5L312.422 226.5L310.688 220.064C310.43 219.049 309.362 218.407 308.317 218.685C307.273 218.962 306.661 220.01 306.938 221.055L307.652 223.76L304.664 222.031C303.753 221.497 302.552 221.795 302.037 222.735C301.503 223.646 301.83 224.827 302.741 225.362L305.728 227.091L303.023 227.804C301.978 228.082 301.366 229.13 301.644 230.175C301.902 231.191 302.969 231.832 304.014 231.554L310.469 229.85L312.203 230.85L309.498 231.564C308.453 231.841 307.841 232.889 308.119 233.934C308.376 234.95 309.444 235.591 310.489 235.314L316.924 233.58L320.392 235.581L316.929 237.568L310.491 235.822C309.454 235.542 308.42 236.152 308.14 237.189C307.86 238.226 308.49 239.29 309.507 239.54L312.208 240.273L310.462 241.276L304.024 239.531C302.987 239.251 301.953 239.861 301.653 240.869C301.374 241.906 302.003 242.969 303.02 243.219L305.721 243.952L302.717 245.674C301.8 246.205 301.491 247.389 301.993 248.325C302.524 249.242 303.728 249.58 304.645 249.049L307.649 247.327L306.916 250.028C306.636 251.065 307.246 252.099 308.283 252.379C309.32 252.658 310.354 252.049 310.634 251.012L312.38 244.573L314.126 243.57L313.393 246.271C313.113 247.308 313.723 248.342 314.76 248.621C315.797 248.901 316.831 248.291 317.111 247.254L318.857 240.816L322.32 238.829L322.324 242.817L317.591 247.526C316.831 248.291 316.845 249.513 317.591 250.243C318.356 251.003 319.578 250.989 320.308 250.243L322.295 248.271L322.283 250.275L317.579 254.965C316.819 255.73 316.814 256.922 317.579 257.682C318.344 258.442 319.537 258.447 320.296 257.682L322.283 255.71L322.266 259.161C322.26 260.226 323.133 261.083 324.199 261.089C325.264 261.095 326.121 260.222 326.127 259.156L326.144 255.706L328.116 257.693C328.881 258.452 330.103 258.438 330.833 257.693C331.593 256.928 331.579 255.706 330.863 254.956L326.173 250.251L326.185 248.248L328.157 250.234C328.923 250.994 330.115 251 330.895 250.264C331.654 249.498 331.64 248.277 330.894 247.546L326.185 242.813L326.181 238.825L329.648 240.826L331.353 247.281C331.63 248.326 332.708 248.918 333.723 248.66C334.768 248.383 335.361 247.305 335.103 246.29L334.389 243.584L336.123 244.585L337.828 251.04C338.105 252.085 339.153 252.697 340.198 252.419C341.243 252.142 341.855 251.094 341.578 250.049L340.864 247.344L343.852 249.073C344.763 249.607 345.964 249.31 346.478 248.369C347.013 247.458 346.715 246.257 345.775 245.743L342.787 244.013L345.492 243.3C346.537 243.022 347.149 241.974 346.872 240.929C346.594 239.884 345.546 239.272 344.501 239.55L338.046 241.255L336.313 240.254L339.018 239.54C340.062 239.263 340.655 238.186 340.397 237.17C340.12 236.125 339.042 235.533 338.027 235.791L331.572 237.495L328.104 235.494L331.567 233.507L338.005 235.253C339.042 235.533 340.125 234.933 340.375 233.915C340.655 232.878 340.026 231.815 339.008 231.564L336.308 230.831L338.054 229.828L344.492 231.574C345.529 231.853 346.563 231.244 346.843 230.206C347.122 229.169 346.513 228.135 345.475 227.856L342.775 227.123L345.779 225.401C346.696 224.87 347.024 223.715 346.503 222.749C345.972 221.833 344.788 221.524 343.851 222.026L340.847 223.747L341.58 221.047C341.86 220.01 341.25 218.976 340.242 218.677L340.213 218.696Z" fill="white" stroke="#007266" stroke-width="2.4" mask="url(#path-2-inside-2_308_968)"/>
<circle r="4.75364" transform="matrix(-1 0 0 1 482.288 85.277)" fill="#FFFEFE"/>
<circle r="4.75364" transform="matrix(-1 0 0 1 5.63113 5.6677)" fill="#FFFEFE"/>
<circle r="3.69727" transform="matrix(-1 0 0 1 188.769 140.736)" fill="#FFFEFE"/>
<g filter="url(#filter0_f_308_968)">
<circle r="3.69727" transform="matrix(-1 0 0 1 172.396 216.266)" fill="#FFF6A8"/>
</g>
<g filter="url(#filter1_f_308_968)">
<circle r="3.69727" transform="matrix(-1 0 0 1 131.687 10.8031)" fill="#FFF6A8"/>
</g>
<g filter="url(#filter2_f_308_968)">
<circle r="3.69727" transform="matrix(-1 0 0 1 450.652 277.007)" fill="#FFF6A8"/>
</g>
<g filter="url(#filter3_f_308_968)">
<circle r="3.69727" transform="matrix(-1 0 0 1 547.803 44.859)" fill="#FFF6A8"/>
</g>
<circle r="3.69727" transform="matrix(-1 0 0 1 91.8984 470.85)" fill="#FFFEFE"/>
<circle r="3.69727" transform="matrix(-1 0 0 1 185.276 62.0054)" fill="#FFFEFE"/>
<g filter="url(#filter4_f_308_968)">
<circle r="6.33818" transform="matrix(-1 0 0 1 112.143 366.882)" fill="#FFF6A8"/>
</g>
<circle r="4.75364" transform="matrix(-1 0 0 1 166.814 325.156)" fill="#FFFEFE"/>
<circle r="4.75364" transform="matrix(-1 0 0 1 393.419 343.469)" fill="#FFFEFE"/>
<circle r="4.75364" transform="matrix(-1 0 0 1 321.996 92.2275)" fill="#FFFEFE"/>
<circle r="4.75364" transform="matrix(-1 0 0 1 284.945 617.177)" fill="#FFFEFE"/>
<circle r="4.75364" transform="matrix(-1 0 0 1 126.932 221.632)" fill="#FFFEFE"/>
<circle r="4.75364" transform="matrix(-1 0 0 1 499.947 285.542)" fill="#FFFEFE"/>
<g filter="url(#filter5_f_308_968)">
<circle r="7.56798" transform="matrix(-1 0 0 1 218.145 280.83)" fill="#FFF6A8"/>
</g>
<g filter="url(#filter6_f_308_968)">
<circle r="7.56798" transform="matrix(-1 0 0 1 424.033 376.731)" fill="#FFF6A8"/>
</g>
<circle r="7.56798" transform="matrix(-1 0 0 1 78.7514 84.3468)" fill="#FFFEFE"/>
<circle r="7.56798" transform="matrix(-1 0 0 1 388.967 24.134)" fill="#FFFEFE"/>
<defs>
<filter id="filter0_f_308_968" x="165.348" y="209.219" width="14.0945" height="14.0945" filterUnits="userSpaceOnUse" color-interpolation-filters="sRGB">
<feFlood flood-opacity="0" result="BackgroundImageFix"/>
<feBlend mode="normal" in="SourceGraphic" in2="BackgroundImageFix" result="shape"/>
<feGaussianBlur stdDeviation="1.675" result="effect1_foregroundBlur_308_968"/>
</filter>
<filter id="filter1_f_308_968" x="124.639" y="3.75584" width="14.0945" height="14.0945" filterUnits="userSpaceOnUse" color-interpolation-filters="sRGB">
<feFlood flood-opacity="0" result="BackgroundImageFix"/>
<feBlend mode="normal" in="SourceGraphic" in2="BackgroundImageFix" result="shape"/>
<feGaussianBlur stdDeviation="1.675" result="effect1_foregroundBlur_308_968"/>
</filter>
<filter id="filter2_f_308_968" x="443.605" y="269.96" width="14.0945" height="14.0945" filterUnits="userSpaceOnUse" color-interpolation-filters="sRGB">
<feFlood flood-opacity="0" result="BackgroundImageFix"/>
<feBlend mode="normal" in="SourceGraphic" in2="BackgroundImageFix" result="shape"/>
<feGaussianBlur stdDeviation="1.675" result="effect1_foregroundBlur_308_968"/>
</filter>
<filter id="filter3_f_308_968" x="540.755" y="37.8117" width="14.0945" height="14.0945" filterUnits="userSpaceOnUse" color-interpolation-filters="sRGB">
<feFlood flood-opacity="0" result="BackgroundImageFix"/>
<feBlend mode="normal" in="SourceGraphic" in2="BackgroundImageFix" result="shape"/>
<feGaussianBlur stdDeviation="1.675" result="effect1_foregroundBlur_308_968"/>
</filter>
<filter id="filter4_f_308_968" x="101.617" y="356.356" width="21.0518" height="21.0513" filterUnits="userSpaceOnUse" color-interpolation-filters="sRGB">
<feFlood flood-opacity="0" result="BackgroundImageFix"/>
<feBlend mode="normal" in="SourceGraphic" in2="BackgroundImageFix" result="shape"/>
<feGaussianBlur stdDeviation="2.09375" result="effect1_foregroundBlur_308_968"/>
</filter>
<filter id="filter5_f_308_968" x="206.39" y="269.075" width="23.5107" height="23.511" filterUnits="userSpaceOnUse" color-interpolation-filters="sRGB">
<feFlood flood-opacity="0" result="BackgroundImageFix"/>
<feBlend mode="normal" in="SourceGraphic" in2="BackgroundImageFix" result="shape"/>
<feGaussianBlur stdDeviation="2.09375" result="effect1_foregroundBlur_308_968"/>
</filter>
<filter id="filter6_f_308_968" x="412.277" y="364.976" width="23.5107" height="23.511" filterUnits="userSpaceOnUse" color-interpolation-filters="sRGB">
<feFlood flood-opacity="0" result="BackgroundImageFix"/>
<feBlend mode="normal" in="SourceGraphic" in2="BackgroundImageFix" result="shape"/>
<feGaussianBlur stdDeviation="2.09375" result="effect1_foregroundBlur_308_968"/>
</filter>
</defs>
</svg>
