<svg width="170" height="111" viewBox="0 0 170 111" fill="none" xmlns="http://www.w3.org/2000/svg">
<mask id="mask0_135:3645" style="mask-type:alpha" maskUnits="userSpaceOnUse" x="0" y="0" width="170" height="111">
<rect y="0.0167847" width="170" height="110" fill="#C4C4C4"/>
</mask>
<g mask="url(#mask0_135:3645)">
<path d="M51.4981 50.5734V50.2584C51.3406 49.6282 50.868 49.3132 50.3954 49.3132C50.0804 49.1557 49.6078 49.1557 49.1352 49.3132L48.8201 49.6282L48.6626 49.9433V50.4159V50.5734C48.8201 50.8885 48.9777 51.2035 49.2927 51.3611C49.4502 51.3611 49.6078 51.5186 49.6078 51.5186C50.0804 51.8337 50.5529 51.8337 51.1831 51.5186L51.4981 51.2035L51.6557 50.7309L51.4981 50.5734Z" fill="white"/>
<path d="M78.7512 37.9706C78.7512 37.8131 78.9087 37.6555 78.9087 37.498L78.7512 37.0254L78.4361 36.5528C77.806 35.9227 77.0184 36.0802 76.7033 36.3953L76.3882 36.7104L76.2307 37.0254V37.6555C76.2307 37.8131 76.2307 38.1281 76.2307 38.4432C76.2307 38.7582 76.3882 38.9158 76.7033 39.2308H77.4909L77.6485 39.0733V39.2308C77.806 39.2308 78.2786 39.2308 78.5937 38.7582C78.7512 38.4432 78.7512 38.2857 78.7512 37.9706Z" fill="white"/>
<path d="M40.3132 38.1309C40.3132 38.2884 40.4708 38.6035 40.6283 38.761L40.9433 39.0761L41.2584 39.2336L41.5735 39.3911C42.3611 39.3911 42.8337 38.9185 43.1488 38.1309V37.6583L42.9912 37.1857L42.6762 36.8707C42.5186 36.7131 42.2036 36.7131 42.0461 36.7131L41.8885 36.5556H41.2584C40.3132 36.8707 40.1557 37.6583 40.3132 38.2884V38.1309Z" fill="white"/>
<path d="M65.3601 3.47449L65.5177 2.84437L65.3601 2.21425L64.8875 1.74166L64.415 1.58414C64.2574 1.58414 63.7848 1.42661 63.3122 1.58414L62.9972 1.89919L62.8397 2.21425L62.6821 2.68684V2.84437C62.8397 3.15943 62.9972 3.47449 62.9972 3.47449L63.1547 3.78954L63.6273 4.1046H64.2574H64.73L65.2026 3.78954L65.3601 3.47449Z" fill="white"/>
<path d="M134.043 41.2786L133.886 40.9636L133.728 40.6485C133.571 40.491 133.413 40.3335 133.256 40.3335C132.941 40.1759 132.468 40.1759 132.153 40.491H131.995L131.523 40.806C131.365 41.1211 131.208 41.5937 131.365 42.0663C131.523 42.5389 131.838 42.8539 132.153 43.0115C132.626 43.169 133.098 43.169 133.413 42.8539L133.728 42.3813C133.886 42.2238 134.043 41.9087 134.043 41.5937V41.2786Z" fill="white"/>
<path d="M94.3457 49.3172L94.0306 49.1597C93.4005 48.8447 92.9279 49.1597 92.6128 49.3172C92.2978 49.4748 91.9827 49.7898 91.8252 50.4199V50.8925L91.9827 51.2076L92.2978 51.5226H92.4553C92.7704 51.6802 93.243 51.6802 93.4005 51.5226C93.558 51.5226 93.558 51.3651 93.7155 51.2076C94.1881 51.0501 94.6607 50.5775 94.6607 50.1049L94.5032 49.6323L94.1881 49.3172H94.3457Z" fill="white"/>
<path d="M79.2229 83.0285L78.9078 82.7135C78.2777 82.3984 77.8051 82.7135 77.49 83.0285C77.175 83.1861 76.8599 83.5011 76.7024 84.1312V84.6038L76.8599 84.9189L77.175 85.2339H77.3325C77.6476 85.3915 78.1202 85.3915 78.2777 85.2339C78.4352 85.2339 78.4352 85.0764 78.5927 84.9189C79.0653 84.7613 79.5379 84.4463 79.5379 83.8162L79.3804 83.3436L79.0653 83.0285H79.2229Z" fill="white"/>
<path d="M100.804 19.8584C100.804 19.7009 100.647 19.5434 100.489 19.5434L100.017 19.3858H99.3865C98.4413 19.5434 98.1262 20.1735 98.1262 20.6461L98.2837 21.1186L98.4413 21.4337L98.9139 21.7488C99.0714 21.9063 99.2289 22.0638 99.544 22.2214C99.859 22.3789 100.174 22.3789 100.332 22.3789L100.962 21.7488V21.5912H101.119C101.277 21.4337 101.434 20.9611 101.277 20.4885C101.119 20.1735 100.962 20.0159 100.804 19.8584Z" fill="white"/>
<path d="M144.598 3.62987L144.44 3.31481C144.44 2.84222 144.283 2.36964 143.652 2.05458L143.18 1.89705H142.707L142.392 2.05458L142.55 2.36964L142.392 2.05458L142.077 2.21211L141.762 2.6847C141.762 2.52717 141.92 2.36964 141.92 2.36964C141.762 2.36964 140.974 2.6847 140.817 3.7874V4.10246C140.974 4.73258 141.289 5.36269 141.762 5.67775L142.235 5.83528H142.55C142.55 5.83528 142.707 5.83528 142.707 5.99281H143.18L143.652 5.83528L143.967 5.52022C143.967 5.36269 144.125 5.20516 144.283 5.04763C144.44 4.8901 144.598 4.73258 144.755 4.41752V3.7874L144.598 3.62987Z" fill="white"/>
<path d="M65.2025 9.77608L64.7299 9.14596L64.0998 8.8309H63.4696L62.9971 9.14596C62.8395 9.30349 62.5245 9.46102 62.3669 10.0911V10.4062L62.5245 10.7213L62.8395 11.0363L62.9971 11.1938C63.3121 11.3514 63.6272 11.3514 63.6272 11.3514H63.9422L64.4148 11.1938L64.8874 10.7213L65.2025 10.2487V9.61855V9.77608Z" fill="white"/>
<path d="M152.16 18.2813V17.8087L152.002 17.3361L151.687 17.0211L151.214 16.706C150.584 16.706 150.269 16.8635 149.797 17.0211L149.324 17.4936L149.167 17.9662L149.324 18.5964C149.639 19.0689 150.269 19.384 151.214 18.9114H151.529L151.845 18.5964L152.16 18.1238V18.2813Z" fill="white"/>
<path d="M126.01 65.3826C126.167 65.5401 126.482 65.6976 127.112 65.6976L127.585 65.5401L127.9 65.225V64.91L128.057 64.4374V63.9648L127.9 63.4922C127.742 63.1772 127.27 62.8621 126.482 63.0196H126.167L125.694 63.3347L125.379 63.8073C125.379 64.1223 125.379 64.5949 125.852 65.0675L126.01 65.3826Z" fill="white"/>
<path d="M143.81 17.8075V17.9651C143.81 18.7527 144.44 19.2253 144.755 19.5404L145.385 19.6979L145.858 19.5404L146.331 19.0678L146.646 18.9102L146.961 18.7527L147.118 18.4377C147.118 18.2801 147.118 18.1226 147.276 18.1226C147.276 18.1226 147.276 18.1226 147.276 17.9651C147.433 17.8075 147.591 17.4925 147.591 17.1774V16.8624C147.748 16.7048 147.906 16.3898 147.906 16.0747C147.906 15.6021 147.906 15.2871 147.591 14.972L147.118 14.8145C146.961 14.657 146.488 14.3419 146.016 14.4994L145.543 14.657L145.228 14.972L145.07 15.4446C145.07 15.6021 145.07 15.9172 145.07 16.0747H144.755L144.283 16.3898V16.7048C144.125 16.8624 143.81 17.0199 143.653 17.4925V17.65L143.81 17.8075Z" fill="white"/>
<path d="M69.6132 3.31403C69.6132 2.99897 69.6132 2.52638 69.2982 2.21133L68.9831 1.89627L68.8256 1.73874C68.353 1.58121 67.4078 1.73874 67.0928 3.1565L67.2503 3.47156L67.0928 3.62909L67.2503 3.94415L67.5654 4.25921C68.0379 4.41673 68.5105 4.41673 68.8256 4.25921C69.1407 4.10168 69.4557 3.62909 69.4557 3.31403H69.6132Z" fill="white"/>
<path d="M62.525 52.1522C62.6825 52.1522 62.9975 52.1522 63.3126 51.8371C63.4701 51.6796 63.4701 51.5221 63.6277 51.5221C63.9427 51.3645 64.1003 51.207 64.1003 50.892C64.1003 50.7344 64.1003 50.5769 64.1003 50.2618L63.9427 49.9468L63.7852 49.7892C63.6277 49.4742 63.1551 49.0016 62.3674 48.8441H62.0524L61.7373 49.0016L61.4223 49.3167C61.2647 49.6317 61.1072 49.9468 60.9497 50.4194C60.7921 51.0495 61.1072 51.6796 61.5798 52.1522L62.2099 52.3097L62.525 52.1522H62.6825H62.525Z" fill="white"/>
<path d="M71.8199 66.6421C71.9774 66.6421 72.2925 66.6421 72.6075 66.3271C72.7651 66.1696 72.7651 66.012 72.9226 66.012C73.2376 65.8545 73.2376 65.5394 73.3952 65.3819C73.3952 65.2244 73.3952 65.0669 73.3952 64.7518L73.2376 64.4367L73.0801 64.2792C72.9226 63.9641 72.45 63.4916 71.6624 63.334H71.3473L71.0322 63.4916L70.7172 63.8066C70.5596 64.1217 70.4021 64.4367 70.2446 64.9093C70.0871 65.5394 70.4021 66.1696 70.8747 66.6421L71.5048 66.7997L71.8199 66.6421H71.9774H71.8199Z" fill="white"/>
<path d="M115.139 15.6033L115.455 15.4457L115.612 15.1307C115.77 14.9732 115.927 14.8156 115.927 14.5006C115.927 14.343 115.927 14.343 115.927 14.028L115.77 13.7129C115.455 13.2403 115.139 12.9253 114.667 12.9253C114.037 12.9253 113.564 13.2403 113.092 13.7129L112.934 14.343L113.092 14.8156L113.407 15.2882C113.564 15.4457 113.879 15.7608 114.667 15.7608L114.982 15.6033H115.139Z" fill="white"/>
<path d="M140.817 50.5735L141.132 51.2037L141.605 51.0461L141.92 50.7311L142.235 50.2585L142.392 49.4708V49.1558L142.235 48.8407L142.077 48.5257C141.92 48.3681 141.29 47.8955 140.344 48.3681C139.399 48.3681 139.242 48.9983 139.242 49.3133C139.242 49.4708 139.242 49.6284 139.242 49.7859V50.2585L139.557 50.7311C140.187 51.2037 140.659 51.0461 140.975 51.0461L140.817 50.416V50.5735Z" fill="white"/>
<path d="M34.1704 4.10371L34.3279 4.26124H34.643C35.4307 4.26124 36.0608 3.94618 36.5334 3.31607V2.68595L36.3758 2.21336L35.7457 1.74077L35.1156 1.58324V1.74077L34.8005 1.58324L34.1704 1.74077L33.6978 2.21336C33.6978 2.68595 33.5403 3.31607 33.8554 3.78865L34.0129 3.94618L34.1704 4.10371Z" fill="white"/>
<path d="M31.65 31.6689H31.1774L30.7048 31.8265L30.3898 32.1415L30.0747 32.6141C30.0747 33.2442 30.2322 33.5593 30.5473 34.0319L31.0199 34.5045L31.4925 34.662L32.1226 34.5045C32.5952 34.1894 32.9102 33.5593 32.4376 32.6141V32.2991L32.1226 31.984L31.65 31.6689Z" fill="white"/>
<path d="M31.3338 39.8644H31.4913C32.2789 39.8644 32.7515 39.2343 33.0666 38.9192L33.2241 38.2891L33.0666 37.8165L32.594 37.344L32.4365 37.0289L32.2789 36.7138L31.9639 36.5563C31.8064 36.5563 31.6488 36.5563 31.4913 36.3988C31.4913 36.3988 31.4913 36.3988 31.3338 36.3988C31.1762 36.2412 30.8612 36.0837 30.5461 36.0837H30.2311C30.0735 35.9262 29.7585 35.7687 29.4434 35.7687C28.9708 35.7687 28.6558 35.9262 28.3407 36.2412L28.1832 36.7138C28.0257 36.8714 27.7106 37.344 27.8681 37.8165L28.0257 38.2891L28.3407 38.6042L28.8133 38.7617C28.9708 38.7617 29.2859 38.7617 29.4434 38.7617V39.0768L29.7585 39.5494H30.0735C30.2311 39.7069 30.3886 40.022 30.8612 40.1795H31.0187L31.3338 39.8644Z" fill="white"/>
<path d="M155.152 15.1286C155.31 15.1286 155.31 15.1286 155.468 15.1286L155.94 14.971L156.255 14.8135L156.57 14.4984C156.728 14.0259 156.57 13.5533 156.413 13.3957C156.255 13.0807 155.94 12.9231 155.152 12.7656L154.837 12.9231L154.522 13.0807L154.207 13.3957C153.892 13.8683 154.05 14.3409 154.207 14.656C154.365 14.971 154.68 15.2861 155.152 15.2861V15.1286Z" fill="white"/>
<path d="M134.358 7.7248L133.728 7.88233L133.413 8.19739C132.941 8.51245 132.783 8.8275 132.625 9.14256V9.45762L132.783 9.77268L132.941 10.0877C133.098 10.2453 133.413 10.4028 133.571 10.4028C134.201 10.5603 134.831 10.0877 134.988 9.45762C135.146 8.8275 134.831 8.19739 134.201 8.03986L134.358 7.7248Z" fill="white"/>
<path d="M132.784 60.4998C132.784 59.8697 132.311 59.7122 131.996 59.5546C131.838 59.3971 131.681 59.2396 131.366 59.2396C131.051 59.2396 130.736 59.2396 130.421 59.5546L130.263 59.7122L130.106 59.8697L129.948 60.3423C129.791 60.4998 129.633 60.8149 129.633 61.1299V61.6025L129.791 61.9176L129.948 62.2326L130.263 62.3902L130.578 62.5477C131.681 62.7052 132.469 62.2326 132.784 61.2875V60.6573L132.626 60.4998H132.784Z" fill="white"/>
<path d="M57.4838 26.9438L57.3262 26.7863V26.6288L57.1687 26.3137L56.8537 26.1562L56.5386 25.9986C56.3811 25.9986 56.3811 25.9986 56.2235 25.9986L55.751 25.8411L55.2784 25.9986C54.9633 26.1562 54.8058 26.4712 54.8058 26.6288L54.6483 26.7863L54.4907 27.7315C54.4907 28.204 54.6483 28.5191 54.8058 28.8342V28.9917C54.9633 29.3068 55.2784 29.6218 55.5934 29.6218C55.9085 29.6218 56.3811 29.4643 56.5386 29.3068L56.6961 29.1492L57.0112 28.8342C57.1687 28.6766 57.1687 28.6766 57.3262 28.5191L57.4838 28.3616C57.6413 28.204 57.7988 27.889 57.7988 27.5739L57.4838 27.1013V26.9438Z" fill="white"/>
<path d="M41.7318 24.2685L41.4168 23.796C41.4168 23.6384 41.2592 23.3234 40.9442 23.0083C40.6291 22.8508 40.4716 22.6933 40.1565 22.6933C39.999 22.6933 39.8415 22.6933 39.6839 22.6933C39.6839 22.6933 39.5264 22.6933 39.3689 22.6933L38.8963 22.8508L38.5812 23.0083L38.2662 23.3234C38.1086 23.9535 38.2662 24.4261 38.4237 24.5836L38.7388 25.0562L39.2114 25.3712H39.3689C39.5264 25.5288 39.8415 25.6863 40.3141 25.8438H40.6291L41.1017 25.6863L41.4168 25.3712L41.5743 24.8987H41.4168L41.5743 24.2685H41.7318Z" fill="white"/>
<path d="M85.2093 34.1908L84.8942 34.0332L84.5791 33.8757C84.2641 33.8757 83.7915 33.8757 83.3189 34.6633C83.1614 35.6085 83.3189 35.9236 83.4764 36.0811L83.634 36.2386L83.949 36.3962L84.2641 36.5537C84.5791 36.5537 85.0517 36.5537 85.3668 35.7661C85.3668 35.7661 85.6819 34.8209 85.3668 34.1908L85.2093 34.0332V34.1908Z" fill="white"/>
<path d="M64.1002 42.6986L64.7303 42.3835L64.5728 41.9109L64.2578 41.5959L63.7852 41.2808L62.9975 41.1233H62.6825L62.3674 41.2808L62.0524 41.4383C61.8948 41.5959 61.4222 42.226 61.8948 43.1712C61.8948 44.1163 62.5249 44.2739 62.84 44.2739C62.9975 44.2739 63.1551 44.2739 63.3126 44.2739H63.7852L64.2578 43.9588C64.7303 43.3287 64.5728 42.8561 64.5728 42.541L63.9427 42.6986H64.1002Z" fill="white"/>
<path d="M87.4145 40.9651C87.257 40.8076 86.9419 40.6501 86.6269 40.6501H86.3118H85.9967L85.6817 40.8076L85.5242 40.9651C85.2091 41.2802 84.894 41.7528 84.894 42.8555L85.0516 43.1705C85.2091 43.3281 85.2091 43.3281 85.3666 43.4856L85.6817 43.9582L85.9967 44.1157L86.3118 44.2732C86.4693 44.2732 86.6269 44.2732 86.7844 44.2732L86.9419 44.4308C87.7296 44.4308 88.2022 44.2732 88.5172 43.8006L88.8323 43.6431L88.9898 43.3281L89.1473 43.013C89.1473 42.0678 88.5172 41.1226 87.572 41.1226L87.4145 40.9651Z" fill="white"/>
<path d="M38.7378 23.9501L38.8953 24.1076L39.0529 24.2651C39.3679 24.7377 39.998 24.8952 40.6281 24.5802L41.1007 24.4226L41.4158 24.1076L41.5733 23.635C41.5733 23.3199 41.4158 23.0049 41.2583 22.8474C40.9432 22.3748 40.3131 22.2172 39.8405 22.3748C39.3679 22.5323 38.8953 23.0049 38.8953 23.4775V23.9501H38.7378Z" fill="white"/>
<path d="M21.0949 51.8345L21.5675 52.1496H22.0401C22.9853 52.4647 23.4579 51.9921 23.7729 51.677V51.0469L23.4579 50.4168L23.3003 50.2592C23.1428 50.1017 22.9853 49.9442 22.6702 49.7867C22.5127 49.6291 22.3552 49.4716 22.0401 49.4716H21.725L21.41 49.6291L21.0949 49.7867C20.9374 50.1017 20.3073 50.8894 20.9374 51.8345H21.0949Z" fill="white"/>
<path d="M34.9578 44.2758C34.9578 44.4333 34.8003 44.5908 34.8003 44.9059C34.8003 45.0634 34.9578 45.3785 34.9578 45.536C34.9578 45.851 34.9578 46.1661 35.1154 46.4812L35.2729 46.6387L35.5879 46.7962H35.903H36.3756C36.5331 46.7962 37.0057 46.9537 37.4783 46.4812C37.9509 46.1661 38.1084 45.6935 38.2659 45.2209C38.2659 44.7483 38.1084 44.1182 37.7933 43.6456C37.3208 43.173 36.3756 42.7005 35.4304 43.3306L35.1154 43.6456L34.9578 44.1182V44.2758Z" fill="white"/>
<path d="M49.6081 40.8081L49.4506 40.9656L49.2931 41.1232C48.978 41.5957 49.1355 42.2259 49.6081 42.6984L50.0807 43.0135L50.5533 43.171H51.0259C51.3409 43.0135 51.4985 42.856 51.656 42.5409C51.8135 42.0683 51.8135 41.4382 51.4985 41.1232C51.1834 40.6506 50.5533 40.493 50.0807 40.6506L49.6081 40.8081Z" fill="white"/>
<path d="M16.8423 36.7128V37.1854L16.9998 37.6579C17.1573 38.6031 17.6299 38.9182 18.26 39.0757L18.8902 38.9182L19.3628 38.2881L19.5203 38.1305C19.6778 37.8155 19.6778 37.6579 19.6778 37.3429C19.6778 37.1854 19.6778 36.8703 19.6778 36.7128L19.5203 36.3977L19.2052 36.0827L18.8902 35.9251C18.5751 35.9251 17.6299 35.7676 16.9998 36.5552L16.8423 36.7128Z" fill="white"/>
<path d="M29.6013 46.0047C29.4438 46.0047 29.1287 46.0047 28.8136 46.1622C28.6561 46.3197 28.4986 46.4773 28.3411 46.6348C28.026 46.7923 27.7109 46.9498 27.7109 47.2649V47.58V47.895L27.8685 48.2101L28.026 48.5251C28.026 48.6827 28.1835 49.1553 28.8136 49.4703C29.2862 49.7854 29.7588 49.7854 30.2314 49.6278C30.704 49.4703 31.1766 48.9977 31.4916 48.5251C31.8067 47.895 31.8067 46.9498 30.8615 46.1622L30.3889 46.0047H29.9163H29.6013Z" fill="white"/>
<path d="M84.1063 26.1582L83.6338 26.3157C83.4762 26.4733 83.1612 26.6308 83.0036 26.9459C82.8461 27.2609 82.8461 27.576 83.0036 27.7335C83.1612 28.2061 83.6338 28.3636 83.7913 28.5212H84.2639L84.7365 28.3636L85.0515 28.0486L85.3666 27.4184V26.9459L85.2091 26.4733L84.7365 26.0007H84.4214H84.1063V26.1582Z" fill="white"/>
<path d="M34.1702 4.26343V4.73602L34.3277 5.20861L34.6428 5.52367L34.4852 5.36614C34.6428 5.52367 34.8003 5.99626 35.7455 6.15378H36.0605C36.3756 5.99626 36.6906 5.83873 36.8482 5.52367C37.0057 5.05108 37.0057 4.73602 36.8482 4.57849V4.1059L36.3756 3.47579C35.903 3.31826 34.8003 3.0032 34.1702 4.26343Z" fill="white"/>
<path d="M24.377 15.2637L24.062 15.4212L23.7469 15.7363L23.5894 16.0513C23.4318 16.3664 23.2743 16.839 23.5894 17.6266L23.9044 17.9417C24.8496 18.4143 25.4797 18.2567 25.7948 17.9417L26.1098 17.4691V16.9965V16.6814C26.1098 15.5787 25.3222 15.2637 24.8496 15.1062H24.377V15.2637Z" fill="white"/>
<path d="M142.55 68.0583C142.55 68.2158 142.392 68.3734 142.392 68.3734V68.8459L142.55 69.3185L142.865 69.6336L143.495 69.9487H143.967L144.282 69.7911L144.755 69.4761C144.913 69.3185 145.07 69.0035 145.228 68.6884C145.385 68.3734 145.385 67.9008 145.228 67.2707L144.913 66.9556C144.282 66.6405 143.967 66.6405 143.652 66.7981C143.022 66.9556 142.707 67.7432 142.55 67.9008V68.0583Z" fill="white"/>
<path d="M149.166 103.034C149.166 103.192 149.008 103.349 149.008 103.349V103.822L149.166 104.137L149.481 104.452L150.111 104.767H150.584L150.899 104.609L151.371 104.294C151.529 104.137 151.686 103.822 151.844 103.507C152.001 103.034 152.001 102.719 151.844 102.089L151.529 101.774C150.899 101.459 150.584 101.459 150.269 101.616C149.638 101.774 149.323 102.561 149.166 102.719V103.034Z" fill="white"/>
<path d="M133.571 41.5945C133.413 41.5945 133.098 41.5945 132.783 41.7521C132.626 41.9096 132.468 42.0671 132.311 42.0671C131.996 42.0671 131.681 42.3822 131.523 42.5397L131.365 42.8548V43.1698V43.4849L131.523 43.7999C131.523 43.9575 131.681 44.4301 132.153 44.7451C132.626 45.0602 133.098 45.0602 133.571 44.9026C134.043 44.7451 134.516 44.4301 134.831 43.9575C135.146 43.3273 135.146 42.3822 134.201 41.5945L133.728 41.437H133.256L133.571 41.5945Z" fill="white"/>
<path d="M93.7162 18.2813V18.1238V17.6512L93.5587 17.1786L93.2436 16.8635L92.9286 16.706H92.456L91.9834 16.8635C91.8259 16.8635 91.6683 17.0211 91.5108 17.1786L91.3533 17.8087L91.5108 18.1238H91.3533C91.5108 18.7539 91.8259 19.0689 92.1409 19.0689C92.2984 19.0689 92.771 19.2265 93.2436 18.5964V18.4388C93.4012 18.2813 93.4012 18.2813 93.5587 18.1238L93.7162 18.2813Z" fill="white"/>
<path d="M51.3403 -1.09445C51.4978 -1.25198 51.4978 -1.56704 51.6554 -1.72457V-2.03963L51.4978 -2.35469L51.3403 -2.66975C50.7102 -3.14233 50.0801 -3.29986 49.2924 -2.66975L48.9774 -2.35469L48.8198 -2.03963V-1.56704C48.8198 -1.25198 48.9774 -1.09445 49.1349 -0.936925V-0.779396L49.6075 -0.306808C50.5526 0.16578 51.1828 -0.306808 51.4978 -0.936925L51.3403 -1.09445Z" fill="white"/>
<path d="M119.079 13.0848L118.764 13.2423L118.449 13.5574L118.291 13.8724C118.134 14.0299 117.819 14.6601 118.134 15.4477L118.449 15.7628C119.394 16.3929 120.024 16.0778 120.339 15.9203L120.654 15.6052L120.812 15.1327V14.8176C120.812 13.7149 120.181 13.2423 119.551 13.0848H119.079Z" fill="white"/>
<path d="M134.517 6.31081C134.832 6.15328 134.989 5.99575 135.147 5.68069C135.462 5.52316 135.619 5.2081 135.777 4.89305C135.934 4.26293 135.619 3.63281 135.462 3.00269L135.304 2.68764L134.989 2.53011C134.359 2.21505 133.729 2.21505 133.099 2.37258C132.784 2.53011 132.311 2.84517 131.996 3.79034C131.996 3.94787 131.996 4.1054 131.839 4.26293V4.73552L131.996 5.05058L132.311 5.36563L132.469 5.52316C132.784 5.83822 133.414 6.62587 134.359 6.31081H134.517Z" fill="white"/>
<path d="M47.4026 39.864C48.0327 40.0215 48.8203 39.864 49.4504 38.7613L49.608 37.8161L49.4504 37.0284L48.6628 36.3983H48.5053C47.7176 36.2408 47.0875 36.5559 46.6149 37.3435L46.1423 38.2887L46.2999 39.0763L47.245 40.0215L47.4026 39.864Z" fill="white"/>
<path d="M69.6146 11.667C69.9296 11.5094 70.4022 11.1944 70.5598 10.4067V9.61909L70.2447 8.98898L69.9296 8.83145L69.4571 8.35886L68.8269 8.0438H68.1968C67.7242 8.20133 66.9366 8.67392 66.9366 9.77662L66.7791 10.2492L66.9366 11.0369L67.5667 11.667C67.8818 11.8245 68.6694 12.1396 69.4571 11.667H69.6146Z" fill="white"/>
<path d="M112.304 28.8382L112.147 28.5232L111.832 28.2081C111.674 28.0506 111.517 28.0506 111.359 27.893C110.257 27.2629 109.469 27.578 109.154 27.7355C108.366 28.0506 107.894 28.8382 107.736 29.9409V30.571L107.894 31.0436L108.366 31.6737C108.524 31.8313 108.839 32.3039 109.311 32.4614L109.784 32.6189H110.257L110.729 32.4614C112.147 31.5162 112.147 30.4135 112.147 29.3108L111.989 28.8382H112.304Z" fill="white"/>
<path d="M126.009 5.51953C125.852 5.362 125.694 5.362 125.537 5.20448H124.907L124.277 5.362L123.804 5.83459L123.331 6.77977L123.174 7.40988L123.331 7.88247L123.646 8.51259C123.961 8.82765 124.277 9.14271 124.592 9.30024C125.222 9.61529 125.694 9.61529 126.639 9.30024L127.112 8.82765C127.585 8.04 127.585 7.40988 127.585 6.9373C127.27 5.99212 126.482 5.362 126.167 5.20448L126.009 5.51953Z" fill="white"/>
<path d="M95.606 30.095L95.2909 29.6225L94.8183 29.1499L94.3457 28.8348H93.5581L92.928 29.1499L92.2978 29.78C91.6677 31.0402 92.1403 31.8279 92.6129 32.1429L93.243 32.3005H93.8731C94.8183 32.3005 95.606 31.6703 95.7635 30.7252L95.606 30.095Z" fill="white"/>
<path d="M153.892 74.676L153.577 74.2034L153.105 73.7308L152.632 73.4157H151.844L151.214 73.7308L150.584 74.3609C149.954 75.6212 150.427 76.4088 150.899 76.7239L151.529 76.8814H152.16C153.105 76.8814 153.892 76.2513 154.05 75.3061L153.892 74.676Z" fill="white"/>
<path d="M141.447 42.2254C141.605 41.4378 141.29 40.8076 140.817 40.6501C140.659 40.3351 140.502 40.02 140.029 39.8625C139.557 39.7049 139.084 39.5474 138.769 39.7049L138.454 39.8625L138.139 40.1775L137.666 40.6501C137.509 40.8076 137.036 41.1227 136.879 41.5953L136.721 42.2254L136.879 42.8555L137.036 43.3281L137.351 43.8007L137.824 44.1158C139.242 44.7459 140.502 44.5884 141.447 43.4856L141.605 42.5405L141.447 42.2254Z" fill="white"/>
<path d="M146.803 91.6877C146.96 90.9001 146.645 90.27 146.173 90.1124C146.015 89.7974 145.858 89.4823 145.385 89.3248C144.912 89.1673 144.44 89.0097 144.125 89.1673L143.81 89.3248L143.495 89.6398L143.022 90.1124C142.865 90.27 142.392 90.585 142.234 91.0576L142.077 91.6877L142.234 92.3178L142.392 92.7904L142.707 93.263L143.18 93.5781C144.597 94.2082 145.858 94.0507 146.803 92.948L146.96 92.0028L146.803 91.6877Z" fill="white"/>
<path d="M5.81401 73.7308C5.97154 72.9432 5.65648 72.3131 5.1839 72.1556C5.02637 71.8405 4.86884 71.5254 4.39625 71.3679C3.92366 71.2104 3.45107 71.0528 3.13601 71.2104L2.82096 71.3679L2.5059 71.683L2.03331 72.1556C1.87578 72.3131 1.40319 72.6281 1.24566 73.1007L1.08813 73.7308L1.24566 74.361L1.40319 74.8335L1.71825 75.3061L2.19084 75.6212C3.6086 76.2513 4.86884 76.0938 5.81401 74.9911L5.97154 74.0459L5.81401 73.7308Z" fill="white"/>
<path d="M46.2993 28.8382C45.6692 28.5231 44.8815 28.6807 44.409 29.3108C43.9364 29.9409 43.7788 30.8861 44.5665 31.8312L45.5117 32.1463L46.2993 31.9888L47.087 31.2011C47.402 29.6258 46.7719 28.9957 46.2993 28.8382Z" fill="white"/>
<path d="M61.7369 15.2861L61.5793 14.4984L61.2643 14.0259L60.7917 13.7108C60.6342 13.5533 60.4766 13.2382 60.004 12.9231L59.3739 12.7656H58.7438L57.9562 13.2382C57.326 13.7108 57.1685 14.1834 57.011 14.8135V15.2861L57.1685 15.7587L57.6411 16.3888C57.7986 16.7038 58.1137 17.0189 58.5863 17.1764C59.2164 17.4915 60.004 17.4915 60.6342 17.0189L61.1067 16.2313V15.9162H61.2643C61.4218 15.6011 61.5793 15.2861 61.7369 14.971V15.2861Z" fill="white"/>
<path d="M149.481 56.7166L150.268 56.5591L150.899 56.244L151.371 55.6139C151.371 55.7714 151.214 55.929 151.214 55.929C151.371 55.7714 152.001 55.2989 152.001 54.0386L151.844 53.566C151.529 53.0934 151.214 52.7784 150.741 52.6209C150.111 52.4633 149.481 52.6209 149.323 52.7784V52.9359L148.693 53.0934L147.906 53.8811C147.906 54.5112 147.748 56.244 149.638 56.8741L149.481 56.7166Z" fill="white"/>
<path d="M129.948 31.1998L130.578 31.5148H131.208L131.838 31.1998C132.941 29.9396 132.941 28.8368 132.783 28.2067L132.468 28.0492V27.8917C132.31 27.5766 131.995 26.789 131.05 26.4739H130.893L130.105 26.6314L129.632 26.9465C129.16 27.104 128.687 27.4191 128.53 28.0492V28.5218C128.687 29.782 129.475 30.5697 129.948 31.1998Z" fill="white"/>
<path d="M81.429 33.2482L80.7989 33.8783V34.0358C80.6413 34.1934 80.1688 34.6659 80.0112 35.4536C80.0112 35.7687 80.0112 36.3988 80.3263 36.7138L80.6413 37.3439L81.2715 37.9741C81.9016 38.1316 82.2166 37.9741 82.3742 37.9741L82.8468 37.8165H83.0043L83.6344 37.659L84.107 37.1864C84.422 36.5563 84.422 35.7687 84.107 34.981C83.7919 34.1934 83.1618 33.7208 82.3742 33.4057C82.0591 33.2482 81.7441 33.2482 81.429 33.4057V33.2482Z" fill="white"/>
<path d="M47.8745 40.6488C48.5046 40.8063 49.2923 40.4913 49.6073 39.8611C49.9224 39.231 49.9224 38.1283 48.8197 37.3407L47.8745 37.1831L47.0868 37.4982L46.6143 38.2858C46.6143 39.8611 47.4019 40.3337 47.8745 40.4913V40.6488Z" fill="white"/>
<path d="M29.6012 54.3542L30.2313 54.9844C30.5464 55.1419 30.8614 55.4569 31.334 55.6145C32.1217 55.772 32.7518 55.6145 33.2244 55.1419L33.3819 54.6693C33.8545 54.1967 33.8545 53.5666 33.8545 53.094L33.697 52.7789L33.2244 52.3064C33.0668 52.1488 32.7518 51.6762 31.9641 51.5187H31.8066L31.019 51.6762L30.3888 52.1488L30.0738 52.6214C29.9162 52.7789 29.7587 52.9365 29.4437 53.2515L29.2861 54.0392L29.4437 54.6693L29.6012 54.3542Z" fill="white"/>
<path d="M35.745 57.1887L36.0601 57.8189L36.5327 58.2914L37.0053 58.449C37.1628 58.6065 37.4779 58.9216 37.9505 59.0791H38.5806L39.0532 58.9216L39.6833 58.2914C40.1559 57.6613 40.3134 57.1887 40.3134 56.5586L40.1559 56.086L39.8408 55.6134L39.2107 55.1409C38.8956 54.9833 38.5806 54.6683 38.108 54.5107C37.3203 54.3532 36.6902 54.5107 36.0601 55.1409L35.745 56.086V56.4011H35.5875C35.43 56.7161 35.2725 57.0312 35.2725 57.5038L35.745 57.1887Z" fill="white"/>
<path d="M58.2719 35.1392L57.9568 34.9817H57.4842C57.1692 34.9817 57.0116 34.9817 56.6966 35.1392C56.0665 35.4543 55.7514 35.9269 55.5939 36.557L55.4363 36.8721L55.2788 37.6597C55.4363 38.2898 55.7514 38.7624 56.3815 39.0775C57.0116 39.3925 57.6417 39.3925 58.1143 39.235C58.7445 38.92 59.0595 38.4474 59.217 37.8172L58.902 37.0296C58.902 36.7145 58.7445 36.242 58.4294 35.7694L58.1143 35.4543L58.2719 35.1392Z" fill="white"/>
<path d="M151.529 13.3977H152.001L152.317 13.2401C152.474 13.2401 152.789 13.2401 153.262 13.0826C153.577 12.9251 153.734 12.7676 154.049 12.61L154.364 12.1374L154.522 11.6648V10.8772C154.522 10.5621 154.522 9.93202 154.207 9.45944C154.049 9.14438 153.734 8.98685 153.419 8.82932C153.104 8.35673 152.474 8.04167 151.686 8.35673L151.214 8.67179C151.056 8.67179 150.741 8.82932 150.584 8.82932C150.269 8.98685 149.481 9.45944 149.323 10.2471V10.7197L149.481 11.0347L149.639 11.5073C149.796 11.9799 150.111 12.9251 151.056 13.5552L151.686 13.7127L151.529 13.3977Z" fill="white"/>
<path d="M137.981 25.3712L138.454 24.8987L138.611 24.5836V23.9535L138.296 23.3234C138.296 23.1658 138.139 22.8508 137.666 22.6933H136.721L135.933 23.0083L135.461 23.6384C135.303 23.9535 135.146 24.5836 135.461 25.2137C135.776 25.6863 136.091 26.0014 136.721 26.0014L137.351 25.8438L137.824 25.5288L137.981 25.3712Z" fill="white"/>
<path d="M95.606 20.0161L95.9211 19.701L96.2361 19.386C96.3937 19.2284 96.3937 19.0709 96.3937 18.9134C96.8662 17.8107 96.5512 17.023 96.2361 16.708C95.7635 16.0778 94.9759 15.6053 93.8732 15.6053L93.2431 15.7628L92.7705 16.0778L92.2979 16.708C92.1404 16.8655 91.8253 17.1805 91.5103 17.6531V18.1257V18.5983L91.6678 19.0709C92.7705 20.3311 93.8732 20.3311 94.9759 20.0161L95.291 19.8585L95.606 20.0161Z" fill="white"/>
<path d="M92.2985 3.63085L92.7711 3.31579L93.0862 2.8432L93.2437 2.21309V1.42544L92.9287 0.795323L92.141 0.322735C90.8808 -0.149852 90.0931 0.480265 89.9356 0.795323L89.7781 1.42544V2.05556C89.9356 3.00073 90.5657 3.63085 91.6684 3.63085L92.2985 3.47332V3.63085Z" fill="white"/>
<path d="M48.3469 10.5623L48.662 10.2472L48.8195 9.77465V9.61712H48.977C49.2921 8.82947 49.1346 8.35688 48.977 8.04182C48.977 7.72677 48.8195 7.41171 48.662 7.25418L48.3469 6.93912L47.8743 6.78159H47.5593C46.6141 6.46653 45.984 6.62406 45.3539 7.25418L45.1963 7.56924C44.8813 8.51441 45.0388 9.61712 45.6689 10.2472C46.2991 10.8774 47.4018 11.0349 48.3469 10.7198L48.662 10.4048L48.3469 10.5623Z" fill="white"/>
<path d="M85.9971 50.5749C86.7847 50.5749 87.2573 50.2599 87.5724 49.7873C87.8874 49.6297 88.045 49.3147 88.2025 48.9996C88.36 48.527 88.36 48.0544 88.2025 47.7394L87.8874 47.4243L87.5724 47.2668L87.0998 46.9517C86.9423 46.7942 86.6272 46.4792 86.1546 46.1641H85.5245L84.8944 46.3216L84.4218 46.4792L83.9492 46.7942L83.6341 47.2668C83.1616 48.6846 83.6341 50.1023 84.7368 50.89H85.682L85.9971 50.7324V50.5749Z" fill="white"/>
<path d="M87.4141 63.4909C88.2017 63.4909 88.6743 63.1758 88.9894 62.7033C89.3044 62.5457 89.462 62.2307 89.6195 61.9156C89.777 61.443 89.777 60.9704 89.6195 60.6554L89.3044 60.3403L88.9894 60.1828L88.5168 59.8677C88.3592 59.7102 88.0442 59.3951 87.5716 59.0801H86.9415L86.3114 59.2376L85.8388 59.3951L85.3662 59.7102L85.0511 60.1828C84.5785 61.6005 85.0511 62.8608 86.1538 63.806L87.099 63.9635L87.4141 63.806V63.4909Z" fill="white"/>
</g>
</svg>
