<svg width="191" height="175" viewBox="0 0 191 175" fill="none" xmlns="http://www.w3.org/2000/svg">
<path d="M129.83 54.0794C129.276 53.9628 128.722 53.8753 128.138 53.7586C126.534 54.8959 124.93 56.0041 123.327 57.1122C126.272 56.1791 129.246 55.4208 132.279 54.8084C131.463 54.5752 130.675 54.3419 129.859 54.0794L129.83 54.0794ZM-7.78515 69.9726L-7.66851 67.9313C-5.04394 68.2521 -2.56518 69.0395 -0.0864197 69.9726C1.43 67.7855 3.12139 65.715 4.81276 63.6445C6.79578 61.2532 8.72046 58.7745 10.791 56.4415C11.8699 55.2459 13.0656 54.2252 14.6986 53.9044C15.0194 53.8461 15.2819 54.1961 15.2236 54.4877C14.7278 57.1122 13.0656 59.0953 11.3159 61.0199C9.18705 63.3821 7.05823 65.7733 4.84194 68.0771C3.93792 69.0103 3.00474 69.9435 2.01324 70.76C2.74229 71.0516 3.47132 71.3141 4.22953 71.6057C6.82494 69.7977 9.47867 68.0771 12.0158 66.1816C14.757 64.1111 17.3815 61.8948 19.9478 59.6202C20.5893 59.0369 21.2017 58.4245 21.8725 57.8705C22.4557 57.3747 23.1847 56.9956 23.9721 57.0539C24.3804 57.0831 24.672 57.433 24.497 57.8413C23.9721 59.2119 22.9515 60.2909 21.8725 61.2532C20.6477 62.3322 19.3062 63.2946 17.9939 64.3152C16.565 65.4234 15.1361 66.5315 13.7363 67.6397C12.3657 68.6895 11.0534 69.7977 9.62447 70.76C8.66213 71.4016 7.64147 72.0431 6.53332 72.4806C7.55399 72.8305 8.57465 73.1804 9.59531 73.5304C10.791 73.9386 12.0158 74.2886 13.2114 74.6677C13.853 73.822 14.8153 73.1513 15.661 72.5097C16.5358 71.839 17.4107 71.1391 18.3147 70.4684C20.0936 69.1561 21.8725 67.8147 23.6513 66.5024C24.0013 66.2399 24.3804 65.9483 24.8761 65.9775C25.4302 66.0066 25.8093 66.444 25.8676 66.9981C25.9551 67.8438 25.2844 68.777 24.8178 69.4186C23.6513 70.935 21.9308 71.9848 20.2686 72.918C19.2479 73.5012 18.1689 74.0261 17.0608 74.4636C16.5067 74.6969 15.9526 74.901 15.3985 75.076C15.2819 75.1343 15.1361 75.1634 15.0194 75.2218C17.6148 75.98 20.2102 76.6507 22.8348 77.2339C23.5638 76.7673 24.3221 76.3591 25.0803 75.9216C26.4509 75.1343 27.7923 74.2886 29.1046 73.4429C31.7 71.7807 34.1496 69.9143 36.5992 67.9896C37.999 66.8815 39.4279 65.89 41.0901 65.2776C41.5276 65.1026 42.0233 65.4525 42.0525 65.9191C42.14 67.1439 41.2943 68.0771 40.3902 68.777C39.1654 69.7393 37.8823 70.6142 36.5992 71.5182C34.0038 73.3262 31.3209 75.0176 28.5797 76.534C27.7923 76.9715 27.005 77.3797 26.2176 77.788C26.1301 77.8463 26.0426 77.8755 25.9551 77.9338C26.4217 78.0213 26.8883 78.1379 27.3549 78.2254C28.5797 78.4587 29.7753 78.692 31.0001 78.8962C31.2043 78.4296 31.4376 77.963 31.6708 77.4964C32.2249 76.534 32.8665 75.6592 33.5955 74.8427C35.0828 73.1804 36.8325 71.7807 38.8155 70.7892C39.5445 70.4101 40.3611 71.1974 39.807 71.8973C37.8823 74.4344 35.8702 76.9132 33.7997 79.3336C35.1703 79.5377 36.5409 79.7127 37.9115 79.8585C39.2821 77.1173 41.0318 74.5219 42.869 72.0431C44.852 69.3602 46.9808 66.794 49.2555 64.3735C49.897 63.7028 50.5386 63.0029 51.2093 62.3905C51.7925 61.8365 52.5216 61.4865 53.3381 61.8073C53.6297 61.924 53.863 62.3322 53.7755 62.6822C53.1048 65.365 51.5301 67.6397 49.7512 69.7393C47.739 72.1306 45.5811 74.4052 43.5106 76.709L40.4486 80.0918C44.6187 80.4709 48.7889 80.6459 52.959 80.5875C53.7756 78.7212 54.7379 76.9423 55.7586 75.1926C56.8667 73.2971 58.004 71.4016 59.258 69.6227C59.7537 68.9228 60.8035 68.5729 61.3285 69.4769C61.7951 70.2351 61.3576 71.4016 61.0952 72.1598C60.5119 73.9386 59.4913 75.5425 58.3248 77.0006C57.3333 78.2254 56.196 79.3627 55.1753 80.5292C57.3333 80.4417 59.5204 80.3251 61.6784 80.0918C61.7076 80.0043 61.7659 79.946 61.8242 79.8585C62.0284 79.5086 62.2325 79.1586 62.4366 78.8378C62.8449 78.1379 63.2823 77.4672 63.6906 76.7673C64.5363 75.3676 65.3236 73.9095 66.0818 72.4805C66.8401 71.0516 67.5399 69.5935 68.1815 68.1063C68.7939 66.7065 69.3771 65.2776 70.077 63.907C70.8352 62.3905 71.7684 60.8158 73.139 59.7368C73.7223 59.2702 74.5971 59.9118 74.4513 60.6117C73.2557 66.7357 69.8729 72.1598 66.1985 77.1173C65.6736 77.8463 65.1195 78.5462 64.5654 79.2461C64.4196 79.4502 64.2738 79.6252 64.128 79.8293C67.6566 79.3919 71.1852 78.7795 74.6263 77.963C75.1804 75.4259 76.1427 72.9471 77.2508 70.6142C78.534 67.873 79.9921 65.2192 81.6834 62.7113C82.6458 61.2824 83.7831 59.8535 85.1829 58.8328C85.9119 58.3079 86.8451 58.862 86.9326 59.6785C87.0201 60.4075 86.7576 61.1366 86.466 61.7781C86.1452 62.4489 85.8244 63.1196 85.5037 63.7903C84.8329 65.1026 84.0747 66.3566 83.2582 67.6105C81.6834 70.0601 79.9921 72.4514 78.5631 75.0176C78.1549 75.7467 77.8049 76.4757 77.455 77.2048C78.6506 76.884 79.8463 76.534 81.0419 76.1549C83.6665 75.3092 86.2619 74.3469 88.7698 73.2387C88.8281 73.0929 88.8864 72.918 88.9448 72.7722C89.1489 72.1306 89.3239 71.489 89.528 70.8183C89.9071 69.4185 90.2279 68.0188 90.4903 66.619C91.0736 63.5279 91.7443 60.495 92.7358 57.4913C93.0274 56.6165 93.319 55.7708 93.6398 54.9251C93.9606 54.0794 94.2814 53.2045 94.748 52.4172C95.0104 51.9797 95.4478 51.6881 95.9728 51.7756C96.4394 51.8631 96.9059 52.3297 96.9059 52.8254C96.8476 54.1669 96.8476 55.5083 96.6435 56.8498C96.4394 58.1329 96.1186 59.3869 95.7395 60.6117C94.8938 63.2362 93.7565 65.7441 92.8233 68.3104C92.5608 69.0394 92.3275 69.7685 92.1234 70.4975C92.0068 70.9641 91.9193 71.4307 91.8026 71.8681C93.6981 70.9641 95.5937 70.0018 97.46 69.0103C97.4309 67.1148 97.5767 65.1901 97.6933 63.2946C97.8974 60.67 98.1891 58.0454 98.4807 55.4208C98.5973 54.546 99.793 54.6043 100.085 55.3042C100.93 57.3747 100.872 59.7368 100.551 61.8948C100.23 63.9361 99.618 65.89 99.3264 67.9313C99.4722 67.8438 99.6472 67.7563 99.793 67.6688C101.164 66.8815 102.505 66.0941 103.846 65.2776C103.876 65.1026 103.876 64.8985 103.905 64.7235C104.021 63.9944 104.051 63.2654 104.109 62.5363C104.196 61.1657 104.167 59.7368 104.138 58.337C104.109 55.3042 103.905 52.2714 104.167 49.2385C104.313 47.4597 104.692 44.8643 106.996 44.7768C107.783 44.7476 108.425 45.4183 108.279 46.2349C107.696 49.4427 107.288 52.6796 107.229 55.9458C107.2 57.4039 107.258 58.8619 107.229 60.32C107.2 61.3407 107.142 62.4489 106.879 63.4695C109.475 61.8656 112.041 60.2326 114.607 58.5412C114.549 57.9579 114.52 57.3455 114.491 56.7331C114.374 55.0126 114.316 53.292 114.286 51.5423C114.228 48.1304 114.316 44.6893 114.52 41.2773C114.607 39.6151 114.636 37.428 116.503 36.7281C116.882 36.5823 117.29 36.7573 117.523 37.078C118.107 37.8362 118.194 38.7986 118.252 39.7318C118.311 40.6358 118.34 41.5106 118.369 42.4147C118.427 44.1644 118.398 45.9432 118.311 47.693C118.165 50.6966 117.873 53.6711 117.436 56.6456C118.194 56.1499 118.923 55.625 119.681 55.1292C119.711 54.3127 119.915 53.467 120.09 52.6796C120.323 51.6298 120.556 50.58 120.848 49.5301C121.373 47.6055 122.043 45.6808 123.472 44.2227C124.085 43.6103 124.96 44.106 124.93 44.9226C124.843 46.439 124.756 47.8971 124.406 49.3552C124.143 50.4633 123.793 51.5423 123.327 52.5921C124.96 51.4548 126.564 50.2884 128.197 49.1219C128.313 47.9554 128.576 46.7889 128.809 45.6225C129.159 43.9019 129.596 42.2105 130.063 40.5191C130.53 38.8569 131.054 37.1947 131.638 35.5616C132.163 34.0744 132.746 32.2372 134.058 31.2457C134.496 30.9249 135.079 31.3623 134.991 31.8581C134.933 32.208 135.02 32.6163 135.02 32.9954C135.02 33.3745 135.02 33.7536 135.02 34.1327C135.02 34.8617 134.962 35.6199 134.904 36.349C134.758 37.8071 134.466 39.236 133.971 40.6066C133.475 41.9772 132.833 43.2895 132.221 44.6018C132.104 44.8351 132.017 45.0684 131.9 45.3017C131.754 45.7974 131.579 46.264 131.434 46.7598C133.767 45.0392 136.099 43.2895 138.403 41.5106C139.307 40.8108 140.211 40.1109 141.144 39.3818C141.028 38.7694 141.115 38.0695 141.086 37.5446C141.057 36.524 141.115 35.5033 141.174 34.4826C141.29 32.4705 141.465 30.4875 141.874 28.5044C141.961 28.0379 142.457 27.8046 142.894 27.9795C143.886 28.3878 144.061 29.4668 144.061 30.4291C144.061 31.5081 144.002 32.6163 143.944 33.6953C143.857 34.7451 143.74 35.8241 143.565 36.8447C143.536 37.078 143.477 37.3405 143.419 37.5738C145.606 35.8532 147.764 34.1035 149.922 32.3246C149.951 31.6248 149.981 30.8957 150.039 30.1958C150.156 28.6794 150.243 27.163 150.389 25.6466C150.505 24.1593 150.651 22.7012 150.768 21.214C150.885 19.9309 150.914 18.5311 151.526 17.3938C151.876 16.7522 152.838 16.9272 152.897 17.6562C153.13 20.4558 153.217 23.3136 153.013 26.1132C152.926 27.4546 152.78 28.7669 152.576 30.0792C153.859 29.0002 155.113 27.9504 156.367 26.8714C156.95 26.3756 157.504 25.8799 158.088 25.3841C158 24.7134 157.971 24.0135 157.971 23.3428C157.971 21.8264 158.029 20.31 158.204 18.8227C158.408 17.3355 158.671 15.8774 159.05 14.4193C159.254 13.6611 159.487 12.8737 159.721 12.1446C159.837 11.7947 159.954 11.4739 160.1 11.124C160.246 10.7449 160.479 10.3949 160.625 10.0158C160.916 9.31594 161.995 9.5784 162.024 10.2783C162.112 11.5322 161.908 12.7862 161.645 14.0402C161.383 15.3524 161.15 16.6356 160.975 17.9479C160.8 19.231 160.654 20.5433 160.566 21.8555C160.537 22.3221 160.508 22.7887 160.508 23.2553C161.937 21.9722 163.395 20.6891 164.824 19.4059C164.911 18.7352 164.999 18.0645 165.116 17.3938C165.349 15.994 165.611 14.6234 165.932 13.2528C166.574 10.4824 167.303 7.71204 168.236 5.02914C168.557 4.09596 170.073 4.62088 169.869 5.55406C169.315 8.03282 169.052 10.5699 168.644 13.0778C168.469 14.2443 168.265 15.4399 168.09 16.6064C168.586 16.1981 169.082 15.7607 169.606 15.3524C171.006 14.2151 172.319 12.932 173.747 11.853C173.806 11.3864 173.864 10.8907 173.893 10.4241C174.01 9.40342 174.156 8.3536 174.302 7.33293C174.593 5.2916 174.768 3.19195 175.264 1.17978C175.41 0.596541 176.372 0.392408 176.518 1.09229C176.518 1.15062 176.547 1.20894 176.547 1.26726L176.547 1.29643C176.693 2.05463 176.634 2.75452 176.576 3.51273C176.489 4.41674 176.401 5.34992 176.343 6.25394C176.226 7.5079 176.11 8.7327 175.993 9.98666C176.489 9.54923 176.984 9.1118 177.509 8.67438C177.509 8.44108 177.597 8.20779 177.772 8.00365C178.209 7.53706 178.967 7.27461 179.521 6.98299C180.805 6.2831 182.117 5.58322 183.4 4.88333C184.683 4.18345 185.995 3.51273 187.279 2.78368C188.183 2.28793 189.232 1.76301 190.224 2.28793C190.632 2.52122 190.69 3.0753 190.311 3.36692C188.533 4.62088 186.637 5.75819 184.712 6.83718C183.779 7.36209 182.846 7.85784 181.884 8.3536C181.417 8.58689 180.921 8.84935 180.426 9.05348C180.076 9.19929 179.667 9.40342 179.259 9.49091C179.026 9.75337 178.792 10.0158 178.559 10.2783C178.909 10.2491 179.259 10.22 179.609 10.1908C180.542 10.1325 181.475 10.1033 182.379 10.1325C184.246 10.1908 186.083 10.4824 187.92 10.774C188.649 10.8907 188.795 12.1155 188.037 12.2904C185.937 12.757 183.692 12.757 181.592 12.6987C180.542 12.6696 179.463 12.6112 178.413 12.4654C177.888 12.3779 177.364 12.3196 176.839 12.1738C175.147 14.0693 173.427 15.9357 171.677 17.802C177.014 17.5104 182.467 17.2771 187.57 19.0852C188.241 19.3185 187.949 20.31 187.337 20.3683C181.971 20.9515 176.547 20.5433 171.356 19.056L170.773 18.9977C170.685 18.9977 170.627 18.9685 170.598 18.9394C168.148 21.4181 165.582 23.7511 162.987 26.0548C162.899 26.1423 162.812 26.2007 162.724 26.2881C162.987 26.2298 163.278 26.2007 163.541 26.1715C165.203 25.9382 166.865 25.7632 168.557 25.6466C171.969 25.4133 175.41 25.5008 178.822 25.7341C179.405 25.7632 179.784 26.434 179.755 26.9589C179.696 27.5713 179.259 27.9504 178.676 28.0379C175.031 28.5919 171.356 28.9419 167.711 29.3501C165.961 29.5251 164.212 29.6709 162.433 29.5543C161.616 29.4959 160.712 29.4668 159.925 29.2043C159.779 29.146 159.633 29.1168 159.487 29.0877C157.883 30.4583 156.279 31.8289 154.676 33.1703C155.055 33.112 155.434 33.0537 155.813 32.9954C157.096 32.7912 158.379 32.6454 159.691 32.5871C162.287 32.4705 164.882 32.7329 167.332 33.6953C167.973 33.9577 167.769 35.0367 167.069 35.0367C164.357 35.0367 161.645 35.0075 158.933 34.9492C157.708 34.9201 156.454 34.9492 155.201 34.8326C154.821 34.8034 154.384 34.7451 153.947 34.6284C153.626 34.6576 153.276 34.6284 152.955 34.5993C151.293 35.9699 149.631 37.3405 147.968 38.6819C150.651 38.7986 153.334 38.9736 156.017 39.2068C157.65 39.3527 159.283 39.4985 160.916 39.6734C162.403 39.8192 164.386 39.7609 165.057 41.4231C165.232 41.8606 165.028 42.3563 164.649 42.6188C163.482 43.4353 162.054 43.4645 160.712 43.2312C159.254 42.9979 157.825 42.6479 156.396 42.3563C153.363 41.7439 150.272 41.1899 147.327 40.2275C147.152 40.1692 146.889 40.0817 146.627 39.9942C146.539 39.9942 146.481 39.9651 146.394 39.9651C145.898 40.3442 145.402 40.7524 144.906 41.1315C143.361 42.3563 141.786 43.552 140.24 44.7476C144.352 44.6893 148.464 45.1559 152.459 46.2349C153.276 46.4682 153.334 47.8096 152.372 47.8388C149.776 47.8679 147.181 47.7513 144.615 47.4888C143.332 47.3722 142.049 47.168 140.795 46.9639C140.182 46.8473 139.57 46.7598 138.987 46.614C138.695 46.5556 138.403 46.4973 138.082 46.439C135.4 48.4803 132.688 50.4633 129.946 52.4172C132.6 52.4755 135.254 52.5338 137.937 52.6796C141.174 52.8546 144.44 53.0296 147.648 53.5836C149.368 53.8753 151.089 54.3419 152.693 55.0709C153.392 55.3917 153.159 56.4707 152.43 56.529C148.668 56.8498 144.819 56.8206 141.028 56.4415C139.395 56.9081 137.703 57.1997 136.012 57.4913C132.892 58.0163 129.713 58.5703 126.534 58.8328C124.785 58.9786 122.947 59.0952 121.198 58.7745C121.11 58.7453 121.052 58.7161 120.994 58.6578C119.069 59.9409 117.144 61.2241 115.22 62.5072C119.915 62.303 124.668 62.9446 129.217 64.0819C130.792 64.461 132.338 64.9276 133.854 65.4525C134.554 65.6858 134.437 66.794 133.767 66.9981C130.355 67.9896 126.739 67.1439 123.297 66.6773C121.344 66.3857 119.361 66.1233 117.407 65.8316C115.482 65.5692 113.557 65.2776 111.691 64.7818C109.941 65.89 108.162 66.9981 106.384 68.0771C106.238 68.1646 106.092 68.2521 105.946 68.3396L105.975 68.3396C107.229 68.427 108.512 68.3396 109.766 68.3396C111.341 68.3104 112.916 68.3979 114.461 68.6603C117.523 69.1852 120.44 70.3226 123.064 72.014C123.327 72.1889 123.385 72.6263 123.268 72.8888C123.122 73.2096 122.802 73.3262 122.452 73.2971C119.215 73.0055 115.978 72.5389 112.799 71.8098C111.224 71.4599 109.65 71.0516 108.104 70.585C107.317 70.3517 106.559 70.0893 105.8 69.8268C105.48 69.7102 105.188 69.5935 104.867 69.4769C104.75 69.4477 104.634 69.4477 104.517 69.4185C104.43 69.4185 104.342 69.3894 104.284 69.3311C101.018 71.2849 97.6642 73.1221 94.2522 74.7843C94.4272 74.7843 94.6022 74.7843 94.7771 74.8135C96.4102 74.8718 98.0724 74.8427 99.7055 74.8427C102.622 74.8718 105.48 75.3967 108.192 76.4466C109.679 77.0298 111.108 77.8172 112.42 78.692C113.062 79.1294 112.624 80.2376 111.895 80.2376C106.004 80.2959 100.114 79.596 94.4563 78.0213C93.0566 77.6422 91.7735 77.1173 90.4903 76.4757C89.1489 77.059 87.8074 77.613 86.4368 78.1088C85.8536 78.3129 85.2995 78.517 84.7163 78.7212C85.5911 79.2169 86.3493 79.7418 87.3409 80.0043C88.4782 80.2959 89.6446 80.5001 90.7528 80.85C93.494 81.6665 96.0311 82.8913 98.3932 84.4952C99.3555 85.1368 98.5098 86.7407 97.4309 86.4782C94.4855 85.7784 91.4818 85.0493 88.6531 83.9412C87.2825 83.4162 85.9119 82.833 84.6288 82.104C83.9872 81.7249 83.2874 81.3166 82.7333 80.8208C82.4417 80.5875 82.1792 80.3542 81.9167 80.0918C81.8001 79.9751 81.7126 79.8585 81.6251 79.7418C77.6008 80.9958 73.489 81.9581 69.3188 82.6872C70.7186 83.5329 72.1475 84.3786 73.5765 85.166C74.8012 85.8367 76.0844 86.4782 77.3383 87.0906C77.8049 86.7115 78.4173 86.4491 78.9131 86.2158C79.7004 85.8075 80.517 85.4576 81.3335 85.166C82.9957 84.5536 84.7746 84.1161 86.5243 83.9703C87.1659 83.912 87.2534 84.7869 86.7285 85.0201C85.2704 85.6909 83.7831 86.3033 82.2667 86.8573C81.5085 87.1198 80.7794 87.3823 80.0212 87.6155C79.7004 87.703 79.3505 87.8197 79.0297 87.9072C80.2837 88.4904 81.5668 89.0445 82.8499 89.5694C83.2582 89.3069 83.6956 89.1028 84.0747 88.9278C84.8038 88.5779 85.5911 88.2571 86.3493 87.9947C87.9532 87.4406 89.6155 87.1198 91.3069 86.974C91.8318 86.9448 92.1817 87.7322 91.6568 87.9947C89.9071 88.8695 88.1282 89.686 86.3202 90.3568C86.0869 90.4443 85.8536 90.5317 85.5911 90.6192C86.5535 90.9692 87.5158 91.3191 88.4782 91.6399C88.6531 91.6982 88.8573 91.7565 89.0322 91.8149C89.0614 91.8149 89.1489 91.844 89.178 91.8732C89.2072 91.8732 89.2655 91.9023 89.2655 91.9023C89.6738 92.0482 90.1112 92.1648 90.5195 92.3106C91.1319 92.5147 91.7735 92.6897 92.3859 92.8647C92.4733 92.8355 92.5608 92.8355 92.6483 92.8064C93.3482 92.6314 94.0772 92.4856 94.7771 92.3106C96.2352 91.9898 97.6933 91.669 99.1514 91.3774C100.464 91.115 101.776 90.8234 103.117 90.6192C104.313 90.4443 105.538 90.3859 106.704 90.7067C107.317 90.8817 107.492 91.7857 106.792 91.9898C104.021 92.8647 101.193 93.5062 98.3349 93.8853C97.8683 93.9437 97.4017 94.002 96.9059 94.0603C98.5973 94.4686 100.318 94.8185 102.038 95.1685C104.721 94.6727 107.375 94.002 110 93.2146C111.72 92.6897 113.412 92.1065 115.074 91.4649C116.707 90.8525 118.311 90.3276 120.06 90.0943C120.585 90.036 120.848 90.7067 120.556 91.0858C118.748 93.4188 115.511 94.2353 112.799 94.9643C110.962 95.4601 109.096 95.81 107.229 96.1017C109.008 96.3641 110.816 96.5974 112.624 96.8015C113.791 96.9473 114.957 97.064 116.124 97.1515C116.794 96.7724 117.523 96.4808 118.165 96.16C118.223 96.1308 118.282 96.1017 118.34 96.0725C118.427 96.0142 118.544 95.9267 118.632 95.8684C119.74 95.081 120.76 94.2353 121.839 93.4188C123.91 91.8149 126.097 90.3568 128.722 89.9193C129.305 89.8318 129.538 90.5609 129.246 90.94C127.672 93.098 125.251 94.5561 122.831 95.5767C121.577 96.1017 120.323 96.5682 119.04 97.064C118.923 97.1223 118.807 97.1515 118.719 97.2098C118.661 97.239 118.602 97.2681 118.544 97.3264C118.632 97.3264 118.719 97.3264 118.807 97.3556C119.011 97.3556 119.186 97.3848 119.39 97.3848C119.477 97.3848 119.594 97.3848 119.681 97.4139C119.711 97.4139 119.74 97.4139 119.769 97.4139C119.798 97.4139 119.827 97.4139 119.856 97.4139C120.702 97.4723 121.548 97.5014 122.393 97.5306C123.91 97.5889 125.455 97.6181 126.972 97.6472C127.788 96.16 129.305 94.9935 130.559 93.9728C132.279 92.5731 134.029 91.2608 135.779 89.9193C136.187 89.5986 136.595 89.2778 137.004 88.9861C137.353 88.7237 137.762 88.4029 138.228 88.4612C139.22 88.5779 139.074 89.686 138.637 90.2693C137.412 91.9607 135.779 93.3896 134.146 94.6727C132.746 95.7517 131.288 96.714 129.801 97.6764C132.629 97.6472 135.429 97.5306 138.257 97.3556C138.287 97.2681 138.316 97.1806 138.374 97.0932C138.607 96.5099 138.841 95.9267 139.103 95.3434C139.628 94.177 140.415 93.1855 141.349 92.3398C142.282 91.4941 143.157 90.5901 144.032 89.686C144.965 88.6945 145.869 87.7614 146.627 86.624C146.714 86.4782 146.889 86.4199 147.035 86.4491C147.064 86.4199 147.064 86.3907 147.094 86.3907C147.473 85.8367 148.464 86.4491 148.114 87.0615C145.985 90.7942 143.419 94.2644 140.357 97.2681C141.174 97.2098 141.961 97.1515 142.778 97.064C143.536 97.0057 144.265 96.9182 145.023 96.8307C145.052 96.8015 145.081 96.7432 145.14 96.714C145.606 95.8392 146.306 95.0227 146.919 94.2353C147.648 93.3021 148.347 92.3398 149.077 91.4066C150.447 89.5986 151.964 87.703 154.18 86.9448C154.676 86.7698 155.171 87.3239 154.909 87.7905C153.801 89.9777 152.051 91.7274 150.243 93.3313C149.339 94.1478 148.435 94.9352 147.56 95.7517C147.239 96.0433 146.948 96.3641 146.656 96.6557C148.756 96.4224 150.826 96.16 152.926 95.8684C153.801 95.7517 154.705 95.6059 155.58 95.4892C155.55 94.9935 155.725 94.3811 155.9 94.0312C156.367 92.9813 156.979 91.9607 157.592 90.9692C158.817 88.957 160.216 87.0615 161.908 85.3992C162.374 84.9327 163.045 85.5159 162.695 86.07C162.141 86.9448 161.762 87.9655 161.354 88.8987C160.945 89.8902 160.537 90.8817 160.1 91.844C159.662 92.7772 159.196 93.6812 158.642 94.5269C158.525 94.731 158.379 94.9352 158.233 95.1393C159.721 94.906 161.208 94.6435 162.724 94.5269C162.783 94.4394 162.87 94.4103 162.987 94.3811C164.095 94.3228 165.145 94.177 166.195 93.827C167.244 93.4479 168.265 92.9813 169.286 92.4856C171.298 91.5524 173.368 90.6484 175.643 90.8525C176.168 90.9108 176.314 91.7274 175.876 91.9898C173.806 93.2146 171.502 94.2061 169.14 94.7894C167.594 95.1685 166.049 95.4018 164.503 95.4601C164.095 95.6059 163.657 95.7517 163.249 95.8683C162.462 96.1308 161.616 96.3058 160.8 96.4808C159.546 96.7724 158.292 97.0348 157.038 97.2681C158.554 97.9972 160.333 98.1138 161.995 98.2305C163.045 98.3179 164.095 98.3763 165.145 98.5804C166.195 98.7845 167.39 99.0762 168.236 99.7469C168.732 100.126 168.265 100.768 167.769 100.738C165.524 100.593 163.278 100.243 161.091 99.7177C160.012 99.4553 158.962 99.1053 157.942 98.7262C157.067 98.4054 156.25 97.9972 155.434 97.5889C153.305 97.968 151.176 98.318 149.018 98.6096C149.31 98.7262 149.601 98.872 149.893 98.9887C151.118 99.5427 152.313 100.068 153.538 100.622C155.959 101.701 158.35 102.809 160.77 103.888C161.325 104.15 161.15 104.996 160.566 105.025C158.029 105.2 155.609 104.413 153.363 103.363C152.226 102.809 151.118 102.196 150.01 101.584C149.718 101.409 149.456 101.263 149.164 101.088C148.756 100.855 148.347 100.593 147.939 100.359C147.298 99.9802 146.598 99.6011 146.044 99.047C145.869 99.0762 145.694 99.1053 145.519 99.1053C144.032 99.3095 142.544 99.4553 141.057 99.6302C141.494 99.8635 141.961 100.126 142.369 100.418C143.565 101.205 144.702 102.051 145.81 102.955C147.764 104.5 149.718 106.046 151.964 107.096C152.313 107.241 152.693 107.416 153.043 107.533C153.83 107.854 153.247 108.991 152.488 108.729C149.689 107.679 146.977 106.396 144.411 104.85C143.127 104.092 141.874 103.246 140.678 102.371C139.716 101.672 138.666 100.884 137.82 99.9802C135.312 100.213 132.833 100.359 130.325 100.476C130.967 100.855 131.579 101.205 132.221 101.584C133.737 102.43 135.254 103.188 136.829 103.917C138.403 104.646 139.978 105.317 141.582 105.958C142.369 106.279 143.157 106.571 143.973 106.833C144.79 107.125 145.519 107.446 145.898 108.262C146.073 108.641 145.665 109.05 145.285 108.962C140.095 107.796 135.166 105.696 130.734 102.751C130.092 102.313 129.48 101.905 128.867 101.409C128.517 101.147 128.167 100.855 127.847 100.563C126.884 100.593 125.922 100.622 124.96 100.622C123.618 100.651 122.248 100.651 120.906 100.622C121.139 100.738 121.373 100.855 121.548 100.913C122.218 101.205 122.889 101.497 123.56 101.788C124.872 102.371 126.184 102.926 127.497 103.538C128.809 104.15 130.092 104.792 131.346 105.463C132.571 106.133 133.767 106.892 134.554 108.058C134.962 108.641 134.291 109.254 133.708 109.05C130.909 108.029 128.167 106.717 125.601 105.171C124.318 104.413 123.064 103.596 121.869 102.721C121.256 102.284 120.702 101.817 120.119 101.322C120.09 101.292 120.09 101.292 120.06 101.263C119.944 101.234 119.856 101.147 119.798 101.03C119.623 100.884 119.477 100.709 119.302 100.563C117.436 100.505 115.54 100.447 113.674 100.301C113.732 100.388 113.791 100.447 113.849 100.534C113.995 100.709 114.141 100.855 114.286 101.03C114.403 101.117 114.52 101.205 114.636 101.292C115.832 102.226 116.969 103.246 118.048 104.325C120.177 106.454 122.043 108.816 123.677 111.353C123.939 111.762 123.589 112.432 123.064 112.286C121.839 111.937 121.052 110.741 120.265 109.837C119.302 108.729 118.34 107.621 117.348 106.483C116.386 105.375 115.395 104.267 114.461 103.13L113.091 101.526C112.916 101.322 112.712 101.088 112.508 100.884C112.245 100.651 111.953 100.418 111.691 100.184C110.233 100.068 108.804 99.9219 107.375 99.7469C108.396 100.593 109.358 101.467 110.32 102.371C112.391 104.413 114.286 106.6 116.036 108.904C116.415 109.429 115.803 110.012 115.278 109.779C110.67 107.941 108.25 103.392 105.509 99.5427C105.45 99.5136 105.421 99.4844 105.363 99.4553C105.042 99.4261 104.75 99.3678 104.43 99.3386C102.593 99.0762 100.784 98.7262 98.9764 98.3471C101.951 102.226 104.75 106.221 107.433 110.333C107.871 111.033 107.025 111.762 106.384 111.266C103.934 109.399 101.747 107.212 99.8221 104.792C98.8889 103.596 98.0141 102.371 97.2559 101.088C96.6143 100.009 95.9436 98.8137 95.5645 97.5889C93.7856 97.1515 92.0359 96.6849 90.3154 96.16C90.432 96.3641 90.5195 96.5682 90.6361 96.7724L92.0068 99.3969C92.9108 101.147 93.8148 102.896 94.748 104.675C94.9521 105.084 94.9229 105.55 94.5147 105.842C94.1356 106.104 93.6107 105.988 93.3482 105.608C92.1234 103.8 91.0152 101.934 90.0821 99.9802C89.6446 99.0178 89.2072 98.0847 88.8573 97.064C88.7406 96.7141 88.624 96.3349 88.5365 95.9558C88.4782 95.81 88.449 95.6934 88.449 95.5767C87.1367 95.1685 85.8244 94.731 84.5413 94.2353C84.5705 94.731 84.658 95.256 84.7454 95.7226C84.9204 96.3933 85.0954 97.0348 85.2995 97.6764C85.5037 98.318 85.7369 98.9595 85.9411 99.5719C86.3785 100.593 86.8743 101.584 87.4283 102.576C89.1197 105.638 90.8986 108.67 92.7066 111.674C92.9691 112.112 92.8816 112.666 92.4733 112.957C92.0068 113.278 91.511 113.103 91.1902 112.724C89.2947 110.566 87.72 108.146 86.4077 105.608C85.0954 103.042 83.9581 100.33 83.2582 97.5306C82.9374 96.2183 82.6166 94.8769 82.6166 93.5354C81.1877 92.9813 79.7588 92.3689 78.359 91.7565C78.534 92.194 78.7089 92.6022 78.8839 93.0397C79.438 94.3228 80.0504 95.6059 80.6919 96.8599C81.3335 98.1138 82.0334 99.3386 82.7916 100.534C83.3457 101.438 83.9872 102.488 83.6373 103.596C83.4623 104.15 82.7916 104.354 82.3833 103.859C80.7794 101.759 79.4088 99.4553 78.3298 97.064C77.455 95.081 76.6093 92.9813 76.2593 90.7942C75.0345 90.211 73.8097 89.5986 72.6141 88.957C72.7308 89.7152 72.8182 90.5026 72.9641 91.2608C73.2557 92.8355 73.6348 94.3811 74.1014 95.8975C74.568 97.4139 75.1512 98.872 75.7636 100.33C76.376 101.701 76.9009 103.071 76.7843 104.588C76.7259 105.258 75.7928 105.346 75.4428 104.879C72.2933 100.388 70.2812 95.1976 69.5813 89.7444C69.4646 88.8987 69.4063 88.0238 69.4063 87.1781C67.5983 86.1283 65.7902 84.991 64.0405 83.8245C63.9239 83.7662 63.8364 83.6787 63.7197 83.6204C60.337 83.9995 56.925 84.2328 53.5422 84.2911C53.5714 84.3203 53.6006 84.3203 53.6006 84.3494C53.8922 84.5827 54.1547 84.816 54.4463 85.0493C55.0587 85.5451 55.7002 86.07 56.3126 86.5657C57.5374 87.5572 58.7622 88.5487 59.9579 89.5402C61.1827 90.5317 62.3783 91.5524 63.5739 92.5439C64.478 93.3021 66.3443 94.4394 65.8777 95.8684C65.8486 95.9267 65.8486 95.985 65.8194 96.0142C65.8194 96.2475 65.6444 96.5099 65.4111 96.5099C65.1487 96.7141 64.7987 96.8015 64.4488 96.5974C61.7659 94.9935 59.1997 93.1855 56.8959 91.0858C54.5921 89.0153 52.4633 86.7115 50.5094 84.2911L50.5094 84.2619C48.1181 84.2328 45.7269 84.1745 43.3356 83.9995C45.8435 86.799 48.4389 89.4819 51.5301 91.6399C54.942 94.002 58.6456 95.9558 62.1158 98.2596C64.0405 99.5428 65.9069 100.943 67.5983 102.546C68.3273 103.246 67.5983 104.325 66.6651 104.005C62.5241 102.517 58.4706 100.738 54.7379 98.4054C50.801 95.9558 47.3891 92.8938 44.2688 89.4819C42.6357 87.703 41.0318 85.7784 39.7779 83.7079C37.0366 83.4454 34.2663 83.0955 31.5542 82.658C31.1168 82.5997 30.7085 82.5122 30.2711 82.4539C31.1168 83.3871 31.9916 84.3203 32.8082 85.2534C33.508 86.07 34.2371 86.9157 34.937 87.7322C35.0828 87.7614 35.1994 87.8197 35.2869 87.9655C35.5785 88.3446 35.841 88.7237 36.1034 89.132C36.1909 89.2195 36.2493 89.3069 36.3368 89.3944C38.6989 92.1356 41.0318 94.8769 43.2773 97.7056C44.5604 99.3095 45.8435 100.943 47.0975 102.576C47.6516 103.275 46.7475 104.296 45.9602 103.888C42.5482 102.109 39.6029 99.6011 37.0658 96.7141C35.8118 95.2851 34.6454 93.7979 33.5664 92.2231C32.4874 90.6484 31.4084 89.0153 30.5335 87.3239C30.0378 86.3616 29.542 85.3701 29.0754 84.3786C28.8422 83.912 28.5797 83.4162 28.4047 82.9205C28.3172 82.5997 28.2006 82.3081 28.0839 81.9873C25.5177 81.5207 22.9806 80.9667 20.4727 80.3543C23.768 86.5074 28.7547 91.6691 33.2748 96.9765C34.7328 98.6971 36.1618 100.447 37.4741 102.284C37.7365 102.634 37.649 103.13 37.3283 103.421C36.9783 103.742 36.57 103.684 36.1909 103.45C31.875 100.651 28.0548 97.1223 24.847 93.098C24.9928 93.6812 24.1762 94.3228 23.6805 93.7979C21.4059 91.5524 19.1312 89.2778 17.1774 86.7407C16.2151 85.5159 15.3694 84.2036 14.6112 82.833C13.8821 81.4916 13.1239 79.9752 13.0073 78.4296C13.0073 78.4004 13.0073 78.4004 13.0073 78.3712C11.8991 78.0505 10.7618 77.7005 9.65365 77.3214C10.9368 80.121 12.4823 82.7747 13.8238 85.5451C14.582 87.0906 15.2819 88.6362 15.8068 90.2693C16.1859 91.3774 17.0608 93.5354 15.661 94.3228C15.3694 94.4978 14.9611 94.4686 14.757 94.1478C12.7448 91.0567 10.9659 87.7905 9.50784 84.3786C8.39968 81.8123 7.40818 79.1295 6.79578 76.3882C5.89176 76.0675 4.98774 75.7467 4.08373 75.4259C3.06306 75.0468 2.01324 74.6677 0.992575 74.2886C1.02173 74.3469 1.05089 74.4344 1.08005 74.4927C1.34251 75.1343 1.57581 75.805 1.77994 76.4466C1.83826 76.5924 1.86742 76.7673 1.92574 76.9132C5.42518 83.8537 8.95376 90.765 12.4532 97.7056C13.2697 99.2803 14.8445 101.526 13.7363 103.334C13.4155 103.888 12.6865 104.005 12.2782 103.45C7.02908 96.2766 2.97558 88.1405 0.584296 79.5669C0.263526 78.4004 -0.0572595 77.2048 -0.290551 76.0383C-0.553018 75.5134 -0.815469 74.9885 -1.07792 74.4927C-1.25289 74.1719 -1.25289 73.7637 -0.990442 73.5012C-2.30273 72.9471 -3.55668 72.3639 -4.78149 71.6932C-5.83131 71.1099 -6.88114 70.4975 -7.93096 69.9143L-7.78515 69.9726ZM15.2236 79.042C15.3402 79.2461 15.486 79.4794 15.6027 79.6835C15.9818 80.3251 16.39 80.9375 16.7983 81.579C17.6148 82.8913 18.4897 84.1745 19.3645 85.4576C20.5893 87.2364 21.8433 88.957 23.1264 90.6776C21.7267 88.6654 20.5019 86.5657 19.4229 84.3786C18.898 83.2996 18.4314 82.1623 18.0231 81.025C17.8773 80.5875 17.7315 80.1501 17.5857 79.7419C16.7983 79.5377 16.0109 79.3336 15.2236 79.1003L15.2236 79.042Z" fill="#007266"/>
<path d="M75.5006 124.593C75.4423 123.485 75.2965 122.289 75.3257 121.152L75.3257 121.123C74.5091 120.627 73.6926 120.102 72.8761 119.606C72.9052 119.665 72.9344 119.723 72.9635 119.781C73.1968 120.335 73.4593 120.919 73.7218 121.473C74.2758 122.668 74.8882 123.835 75.5298 124.972C75.5298 125.001 75.5589 125.001 75.5589 125.03C75.5589 124.885 75.5298 124.71 75.5298 124.564L75.5006 124.593ZM76.8129 138.299C76.4046 135.237 76.0547 132.175 75.8214 129.084C75.8214 128.909 75.7922 128.763 75.7922 128.588C74.8882 127.305 74.0425 125.993 73.2843 124.622C72.5553 123.281 71.8846 121.823 71.418 120.335C71.1555 119.781 70.8347 119.198 70.8056 118.556C70.8056 118.469 70.8056 118.411 70.8347 118.323C69.5224 117.507 68.2393 116.661 66.9854 115.786C67.0437 115.99 67.102 116.194 67.1312 116.398C67.5103 118.002 67.7436 119.635 67.8019 121.269C67.8311 122.872 67.7436 124.505 67.4519 126.08C67.1312 127.801 66.6063 129.521 66.6937 131.271C66.7521 132.408 65.0024 132.583 64.944 131.446C64.7399 128.297 64.5649 125.147 64.5649 121.998C64.5649 120.452 64.5941 118.906 64.6816 117.361C64.7107 116.603 64.7399 115.844 64.7982 115.086C64.7982 114.97 64.8274 114.824 64.8274 114.707L64.8274 114.678C64.7691 114.503 64.7107 114.299 64.6524 114.124C62.2611 112.345 59.9574 110.449 57.7994 108.321C57.4203 107.942 57.0412 107.562 56.6621 107.154C56.9537 108.029 57.2161 108.904 57.4786 109.779C58.5576 113.366 59.4324 117.011 60.2781 120.656C60.3073 120.714 60.3073 120.802 60.3365 120.86C60.4239 121.269 60.0448 121.677 59.6949 121.735C59.2575 121.823 58.9075 121.589 58.7326 121.21C57.3036 118.469 56.1371 115.582 55.2623 112.607C54.854 111.149 54.5041 109.691 54.2125 108.204C53.9208 106.746 53.5417 105.171 53.5417 103.684C51.2088 101.001 49.0216 98.2015 46.8637 95.3728C46.6595 95.1103 46.4846 94.8479 46.2804 94.5562C46.5429 97.8224 46.9803 101.059 47.651 104.267C47.826 105.084 48.001 105.9 48.2051 106.717C49.0508 109.954 50.0715 113.132 51.2671 116.253C51.792 117.565 49.7507 118.323 49.1966 117.011C47.3594 112.52 45.8722 107.854 44.9973 103.072C44.5599 100.709 44.2391 98.3473 44.035 95.956C43.9475 94.7604 43.8017 93.5647 43.86 92.3691C43.86 92.0192 43.8892 91.6692 43.9183 91.3193C43.4809 90.6777 43.0435 90.0653 42.606 89.4238C42.6352 89.7445 42.6644 90.0945 42.6935 90.4153C42.781 92.0192 42.8102 93.6231 42.781 95.227C42.6935 98.3473 42.4311 101.643 41.6729 104.675C41.4396 105.55 39.9815 105.638 39.9815 104.617C39.9815 102.838 39.8065 101.059 39.7482 99.2805C39.6899 97.5016 39.6899 95.7227 39.7482 93.9438C39.8065 92.2233 39.9523 90.5319 40.2439 88.8405C40.3314 88.2864 40.4481 87.7324 40.5647 87.1783C40.5647 86.945 40.623 86.7117 40.7105 86.5076C40.1564 85.6327 39.6024 84.7579 39.0775 83.883C40.3314 83.708 41.5854 83.7372 42.8393 83.7372C43.2184 83.7372 43.5392 83.6497 43.8017 83.5331C44.0058 83.8538 44.2391 84.1746 44.4432 84.5246C45.2598 85.7785 46.0763 87.0616 46.8928 88.3156C47.5052 88.3739 48.1176 88.5489 48.7009 88.6655C49.5174 88.8405 50.3339 89.0446 51.1505 89.2779C52.7252 89.6862 54.3 90.1528 55.8747 90.6194C59.0533 91.5234 62.2611 92.3983 65.5564 92.7482C66.6063 92.8649 66.5188 94.4979 65.4981 94.5854C61.9987 94.9062 58.4701 94.5854 55.0582 93.6814C53.3668 93.2148 51.7045 92.6316 50.159 91.8442C49.6632 91.6109 49.1675 91.3193 48.7009 91.0568C48.7884 91.2026 48.905 91.3484 48.9925 91.4942C50.6547 93.973 52.4336 96.4226 54.3291 98.7847C57.6536 97.7349 61.1238 97.1225 64.5649 96.6559C68.3851 96.131 72.2637 95.4019 76.1422 95.8394C77.367 95.9852 77.1628 97.7057 76.0547 97.8807C72.0887 98.5514 68.2393 99.6596 64.3025 100.418C62.3778 100.797 60.4531 101.03 58.4993 101.059C57.7119 101.059 56.8954 101.059 56.108 100.972C57.0995 102.138 58.1202 103.305 59.17 104.384C59.2575 104.5 59.3741 104.588 59.4908 104.705C60.074 104.646 60.7156 104.821 61.2696 104.967C61.4446 104.967 61.6196 104.967 61.7945 104.967C64.9149 104.967 68.006 104.938 71.1263 104.938C74.5674 104.938 78.0669 104.792 81.4496 105.579C82.4995 105.813 82.4411 107.271 81.3913 107.446C77.542 108.146 73.6343 108.321 69.7266 108.029C67.8019 107.883 65.9355 107.621 64.0692 107.212C63.4568 107.067 62.8735 106.921 62.2903 106.775C62.057 106.775 61.8237 106.775 61.5613 106.775C63.4276 108.583 65.3523 110.274 67.3936 111.878C67.4519 111.878 67.5103 111.849 67.5686 111.849C70.9805 112.228 74.3633 112.549 77.7752 112.987C79.4375 113.191 81.1289 113.395 82.7911 113.599C84.3367 113.803 85.9114 114.007 87.3403 114.678C88.1277 115.057 87.9527 116.311 87.0487 116.398C83.4618 116.661 79.8749 116.544 76.3172 116.019C74.7716 115.786 73.2552 115.494 71.7387 115.086C71.9429 115.232 72.1178 115.349 72.322 115.494C74.4216 116.923 76.5796 118.294 78.6793 119.723C79.7583 119.869 80.8372 120.044 81.9162 120.19C83.5785 120.423 85.2407 120.656 86.8738 120.948C90.1982 121.56 93.5227 122.231 96.8179 122.989C97.7803 123.222 97.7803 124.651 96.7596 124.768C92.7061 125.235 88.4193 125.001 84.4242 123.835C85.3282 124.505 86.2322 125.205 87.107 125.905C87.5445 126.255 87.9527 126.605 88.3902 126.955C88.7693 126.955 89.1775 127.043 89.5566 127.101C90.2565 127.188 90.9564 127.276 91.6563 127.392C93.0561 127.597 94.4558 127.888 95.8264 128.209C98.5968 128.851 101.251 129.755 103.875 130.863C104.779 131.242 104.254 132.467 103.379 132.408C100.755 132.204 98.1302 131.796 95.564 131.125C94.3975 130.804 93.2019 130.454 92.0646 130.046C92.9394 130.804 93.7851 131.563 94.6016 132.35C95.0682 132.787 95.5348 133.254 96.0014 133.691C96.4097 133.925 96.8471 134.129 97.2554 134.304C97.6053 134.304 97.8969 134.479 98.2177 134.625C98.626 134.829 99.0342 135.004 99.4425 135.179C99.53 135.208 99.6175 135.266 99.705 135.295C100.084 135.441 100.463 135.558 100.813 135.674C103.029 136.433 105.275 137.133 107.52 137.745C108.541 138.007 108.279 139.64 107.229 139.378C104.779 138.766 102.33 138.066 99.9674 137.133C99.5883 136.987 99.2092 136.841 98.8301 136.695C98.9759 136.841 99.0926 136.987 99.2384 137.133C99.355 137.103 99.4717 137.103 99.5883 137.162C100.696 137.832 101.659 138.766 102.738 139.466C103.875 140.224 105.1 140.865 106.354 141.478C108.774 142.673 111.282 143.665 113.819 144.656C114.461 144.919 114.111 145.969 113.44 145.794C110.495 145.152 107.433 144.511 104.75 143.111C103.583 142.498 102.475 141.798 101.484 140.953C100.813 140.37 99.9383 139.553 99.5008 138.678C97.722 137.162 95.8848 135.704 94.0767 134.216C93.3185 133.604 92.5603 132.992 91.8021 132.408C92.1229 133.283 92.4145 134.187 92.677 135.091C93.3477 137.337 93.9601 139.582 94.485 141.857C94.5725 142.207 94.2809 142.498 93.9892 142.644C92.9686 143.14 92.2979 142.003 92.0646 141.186C91.6855 139.903 91.3647 138.62 91.0731 137.337C90.5481 135.179 90.0816 132.992 89.7316 130.775C88.8276 130.075 87.9236 129.376 86.9904 128.705C86.3197 128.209 85.6198 127.713 84.9491 127.247C85.0366 127.538 85.124 127.83 85.1824 128.092C85.5615 129.405 85.9114 130.746 86.1447 132.088C86.6113 134.741 86.7571 137.453 86.203 140.136C86.0281 141.069 84.8033 140.924 84.5991 140.078C84.0159 137.512 83.491 134.916 83.1119 132.321C82.9077 131.009 82.7619 129.725 82.6161 128.413C82.4995 127.451 82.3828 126.488 82.3537 125.526C80.7206 124.447 79.0584 123.368 77.367 122.318C77.4545 122.61 77.542 122.902 77.6294 123.164C78.096 124.768 78.3585 126.43 78.5043 128.092C78.5626 128.705 78.5918 129.288 78.6209 129.9C78.9709 130.396 79.3208 130.892 79.6999 131.359C80.2248 132.029 79.2625 132.758 78.6793 132.292C78.6793 134.275 78.5918 136.287 78.4751 138.27C78.4168 139.261 76.9004 139.116 76.7837 138.212L76.8129 138.299Z" fill="#007266"/>
<path d="M53.543 128.559C54.1846 127.917 54.7387 127.188 55.1469 126.372C56.2842 127.451 58.0631 128.151 59.4337 128.326C60.0753 128.413 60.7168 128.384 61.3584 128.267C59.5212 130.629 56.2842 129.521 53.543 128.559Z" fill="#007266"/>
<path d="M43.4229 132.233C42.169 131.971 41.0025 131.417 39.9818 130.659C39.4861 130.309 39.107 129.842 38.6987 129.405C40.4192 129.201 42.0815 128.53 43.1896 127.422C43.2479 127.393 43.2771 127.334 43.3354 127.305C44.3853 129.142 47.3889 130.629 49.2261 130.542C49.2553 130.542 49.2844 130.542 49.3428 130.542C47.6805 131.942 45.8725 132.758 43.4229 132.233Z" fill="#007266"/>
<path d="M65.9941 134.77C65.2943 134.858 64.5944 134.77 63.8362 134.391C63.1654 134.041 62.553 133.604 61.999 133.108C61.649 132.787 61.2991 132.437 60.92 132.175C60.92 132.029 60.92 131.854 60.92 131.679L60.92 131.65C62.1156 131.067 63.0488 130.104 63.4862 128.734C64.1278 129.871 64.711 131.067 65.1776 132.292C65.4984 133.108 65.7608 133.954 65.9941 134.77Z" fill="#007266"/>
<path d="M52.4348 136.666C51.0934 136.578 48.323 135.966 47.244 134.829C47.7106 134.595 48.1772 134.333 48.6438 134.012C50.0144 133.283 51.1517 132.117 51.7058 130.571C53.6013 132.029 56.4009 132.671 58.8213 132.292C58.6172 132.7 58.3839 133.079 58.1214 133.487C56.6633 135.295 54.6803 136.841 52.4348 136.695L52.4348 136.666Z" fill="#007266"/>
<path d="M36.1038 130.309C36.6579 131.446 37.7077 132.437 38.9325 133.167C40.3323 134.508 42.1111 135.354 44.0942 135.47C44.0942 135.645 44.1233 135.82 44.1816 135.966C42.8694 137.687 40.5947 138.591 38.4659 138.678C37.1536 138.736 35.958 138.445 34.7624 138.037C34.9665 135.441 35.3456 132.787 36.0746 130.309L36.1038 130.309Z" fill="#007266"/>
<path d="M60.0746 135.266C61.1536 136.17 62.6409 136.841 63.5449 137.074C64.5364 137.337 65.5571 137.337 66.4902 137.045C65.4696 138.911 63.9532 140.195 61.6202 140.486C59.6372 140.749 57.7708 140.195 56.4002 138.882C57.9458 138.066 59.2581 136.753 60.0746 135.266Z" fill="#007266"/>
<path d="M47.3014 144.656C44.1811 144.831 42.6063 142.207 40.5358 140.457C42.4022 139.932 43.9186 138.911 45.2309 137.482C47.0973 139.057 50.8008 139.815 52.4047 139.903C52.7255 139.932 53.0171 139.903 53.3379 139.874C51.9964 142.177 50.1301 144.54 47.3014 144.685L47.3014 144.656Z" fill="#007266"/>
<path d="M37.5332 140.807C36.5709 140.778 35.6085 140.661 34.6753 140.399C34.6462 140.749 34.6462 141.128 34.617 141.478C34.5587 142.411 34.5587 143.344 34.5295 144.277C35.8127 143.373 36.7458 142.148 37.5332 140.836L37.5332 140.807Z" fill="#007266"/>
<path d="M64.9446 144.102C64.1864 143.373 63.4865 142.586 62.7574 141.827C64.303 141.332 65.8486 140.34 66.7235 138.999C66.9276 141.186 66.8984 143.402 66.636 145.56C65.9653 145.21 65.2945 144.481 64.9154 144.102L64.9446 144.102Z" fill="#007266"/>
<path d="M50.6552 146.289C52.7549 145.094 54.5046 143.023 55.117 140.778C55.1753 140.603 55.2336 140.428 55.292 140.253C56.4001 141.332 57.8582 141.973 59.4038 142.148C59.4329 144.744 58.2373 147.077 56.0502 148.593C53.6297 150.255 50.8302 149.118 48.9055 147.252C49.0805 147.193 49.2846 147.106 49.4596 147.018C49.8387 146.843 50.247 146.61 50.6261 146.318L50.6552 146.289Z" fill="#007266"/>
<path d="M34.5003 146.61C36.2792 145.677 37.7956 144.102 38.6704 142.294C39.5161 143.665 40.8576 144.948 42.4032 145.852C43.3072 146.523 44.2987 147.047 45.3193 147.339C43.7738 148.856 42.2573 150.197 40.0702 150.751C38.9329 151.043 37.6206 151.072 36.4833 150.751C35.7542 150.547 35.2002 150.139 34.6169 149.73C34.5586 148.681 34.5294 147.631 34.5294 146.581L34.5003 146.61Z" fill="#007266"/>
<path d="M64.2445 153.988C63.428 153.755 62.6115 153.171 61.9407 152.647C60.8326 151.801 59.9286 150.576 58.8496 149.643C60.1327 148.418 61.2117 146.785 61.5908 145.094C62.8448 146.552 64.4778 147.981 66.2275 148.272C65.8193 150.226 65.236 152.151 64.5362 154.017C64.4487 154.017 64.3612 153.988 64.2445 153.959L64.2445 153.988Z" fill="#007266"/>
<path d="M51.325 156.7C48.1172 157.662 44.9094 155.446 42.8389 153.113C44.3262 152.209 45.6093 150.897 46.3384 149.322C46.4842 149.089 46.63 148.856 46.7175 148.593C47.8839 150.255 49.1962 151.83 51.2376 152.297C52.6957 152.647 54.1246 152.326 55.4077 151.713C55.5827 151.655 55.7576 151.597 55.9326 151.538C54.6495 153.551 53.7163 155.942 51.2959 156.671L51.325 156.7Z" fill="#007266"/>
<path d="M35.2287 156.554C35.0829 155.504 34.9662 154.455 34.8496 153.405C35.1704 153.521 35.4912 153.609 35.8119 153.667C36.7743 154.046 37.7658 154.28 38.7573 154.28C38.9906 154.28 39.253 154.25 39.4863 154.25C38.9614 154.892 38.2615 155.446 37.7075 156C37.4742 156.204 37.4158 156.467 37.4742 156.7C37.1242 156.875 36.7743 157.05 36.4535 157.167C36.1036 157.312 35.7536 157.4 35.4037 157.458C35.3453 157.138 35.287 156.846 35.2579 156.525L35.2287 156.554Z" fill="#007266"/>
<path d="M58.1499 159.587C57.3043 159.295 56.5169 158.858 55.7878 158.333C55.5254 158.158 55.2921 157.954 55.0588 157.75C56.5169 156.379 57.4792 154.455 58.0333 152.442C58.2958 152.676 58.5582 152.909 58.7915 153.113C59.8122 154.017 60.8912 154.95 62.116 155.592C62.5534 155.825 63.1366 156 63.749 156.088C63.1949 157.312 62.5825 158.537 61.941 159.733C60.687 159.966 59.5206 160.083 58.1791 159.645L58.1499 159.587Z" fill="#007266"/>
<path d="M55.205 166.323C54.0385 166.353 52.9304 166.119 51.8514 165.624C51.3265 165.39 50.889 165.04 50.4225 164.72C51.7347 163.524 52.6971 161.774 53.3095 160.054C53.8052 160.491 54.3885 160.87 55.0009 161.191C56.6048 162.328 58.5295 162.941 60.25 162.562C59.5501 163.757 58.7919 164.924 58.0337 166.061C57.0422 166.061 55.934 166.294 55.1758 166.323L55.205 166.323Z" fill="#007266"/>
<path d="M49.8104 167.752C51.0352 168.511 52.61 168.919 53.8056 169.065C54.6221 169.152 55.3512 169.094 56.1094 168.948C54.9429 170.61 53.6889 172.243 51.9101 173.264C50.0437 174.314 48.1482 174.46 46.136 173.731C45.5528 173.527 44.9695 173.293 44.3863 173.031C46.7776 171.952 48.9939 169.94 49.7813 167.782L49.8104 167.752Z" fill="#007266"/>
<path d="M44.8222 169.327C43.4516 170.173 42.081 170.465 40.6521 170.814C40.3021 170.523 39.9522 170.231 39.6314 169.881C38.1733 168.365 37.4151 166.44 36.8902 164.457C37.0943 164.282 37.2693 164.107 37.4442 163.903C37.9983 163.232 38.3191 162.474 38.4649 161.687C38.5232 161.57 38.5524 161.453 38.5816 161.337C40.6521 164.166 43.889 166.965 47.2426 166.119C47.5051 166.09 47.7384 166.061 47.9717 166.003C47.2135 167.344 46.2803 168.394 44.8222 169.298L44.8222 169.327Z" fill="#007266"/>
<path d="M36.0743 161.074C35.9868 160.666 35.8994 160.287 35.8119 159.879C36.2785 159.762 36.7159 159.558 37.1533 159.354C36.8325 159.966 36.4534 160.52 36.0743 161.074Z" fill="#007266"/>
<path d="M40.9734 155.242C42.1399 157.108 44.1229 158.479 46.2809 159.091C47.8556 159.733 49.547 159.995 51.2676 159.675C49.7512 161.862 47.8848 164.136 45.1144 162.912C42.694 161.833 40.886 159.733 39.2529 157.721C39.6612 157.254 39.9819 156.729 40.3027 156.204C40.5943 155.913 40.8276 155.592 41.0318 155.242L40.9734 155.242Z" fill="#007266"/>
<path d="M48.2642 127.947C47.1852 127.626 46.4854 126.693 45.6397 126.022C47.0103 125.322 48.2934 124.097 48.585 122.697C48.7891 122.902 48.9933 123.076 49.2266 123.251C50.5097 124.36 52.0553 125.293 53.6592 125.059C52.2886 126.722 50.4514 128.617 48.2642 127.976L48.2642 127.947Z" fill="#007266"/>
<path d="M59.5788 125.905C58.2082 125.614 57.3625 124.68 56.2835 123.98C56.9542 123.485 57.5375 122.872 57.9457 122.143C59.3163 123.193 60.5411 124.476 61.6201 125.876C60.9786 126.022 60.3078 126.051 59.5788 125.905Z" fill="#007266"/>
<path d="M52.347 122.639C51.5888 122.318 50.9472 121.793 50.3348 121.298C51.2097 120.86 51.9679 120.219 52.347 119.431C53.8634 119.781 55.2923 120.394 56.6338 121.239C55.584 122.493 53.8634 123.281 52.347 122.668L52.347 122.639Z" fill="#007266"/>
<path d="M42.8101 124.243C41.7311 124.126 40.9145 123.601 40.1855 122.96C41.0895 122.056 42.1685 121.239 43.4225 120.627C44.1807 121.152 45.2888 121.502 46.4553 121.618C46.6303 121.647 46.7761 121.706 46.9219 121.735C46.222 123.251 44.5014 124.447 42.8101 124.272L42.8101 124.243Z" fill="#007266"/>
<path d="M37.3285 127.072C37.6784 126.343 38.0867 125.614 38.5533 124.943C39.3407 125.526 40.2447 126.022 41.1487 126.314C41.1779 126.314 41.1779 126.314 41.207 126.343C39.9531 126.838 38.6408 127.13 37.3285 127.072Z" fill="#007266"/>
</svg>
