<svg width="99" height="134" viewBox="0 0 99 134" fill="none" xmlns="http://www.w3.org/2000/svg">
<path d="M49.3781 68.7851C49.5905 68.6621 49.8396 68.5595 50.052 68.4366C50.8781 68.7254 51.7042 69.0143 52.5589 69.295C51.1855 69.2563 49.7999 69.2831 48.4104 69.4038C48.7207 69.1908 49.0392 69.0063 49.3495 68.7933L49.3781 68.7851ZM110.779 58.5659L110.467 57.6958C109.393 58.1594 108.404 58.815 107.433 59.5277C106.504 58.7731 105.534 58.092 104.536 57.4192C103.382 56.6363 102.24 55.788 101.066 55.0419C100.46 54.6586 99.8138 54.349 99.0659 54.4401C98.9147 54.4526 98.8497 54.6571 98.9111 54.7633C99.4688 55.8415 100.402 56.5021 101.412 57.1095C102.623 57.876 103.835 58.6425 105.095 59.3639C105.581 59.6574 106.126 59.9345 106.653 60.1544C106.371 60.3592 106.09 60.564 105.816 60.7974C104.479 60.3459 103.121 59.9312 101.796 59.4142C100.369 58.8647 98.9453 58.2212 97.5505 57.5694C97.1905 57.3943 96.8591 57.2109 96.5074 57.0643C96.1924 56.9381 95.8285 56.8569 95.4853 56.9556C95.3138 57.0049 95.2487 57.2094 95.3552 57.3645C95.7566 57.8993 96.3171 58.2336 96.9184 58.4942C97.5933 58.7956 98.2886 59.0601 98.9839 59.3247C99.7528 59.63 100.485 59.915 101.225 60.2285C101.957 60.5134 102.669 60.8352 103.385 61.0629C103.896 61.2256 104.399 61.3597 104.943 61.4201C104.555 61.6864 104.146 61.9896 103.759 62.2559C103.293 62.5754 102.828 62.895 102.325 63.1942C101.933 62.9046 101.45 62.7337 100.996 62.5546C100.542 62.3755 100.08 62.1678 99.5972 61.9969C98.6606 61.6469 97.724 61.2969 96.7875 60.9468C96.6116 60.8736 96.3989 60.7799 96.2069 60.866C95.9864 60.9604 95.8641 61.1813 95.9013 61.4183C95.9795 61.7983 96.3806 62.1165 96.6548 62.3163C97.3586 62.8261 98.2337 63.07 99.0638 63.2648C99.5953 63.3907 100.119 63.4879 100.626 63.528C100.879 63.548 101.169 63.5884 101.415 63.5799C101.48 63.592 101.537 63.5756 101.603 63.5877C100.578 64.2229 99.5445 64.8295 98.4746 65.4157C98.1024 65.306 97.7385 65.2248 97.3378 65.1233C96.6386 64.9527 95.968 64.774 95.2891 64.5666C93.9683 64.1722 92.6799 63.6757 91.3834 63.1505C90.6431 62.8369 89.8906 62.5888 89.1016 62.5369C88.8768 62.5087 88.7259 62.7378 88.7835 62.938C88.8825 63.4978 89.3611 63.7627 89.8519 63.9622C90.5104 64.2064 91.1688 64.4506 91.8191 64.6662C93.1564 65.1177 94.5427 65.5242 95.9043 65.845C96.305 65.9465 96.6975 66.0194 97.09 66.0924C97.1269 66.1128 97.184 66.0963 97.2209 66.1167C97.0289 66.2028 96.8452 66.3176 96.6532 66.4037C96.1713 66.6661 95.6526 66.9081 95.1625 67.1419C95.0191 66.9663 94.8758 66.7908 94.7039 66.6235C94.36 66.2889 93.9589 65.9707 93.5457 65.718C92.711 65.1839 91.7662 64.8052 90.7849 64.6229C90.421 64.5417 90.1765 64.9836 90.4957 65.2324C91.6374 66.0807 92.8078 66.9208 93.9903 67.6955C93.4144 67.954 92.8671 68.2042 92.2829 68.434C91.3453 67.4341 90.2729 66.5039 89.168 65.676C87.9812 64.7786 86.7454 63.9264 85.4689 63.1477C85.1007 62.9439 84.7611 62.7319 84.3929 62.5282C84.0698 62.3734 83.7059 62.2922 83.4038 62.5338C83.2773 62.6321 83.2408 62.8284 83.3105 62.9632C83.9335 64.0535 84.8994 64.8286 85.9264 65.4931C87.0803 66.2761 88.3036 66.9771 89.4778 67.7232L91.2126 68.8036C89.4603 69.4931 87.675 70.0682 85.8651 70.5575C85.2917 69.8554 84.6408 69.2066 83.9898 68.5577C83.2735 67.8967 82.5489 67.2071 81.7835 66.5911C81.4726 66.3709 80.9942 66.3226 80.8806 66.7888C80.779 67.1895 81.119 67.6182 81.332 67.9285C81.8113 68.6266 82.4376 69.1897 83.1333 69.6709C83.7184 70.0909 84.3361 70.4088 84.9417 70.792C83.9897 71.0347 83.0295 71.2488 82.0897 71.426C82.0529 71.4057 82.0447 71.3771 81.9996 71.3281C81.8727 71.2098 81.7458 71.0914 81.6107 70.9445C81.3569 70.7078 81.0663 70.4508 80.8125 70.2141C80.2681 69.7204 79.744 69.1899 79.2486 68.6512C78.7531 68.1124 78.2577 67.5737 77.7909 67.0267C77.3608 66.5002 76.9226 65.945 76.4436 65.4634C75.9113 64.9043 75.3137 64.3331 74.6102 64.0399C74.2952 63.9137 74.0057 64.3065 74.1451 64.5761C75.4244 67.0878 77.5488 68.985 79.7668 70.6695C80.0861 70.9183 80.4053 71.1672 80.7163 71.3874C80.7981 71.4567 80.88 71.5261 80.9905 71.5872C79.4172 71.8227 77.8275 72.001 76.2131 72.0936C75.6719 71.0726 74.9306 70.1092 74.1567 69.248C73.2762 68.2316 72.2896 67.2768 71.2623 66.3955C70.6524 65.8897 69.9936 65.4289 69.2698 65.1725C68.8894 65.0342 68.563 65.4066 68.6045 65.7663C68.6663 66.0891 68.8711 66.3708 69.0677 66.6239C69.2929 66.8687 69.4895 67.1218 69.7433 67.3585C70.1937 67.8483 70.6931 68.293 71.1925 68.7377C72.183 69.5986 73.1939 70.4226 74.1437 71.3571C74.4057 71.6223 74.6677 71.8876 74.9012 72.1611C74.3453 72.1661 73.7894 72.171 73.2253 72.1474C71.9745 72.1045 70.7441 72.0247 69.5176 71.8509C69.4725 71.8019 69.4193 71.7244 69.4028 71.6672C69.2348 71.4058 69.0668 71.1445 68.907 70.9118C68.5628 70.3606 68.2472 69.8011 67.9519 69.2048C67.3082 67.9347 66.644 66.7013 65.8451 65.5377C65.6238 65.1988 65.374 64.8681 65.1241 64.5375C64.8742 64.2068 64.6244 63.8761 64.3255 63.5905C64.1536 63.4232 63.9205 63.3663 63.7082 63.4893C63.5162 63.5754 63.3736 63.8332 63.4393 64.062C63.6324 64.6257 63.7968 65.1977 64.0552 65.7736C64.2972 66.2923 64.5964 66.7946 64.9242 67.2886C65.6248 68.3257 66.4151 69.2441 67.1361 70.2443C67.3409 70.526 67.5458 70.8077 67.722 71.0976C67.8367 71.2814 67.9229 71.4734 68.0376 71.6571C67.0932 71.4951 66.1773 71.3249 65.2532 71.1261C65.0434 70.2886 64.7192 69.4839 64.4319 68.6995C64.0172 67.5803 63.5822 66.4978 63.1104 65.395C62.9463 65.0396 62.4398 65.2162 62.4076 65.5351C62.2907 66.5285 62.6152 67.5498 63.0295 68.4525C63.4273 69.2979 63.9231 70.0533 64.2924 70.907C64.2269 70.8948 64.1247 70.8623 64.0593 70.8501C63.3601 70.6796 62.6894 70.5008 62.0188 70.322C61.9942 70.2362 61.9409 70.1587 61.9245 70.1015C61.7768 69.8033 61.6864 69.4887 61.5674 69.1824C61.3661 68.59 61.1935 67.9895 61.0209 67.3889C60.6713 66.0651 60.3504 64.7332 59.8946 63.4709C59.6155 62.7152 59.1233 61.6492 58.1141 61.9083C57.7709 62.0069 57.5671 62.3751 57.7516 62.6936C58.4118 64.021 58.978 65.3444 59.4176 66.7661C59.5985 67.3953 59.7507 68.0327 59.9602 68.6536C60.1203 69.103 60.2518 69.5605 60.4978 69.9852C59.1851 69.6195 57.8643 69.2251 56.5434 68.8308C56.498 68.5652 56.424 68.3078 56.3786 68.0422C56.2221 67.2822 56.0084 66.5386 55.8232 65.7868C55.4243 64.2915 54.9479 62.8494 54.4346 61.3869C54.2005 60.6802 53.9006 59.7447 53.0094 59.6603C52.8214 59.6524 52.6662 59.7589 52.6215 59.9266C52.4628 60.3437 52.5493 60.7523 52.6358 61.1609C52.714 61.5409 52.8291 61.9413 52.9074 62.3213C53.1008 63.1017 53.3431 63.837 53.5937 64.601C54.0208 65.8715 54.5337 67.1173 55.0753 68.3549C54.6949 68.2165 54.2942 68.115 53.9138 67.9766C53.7866 67.6417 53.6225 67.2863 53.4381 66.9678C53.2207 66.5349 52.9748 66.1102 52.7289 65.6855C52.2617 64.9219 51.7373 64.1748 50.9559 63.7183C50.6245 63.5349 50.2817 63.8501 50.4089 64.1851C50.6266 64.8346 50.8647 65.4474 51.1885 66.0354C51.4427 66.4887 51.7172 66.9052 52.0489 67.3052C51.1942 67.0246 50.3598 66.7071 49.5337 66.4182C49.3286 65.9199 49.0744 65.4666 48.8406 64.9765C48.4839 64.274 48.0782 63.6166 47.6643 62.9306C47.2586 62.2732 46.8242 61.624 46.3613 60.983C45.9435 60.391 45.4641 59.6928 44.7688 59.4283C44.5276 59.3428 44.3277 59.617 44.4425 59.8007C44.5122 59.9355 44.5411 60.1439 44.5822 60.2869C44.6315 60.4585 44.6726 60.6015 44.722 60.7731C44.8124 61.0877 44.9314 61.394 45.0587 61.729C45.2967 62.3417 45.6123 62.9012 45.9852 63.4442C46.358 63.9872 46.8002 64.4484 47.2506 64.9382C47.3407 65.0361 47.3939 65.1137 47.484 65.2117C47.5987 65.3954 47.7503 65.5995 47.865 65.7833C46.6504 65.3274 45.4071 64.8798 44.2128 64.3872C43.722 64.1877 43.268 64.0086 42.7772 63.8091C42.7604 63.5352 42.6413 63.2289 42.5756 63.0001C42.4523 62.5711 42.2921 62.1218 42.1688 61.6928C41.865 60.8513 41.5326 60.018 41.1144 59.2093C41.0282 59.0174 40.7665 58.9687 40.591 59.1121C40.2114 59.407 40.2653 59.9178 40.3804 60.3182C40.5119 60.7758 40.6803 61.2537 40.8404 61.7031C41.0006 62.1524 41.1893 62.5936 41.4066 63.0265C41.4681 63.1327 41.4928 63.2185 41.5542 63.3246C40.3968 62.8524 39.2393 62.3801 38.1021 61.871C38.0117 61.5564 37.8927 61.25 37.7819 60.9723C37.5356 60.331 37.3179 59.6814 37.0717 59.0401C36.8336 58.4274 36.5873 57.786 36.3493 57.1733C36.1359 56.6464 35.9632 56.0458 35.5293 55.6132C35.3123 55.397 34.8998 55.5775 34.9616 55.9003C35.1925 57.1343 35.5174 58.3723 35.9567 59.5773C36.1497 60.1411 36.3999 60.6884 36.6501 61.2357C35.9752 60.9343 35.3003 60.6329 34.6172 60.303C34.3022 60.1767 34.0077 60.0137 33.6927 59.8875C33.6391 59.5933 33.5773 59.2705 33.4951 58.9845C33.306 58.3268 33.0883 57.6772 32.8217 57.0727C32.555 56.4682 32.2516 55.8433 31.9073 55.2921C31.7229 54.9736 31.5467 54.6836 31.3336 54.3733C31.2353 54.2468 31.137 54.1202 31.0387 53.9937C30.9322 53.8385 30.7767 53.7284 30.6702 53.5733C30.4654 53.2916 30.0121 53.5457 30.1025 53.8603C30.2301 54.4119 30.4721 54.9306 30.7427 55.4411C31.0215 55.9802 31.2635 56.4989 31.5137 57.0462C31.7639 57.5935 31.9773 58.1204 32.1703 58.6842C32.2278 58.8844 32.314 59.0764 32.3715 59.2765C31.5862 58.914 30.8212 58.5147 30.0358 58.1522C29.925 57.8744 29.7856 57.6049 29.6748 57.3271C29.4164 56.7512 29.1007 56.1917 28.8219 55.6526C28.1907 54.5337 27.5308 53.423 26.8016 52.3942C26.5435 52.0349 25.9515 52.4527 26.1524 52.8285C26.6854 53.8208 27.1204 54.9033 27.5961 55.9121C27.8299 56.4022 28.0637 56.8923 28.2606 57.3621C27.9825 57.2563 27.7248 57.1136 27.4467 57.0078C26.7063 56.6942 25.9782 56.3153 25.2093 56.01C25.1231 55.818 25.037 55.626 24.9794 55.4258C24.7907 54.9847 24.6102 54.5722 24.4214 54.131C24.0522 53.2774 23.7116 52.4155 23.2279 51.5947C23.0968 51.3537 22.6431 51.3913 22.6763 51.7223C22.6846 51.7509 22.6928 51.7795 22.701 51.8081C22.7342 52.1391 22.8533 52.4455 22.9805 52.7804C23.1242 53.1726 23.2679 53.5647 23.432 53.9201C23.6454 54.447 23.8301 54.9822 24.0353 55.4805C23.749 55.3461 23.4995 55.232 23.2131 55.0976C23.1803 54.9832 23.127 54.9056 23.0165 54.8445C22.7874 54.6936 22.4113 54.6779 22.1497 54.6293C21.4873 54.4791 20.8617 54.3493 20.1993 54.1991C19.5369 54.049 18.9113 53.9192 18.2775 53.7608C17.8114 53.6471 17.3248 53.5702 16.9248 53.9019C16.7779 54.0371 16.8233 54.3027 17.0277 54.3677C17.9561 54.6892 18.8966 54.9451 19.8575 55.1643C20.3236 55.278 20.7816 55.3631 21.2763 55.4686C21.5094 55.5254 21.7628 55.5455 21.9877 55.5737C22.1471 55.5898 22.372 55.6181 22.56 55.6259L22.9446 55.8869C22.7934 55.8994 22.6218 55.9487 22.4788 55.9898C22.0702 56.0763 21.6699 56.1914 21.2695 56.3065C20.4769 56.5653 19.7173 56.9385 18.9494 57.283C18.6513 57.4307 18.742 57.9619 19.0813 57.9573C20.0254 57.9026 20.9977 57.6231 21.9047 57.3314C22.3623 57.1999 22.8116 57.0398 23.2527 56.851C23.4733 56.7567 23.6939 56.6623 23.9062 56.5393C24.8882 57.155 25.8619 57.742 26.8357 58.329C24.4863 58.8805 22.1083 59.4402 20.1364 60.874C19.8833 61.0706 20.1128 61.4381 20.4153 61.413C22.8057 61.0045 25.1015 60.1589 27.1431 58.8599L27.3923 58.7573C27.4208 58.7491 27.4494 58.7408 27.4698 58.704C28.8404 59.4866 30.2434 60.1669 31.6383 60.8187C31.6751 60.839 31.7405 60.8512 31.7856 60.9002C31.6629 60.9045 31.5486 60.9373 31.4259 60.9416C30.6781 61.0328 29.9467 61.1811 29.1867 61.3376C27.6749 61.6793 26.2246 62.1272 24.7621 62.6404C24.513 62.743 24.4154 63.0497 24.5097 63.2703C24.6123 63.5195 24.8332 63.6417 25.1071 63.625C26.7457 63.4016 28.368 63.121 30.0188 62.8323C30.8156 62.6961 31.5757 62.5396 32.3314 62.2604C32.6663 62.1332 33.0667 62.0181 33.377 61.805C33.426 61.76 33.4832 61.7435 33.5608 61.6903C34.4198 62.0935 35.2705 62.4682 36.1581 62.8633C35.9783 62.884 35.8271 62.8965 35.6473 62.9172C35.0793 62.9876 34.4909 63.0948 33.9393 63.2224C32.8075 63.4859 31.6964 63.9291 30.7902 64.654C30.5371 64.8506 30.7544 65.2835 31.069 65.1931C32.2415 64.856 33.4059 64.4904 34.5784 64.1533C35.1218 63.9971 35.6651 63.841 36.1635 63.6358C36.3268 63.5579 36.4984 63.5085 36.6822 63.3938C36.8252 63.3527 36.9682 63.3116 37.1112 63.2705C37.9988 63.6655 38.8781 64.032 39.7657 64.427C38.6096 64.8213 37.4904 65.2359 36.3711 65.6505C35.6726 65.9132 35.0026 66.1677 34.3123 66.4591C33.671 66.7053 32.8334 66.9151 32.7244 67.7205C32.6879 67.9168 32.8681 68.1127 33.0439 68.186C33.6574 68.3812 34.2661 68.2371 34.8338 67.9501C35.4301 67.6549 36.0182 67.331 36.5859 67.044C37.8274 66.4084 39.0976 65.7647 40.2408 65.0026C40.3184 64.9493 40.4246 64.8878 40.5225 64.7978C40.5511 64.7895 40.5797 64.7813 40.6369 64.7649C40.8864 64.8789 41.1645 64.9847 41.414 65.0988C42.2198 65.4245 43.0623 65.7706 43.8967 66.088C42.1154 66.5691 40.3998 67.279 38.8154 68.2298C38.4969 68.4143 38.6409 69.0231 39.0413 68.908C40.1566 68.5874 41.2638 68.2382 42.3462 67.8031C42.8732 67.5898 43.4205 67.3395 43.9392 67.0976C44.1801 66.9664 44.4293 66.8638 44.6702 66.7326C44.7764 66.6711 44.9112 66.6014 45.046 66.5317C46.4733 67.0812 47.8639 67.6103 49.3034 68.0944C48.1677 68.4519 47.032 68.8093 45.8759 69.2035C44.4992 69.6921 43.1144 70.1522 41.787 70.8124C41.0846 71.1691 40.3985 71.583 39.8026 72.0949C39.5291 72.3283 39.775 72.753 40.0979 72.6912C41.7691 72.3656 43.4278 71.8888 45.0086 71.2486C45.7811 71.2433 46.5289 71.1522 47.3136 71.0814C48.7235 70.9238 50.162 70.758 51.5676 70.4778C52.3562 70.3131 53.1448 70.1483 53.8759 69.7833C53.9045 69.7751 53.9248 69.7383 53.9452 69.7015C54.939 70.035 55.9245 70.34 56.9101 70.645C54.8549 71.1429 52.8781 72.0207 51.0731 73.0659C50.4361 73.4348 49.8358 73.8241 49.2438 74.242C48.9907 74.4386 49.1509 74.8879 49.4615 74.8915C51.072 74.893 52.5094 74.0773 53.939 73.4496C54.7641 73.0886 55.5605 72.7358 56.3774 72.3462C57.1739 71.9934 57.9703 71.6406 58.7053 71.1816C59.6172 71.4458 60.4923 71.6897 61.4043 71.9539C61.4697 71.9661 61.5719 71.9986 61.6373 72.0107L61.6087 72.019C61.0736 72.2038 60.522 72.3314 59.9786 72.4875C59.2922 72.6848 58.6427 72.9025 57.9892 73.2142C56.7395 73.8212 55.6209 74.6691 54.6907 75.7414C54.6009 75.8601 54.6217 76.0399 54.7117 76.1379C54.81 76.2644 54.9695 76.2805 55.1043 76.2108C56.4727 75.6936 57.8083 75.062 59.0906 74.3528C59.7358 74.0125 60.3443 73.6519 60.9649 73.2258C61.2752 73.0127 61.5651 72.8365 61.8672 72.5949C61.9937 72.4966 62.0999 72.4351 62.2264 72.3368C62.2836 72.3203 62.3326 72.2753 62.3612 72.2671C62.3898 72.2589 62.4388 72.2138 62.4674 72.2056C64.1071 72.6321 65.7958 73.0136 67.4599 73.3093C67.3741 73.334 67.3169 73.3504 67.2311 73.3751C66.5243 73.6092 65.8011 73.7861 65.0944 74.0203C63.8361 74.382 62.6721 74.9643 61.6311 75.7589C61.0473 76.2054 60.5454 76.7212 60.0803 77.2574C59.8436 77.5112 60.1836 77.9398 60.4982 77.8494C63.0517 77.1463 65.5065 76.1001 67.7401 74.715C68.2913 74.3707 68.7975 73.9775 69.2669 73.5639C69.9129 73.6569 70.5792 73.7131 71.2169 73.7774C71.499 73.7892 71.7524 73.8093 72.0345 73.8211C71.7285 74.1567 71.4428 74.4556 71.0467 74.6933C70.6017 74.976 70.1033 75.1812 69.6665 75.4925C68.5926 76.1728 67.6334 77.0368 66.8298 78.0109C66.5116 78.4119 67.0521 78.9996 67.4768 78.7537C68.6815 78.0978 69.8698 77.3847 70.968 76.5736C71.5028 76.1722 72.0008 75.7504 72.4823 75.2714C72.719 75.0176 72.9557 74.7638 73.1555 74.4896C73.237 74.3423 73.3267 74.2237 73.4083 74.0764C73.449 74.0027 73.4694 73.9659 73.4815 73.9005C75.3823 73.9424 77.2705 73.8331 79.1626 73.6298C78.6689 74.1742 78.1466 74.7268 77.6365 75.214C77.1753 75.6562 76.7141 76.0984 76.2447 76.512C75.9952 76.3979 75.6764 76.3658 75.4515 76.3375C75.059 76.2646 74.6747 76.2202 74.2618 76.1841C73.4729 76.1322 72.6432 76.154 71.8832 76.3105C71.589 76.3642 71.6672 76.7442 71.9289 76.7928C72.6403 76.8979 73.372 76.9662 74.1038 77.0345C74.4513 77.0585 74.8273 77.0742 75.1666 77.0696C75.326 77.0857 75.4772 77.0732 75.6284 77.0607C75.159 77.4743 74.6814 77.8593 74.1752 78.2525C73.9708 78.1874 73.7459 78.1591 73.5782 78.1144C73.2226 78.0619 72.8383 78.0175 72.4908 77.9936C71.7387 77.9621 70.9826 78.0246 70.2226 78.1812C69.9856 78.2183 69.9495 78.6312 70.2111 78.6798C71.0616 78.8379 71.9324 78.9591 72.8236 79.0435C72.9462 79.0392 73.0484 79.0718 73.171 79.0675C72.8118 79.3256 72.4321 79.6205 72.0646 79.8499C71.987 79.9032 71.9095 79.9565 71.8605 80.0015L71.8115 80.0465C71.7829 80.0548 71.7829 80.0548 71.7829 80.0548C71.6278 80.1613 71.444 80.276 71.2889 80.3825C71.0561 80.5423 70.7948 80.7103 70.5539 80.8415C70.5253 80.8497 70.4599 80.8376 70.4313 80.8458C70.1002 80.879 69.761 80.8837 69.4586 80.9087C68.7883 80.9465 68.118 80.9844 67.456 81.0509C66.8511 81.1009 66.238 81.1223 65.6414 81.2009C65.102 81.2631 64.5504 81.3907 64.1053 81.6735C63.8726 81.8332 63.8937 82.2297 64.2411 82.2537C65.5491 82.2802 66.8325 82.2209 68.1319 82.0021C68.3403 81.9732 68.5487 81.9443 68.7572 81.9153C68.0629 82.3006 67.3687 82.686 66.6662 83.0427C65.4279 83.151 64.2018 83.1938 62.9878 83.1712C62.1784 83.1562 61.3609 83.1125 60.5719 83.0607C59.783 83.0088 59.0309 82.9773 58.2544 83.0767C58.0174 83.1138 57.9852 83.4327 58.1775 83.5632C59.2374 84.3422 60.7456 84.3111 62.0004 84.2601C62.8587 84.2301 63.7088 84.1715 64.5424 84.0557C63.8031 84.3921 63.0638 84.7284 62.3164 85.0362C61.818 85.2413 61.3483 85.4383 60.8417 85.6149C60.5064 85.5255 60.159 85.5015 59.8319 85.4407C59.8033 85.449 59.7664 85.4286 59.7378 85.4368C59.701 85.4164 59.6356 85.4043 59.5988 85.3839C59.014 85.1805 58.4781 84.932 57.9219 84.7203C56.838 84.2888 55.7134 83.9309 54.5119 84.0596C54.2463 84.105 54.251 84.4442 54.4147 84.5829C55.3723 85.3294 56.5745 85.634 57.7642 85.7874C58.3733 85.86 58.9743 85.904 59.5834 85.9766C59.6488 85.9887 59.6774 85.9805 59.7428 85.9927C59.7796 86.0131 59.8082 86.0048 59.8165 86.0334C59.7879 86.0417 59.7307 86.0581 59.7021 86.0663C59.6163 86.091 59.5305 86.1156 59.4529 86.1689C59.3957 86.1853 59.3671 86.1936 59.3385 86.2018C59.3099 86.21 59.3099 86.21 59.3099 86.21L59.2813 86.2182C58.9178 86.3537 58.5746 86.4523 58.211 86.5878C57.5615 86.8055 56.9037 86.9946 56.2542 87.2122C55.7301 86.6817 54.9244 86.356 54.2495 86.0546C53.3333 85.6678 52.3967 85.3178 51.4887 84.9596C51.276 84.8659 51.0633 84.7722 50.8303 84.7154C50.6544 84.6421 50.4417 84.5484 50.2211 84.6428C49.8086 84.8233 49.9973 85.2644 50.2715 85.4643C51.0204 86.0231 51.8876 86.4549 52.767 86.8214C53.5073 87.1349 54.2516 87.3544 54.9958 87.574C53.7661 87.9275 52.5485 88.2155 51.2941 88.4832C51.2859 88.4546 51.2408 88.4057 51.204 88.3853C51.0156 88.1608 50.8559 87.928 50.6757 87.7321C50.2989 87.2831 49.8407 86.9814 49.3252 86.6961C48.8179 86.4394 48.3393 86.1745 47.8524 85.881C47.3287 85.5671 46.8133 85.2818 46.3589 84.8861C46.3139 84.8371 46.2199 84.8332 46.1627 84.8496L46.1258 84.8292C45.8803 84.6212 45.5621 85.0223 45.7791 85.2385C47.1628 86.6056 48.7056 87.7721 50.3911 88.6809C50.0397 88.7509 49.6883 88.821 49.3083 88.8992C48.9855 88.9611 48.6341 89.0311 48.3113 89.093C48.2745 89.0726 48.2745 89.0726 48.2376 89.0522C47.9306 88.738 47.5174 88.4852 47.1613 88.216C46.7316 87.9061 46.2937 87.5675 45.8641 87.2576C45.0415 86.658 44.1454 86.0178 43.103 85.9459C42.8781 85.9176 42.7233 86.2408 42.8953 86.4081C43.6527 87.2121 44.61 87.7419 45.5877 88.2349C46.0867 88.463 46.5572 88.6993 47.0644 88.956C47.2403 89.0293 47.3958 89.1394 47.5799 89.2413C46.6401 89.4186 45.7206 89.559 44.7644 89.6791C44.3761 89.7288 43.9593 89.7866 43.5711 89.8363C43.5339 89.5993 43.3742 89.3666 43.2473 89.2483C42.9155 88.8482 42.5348 88.4932 42.1541 88.1382C41.3927 87.4283 40.5252 86.7798 39.6047 86.2703C39.3469 86.1277 39.1349 86.4673 39.3437 86.655C39.6794 86.961 39.9743 87.3406 40.2692 87.7203C40.5641 88.0999 40.859 88.4796 41.1743 88.8224C41.4609 89.1735 41.8048 89.5081 42.1323 89.7855C42.2141 89.8549 42.296 89.9242 42.3778 89.9936C41.724 90.0886 41.0334 90.1633 40.3592 90.2952C40.3223 90.2748 40.2855 90.2544 40.2283 90.2709C39.7339 90.382 39.2885 90.4481 38.7816 90.4081C38.2747 90.368 37.7882 90.2911 37.2731 90.2225C36.3 90.0687 35.2698 89.9314 34.3221 90.2967C34.1015 90.3911 34.143 90.7507 34.3474 90.8158C35.3902 91.1043 36.5062 91.217 37.6098 91.1784C38.3168 91.1609 39.0279 91.0494 39.6939 90.8889C39.8819 90.8968 40.0985 90.8965 40.2866 90.9043C40.6626 90.9201 41.0305 90.9072 41.4187 90.8575C41.9949 90.8157 42.5712 90.7739 43.1475 90.7321C42.5801 91.2358 41.8244 91.515 41.1259 91.7777C40.6765 91.9378 40.2272 92.0979 39.7943 92.3153C39.3613 92.5326 38.8794 92.795 38.5981 93.2164C38.4472 93.4456 38.6928 93.6536 38.9216 93.5879C39.8775 93.2511 40.8088 92.8287 41.6785 92.3C42.1032 92.054 42.5197 91.7795 42.9279 91.4764C43.2586 91.2265 43.5811 90.9481 43.8749 90.6778C44.8394 90.5864 45.7957 90.4663 46.7805 90.338C46.6826 90.4281 46.556 90.5264 46.4581 90.6165C46.0091 90.9932 45.5314 91.3782 45.0907 91.7836C44.1926 92.5371 43.2743 93.3274 42.3762 94.081C42.1803 94.2611 42.3444 94.6165 42.6018 94.5425C43.705 94.2873 44.6727 93.6685 45.5135 92.9314C45.9339 92.5629 46.3379 92.1372 46.7501 91.74C46.848 91.6499 46.9664 91.523 47.0561 91.4044C47.1948 91.2406 47.3417 91.1055 47.4804 90.9418C47.7171 90.688 47.9538 90.4342 48.1168 90.1396C48.2026 90.115 48.268 90.1271 48.3538 90.1025C49.0076 90.0074 49.6818 89.8755 50.3357 89.7805C50.1683 89.9524 50.0296 90.1161 49.8623 90.2881C49.4462 90.7792 49.0669 91.2908 48.6876 91.8023C48.0473 92.6985 47.3867 93.6315 46.5376 94.3399C46.3825 94.4465 46.2641 94.5734 46.1376 94.6717C45.8355 94.9133 46.2327 95.3255 46.5144 95.1207C47.584 94.3178 48.6003 93.4374 49.5184 92.4304C49.9631 91.931 50.4078 91.4317 50.8075 90.8833C51.146 90.4454 51.5132 89.9993 51.7413 89.5003C52.8527 89.2737 53.9355 89.0553 55.0387 88.8001C54.802 89.0539 54.5857 89.2709 54.3491 89.5247C53.7982 90.0855 53.2308 90.5892 52.6349 91.1011C52.039 91.613 51.4348 92.0963 50.8306 92.5795C50.5286 92.8212 50.2183 93.0342 49.908 93.2473C49.5977 93.4603 49.2956 93.702 49.2595 94.1148C49.2516 94.3029 49.4725 94.4251 49.6073 94.3554C51.69 93.1994 53.58 91.6963 55.1262 89.8586C55.3629 89.6048 55.5627 89.3306 55.7625 89.0564C55.8727 88.901 55.9828 88.7455 56.0847 88.5614C56.5136 88.438 56.9222 88.3516 57.3512 88.2282C57.9232 88.0638 58.5238 87.8912 59.0957 87.7268C58.9978 87.8169 58.9284 87.8987 58.8508 87.952C58.5977 88.1486 58.3529 88.3738 58.0712 88.5786C57.5732 89.0004 57.067 89.3936 56.5976 89.8072C56.0996 90.229 55.6384 90.6712 55.1773 91.1134C54.7447 91.5473 54.3286 92.0385 54.0966 92.6315C53.999 92.9382 54.3589 93.1134 54.5917 92.9536C55.6695 92.1794 56.7062 91.2621 57.6242 90.2552C58.069 89.7558 58.5137 89.2564 58.9216 88.7366C59.1214 88.4625 59.3213 88.1883 59.4925 87.9223L59.5129 87.8855C59.5701 87.8691 59.5822 87.8037 59.6026 87.7668C59.6434 87.6932 59.7045 87.5827 59.7453 87.5091C60.5378 87.2503 61.3589 86.9833 62.1433 86.6959C62.1229 86.7328 62.1025 86.7696 62.0821 86.8064C62.0496 86.9086 62.0088 86.9823 61.9477 87.0927C61.8987 87.1378 61.858 87.2114 61.8376 87.2482C61.4379 87.7966 61.075 88.3653 60.7572 88.983C60.1051 90.1612 59.6003 91.421 59.1978 92.7132C59.1327 92.9177 59.3661 93.1912 59.5702 93.0396C60.0725 92.7404 60.2391 92.1352 60.4672 91.6362C60.7564 91.0267 61.0171 90.4254 61.3063 89.816C61.5955 89.2065 61.8561 88.6052 62.1454 87.9957L62.5486 87.1367C62.6098 87.0263 62.6709 86.9158 62.7238 86.7767C62.8053 86.6295 62.895 86.5108 62.9848 86.3921C63.5975 86.1541 64.2102 85.916 64.7861 85.6576C64.464 86.1527 64.1419 86.6478 63.8566 87.1632C63.2249 88.3046 62.6669 89.4868 62.211 90.7015C62.1052 90.9796 62.4652 91.1548 62.6325 90.9828C64.4042 89.6066 64.8747 87.366 65.5908 85.3334C65.6112 85.2966 65.6112 85.2966 65.6398 85.2883C65.7746 85.2186 65.889 85.1857 66.0237 85.116C66.7916 84.7715 67.5227 84.4065 68.2455 84.013C67.4354 86.0416 66.7357 88.1314 66.0729 90.2416C65.9549 90.5851 66.4253 90.8214 66.6455 90.5104C67.4735 89.4055 68.146 88.1904 68.6711 86.8939C68.9236 86.264 69.1391 85.6138 69.3261 84.9718C69.4806 84.432 69.6186 83.835 69.6054 83.2505C70.32 82.8284 71.006 82.4144 71.6838 81.9719C71.6513 82.0741 71.6473 82.1682 71.6148 82.2704L71.3431 83.587C71.1564 84.4456 71.0066 85.3247 70.8282 86.2119C70.7917 86.4082 70.8493 86.6084 71.0537 86.6734C71.2582 86.7385 71.4706 86.6155 71.5153 86.4479C71.8367 85.5195 72.0641 84.5872 72.2178 83.6142C72.3029 83.1563 72.3512 82.678 72.3709 82.2079C72.387 82.0484 72.3948 81.8604 72.3741 81.6806C72.3863 81.6152 72.3698 81.558 72.3534 81.5008C72.876 81.1648 73.3905 80.8002 73.8763 80.4438C73.9135 80.6808 73.9424 80.8892 73.9796 81.1262C73.976 81.4369 74.001 81.7393 73.9974 82.0499C73.9938 82.3606 73.982 82.6426 73.9498 82.9615C73.8729 83.448 73.7961 83.9345 73.6906 84.4293C73.3538 85.9503 72.9598 87.4878 72.529 89.005C72.4639 89.2094 72.5665 89.4586 72.7995 89.5154C73.0408 89.6009 73.2164 89.4575 73.31 89.2449C73.8395 88.0709 74.2299 86.8441 74.4813 85.5643C74.7326 84.2846 74.8818 82.9723 74.8511 81.6807C74.8297 81.0676 74.8082 80.4545 74.6438 79.8826C75.2072 79.4729 75.7338 79.0429 76.2522 78.5843C76.2157 78.7805 76.216 78.9972 76.1796 79.1934C76.1152 79.8312 76.014 80.4485 75.8842 81.0741C75.7544 81.6997 75.6164 82.2967 75.4294 82.9387C75.3157 83.4048 75.1613 83.9446 75.4358 84.3611C75.5874 84.5652 75.9062 84.5974 76.0121 84.3193C76.4354 83.2068 76.7564 82.0618 76.9098 80.8722C77.035 79.9073 77.1437 78.8853 77.0154 77.9005C77.4848 77.4869 77.9256 77.0815 78.3581 76.6476C78.3996 77.0072 78.4614 77.33 78.5029 77.6896C78.5858 78.4089 78.6033 79.1159 78.5922 79.8313C78.581 80.5466 78.5045 81.2497 78.428 81.9529C78.3432 82.6274 78.2789 83.2652 78.5251 83.9065C78.6359 84.1843 79.0445 84.0978 79.13 83.8565C79.9151 81.5254 80.1604 79.0399 79.8009 76.6044C79.7512 76.2161 79.673 75.8361 79.5375 75.4726C80.1781 74.793 80.8105 74.0849 81.4347 73.3482C81.4837 73.3031 81.5041 73.2663 81.5531 73.2213C83.0609 72.9736 84.5441 72.6401 86.0394 72.2413L86.0191 72.2781C85.9375 72.4254 85.8192 72.5522 85.7377 72.6995C85.5461 73.0023 85.3176 73.2847 85.126 73.5875C84.7346 74.1644 84.3145 74.7496 83.923 75.3266C83.5316 75.9035 83.1115 76.4887 82.7283 77.0942C82.4266 77.5525 81.7573 78.2403 82.1384 78.8119C82.1466 78.8405 82.1834 78.8609 82.1834 78.8609C82.2163 78.9753 82.3268 79.0364 82.4208 79.0403C82.5598 79.0932 82.711 79.0807 82.858 78.9456C83.8046 77.9304 84.6898 76.809 85.4359 75.6348C86.182 74.4605 86.8094 73.1965 87.3346 71.8999C88.3641 71.604 89.3772 71.2508 90.3904 70.8977C89.6489 72.4112 88.8706 73.9044 87.7895 75.2059C86.5983 76.6629 85.2638 77.9444 84.0358 79.3811C83.3627 80.1628 82.7346 80.9936 82.1965 81.9223C81.9724 82.3273 82.4185 82.6945 82.7778 82.4364C84.3618 81.2689 85.9212 80.0157 87.2349 78.5544C88.6181 77.0112 89.7271 75.2682 90.6437 73.3947C91.1367 72.417 91.5847 71.3903 91.8732 70.3476C93.0414 69.8879 94.1729 69.4079 95.2879 68.8706C95.4798 68.7845 95.6432 68.7066 95.8066 68.6286C95.5499 69.1359 95.2932 69.6431 95.0651 70.1422C94.8492 70.5758 94.6701 71.0298 94.4624 71.492C94.4052 71.5084 94.3644 71.5821 94.3522 71.6475C94.2872 71.8519 94.2221 72.0564 94.1202 72.2405C94.0998 72.2773 94.0877 72.3428 94.0673 72.3796C93.3748 73.8481 92.7191 75.3369 92.1003 76.8462C91.7256 77.697 91.3878 78.5681 91.0499 79.4393C90.9115 79.8196 91.4066 80.1417 91.7005 79.8715C92.9371 78.6801 93.9116 77.2234 94.6448 75.6813C95.0156 74.9245 95.3413 74.1188 95.6016 73.3009C95.8618 72.483 96.1221 71.6651 96.3087 70.8064C96.4142 70.3117 96.4993 69.8537 96.5762 69.3672C96.6045 69.1424 96.6899 68.9011 96.6813 68.6558C96.6974 68.4964 96.6931 68.3738 96.7092 68.2144C97.767 67.6936 98.788 67.1524 99.8008 66.5826C99.1354 69.6533 97.6317 72.5005 96.3447 75.3474C95.9292 76.2719 95.5138 77.1963 95.172 78.1615C95.0987 78.3373 95.1931 78.5579 95.369 78.6312C95.5531 78.7331 95.745 78.6469 95.8552 78.4914C97.3688 76.7559 98.5836 74.7348 99.4548 72.5957C99.4716 72.8695 99.8888 73.0283 100.06 72.7623C100.753 71.5105 101.474 70.2504 101.991 68.9252C102.235 68.2668 102.451 67.6165 102.622 66.9173C102.772 66.2549 102.926 65.4985 102.765 64.8325L102.757 64.8039C103.202 64.5212 103.647 64.2384 104.084 63.9271C103.886 65.2844 103.537 66.6542 103.302 67.9912C103.176 68.7394 103.059 69.5162 103.028 70.2683C102.996 70.8038 102.887 71.8258 103.586 71.9964C103.754 72.0411 103.917 71.9632 103.962 71.7955C104.462 70.1965 104.803 68.5815 105.013 66.9421C105.178 65.687 105.278 64.4197 105.191 63.1446C105.55 62.8865 105.889 62.6653 106.248 62.4072C106.656 62.104 107.044 61.8377 107.452 61.5346C107.461 61.5632 107.44 61.6 107.448 61.6286C107.416 61.9475 107.413 62.2582 107.381 62.577C107.368 62.6424 107.364 62.7365 107.381 62.7937C106.728 66.2322 106.068 69.6422 105.415 73.0807C105.269 73.8657 104.862 75.0354 105.57 75.6678C105.779 75.8555 106.11 75.8222 106.216 75.5441C107.587 71.806 108.349 67.7787 108.31 63.765C108.305 63.2091 108.309 62.6818 108.246 62.1424C108.295 61.8807 108.344 61.619 108.392 61.3574C108.437 61.1897 108.388 61.0181 108.24 60.9366C108.747 60.5434 109.216 60.1298 109.648 59.6958C110.032 59.3069 110.416 58.918 110.799 58.5291L110.779 58.5659ZM101.953 65.3447C101.92 65.447 101.888 65.5492 101.863 65.6801C101.774 66.0154 101.676 66.3221 101.579 66.6288C101.371 67.3076 101.185 67.9496 100.94 68.6081C100.648 69.5282 100.318 70.428 99.9596 71.336C100.314 70.3054 100.594 69.234 100.78 68.1588C100.877 67.6354 100.93 67.0631 100.961 66.5276C100.961 66.311 100.998 66.1147 100.969 65.9063C101.287 65.7219 101.606 65.5374 101.916 65.3244L101.953 65.3447Z" fill="#006B60"/>
<path d="M81.6138 92.4931C81.5026 91.9987 81.4118 91.4675 81.2721 90.9813C81.5495 90.6539 81.8637 90.3468 82.1411 90.0194C82.1494 90.048 82.129 90.0848 82.1372 90.1134C82.0968 90.4037 82.0768 90.6571 82.0281 90.9188C81.9473 91.4993 81.8093 92.0963 81.6917 92.6565C81.6917 92.6565 81.6999 92.6851 81.6713 92.6933C81.6549 92.6361 81.6302 92.5503 81.6138 92.4931ZM82.7435 98.5774C82.5369 97.2126 82.2935 95.8273 82.0298 94.4789C82.0133 94.4217 81.9887 94.3359 82.0008 94.2705C82.245 93.612 82.4238 92.9414 82.5943 92.2422C82.7445 91.5798 82.8496 90.8684 82.8607 90.1531C82.9011 89.8628 82.9784 89.5929 82.8962 89.307C82.8879 89.2784 82.8797 89.2498 82.8715 89.2212C83.3448 88.7136 83.7813 88.1856 84.2178 87.6576C84.2139 87.7516 84.21 87.8456 84.2346 87.9314C84.2603 88.6671 84.38 89.4068 84.557 90.1299C84.7257 90.8245 84.9884 91.523 85.3001 92.1765C85.6568 92.879 86.0993 93.5568 86.2559 94.3168C86.367 94.8112 87.1353 94.6832 87.0241 94.1888C86.7153 92.7914 86.4147 91.4227 86.0201 90.0499C85.831 89.3922 85.6052 88.714 85.3875 88.0645C85.297 87.7499 85.1698 87.4149 85.0508 87.1086C85.0343 87.0514 85.0179 86.9942 85.0014 86.937C85.0054 86.843 85.0093 86.7489 85.0133 86.6549C85.8208 85.5868 86.5834 84.4697 87.2437 83.3201C87.366 83.0992 87.4882 82.8783 87.5819 82.6656C87.5744 83.0702 87.5751 83.5035 87.5675 83.9082C87.5539 85.584 87.6343 87.2638 87.7146 88.9436C87.7228 88.9722 87.7025 89.009 87.7107 89.0376C87.7314 89.2174 87.9237 89.3479 88.1035 89.3272C88.3202 89.3268 88.4303 89.1713 88.4667 88.9751C88.7506 87.5931 88.8833 86.2236 88.8852 84.8298C88.8759 84.1513 88.8666 83.4728 88.7919 82.7822C88.7255 82.1201 88.6998 81.3844 88.5189 80.7553C89.191 79.3236 89.7813 77.8226 90.3716 76.3215C90.4245 76.1825 90.4774 76.0434 90.5303 75.9044C90.8187 77.3386 91.0213 78.7975 91.1382 80.281C91.151 80.6488 91.2007 81.0371 91.2136 81.4049C91.2446 82.9131 91.2102 84.4091 91.0818 85.9013C91.0174 86.539 91.9944 86.5987 92.067 85.9896C92.3088 83.8147 92.3625 81.632 92.1341 79.4374C92.0384 78.3503 91.8568 77.2879 91.6467 76.2337C91.5273 75.7107 91.4365 75.1794 91.2885 74.6647C91.2474 74.5217 91.1695 74.3583 91.1284 74.2153C91.2464 73.8718 91.344 73.5651 91.462 73.2215C91.5031 73.3645 91.5156 73.5158 91.5567 73.6587C91.7254 74.3533 91.9023 75.0765 92.1282 75.7547C92.5432 77.0906 93.0686 78.4876 93.79 79.7045C93.9826 80.0516 94.6568 79.9197 94.5253 79.4622C94.3033 78.69 94.1672 77.8932 93.9452 77.121C93.7519 76.3406 93.5299 75.5685 93.2793 74.8045C93.037 74.0692 92.7743 73.3707 92.4175 72.6682C92.3232 72.4476 92.192 72.2067 92.069 71.9943C92.0362 71.88 91.9829 71.8024 91.9296 71.7248C92.0515 71.2873 92.2021 70.8415 92.3158 70.3753C91.7477 70.4457 91.2126 70.6305 90.6692 70.7867C90.4976 70.8361 90.3464 70.8486 90.2156 70.8242C90.1709 70.9919 90.1262 71.1596 90.0529 71.3354C89.8659 71.9775 89.6503 72.6277 89.4633 73.2697C89.2142 73.3723 88.9732 73.5035 88.7323 73.6347C88.4138 73.8191 88.0666 74.0118 87.7481 74.1962C87.1111 74.5651 86.4823 74.9626 85.882 75.3519C84.6244 76.1469 83.3585 76.9132 81.9697 77.4673C81.5286 77.656 81.7831 78.3259 82.2285 78.2598C83.7853 77.9671 85.2599 77.3884 86.632 76.5605C87.318 76.1466 87.9304 75.6919 88.5181 75.1514C88.714 74.9713 88.8813 74.7993 89.0486 74.6274C89.0364 74.6928 88.9957 74.7665 88.9918 74.8605C88.5892 76.1527 88.1212 77.4328 87.6082 78.664C86.0467 78.6174 84.4856 78.7875 82.9123 79.023C81.1878 79.2711 79.4387 79.4333 77.8089 80.1185C77.3106 80.3237 77.6101 81.0426 78.0924 80.9968C79.8905 80.7896 81.689 80.7989 83.4667 80.6285C84.3454 80.5617 85.1994 80.4091 86.0574 80.1625C86.4005 80.0638 86.7437 79.9652 87.0787 79.8379C86.7977 80.476 86.4799 81.0937 86.1906 81.7032C86.1499 81.7768 86.1295 81.8136 86.0887 81.8873C85.8231 81.9327 85.5904 82.0925 85.3495 82.2236C85.2637 82.2483 85.2065 82.2647 85.1207 82.2894C83.7765 82.6758 82.4324 83.0622 81.0883 83.4485C79.6012 83.876 78.069 84.2545 76.7091 85.017C76.2844 85.2629 76.4857 85.8552 76.9679 85.8095C78.717 85.6473 80.4208 85.2195 82.0752 84.62C82.8881 84.3244 83.656 83.9799 84.4361 83.5699C84.677 83.4387 84.9179 83.3075 85.1507 83.1477C85.2651 83.1148 85.3509 83.0902 85.4653 83.0573C84.8865 84.0596 84.2708 85.0416 83.5816 85.9828C83.553 85.991 83.5244 85.9992 83.4958 86.0075C82.0866 86.5983 80.6406 87.1688 79.2314 87.7596C78.5411 88.051 77.8222 88.3505 77.1319 88.6418C76.4988 88.9167 75.8371 89.1998 75.2901 89.6666C74.9962 89.9369 75.2382 90.4556 75.6182 90.3773C77.1954 90.0478 78.7233 89.5467 80.2019 88.8739C80.835 88.5991 81.4516 88.267 82.0601 87.9063C81.9907 87.9882 81.9214 88.07 81.852 88.1519C81.1177 89.0441 80.367 89.8792 79.6327 90.7714C79.1916 90.9601 78.73 91.1857 78.2889 91.3744C77.6068 91.6943 76.9165 91.9856 76.2427 92.3342C74.8867 93.0026 73.5472 93.7282 72.2077 94.4538C71.8034 94.6629 71.9843 95.2921 72.4583 95.2178C74.2604 94.9165 76.0864 94.2677 77.6625 93.2883C77.3444 93.6894 77.063 94.1109 76.7448 94.5119C76.5858 94.7125 76.4553 94.9048 76.333 95.1257C76.1614 95.175 75.998 95.2529 75.8347 95.3309C75.5283 95.4499 75.2588 95.5893 74.9524 95.7083C74.3765 95.9668 73.8088 96.2538 73.2493 96.5694C72.1304 97.2007 71.0933 97.9013 70.1177 98.7081C69.7667 98.9948 70.1435 99.4438 70.507 99.3083C71.6263 98.8937 72.6923 98.4015 73.7254 97.7949C74.1991 97.5039 74.6442 97.2212 75.1096 96.9016C74.8283 97.3231 74.5552 97.7731 74.3106 98.2149C74.168 98.4727 74.0253 98.7304 73.8745 98.9595C73.7358 99.1233 73.5602 99.2666 73.4051 99.3731C73.2621 99.4142 73.1438 99.5411 73.0172 99.6394C72.8703 99.7745 72.7233 99.9097 72.5682 100.016C72.5478 100.053 72.4906 100.069 72.4702 100.106C72.3151 100.213 72.1885 100.311 72.0334 100.418C71.1515 101.012 70.2982 101.598 69.3998 102.134C69.0037 102.372 69.3154 103.026 69.7197 102.817C70.7039 102.255 71.6716 101.636 72.5574 100.948C72.7126 100.842 72.8391 100.743 72.9861 100.608C72.9453 100.682 72.9046 100.755 72.872 100.858C72.8066 100.846 72.778 100.854 72.729 100.899C72.3251 101.325 72.0398 101.84 71.644 102.294C71.2483 102.749 70.7871 103.191 70.3463 103.596C69.4362 104.415 68.4727 105.157 67.5093 105.898C67.2562 106.095 67.5307 106.511 67.8206 106.335C68.9968 105.687 70.2669 105.043 71.2382 104.114C71.6504 103.717 72.0461 103.262 72.3765 102.796C72.5885 102.456 72.8902 101.998 72.9467 101.548C73.5298 100.669 74.1497 99.8093 74.741 98.9581C74.9816 98.6103 75.2508 98.2543 75.4914 97.9065C75.4553 98.3194 75.456 98.7526 75.4567 99.1859C75.4502 100.24 75.4723 101.287 75.523 102.325C75.5355 102.476 75.691 102.586 75.8219 102.611C76.337 102.679 76.4832 102.111 76.4704 101.743C76.4857 101.15 76.4357 100.545 76.4225 99.9609C76.38 98.9514 76.3089 97.9501 76.1806 96.9653C76.4906 96.5356 76.7802 96.1427 77.0983 95.7417C77.3268 95.4593 77.5756 95.1401 77.804 94.8577C77.8083 94.9803 77.8208 95.1315 77.7965 95.2623C77.7893 95.8836 77.8108 96.4967 77.8608 97.1015C77.9894 98.303 78.2693 99.492 78.8269 100.57C79.0278 100.946 79.5261 100.741 79.505 100.344C79.4418 99.155 79.35 97.9738 79.1724 96.8174C79.0937 96.2208 78.9948 95.661 78.9161 95.0643C78.8582 94.6475 78.7921 94.2021 78.6688 93.7731C79.2522 93.11 79.8357 92.4469 80.4191 91.7838C80.4234 91.9064 80.4073 92.0659 80.4116 92.1885C80.4087 92.9324 80.4998 93.6802 80.6481 94.4116C80.6935 94.6772 80.7675 94.9346 80.8129 95.2002C80.7275 95.4415 80.6216 95.7196 80.5362 95.9609C80.3896 96.3127 80.909 96.504 81.0802 96.238C81.3269 97.096 81.6021 97.9457 81.9059 98.7872C82.0578 99.208 82.6992 98.9617 82.6413 98.5449L82.7435 98.5774Z" fill="#006B60"/>
</svg>
